0
SECTION
2
HEADER
9
$INSUNITS
70
4
9
$ACADVER
1
AC1014
9
$HANDSEED
5
FFFF
0
ENDSEC
0
SECTION
2
TABLES
0
TABLE
2
VPORT
5
8
100
AcDbSymbolTable
0
ENDTAB
0
TABLE
2
LTYPE
5
5
100
AcDbSymbolTable
0
LTYPE
5
14
100
AcDbSymbolTableRecord
100
AcDbLinetypeTableRecord
2
BYBLOCK
70
0
0
LTYPE
5
15
100
AcDbSymbolTableRecord
100
AcDbLinetypeTableRecord
2
BYLAYER
70
0
0
ENDTAB
0
TABLE
2
LAYER
5
2
100
AcDbSymbolTable
70
2
0
LAYER
5
50
100
AcDbSymbolTableRecord
100
AcDbLayerTableRecord
2
0
70
0
6
CONTINUOUS
0
ENDTAB
0
TABLE
2
STYLE
5
3
100
AcDbSymbolTable
70
1
0
STYLE
5
11
100
AcDbSymbolTableRecord
100
AcDbTextStyleTableRecord
2
STANDARD
70
0
0
ENDTAB
0
TABLE
2
VIEW
5
6
100
AcDbSymbolTable
70
0
0
ENDTAB
0
TABLE
2
UCS
5
7
100
AcDbSymbolTable
70
0
0
ENDTAB
0
TABLE
2
APPID
5
9
100
AcDbSymbolTable
70
2
0
APPID
5
12
100
AcDbSymbolTableRecord
100
AcDbRegAppTableRecord
2
ACAD
70
0
0
ENDTAB
0
TABLE
2
DIMSTYLE
5
A
100
AcDbSymbolTable
70
1
0
ENDTAB
0
TABLE
2
BLOCK_RECORD
5
1
100
AcDbSymbolTable
70
1
0
BLOCK_RECORD
5
1F
100
AcDbSymbolTableRecord
100
AcDbBlockTableRecord
2
*MODEL_SPACE
0
BLOCK_RECORD
5
1B
100
AcDbSymbolTableRecord
100
AcDbBlockTableRecord
2
*PAPER_SPACE
0
ENDTAB
0
ENDSEC
0
SECTION
2
BLOCKS
0
BLOCK
5
20
100
AcDbEntity
100
AcDbBlockBegin
2
*MODEL_SPACE
0
ENDBLK
5
21
100
AcDbEntity
100
AcDbBlockEnd
0
BLOCK
5
1C
100
AcDbEntity
100
AcDbBlockBegin
2
*PAPER_SPACE
0
ENDBLK
5
1D
100
AcDbEntity
100
AcDbBlockEnd
0
ENDSEC
0
SECTION
2
ENTITIES
0
LWPOLYLINE
5
100
100
AcDbEntity
8
0
100
AcDbPolyline
90
35
70
1
43
0.0
10
26.906285000000011
20
-118.946
42
0.41421356237308898
10
28.406285000000011
20
-120.446
10
41.904915399999965
20
-120.44600000000001
42
0.41421356237309548
10
47.904915399999986
20
-114.44600000000003
10
47.904915399999993
20
6.5659180000000106
42
0.41421356237309498
10
41.904915399999979
20
12.565918000000025
10
-335.70800000000008
20
12.565918000000007
42
0.41421356237308932
10
-341.70799999999997
20
6.5659179999999999
10
-341.70799999999997
20
-114.44600000000001
42
0.41421356237309764
10
-335.70799999999997
20
-120.44599999999994
10
-1.5937150000000599
20
-120.44600000000001
42
0.41421356237310136
10
-0.093715000000024196
20
-118.946
10
-0.093715000000003032
20
-101.4602135623731
42
-0.08516423317474367
10
-0.59371500000001043
20
-101.54600000000001
10
-327.20799999999986
20
-101.54600000000002
42
-0.41421356237312307
10
-329.80799999999999
20
-98.945999999999998
10
-329.80799999999999
20
-62.847299999999997
42
-0.41421356237309503
10
-328.30800000000005
20
-61.34729999999999
10
-312.15625
20
-61.347300000000011
42
0.41421356237310025
10
-310.65625000000006
20
-59.847300000000004
10
-310.65625000000006
20
-43.797300000000007
42
-0.41421356237309503
10
-309.15625000000006
20
-42.2973
10
-293.10625000000005
20
-42.2973
42
0.41421356237310025
10
-291.60625000000005
20
-40.797299999999993
10
-291.60625000000005
20
-24.747950000000003
42
-0.41421356237309503
10
-290.10625000000005
20
-23.247950000000003
10
-240.71950000000001
20
-23.247949999999999
42
0.41421356237309936
10
-239.21950000000004
20
-21.747949999999999
10
-239.21950000000004
20
-5.6979499999999987
42
-0.41421356237309503
10
-237.71950000000004
20
-4.1979499999999978
10
-0.59371500000001054
20
-4.1979499999999916
42
-0.41421356237309465
10
0.90628499999998779
20
-5.6979499999999916
10
0.90628499999998846
20
-46.446000000000005
10
25.406284999999986
20
-46.446000000000005
42
-0.41421356237309159
10
26.90628499999999
20
-47.946000000000012
0
CIRCLE
5
101
100
AcDbEntity
8
0
100
AcDbCircle
10
-334.70799999999997
20
-15.434082000000002
30
0
40
2.3499999999999943
210
0
220
0
230
1
0
CIRCLE
5
102
100
AcDbEntity
8
0
100
AcDbCircle
10
40.904915400000007
20
-85.445999999999998
30
0
40
2.3499999999999943
210
0
220
0
230
1
0
CIRCLE
5
103
100
AcDbEntity
8
0
100
AcDbCircle
10
40.904915400000007
20
-15.434082000000002
30
0
40
2.3499999999999943
210
0
220
0
230
1
0
CIRCLE
5
104
100
AcDbEntity
8
0
100
AcDbCircle
10
-43.095084599999993
20
5.5659179999999999
30
0
40
2.3500000000000032
210
0
220
0
230
1
0
CIRCLE
5
105
100
AcDbEntity
8
0
100
AcDbCircle
10
-146.90154230000002
20
5.5659179999999999
30
0
40
2.3499999999999943
210
0
220
0
230
1
0
CIRCLE
5
106
100
AcDbEntity
8
0
100
AcDbCircle
10
-250.70800000000003
20
5.5659179999999999
30
0
40
2.3499999999999943
210
0
220
0
230
1
0
CIRCLE
5
107
100
AcDbEntity
8
0
100
AcDbCircle
10
-334.70799999999997
20
-85.445999999999998
30
0
40
2.3499999999999943
210
0
220
0
230
1
0
CIRCLE
5
108
100
AcDbEntity
8
0
100
AcDbCircle
10
-250.70800000000003
20
-106.44600000000003
30
0
40
2.3500000000000298
210
0
220
0
230
1
0
CIRCLE
5
109
100
AcDbEntity
8
0
100
AcDbCircle
10
-146.90154230000002
20
-106.446
30
0
40
2.3499999999999943
210
0
220
0
230
1
0
CIRCLE
5
110
100
AcDbEntity
8
0
100
AcDbCircle
10
-43.095084599999993
20
-106.44600000000003
30
0
40
2.3500000000000032
210
0
220
0
230
1
0
LWPOLYLINE
5
111
100
AcDbEntity
8
0
100
AcDbPolyline
90
8
70
1
43
0.0
10
-241.982
20
-0.83408200000000043
10
-241.982
20
-18.984740000000006
42
-0.41421356237309503
10
-243.48199999999997
20
-20.484740000000006
10
-318.68200000000002
20
-20.484739999999992
42
-0.41421356237309503
10
-320.18200000000002
20
-18.984740000000006
10
-320.18200000000002
20
-0.83408200000000055
42
-0.41421356237309509
10
-318.68200000000002
20
0.66591800000000001
10
-243.48199999999997
20
0.66591799999998535
42
-0.41421356237309503
0
ENDSEC
0
SECTION
2
OBJECTS
0
DICTIONARY
5
C
100
AcDbDictionary
3
ACAD_GROUP
350
D
3
ACAD_MLINESTYLE
350
17
0
DICTIONARY
5
D
100
AcDbDictionary
0
DICTIONARY
5
1A
330
C
100
AcDbDictionary
0
DICTIONARY
5
17
100
AcDbDictionary
0
ENDSEC
0
EOF
