0
SECTION
2
HEADER
9
$INSUNITS
70
4
9
$ACADVER
1
AC1014
9
$HANDSEED
5
FFFF
0
ENDSEC
0
SECTION
2
TABLES
0
TABLE
2
VPORT
5
8
100
AcDbSymbolTable
0
ENDTAB
0
TABLE
2
LTYPE
5
5
100
AcDbSymbolTable
0
LTYPE
5
14
100
AcDbSymbolTableRecord
100
AcDbLinetypeTableRecord
2
BYBLOCK
70
0
0
LTYPE
5
15
100
AcDbSymbolTableRecord
100
AcDbLinetypeTableRecord
2
BYLAYER
70
0
0
ENDTAB
0
TABLE
2
LAYER
5
2
100
AcDbSymbolTable
70
2
0
LAYER
5
50
100
AcDbSymbolTableRecord
100
AcDbLayerTableRecord
2
0
70
0
6
CONTINUOUS
0
ENDTAB
0
TABLE
2
STYLE
5
3
100
AcDbSymbolTable
70
1
0
STYLE
5
11
100
AcDbSymbolTableRecord
100
AcDbTextStyleTableRecord
2
STANDARD
70
0
0
ENDTAB
0
TABLE
2
VIEW
5
6
100
AcDbSymbolTable
70
0
0
ENDTAB
0
TABLE
2
UCS
5
7
100
AcDbSymbolTable
70
0
0
ENDTAB
0
TABLE
2
APPID
5
9
100
AcDbSymbolTable
70
2
0
APPID
5
12
100
AcDbSymbolTableRecord
100
AcDbRegAppTableRecord
2
ACAD
70
0
0
ENDTAB
0
TABLE
2
DIMSTYLE
5
A
100
AcDbSymbolTable
70
1
0
ENDTAB
0
TABLE
2
BLOCK_RECORD
5
1
100
AcDbSymbolTable
70
1
0
BLOCK_RECORD
5
1F
100
AcDbSymbolTableRecord
100
AcDbBlockTableRecord
2
*MODEL_SPACE
0
BLOCK_RECORD
5
1B
100
AcDbSymbolTableRecord
100
AcDbBlockTableRecord
2
*PAPER_SPACE
0
ENDTAB
0
ENDSEC
0
SECTION
2
BLOCKS
0
BLOCK
5
20
100
AcDbEntity
100
AcDbBlockBegin
2
*MODEL_SPACE
0
ENDBLK
5
21
100
AcDbEntity
100
AcDbBlockEnd
0
BLOCK
5
1C
100
AcDbEntity
100
AcDbBlockBegin
2
*PAPER_SPACE
0
ENDBLK
5
1D
100
AcDbEntity
100
AcDbBlockEnd
0
ENDSEC
0
SECTION
2
ENTITIES
0
LWPOLYLINE
5
100
100
AcDbEntity
8
0
100
AcDbPolyline
90
96
70
1
43
0.0
10
-328.70799999999997
20
-98.945999999999998
42
0.41421356237309503
10
-327.20799999999997
20
-100.446
10
-257.53848240627968
20
-100.44600000000003
42
-0.3394542588633746
10
-256.0895936668461
20
-101.55777143234623
10
-254.30379651493035
20
-108.22245713530756
42
0.3394542588633811
10
-251.40601903606313
20
-110.446
10
-250.0099809639369
20
-110.44600000000001
42
0.33945425886338193
10
-247.11220348506967
20
-108.22245713530756
10
-245.32640633315398
20
-101.55777143234623
42
-0.33945425886337605
10
-243.87751759372037
20
-100.44600000000001
10
-153.73202470627967
20
-100.44600000000001
42
-0.33945425886337544
10
-152.28313596684606
20
-101.55777143234623
10
-150.49733881493034
20
-108.22245713530756
42
0.33945425886336983
10
-147.59956133606312
20
-110.44600000000001
10
-146.20352326393689
20
-110.44600000000001
42
0.33945425886337421
10
-143.30574578506969
20
-108.22245713530755
10
-141.51994863315397
20
-101.55777143234623
42
-0.33945425886337544
10
-140.07105989372039
20
-100.44600000000001
10
-49.925567006279664
20
-100.44600000000001
42
-0.33945425886337544
10
-48.476678266846065
20
-101.55777143234623
10
-46.690881114930313
20
-108.22245713530756
42
0.33945425886337482
10
-43.793103636063108
20
-110.44600000000003
10
-42.397065563936863
20
-110.44600000000001
42
0.33945425886337549
10
-39.499288085069658
20
-108.22245713530756
10
-37.713490933153935
20
-101.55777143234623
42
-0.33945425886337477
10
-36.264602193720336
20
-100.44600000000001
10
-1.5937150000000244
20
-100.44600000000001
42
0.41421356237308943
10
-0.093715000000014204
20
-98.945999999999998
10
-0.093715000000015314
20
-47.946000000000012
42
-0.41421356237309398
10
1.4062849999999829
20
-46.446000000000005
10
25.406284999999986
20
-46.446000000000005
42
-0.41421356237309592
10
26.90628499999999
20
-47.946000000000012
10
26.90628499999999
20
-98.945999999999998
42
0.41421356237308898
10
28.406284999999993
20
-100.446
10
33.404915400000021
20
-100.44600000000001
42
0.41421356237308898
10
34.904915400000029
20
-98.945999999999998
10
34.904915400000007
20
-92.276482406279641
42
-0.33945425886337621
10
36.016686832346231
20
-90.827593666846042
10
42.681372535307567
20
-89.041796514930311
42
0.33945425886337338
10
44.904915400000014
20
-86.144019036063099
10
44.904915400000007
20
-84.747980963936911
42
0.33945425886337699
10
42.681372535307545
20
-81.850203485069727
10
36.016686832346238
20
-80.064406333154039
42
-0.3394542588633786
10
34.904915400000007
20
-78.615517593720426
10
34.904915400000007
20
-22.26456440627971
42
-0.33945425886337466
10
36.016686832346224
20
-20.815675666846111
10
42.681372535307588
20
-19.029878514930335
42
0.33945425886337621
10
44.904915400000007
20
-16.13210103606313
10
44.904915400000007
20
-14.736062963936876
42
0.33945425886337266
10
42.681372535307588
20
-11.838285485069676
10
36.016686832346217
20
-10.052488333153901
42
-0.33945425886337538
10
34.904915400000007
20
-8.6035995937202969
10
34.904915400000007
20
-1.9340820000000036
42
0.41421356237309731
10
33.404915400000007
20
-0.43408200000000174
10
-36.264602193720329
20
-0.43408199999999952
42
-0.33945425886337494
10
-37.713490933153928
20
0.67768943234621926
10
-39.499288085069672
20
7.3423751353075639
42
0.33945425886337438
10
-42.397065563936877
20
9.5659180000000035
10
-43.793103636063108
20
9.5659179999999999
42
0.33945425886337516
10
-46.690881114930313
20
7.3423751353075648
10
-48.476678266846058
20
0.67768943234621903
42
-0.33945425886337416
10
-49.92556700627965
20
-0.43408200000000008
10
-140.07105989372039
20
-0.43408199999999741
42
-0.33945425886337727
10
-141.519948633154
20
0.67768943234622747
10
-143.30574578506969
20
7.3423751353075435
42
0.33945425886338065
10
-146.20352326393689
20
9.5659179999999964
10
-147.59956133606312
20
9.5659180000000017
42
0.33945425886337255
10
-150.49733881493034
20
7.3423751353075639
10
-152.28313596684606
20
0.67768943234621992
42
-0.33945425886337594
10
-153.73202470627967
20
-0.43408200000000008
10
-243.87751759372031
20
-0.43408199999998565
42
-0.33945425886337305
10
-245.3264063331539
20
0.67768943234620815
10
-247.1122034850697
20
7.3423751353075755
42
0.33945425886336705
10
-250.0099809639369
20
9.5659179999999946
10
-251.40601903606313
20
9.5659179999999999
42
0.33945425886336678
10
-254.30379651493035
20
7.3423751353075737
10
-256.0895936668461
20
0.67768943234620993
42
-0.33945425886337405
10
-257.53848240627968
20
-0.43408200000000008
10
-327.20800000000003
20
-0.43408200000000008
42
0.4142135623730745
10
-328.70800000000003
20
-1.9340820000000036
10
-328.70799999999997
20
-8.6035995937202792
42
-0.33945425886337544
10
-329.81977143234616
20
-10.052488333153882
10
-336.48445713530759
20
-11.838285485069679
42
0.33945425886339597
10
-338.70800000000003
20
-14.736062963936881
10
-338.70800000000003
20
-16.13210103606313
42
0.33945425886335268
10
-336.48445713530759
20
-19.029878514930342
10
-329.81977143234616
20
-20.81567566684615
42
-0.33945425886337538
10
-328.70799999999997
20
-22.264564406279739
10
-328.70799999999997
20
-78.615517593720398
42
-0.33945425886337499
10
-329.81977143234616
20
-80.064406333153997
10
-336.48445713530759
20
-81.850203485069699
42
0.33945425886338915
10
-338.70800000000003
20
-84.747980963936911
10
-338.70800000000003
20
-86.144019036063099
42
0.33945425886334618
10
-336.48445713530759
20
-89.041796514930354
10
-329.81977143234616
20
-90.827593666846099
42
-0.33945425886337538
10
-328.70799999999997
20
-92.276482406279683
0
CIRCLE
5
101
100
AcDbEntity
8
0
100
AcDbCircle
10
-43.095084599999993
20
-106.44600000000003
30
0
40
1.5749999999999975
210
0
220
0
230
1
0
CIRCLE
5
102
100
AcDbEntity
8
0
100
AcDbCircle
10
-334.70799999999997
20
-15.434082000000002
30
0
40
1.5749999999999886
210
0
220
0
230
1
0
CIRCLE
5
103
100
AcDbEntity
8
0
100
AcDbCircle
10
-250.70800000000003
20
5.5659179999999999
30
0
40
1.5750000000000242
210
0
220
0
230
1
0
CIRCLE
5
104
100
AcDbEntity
8
0
100
AcDbCircle
10
-43.095084599999993
20
5.5659179999999999
30
0
40
1.5749999999999975
210
0
220
0
230
1
0
CIRCLE
5
105
100
AcDbEntity
8
0
100
AcDbCircle
10
-334.70799999999997
20
-85.445999999999998
30
0
40
1.5749999999999886
210
0
220
0
230
1
0
CIRCLE
5
106
100
AcDbEntity
8
0
100
AcDbCircle
10
-146.90154230000002
20
-106.446
30
0
40
1.5749999999999886
210
0
220
0
230
1
0
CIRCLE
5
107
100
AcDbEntity
8
0
100
AcDbCircle
10
40.904915400000007
20
-85.445999999999998
30
0
40
1.5749999999999975
210
0
220
0
230
1
0
CIRCLE
5
108
100
AcDbEntity
8
0
100
AcDbCircle
10
-146.90154230000002
20
5.5659179999999999
30
0
40
1.5749999999999886
210
0
220
0
230
1
0
CIRCLE
5
109
100
AcDbEntity
8
0
100
AcDbCircle
10
40.904915400000007
20
-15.434082000000002
30
0
40
1.5749999999999975
210
0
220
0
230
1
0
CIRCLE
5
110
100
AcDbEntity
8
0
100
AcDbCircle
10
-250.70800000000003
20
-106.44600000000003
30
0
40
1.5750000000000242
210
0
220
0
230
1
0
LWPOLYLINE
5
111
100
AcDbEntity
8
0
100
AcDbPolyline
90
20
70
1
43
0.0
10
-285.98700000000002
20
-59.821899999999999
10
-299.98800000000006
20
-59.821899999999999
10
-299.98800000000006
20
-58.8215
10
-300.78700000000003
20
-58.8215
10
-300.78700000000003
20
-55.722300000000004
10
-299.98800000000006
20
-55.722300000000004
10
-299.98800000000006
20
-49.9223
10
-300.78700000000003
20
-49.9223
10
-300.78700000000003
20
-46.8217
10
-299.98800000000006
20
-46.8217
10
-299.98800000000006
20
-45.822700000000005
10
-285.98700000000002
20
-45.822700000000005
10
-285.98700000000002
20
-46.8217
10
-285.18799999999999
20
-46.8217
10
-285.18799999999999
20
-49.9223
10
-285.98700000000002
20
-49.9223
10
-285.98700000000002
20
-55.722300000000004
10
-285.18799999999999
20
-55.722300000000004
10
-285.18799999999999
20
-58.8215
10
-285.98700000000002
20
-58.8215
0
LWPOLYLINE
5
112
100
AcDbEntity
8
0
100
AcDbPolyline
90
20
70
1
43
0.0
10
-202.64300000000003
20
-21.721999999999998
10
-216.64400000000001
20
-21.721999999999998
10
-216.64400000000001
20
-20.721599999999999
10
-217.44500000000002
20
-20.721599999999999
10
-217.44500000000002
20
-17.623699999999999
10
-216.64400000000001
20
-17.623699999999999
10
-216.64400000000001
20
-11.8222
10
-217.44500000000002
20
-11.8222
10
-217.44500000000002
20
-8.7216200000000033
10
-216.64400000000001
20
-8.7216200000000033
10
-216.64400000000001
20
-7.7225199999999994
10
-202.64300000000003
20
-7.7225199999999994
10
-202.64300000000003
20
-8.7216200000000033
10
-201.84400000000005
20
-8.7216200000000033
10
-201.84400000000005
20
-11.8222
10
-202.64300000000003
20
-11.8222
10
-202.64300000000003
20
-17.623699999999999
10
-201.84400000000005
20
-17.623699999999999
10
-201.84400000000005
20
-20.721599999999999
10
-202.64300000000003
20
-20.721599999999999
0
LWPOLYLINE
5
113
100
AcDbEntity
8
0
100
AcDbPolyline
90
20
70
1
43
0.0
10
-245.50700000000003
20
-16.959499999999998
10
-259.50700000000001
20
-16.959499999999998
10
-259.50700000000001
20
-15.960400000000003
10
-260.30599999999998
20
-15.960400000000003
10
-260.30599999999998
20
-12.859800000000003
10
-259.50700000000001
20
-12.859800000000003
10
-259.50700000000001
20
-7.0596800000000037
10
-260.30599999999998
20
-7.0596800000000037
10
-260.30599999999998
20
-3.9604899999999965
10
-259.50700000000001
20
-3.9604899999999965
10
-259.50700000000001
20
-2.9600299999999979
10
-245.50700000000003
20
-2.9600299999999979
10
-245.50700000000003
20
-3.9604899999999965
10
-244.70600000000002
20
-3.9604899999999965
10
-244.70600000000002
20
-7.0596800000000037
10
-245.50700000000003
20
-7.0596800000000037
10
-245.50700000000003
20
-12.859800000000003
10
-244.70600000000002
20
-12.859800000000003
10
-244.70600000000002
20
-15.960400000000003
10
-245.50700000000003
20
-15.960400000000003
0
LWPOLYLINE
5
114
100
AcDbEntity
8
0
100
AcDbPolyline
90
20
70
1
43
0.0
10
-126.44500000000001
20
-40.771900000000009
10
-140.44399999999999
20
-40.771900000000009
10
-140.44399999999999
20
-39.771500000000003
10
-141.245
20
-39.771500000000003
10
-141.245
20
-36.673699999999997
10
-140.44399999999999
20
-36.673699999999997
10
-140.44399999999999
20
-30.872200000000003
10
-141.245
20
-30.872200000000003
10
-141.245
20
-27.771600000000003
10
-140.44399999999999
20
-27.771600000000003
10
-140.44399999999999
20
-26.772500000000004
10
-126.44500000000001
20
-26.772500000000004
10
-126.44500000000001
20
-27.771600000000003
10
-125.64399999999999
20
-27.771600000000003
10
-125.64399999999999
20
-30.872200000000003
10
-126.44500000000001
20
-30.872200000000003
10
-126.44500000000001
20
-36.673699999999997
10
-125.64399999999999
20
-36.673699999999997
10
-125.64399999999999
20
-39.771500000000003
10
-126.44500000000001
20
-39.771500000000003
0
LWPOLYLINE
5
115
100
AcDbEntity
8
0
100
AcDbPolyline
90
20
70
1
43
0.0
10
-9.7620300000000171
20
-78.871900000000011
10
-23.762900000000009
20
-78.871900000000011
10
-23.762900000000009
20
-77.871499999999997
10
-24.562199999999983
20
-77.871499999999997
10
-24.562199999999983
20
-74.772300000000001
10
-23.762900000000009
20
-74.772300000000001
10
-23.762900000000009
20
-68.972300000000004
10
-24.562199999999983
20
-68.972300000000004
10
-24.562199999999983
20
-65.871700000000004
10
-23.762900000000009
20
-65.871700000000004
10
-23.762900000000009
20
-64.872699999999995
10
-9.7620300000000171
20
-64.872699999999995
10
-9.7620300000000171
20
-65.871700000000004
10
-8.962779999999988
20
-65.871700000000004
10
-8.962779999999988
20
-68.972300000000004
10
-9.7620300000000171
20
-68.972300000000004
10
-9.7620300000000171
20
-74.772300000000001
10
-8.962779999999988
20
-74.772300000000001
10
-8.962779999999988
20
-77.871499999999997
10
-9.7620300000000171
20
-77.871499999999997
0
LWPOLYLINE
5
116
100
AcDbEntity
8
0
100
AcDbPolyline
90
20
70
1
43
0.0
10
-240.745
20
-59.821899999999999
10
-254.74400000000003
20
-59.821899999999999
10
-254.74400000000003
20
-58.8215
10
-255.54500000000002
20
-58.8215
10
-255.54500000000002
20
-55.722300000000004
10
-254.74400000000003
20
-55.722300000000004
10
-254.74400000000003
20
-49.9223
10
-255.54500000000002
20
-49.9223
10
-255.54500000000002
20
-46.8217
10
-254.74400000000003
20
-46.8217
10
-254.74400000000003
20
-45.822700000000005
10
-240.745
20
-45.822700000000005
10
-240.745
20
-46.8217
10
-239.94400000000002
20
-46.8217
10
-239.94400000000002
20
-49.9223
10
-240.745
20
-49.9223
10
-240.745
20
-55.722300000000004
10
-239.94400000000002
20
-55.722300000000004
10
-239.94400000000002
20
-58.8215
10
-240.745
20
-58.8215
0
LWPOLYLINE
5
117
100
AcDbEntity
8
0
100
AcDbPolyline
90
20
70
1
43
0.0
10
-259.79500000000002
20
-59.821899999999999
10
-273.79400000000004
20
-59.821899999999999
10
-273.79400000000004
20
-58.8215
10
-274.59500000000003
20
-58.8215
10
-274.59500000000003
20
-55.722300000000004
10
-273.79400000000004
20
-55.722300000000004
10
-273.79400000000004
20
-49.9223
10
-274.59500000000003
20
-49.9223
10
-274.59500000000003
20
-46.8217
10
-273.79400000000004
20
-46.8217
10
-273.79400000000004
20
-45.822700000000005
10
-259.79500000000002
20
-45.822700000000005
10
-259.79500000000002
20
-46.8217
10
-258.99400000000003
20
-46.8217
10
-258.99400000000003
20
-49.9223
10
-259.79500000000002
20
-49.9223
10
-259.79500000000002
20
-55.722300000000004
10
-258.99400000000003
20
-55.722300000000004
10
-258.99400000000003
20
-58.8215
10
-259.79500000000002
20
-58.8215
0
LWPOLYLINE
5
118
100
AcDbEntity
8
0
100
AcDbPolyline
90
20
70
1
43
0.0
10
-9.7620300000000171
20
-59.821899999999999
10
-23.762900000000009
20
-59.821899999999999
10
-23.762900000000009
20
-58.8215
10
-24.562199999999983
20
-58.8215
10
-24.562199999999983
20
-55.722300000000004
10
-23.762900000000009
20
-55.722300000000004
10
-23.762900000000009
20
-49.9223
10
-24.562199999999983
20
-49.9223
10
-24.562199999999983
20
-46.8217
10
-23.762900000000009
20
-46.8217
10
-23.762900000000009
20
-45.822700000000005
10
-9.7620300000000171
20
-45.822700000000005
10
-9.7620300000000171
20
-46.8217
10
-8.962779999999988
20
-46.8217
10
-8.962779999999988
20
-49.9223
10
-9.7620300000000171
20
-49.9223
10
-9.7620300000000171
20
-55.722300000000004
10
-8.962779999999988
20
-55.722300000000004
10
-8.962779999999988
20
-58.8215
10
-9.7620300000000171
20
-58.8215
0
LWPOLYLINE
5
119
100
AcDbEntity
8
0
100
AcDbPolyline
90
20
70
1
43
0.0
10
-202.64500000000001
20
-40.771900000000009
10
-216.64400000000001
20
-40.771900000000009
10
-216.64400000000001
20
-39.771500000000003
10
-217.44500000000002
20
-39.771500000000003
10
-217.44500000000002
20
-36.673699999999997
10
-216.64400000000001
20
-36.673699999999997
10
-216.64400000000001
20
-30.872200000000003
10
-217.44500000000002
20
-30.872200000000003
10
-217.44500000000002
20
-27.771600000000003
10
-216.64400000000001
20
-27.771600000000003
10
-216.64400000000001
20
-26.772500000000004
10
-202.64500000000001
20
-26.772500000000004
10
-202.64500000000001
20
-27.771600000000003
10
-201.84400000000005
20
-27.771600000000003
10
-201.84400000000005
20
-30.872200000000003
10
-202.64500000000001
20
-30.872200000000003
10
-202.64500000000001
20
-36.673699999999997
10
-201.84400000000005
20
-36.673699999999997
10
-201.84400000000005
20
-39.771500000000003
10
-202.64500000000001
20
-39.771500000000003
0
LWPOLYLINE
5
120
100
AcDbEntity
8
0
100
AcDbPolyline
90
20
70
1
43
0.0
10
-240.745
20
-78.871900000000011
10
-254.74400000000003
20
-78.871900000000011
10
-254.74400000000003
20
-77.871499999999997
10
-255.54500000000002
20
-77.871499999999997
10
-255.54500000000002
20
-74.772300000000001
10
-254.74400000000003
20
-74.772300000000001
10
-254.74400000000003
20
-68.972300000000004
10
-255.54500000000002
20
-68.972300000000004
10
-255.54500000000002
20
-65.871700000000004
10
-254.74400000000003
20
-65.871700000000004
10
-254.74400000000003
20
-64.872699999999995
10
-240.745
20
-64.872699999999995
10
-240.745
20
-65.871700000000004
10
-239.94400000000002
20
-65.871700000000004
10
-239.94400000000002
20
-68.972300000000004
10
-240.745
20
-68.972300000000004
10
-240.745
20
-74.772300000000001
10
-239.94400000000002
20
-74.772300000000001
10
-239.94400000000002
20
-77.871499999999997
10
-240.745
20
-77.871499999999997
0
LWPOLYLINE
5
121
100
AcDbEntity
8
0
100
AcDbPolyline
90
20
70
1
43
0.0
10
-164.54499999999999
20
-97.921899999999994
10
-178.54400000000001
20
-97.921899999999994
10
-178.54400000000001
20
-96.921499999999995
10
-179.345
20
-96.921499999999995
10
-179.345
20
-93.822299999999998
10
-178.54400000000001
20
-93.822299999999998
10
-178.54400000000001
20
-88.022300000000001
10
-179.345
20
-88.022300000000001
10
-179.345
20
-84.921700000000001
10
-178.54400000000001
20
-84.921700000000001
10
-178.54400000000001
20
-83.92270000000002
10
-164.54499999999999
20
-83.92270000000002
10
-164.54499999999999
20
-84.921700000000001
10
-163.74400000000003
20
-84.921700000000001
10
-163.74400000000003
20
-88.022300000000001
10
-164.54499999999999
20
-88.022300000000001
10
-164.54499999999999
20
-93.822299999999998
10
-163.74400000000003
20
-93.822299999999998
10
-163.74400000000003
20
-96.921499999999995
10
-164.54499999999999
20
-96.921499999999995
0
LWPOLYLINE
5
122
100
AcDbEntity
8
0
100
AcDbPolyline
90
20
70
1
43
0.0
10
-43.10100000000002
20
-40.771900000000009
10
-57.100299999999997
20
-40.771900000000009
10
-57.100299999999997
20
-39.771500000000003
10
-57.901100000000021
20
-39.771500000000003
10
-57.901100000000021
20
-36.673699999999997
10
-57.100299999999997
20
-36.673699999999997
10
-57.100299999999997
20
-30.872200000000003
10
-57.901100000000021
20
-30.872200000000003
10
-57.901100000000021
20
-27.771600000000003
10
-57.100299999999997
20
-27.771600000000003
10
-57.100299999999997
20
-26.772500000000004
10
-43.10100000000002
20
-26.772500000000004
10
-43.10100000000002
20
-27.771600000000003
10
-42.300199999999997
20
-27.771600000000003
10
-42.300199999999997
20
-30.872200000000003
10
-43.10100000000002
20
-30.872200000000003
10
-43.10100000000002
20
-36.673699999999997
10
-42.300199999999997
20
-36.673699999999997
10
-42.300199999999997
20
-39.771500000000003
10
-43.10100000000002
20
-39.771500000000003
0
LWPOLYLINE
5
123
100
AcDbEntity
8
0
100
AcDbPolyline
90
20
70
1
43
0.0
10
-305.03700000000003
20
-78.871900000000011
10
-319.03800000000001
20
-78.871900000000011
10
-319.03800000000001
20
-77.871499999999997
10
-319.83699999999999
20
-77.871499999999997
10
-319.83699999999999
20
-74.772300000000001
10
-319.03800000000001
20
-74.772300000000001
10
-319.03800000000001
20
-68.972300000000004
10
-319.83699999999999
20
-68.972300000000004
10
-319.83699999999999
20
-65.871700000000004
10
-319.03800000000001
20
-65.871700000000004
10
-319.03800000000001
20
-64.872699999999995
10
-305.03700000000003
20
-64.872699999999995
10
-305.03700000000003
20
-65.871700000000004
10
-304.238
20
-65.871700000000004
10
-304.238
20
-68.972300000000004
10
-305.03700000000003
20
-68.972300000000004
10
-305.03700000000003
20
-74.772300000000001
10
-304.238
20
-74.772300000000001
10
-304.238
20
-77.871499999999997
10
-305.03700000000003
20
-77.871499999999997
0
LWPOLYLINE
5
124
100
AcDbEntity
8
0
100
AcDbPolyline
90
20
70
1
43
0.0
10
-69.293300000000002
20
-40.771900000000009
10
-83.293999999999997
20
-40.771900000000009
10
-83.293999999999997
20
-39.771500000000003
10
-84.093400000000003
20
-39.771500000000003
10
-84.093400000000003
20
-36.673699999999997
10
-83.293999999999997
20
-36.673699999999997
10
-83.293999999999997
20
-30.872200000000003
10
-84.093400000000003
20
-30.872200000000003
10
-84.093400000000003
20
-27.771600000000003
10
-83.293999999999997
20
-27.771600000000003
10
-83.293999999999997
20
-26.772500000000004
10
-69.293300000000002
20
-26.772500000000004
10
-69.293300000000002
20
-27.771600000000003
10
-68.493899999999996
20
-27.771600000000003
10
-68.493899999999996
20
-30.872200000000003
10
-69.293300000000002
20
-30.872200000000003
10
-69.293300000000002
20
-36.673699999999997
10
-68.493899999999996
20
-36.673699999999997
10
-68.493899999999996
20
-39.771500000000003
10
-69.293300000000002
20
-39.771500000000003
0
LWPOLYLINE
5
125
100
AcDbEntity
8
0
100
AcDbPolyline
90
20
70
1
43
0.0
10
-43.10100000000002
20
-78.871900000000011
10
-57.100299999999997
20
-78.871900000000011
10
-57.100299999999997
20
-77.871499999999997
10
-57.901100000000021
20
-77.871499999999997
10
-57.901100000000021
20
-74.772300000000001
10
-57.100299999999997
20
-74.772300000000001
10
-57.100299999999997
20
-68.972300000000004
10
-57.901100000000021
20
-68.972300000000004
10
-57.901100000000021
20
-65.871700000000004
10
-57.100299999999997
20
-65.871700000000004
10
-57.100299999999997
20
-64.872699999999995
10
-43.10100000000002
20
-64.872699999999995
10
-43.10100000000002
20
-65.871700000000004
10
-42.300199999999997
20
-65.871700000000004
10
-42.300199999999997
20
-68.972300000000004
10
-43.10100000000002
20
-68.972300000000004
10
-43.10100000000002
20
-74.772300000000001
10
-42.300199999999997
20
-74.772300000000001
10
-42.300199999999997
20
-77.871499999999997
10
-43.10100000000002
20
-77.871499999999997
0
LWPOLYLINE
5
126
100
AcDbEntity
8
0
100
AcDbPolyline
90
20
70
1
43
0.0
10
-126.44500000000001
20
-59.821899999999999
10
-140.44399999999999
20
-59.821899999999999
10
-140.44399999999999
20
-58.8215
10
-141.245
20
-58.8215
10
-141.245
20
-55.722300000000004
10
-140.44399999999999
20
-55.722300000000004
10
-140.44399999999999
20
-49.9223
10
-141.245
20
-49.9223
10
-141.245
20
-46.8217
10
-140.44399999999999
20
-46.8217
10
-140.44399999999999
20
-45.822700000000005
10
-126.44500000000001
20
-45.822700000000005
10
-126.44500000000001
20
-46.8217
10
-125.64399999999999
20
-46.8217
10
-125.64399999999999
20
-49.9223
10
-126.44500000000001
20
-49.9223
10
-126.44500000000001
20
-55.722300000000004
10
-125.64399999999999
20
-55.722300000000004
10
-125.64399999999999
20
-58.8215
10
-126.44500000000001
20
-58.8215
0
LWPOLYLINE
5
127
100
AcDbEntity
8
0
100
AcDbPolyline
90
20
70
1
43
0.0
10
-69.293300000000002
20
-59.821899999999999
10
-83.293999999999997
20
-59.821899999999999
10
-83.293999999999997
20
-58.8215
10
-84.093400000000003
20
-58.8215
10
-84.093400000000003
20
-55.722300000000004
10
-83.293999999999997
20
-55.722300000000004
10
-83.293999999999997
20
-49.9223
10
-84.093400000000003
20
-49.9223
10
-84.093400000000003
20
-46.8217
10
-83.293999999999997
20
-46.8217
10
-83.293999999999997
20
-45.822700000000005
10
-69.293300000000002
20
-45.822700000000005
10
-69.293300000000002
20
-46.8217
10
-68.493899999999996
20
-46.8217
10
-68.493899999999996
20
-49.9223
10
-69.293300000000002
20
-49.9223
10
-69.293300000000002
20
-55.722300000000004
10
-68.493899999999996
20
-55.722300000000004
10
-68.493899999999996
20
-58.8215
10
-69.293300000000002
20
-58.8215
0
LWPOLYLINE
5
128
100
AcDbEntity
8
0
100
AcDbPolyline
90
20
70
1
43
0.0
10
-305.03700000000003
20
-97.921899999999994
10
-319.03800000000001
20
-97.921899999999994
10
-319.03800000000001
20
-96.921499999999995
10
-319.83699999999999
20
-96.921499999999995
10
-319.83699999999999
20
-93.822299999999998
10
-319.03800000000001
20
-93.822299999999998
10
-319.03800000000001
20
-88.022300000000001
10
-319.83699999999999
20
-88.022300000000001
10
-319.83699999999999
20
-84.921700000000001
10
-319.03800000000001
20
-84.921700000000001
10
-319.03800000000001
20
-83.92270000000002
10
-305.03700000000003
20
-83.92270000000002
10
-305.03700000000003
20
-84.921700000000001
10
-304.238
20
-84.921700000000001
10
-304.238
20
-88.022300000000001
10
-305.03700000000003
20
-88.022300000000001
10
-305.03700000000003
20
-93.822299999999998
10
-304.238
20
-93.822299999999998
10
-304.238
20
-96.921499999999995
10
-305.03700000000003
20
-96.921499999999995
0
LWPOLYLINE
5
129
100
AcDbEntity
8
0
100
AcDbPolyline
90
20
70
1
43
0.0
10
-126.44500000000001
20
-78.871900000000011
10
-140.44399999999999
20
-78.871900000000011
10
-140.44399999999999
20
-77.871499999999997
10
-141.245
20
-77.871499999999997
10
-141.245
20
-74.772300000000001
10
-140.44399999999999
20
-74.772300000000001
10
-140.44399999999999
20
-68.972300000000004
10
-141.245
20
-68.972300000000004
10
-141.245
20
-65.871700000000004
10
-140.44399999999999
20
-65.871700000000004
10
-140.44399999999999
20
-64.872699999999995
10
-126.44500000000001
20
-64.872699999999995
10
-126.44500000000001
20
-65.871700000000004
10
-125.64399999999999
20
-65.871700000000004
10
-125.64399999999999
20
-68.972300000000004
10
-126.44500000000001
20
-68.972300000000004
10
-126.44500000000001
20
-74.772300000000001
10
-125.64399999999999
20
-74.772300000000001
10
-125.64399999999999
20
-77.871499999999997
10
-126.44500000000001
20
-77.871499999999997
0
LWPOLYLINE
5
130
100
AcDbEntity
8
0
100
AcDbPolyline
90
20
70
1
43
0.0
10
-9.7620300000000171
20
-97.921899999999994
10
-23.762900000000009
20
-97.921899999999994
10
-23.762900000000009
20
-96.921499999999995
10
-24.562199999999983
20
-96.921499999999995
10
-24.562199999999983
20
-93.822299999999998
10
-23.762900000000009
20
-93.822299999999998
10
-23.762900000000009
20
-88.022300000000001
10
-24.562199999999983
20
-88.022300000000001
10
-24.562199999999983
20
-84.921700000000001
10
-23.762900000000009
20
-84.921700000000001
10
-23.762900000000009
20
-83.92270000000002
10
-9.7620300000000171
20
-83.92270000000002
10
-9.7620300000000171
20
-84.921700000000001
10
-8.962779999999988
20
-84.921700000000001
10
-8.962779999999988
20
-88.022300000000001
10
-9.7620300000000171
20
-88.022300000000001
10
-9.7620300000000171
20
-93.822299999999998
10
-8.962779999999988
20
-93.822299999999998
10
-8.962779999999988
20
-96.921499999999995
10
-9.7620300000000171
20
-96.921499999999995
0
LWPOLYLINE
5
131
100
AcDbEntity
8
0
100
AcDbPolyline
90
20
70
1
43
0.0
10
-221.69499999999999
20
-59.821899999999999
10
-235.69400000000002
20
-59.821899999999999
10
-235.69400000000002
20
-58.8215
10
-236.49500000000003
20
-58.8215
10
-236.49500000000003
20
-55.722300000000004
10
-235.69400000000002
20
-55.722300000000004
10
-235.69400000000002
20
-49.9223
10
-236.49500000000003
20
-49.9223
10
-236.49500000000003
20
-46.8217
10
-235.69400000000002
20
-46.8217
10
-235.69400000000002
20
-45.822700000000005
10
-221.69499999999999
20
-45.822700000000005
10
-221.69499999999999
20
-46.8217
10
-220.89400000000001
20
-46.8217
10
-220.89400000000001
20
-49.9223
10
-221.69499999999999
20
-49.9223
10
-221.69499999999999
20
-55.722300000000004
10
-220.89400000000001
20
-55.722300000000004
10
-220.89400000000001
20
-58.8215
10
-221.69499999999999
20
-58.8215
0
LWPOLYLINE
5
132
100
AcDbEntity
8
0
100
AcDbPolyline
90
20
70
1
43
0.0
10
-43.10100000000002
20
-21.721999999999998
10
-57.100299999999997
20
-21.721999999999998
10
-57.100299999999997
20
-20.721599999999999
10
-57.901100000000021
20
-20.721599999999999
10
-57.901100000000021
20
-17.623699999999999
10
-57.100299999999997
20
-17.623699999999999
10
-57.100299999999997
20
-11.8222
10
-57.901100000000021
20
-11.8222
10
-57.901100000000021
20
-8.7216200000000033
10
-57.100299999999997
20
-8.7216200000000033
10
-57.100299999999997
20
-7.7225199999999994
10
-43.10100000000002
20
-7.7225199999999994
10
-43.10100000000002
20
-8.7216200000000033
10
-42.300199999999997
20
-8.7216200000000033
10
-42.300199999999997
20
-11.8222
10
-43.10100000000002
20
-11.8222
10
-43.10100000000002
20
-17.623699999999999
10
-42.300199999999997
20
-17.623699999999999
10
-42.300199999999997
20
-20.721599999999999
10
-43.10100000000002
20
-20.721599999999999
0
LWPOLYLINE
5
133
100
AcDbEntity
8
0
100
AcDbPolyline
90
20
70
1
43
0.0
10
-88.343299999999971
20
-21.721999999999998
10
-102.34400000000001
20
-21.721999999999998
10
-102.34400000000001
20
-20.721599999999999
10
-103.143
20
-20.721599999999999
10
-103.143
20
-17.623699999999999
10
-102.34400000000001
20
-17.623699999999999
10
-102.34400000000001
20
-11.8222
10
-103.143
20
-11.8222
10
-103.143
20
-8.7216200000000033
10
-102.34400000000001
20
-8.7216200000000033
10
-102.34400000000001
20
-7.7225199999999994
10
-88.343299999999971
20
-7.7225199999999994
10
-88.343299999999971
20
-8.7216200000000033
10
-87.543899999999979
20
-8.7216200000000033
10
-87.543899999999979
20
-11.8222
10
-88.343299999999971
20
-11.8222
10
-88.343299999999971
20
-17.623699999999999
10
-87.543899999999979
20
-17.623699999999999
10
-87.543899999999979
20
-20.721599999999999
10
-88.343299999999971
20
-20.721599999999999
0
LWPOLYLINE
5
134
100
AcDbEntity
8
0
100
AcDbPolyline
90
20
70
1
43
0.0
10
-278.84500000000003
20
-97.921899999999994
10
-292.84399999999999
20
-97.921899999999994
10
-292.84399999999999
20
-96.921499999999995
10
-293.64499999999998
20
-96.921499999999995
10
-293.64499999999998
20
-93.822299999999998
10
-292.84399999999999
20
-93.822299999999998
10
-292.84399999999999
20
-88.022300000000001
10
-293.64499999999998
20
-88.022300000000001
10
-293.64499999999998
20
-84.921700000000001
10
-292.84399999999999
20
-84.921700000000001
10
-292.84399999999999
20
-83.92270000000002
10
-278.84500000000003
20
-83.92270000000002
10
-278.84500000000003
20
-84.921700000000001
10
-278.04400000000004
20
-84.921700000000001
10
-278.04400000000004
20
-88.022300000000001
10
-278.84500000000003
20
-88.022300000000001
10
-278.84500000000003
20
-93.822299999999998
10
-278.04400000000004
20
-93.822299999999998
10
-278.04400000000004
20
-96.921499999999995
10
-278.84500000000003
20
-96.921499999999995
0
LWPOLYLINE
5
135
100
AcDbEntity
8
0
100
AcDbPolyline
90
20
70
1
43
0.0
10
-202.64500000000001
20
-59.821899999999999
10
-216.64400000000001
20
-59.821899999999999
10
-216.64400000000001
20
-58.8215
10
-217.44500000000002
20
-58.8215
10
-217.44500000000002
20
-55.722300000000004
10
-216.64400000000001
20
-55.722300000000004
10
-216.64400000000001
20
-49.9223
10
-217.44500000000002
20
-49.9223
10
-217.44500000000002
20
-46.8217
10
-216.64400000000001
20
-46.8217
10
-216.64400000000001
20
-45.822700000000005
10
-202.64500000000001
20
-45.822700000000005
10
-202.64500000000001
20
-46.8217
10
-201.84400000000005
20
-46.8217
10
-201.84400000000005
20
-49.9223
10
-202.64500000000001
20
-49.9223
10
-202.64500000000001
20
-55.722300000000004
10
-201.84400000000005
20
-55.722300000000004
10
-201.84400000000005
20
-58.8215
10
-202.64500000000001
20
-58.8215
0
LWPOLYLINE
5
136
100
AcDbEntity
8
0
100
AcDbPolyline
90
20
70
1
43
0.0
10
-164.54499999999999
20
-59.821899999999999
10
-178.54400000000001
20
-59.821899999999999
10
-178.54400000000001
20
-58.8215
10
-179.345
20
-58.8215
10
-179.345
20
-55.722300000000004
10
-178.54400000000001
20
-55.722300000000004
10
-178.54400000000001
20
-49.9223
10
-179.345
20
-49.9223
10
-179.345
20
-46.8217
10
-178.54400000000001
20
-46.8217
10
-178.54400000000001
20
-45.822700000000005
10
-164.54499999999999
20
-45.822700000000005
10
-164.54499999999999
20
-46.8217
10
-163.74400000000003
20
-46.8217
10
-163.74400000000003
20
-49.9223
10
-164.54499999999999
20
-49.9223
10
-164.54499999999999
20
-55.722300000000004
10
-163.74400000000003
20
-55.722300000000004
10
-163.74400000000003
20
-58.8215
10
-164.54499999999999
20
-58.8215
0
LWPOLYLINE
5
137
100
AcDbEntity
8
0
100
AcDbPolyline
90
20
70
1
43
0.0
10
-145.495
20
-78.871900000000011
10
-159.494
20
-78.871900000000011
10
-159.494
20
-77.871499999999997
10
-160.29499999999999
20
-77.871499999999997
10
-160.29499999999999
20
-74.772300000000001
10
-159.494
20
-74.772300000000001
10
-159.494
20
-68.972300000000004
10
-160.29499999999999
20
-68.972300000000004
10
-160.29499999999999
20
-65.871700000000004
10
-159.494
20
-65.871700000000004
10
-159.494
20
-64.872699999999995
10
-145.495
20
-64.872699999999995
10
-145.495
20
-65.871700000000004
10
-144.69400000000002
20
-65.871700000000004
10
-144.69400000000002
20
-68.972300000000004
10
-145.495
20
-68.972300000000004
10
-145.495
20
-74.772300000000001
10
-144.69400000000002
20
-74.772300000000001
10
-144.69400000000002
20
-77.871499999999997
10
-145.495
20
-77.871499999999997
0
LWPOLYLINE
5
138
100
AcDbEntity
8
0
100
AcDbPolyline
90
20
70
1
43
0.0
10
-283.60700000000003
20
-16.959499999999998
10
-297.60700000000003
20
-16.959499999999998
10
-297.60700000000003
20
-15.960400000000003
10
-298.40600000000001
20
-15.960400000000003
10
-298.40600000000001
20
-12.859800000000003
10
-297.60700000000003
20
-12.859800000000003
10
-297.60700000000003
20
-7.0596800000000037
10
-298.40600000000001
20
-7.0596800000000037
10
-298.40600000000001
20
-3.9604899999999965
10
-297.60700000000003
20
-3.9604899999999965
10
-297.60700000000003
20
-2.9600299999999979
10
-283.60700000000003
20
-2.9600299999999979
10
-283.60700000000003
20
-3.9604899999999965
10
-282.80599999999998
20
-3.9604899999999965
10
-282.80599999999998
20
-7.0596800000000037
10
-283.60700000000003
20
-7.0596800000000037
10
-283.60700000000003
20
-12.859800000000003
10
-282.80599999999998
20
-12.859800000000003
10
-282.80599999999998
20
-15.960400000000003
10
-283.60700000000003
20
-15.960400000000003
0
LWPOLYLINE
5
139
100
AcDbEntity
8
0
100
AcDbPolyline
90
20
70
1
43
0.0
10
-266.93700000000001
20
-40.771900000000009
10
-280.93799999999999
20
-40.771900000000009
10
-280.93799999999999
20
-39.771500000000003
10
-281.73700000000002
20
-39.771500000000003
10
-281.73700000000002
20
-36.673699999999997
10
-280.93799999999999
20
-36.673699999999997
10
-280.93799999999999
20
-30.872200000000003
10
-281.73700000000002
20
-30.872200000000003
10
-281.73700000000002
20
-27.771600000000003
10
-280.93799999999999
20
-27.771600000000003
10
-280.93799999999999
20
-26.772500000000004
10
-266.93700000000001
20
-26.772500000000004
10
-266.93700000000001
20
-27.771600000000003
10
-266.13799999999998
20
-27.771600000000003
10
-266.13799999999998
20
-30.872200000000003
10
-266.93700000000001
20
-30.872200000000003
10
-266.93700000000001
20
-36.673699999999997
10
-266.13799999999998
20
-36.673699999999997
10
-266.13799999999998
20
-39.771500000000003
10
-266.93700000000001
20
-39.771500000000003
0
LWPOLYLINE
5
140
100
AcDbEntity
8
0
100
AcDbPolyline
90
20
70
1
43
0.0
10
-43.10100000000002
20
-97.921899999999994
10
-57.100299999999997
20
-97.921899999999994
10
-57.100299999999997
20
-96.921499999999995
10
-57.901100000000021
20
-96.921499999999995
10
-57.901100000000021
20
-93.822299999999998
10
-57.100299999999997
20
-93.822299999999998
10
-57.100299999999997
20
-88.022300000000001
10
-57.901100000000021
20
-88.022300000000001
10
-57.901100000000021
20
-84.921700000000001
10
-57.100299999999997
20
-84.921700000000001
10
-57.100299999999997
20
-83.92270000000002
10
-43.10100000000002
20
-83.92270000000002
10
-43.10100000000002
20
-84.921700000000001
10
-42.300199999999997
20
-84.921700000000001
10
-42.300199999999997
20
-88.022300000000001
10
-43.10100000000002
20
-88.022300000000001
10
-43.10100000000002
20
-93.822299999999998
10
-42.300199999999997
20
-93.822299999999998
10
-42.300199999999997
20
-96.921499999999995
10
-43.10100000000002
20
-96.921499999999995
0
LWPOLYLINE
5
141
100
AcDbEntity
8
0
100
AcDbPolyline
90
20
70
1
43
0.0
10
-107.393
20
-59.821899999999999
10
-121.39399999999998
20
-59.821899999999999
10
-121.39399999999998
20
-58.8215
10
-122.19300000000001
20
-58.8215
10
-122.19300000000001
20
-55.722300000000004
10
-121.39399999999998
20
-55.722300000000004
10
-121.39399999999998
20
-49.9223
10
-122.19300000000001
20
-49.9223
10
-122.19300000000001
20
-46.8217
10
-121.39399999999998
20
-46.8217
10
-121.39399999999998
20
-45.822700000000005
10
-107.393
20
-45.822700000000005
10
-107.393
20
-46.8217
10
-106.59400000000002
20
-46.8217
10
-106.59400000000002
20
-49.9223
10
-107.393
20
-49.9223
10
-107.393
20
-55.722300000000004
10
-106.59400000000002
20
-55.722300000000004
10
-106.59400000000002
20
-58.8215
10
-107.393
20
-58.8215
0
LWPOLYLINE
5
142
100
AcDbEntity
8
0
100
AcDbPolyline
90
20
70
1
43
0.0
10
-88.343299999999971
20
-78.871900000000011
10
-102.34400000000001
20
-78.871900000000011
10
-102.34400000000001
20
-77.871499999999997
10
-103.143
20
-77.871499999999997
10
-103.143
20
-74.772300000000001
10
-102.34400000000001
20
-74.772300000000001
10
-102.34400000000001
20
-68.972300000000004
10
-103.143
20
-68.972300000000004
10
-103.143
20
-65.871700000000004
10
-102.34400000000001
20
-65.871700000000004
10
-102.34400000000001
20
-64.872699999999995
10
-88.343299999999971
20
-64.872699999999995
10
-88.343299999999971
20
-65.871700000000004
10
-87.543899999999979
20
-65.871700000000004
10
-87.543899999999979
20
-68.972300000000004
10
-88.343299999999971
20
-68.972300000000004
10
-88.343299999999971
20
-74.772300000000001
10
-87.543899999999979
20
-74.772300000000001
10
-87.543899999999979
20
-77.871499999999997
10
-88.343299999999971
20
-77.871499999999997
0
LWPOLYLINE
5
143
100
AcDbEntity
8
0
100
AcDbPolyline
90
20
70
1
43
0.0
10
-145.495
20
-40.771900000000009
10
-159.494
20
-40.771900000000009
10
-159.494
20
-39.771500000000003
10
-160.29499999999999
20
-39.771500000000003
10
-160.29499999999999
20
-36.673699999999997
10
-159.494
20
-36.673699999999997
10
-159.494
20
-30.872200000000003
10
-160.29499999999999
20
-30.872200000000003
10
-160.29499999999999
20
-27.771600000000003
10
-159.494
20
-27.771600000000003
10
-159.494
20
-26.772500000000004
10
-145.495
20
-26.772500000000004
10
-145.495
20
-27.771600000000003
10
-144.69400000000002
20
-27.771600000000003
10
-144.69400000000002
20
-30.872200000000003
10
-145.495
20
-30.872200000000003
10
-145.495
20
-36.673699999999997
10
-144.69400000000002
20
-36.673699999999997
10
-144.69400000000002
20
-39.771500000000003
10
-145.495
20
-39.771500000000003
0
LWPOLYLINE
5
144
100
AcDbEntity
8
0
100
AcDbPolyline
90
20
70
1
43
0.0
10
-183.595
20
-40.771900000000009
10
-197.59400000000002
20
-40.771900000000009
10
-197.59400000000002
20
-39.771500000000003
10
-198.39500000000001
20
-39.771500000000003
10
-198.39500000000001
20
-36.673699999999997
10
-197.59400000000002
20
-36.673699999999997
10
-197.59400000000002
20
-30.872200000000003
10
-198.39500000000001
20
-30.872200000000003
10
-198.39500000000001
20
-27.771600000000003
10
-197.59400000000002
20
-27.771600000000003
10
-197.59400000000002
20
-26.772500000000004
10
-183.595
20
-26.772500000000004
10
-183.595
20
-27.771600000000003
10
-182.79400000000004
20
-27.771600000000003
10
-182.79400000000004
20
-30.872200000000003
10
-183.595
20
-30.872200000000003
10
-183.595
20
-36.673699999999997
10
-182.79400000000004
20
-36.673699999999997
10
-182.79400000000004
20
-39.771500000000003
10
-183.595
20
-39.771500000000003
0
LWPOLYLINE
5
145
100
AcDbEntity
8
0
100
AcDbPolyline
90
20
70
1
43
0.0
10
-302.65699999999998
20
-16.959499999999998
10
-316.65700000000004
20
-16.959499999999998
10
-316.65700000000004
20
-15.960400000000003
10
-317.45599999999996
20
-15.960400000000003
10
-317.45599999999996
20
-12.859800000000003
10
-316.65700000000004
20
-12.859800000000003
10
-316.65700000000004
20
-7.0596800000000037
10
-317.45599999999996
20
-7.0596800000000037
10
-317.45599999999996
20
-3.9604899999999965
10
-316.65700000000004
20
-3.9604899999999965
10
-316.65700000000004
20
-2.9600299999999979
10
-302.65699999999998
20
-2.9600299999999979
10
-302.65699999999998
20
-3.9604899999999965
10
-301.85599999999999
20
-3.9604899999999965
10
-301.85599999999999
20
-7.0596800000000037
10
-302.65699999999998
20
-7.0596800000000037
10
-302.65699999999998
20
-12.859800000000003
10
-301.85599999999999
20
-12.859800000000003
10
-301.85599999999999
20
-15.960400000000003
10
-302.65699999999998
20
-15.960400000000003
0
LWPOLYLINE
5
146
100
AcDbEntity
8
0
100
AcDbPolyline
90
20
70
1
43
0.0
10
-88.343299999999971
20
-59.821899999999999
10
-102.34400000000001
20
-59.821899999999999
10
-102.34400000000001
20
-58.8215
10
-103.143
20
-58.8215
10
-103.143
20
-55.722300000000004
10
-102.34400000000001
20
-55.722300000000004
10
-102.34400000000001
20
-49.9223
10
-103.143
20
-49.9223
10
-103.143
20
-46.8217
10
-102.34400000000001
20
-46.8217
10
-102.34400000000001
20
-45.822700000000005
10
-88.343299999999971
20
-45.822700000000005
10
-88.343299999999971
20
-46.8217
10
-87.543899999999979
20
-46.8217
10
-87.543899999999979
20
-49.9223
10
-88.343299999999971
20
-49.9223
10
-88.343299999999971
20
-55.722300000000004
10
-87.543899999999979
20
-55.722300000000004
10
-87.543899999999979
20
-58.8215
10
-88.343299999999971
20
-58.8215
0
LWPOLYLINE
5
147
100
AcDbEntity
8
0
100
AcDbPolyline
90
20
70
1
43
0.0
10
-9.7620300000000171
20
-40.771900000000009
10
-23.762900000000009
20
-40.771900000000009
10
-23.762900000000009
20
-39.771500000000003
10
-24.562199999999983
20
-39.771500000000003
10
-24.562199999999983
20
-36.673699999999997
10
-23.762900000000009
20
-36.673699999999997
10
-23.762900000000009
20
-30.872200000000003
10
-24.562199999999983
20
-30.872200000000003
10
-24.562199999999983
20
-27.771600000000003
10
-23.762900000000009
20
-27.771600000000003
10
-23.762900000000009
20
-26.772500000000004
10
-9.7620300000000171
20
-26.772500000000004
10
-9.7620300000000171
20
-27.771600000000003
10
-8.962779999999988
20
-27.771600000000003
10
-8.962779999999988
20
-30.872200000000003
10
-9.7620300000000171
20
-30.872200000000003
10
-9.7620300000000171
20
-36.673699999999997
10
-8.962779999999988
20
-36.673699999999997
10
-8.962779999999988
20
-39.771500000000003
10
-9.7620300000000171
20
-39.771500000000003
0
LWPOLYLINE
5
148
100
AcDbEntity
8
0
100
AcDbPolyline
90
20
70
1
43
0.0
10
-107.393
20
-78.871900000000011
10
-121.39399999999998
20
-78.871900000000011
10
-121.39399999999998
20
-77.871499999999997
10
-122.19300000000001
20
-77.871499999999997
10
-122.19300000000001
20
-74.772300000000001
10
-121.39399999999998
20
-74.772300000000001
10
-121.39399999999998
20
-68.972300000000004
10
-122.19300000000001
20
-68.972300000000004
10
-122.19300000000001
20
-65.871700000000004
10
-121.39399999999998
20
-65.871700000000004
10
-121.39399999999998
20
-64.872699999999995
10
-107.393
20
-64.872699999999995
10
-107.393
20
-65.871700000000004
10
-106.59400000000002
20
-65.871700000000004
10
-106.59400000000002
20
-68.972300000000004
10
-107.393
20
-68.972300000000004
10
-107.393
20
-74.772300000000001
10
-106.59400000000002
20
-74.772300000000001
10
-106.59400000000002
20
-77.871499999999997
10
-107.393
20
-77.871499999999997
0
LWPOLYLINE
5
149
100
AcDbEntity
8
0
100
AcDbPolyline
90
20
70
1
43
0.0
10
-202.64500000000001
20
-97.921899999999994
10
-216.64400000000001
20
-97.921899999999994
10
-216.64400000000001
20
-96.921499999999995
10
-217.44500000000002
20
-96.921499999999995
10
-217.44500000000002
20
-93.822299999999998
10
-216.64400000000001
20
-93.822299999999998
10
-216.64400000000001
20
-88.022300000000001
10
-217.44500000000002
20
-88.022300000000001
10
-217.44500000000002
20
-84.921700000000001
10
-216.64400000000001
20
-84.921700000000001
10
-216.64400000000001
20
-83.92270000000002
10
-202.64500000000001
20
-83.92270000000002
10
-202.64500000000001
20
-84.921700000000001
10
-201.84400000000005
20
-84.921700000000001
10
-201.84400000000005
20
-88.022300000000001
10
-202.64500000000001
20
-88.022300000000001
10
-202.64500000000001
20
-93.822299999999998
10
-201.84400000000005
20
-93.822299999999998
10
-201.84400000000005
20
-96.921499999999995
10
-202.64500000000001
20
-96.921499999999995
0
LWPOLYLINE
5
150
100
AcDbEntity
8
0
100
AcDbPolyline
90
20
70
1
43
0.0
10
-9.7620300000000171
20
-21.721999999999998
10
-23.762900000000009
20
-21.721999999999998
10
-23.762900000000009
20
-20.721599999999999
10
-24.562199999999983
20
-20.721599999999999
10
-24.562199999999983
20
-17.623699999999999
10
-23.762900000000009
20
-17.623699999999999
10
-23.762900000000009
20
-11.8222
10
-24.562199999999983
20
-11.8222
10
-24.562199999999983
20
-8.7216200000000033
10
-23.762900000000009
20
-8.7216200000000033
10
-23.762900000000009
20
-7.7225199999999994
10
-9.7620300000000171
20
-7.7225199999999994
10
-9.7620300000000171
20
-8.7216200000000033
10
-8.962779999999988
20
-8.7216200000000033
10
-8.962779999999988
20
-11.8222
10
-9.7620300000000171
20
-11.8222
10
-9.7620300000000171
20
-17.623699999999999
10
-8.962779999999988
20
-17.623699999999999
10
-8.962779999999988
20
-20.721599999999999
10
-9.7620300000000171
20
-20.721599999999999
0
LWPOLYLINE
5
151
100
AcDbEntity
8
0
100
AcDbPolyline
90
20
70
1
43
0.0
10
-145.495
20
-97.921899999999994
10
-159.494
20
-97.921899999999994
10
-159.494
20
-96.921499999999995
10
-160.29499999999999
20
-96.921499999999995
10
-160.29499999999999
20
-93.822299999999998
10
-159.494
20
-93.822299999999998
10
-159.494
20
-88.022300000000001
10
-160.29499999999999
20
-88.022300000000001
10
-160.29499999999999
20
-84.921700000000001
10
-159.494
20
-84.921700000000001
10
-159.494
20
-83.92270000000002
10
-145.495
20
-83.92270000000002
10
-145.495
20
-84.921700000000001
10
-144.69400000000002
20
-84.921700000000001
10
-144.69400000000002
20
-88.022300000000001
10
-145.495
20
-88.022300000000001
10
-145.495
20
-93.822299999999998
10
-144.69400000000002
20
-93.822299999999998
10
-144.69400000000002
20
-96.921499999999995
10
-145.495
20
-96.921499999999995
0
LWPOLYLINE
5
152
100
AcDbEntity
8
0
100
AcDbPolyline
90
20
70
1
43
0.0
10
-164.54499999999999
20
-40.771900000000009
10
-178.54400000000001
20
-40.771900000000009
10
-178.54400000000001
20
-39.771500000000003
10
-179.345
20
-39.771500000000003
10
-179.345
20
-36.673699999999997
10
-178.54400000000001
20
-36.673699999999997
10
-178.54400000000001
20
-30.872200000000003
10
-179.345
20
-30.872200000000003
10
-179.345
20
-27.771600000000003
10
-178.54400000000001
20
-27.771600000000003
10
-178.54400000000001
20
-26.772500000000004
10
-164.54499999999999
20
-26.772500000000004
10
-164.54499999999999
20
-27.771600000000003
10
-163.74400000000003
20
-27.771600000000003
10
-163.74400000000003
20
-30.872200000000003
10
-164.54499999999999
20
-30.872200000000003
10
-164.54499999999999
20
-36.673699999999997
10
-163.74400000000003
20
-36.673699999999997
10
-163.74400000000003
20
-39.771500000000003
10
-164.54499999999999
20
-39.771500000000003
0
LWPOLYLINE
5
153
100
AcDbEntity
8
0
100
AcDbPolyline
90
20
70
1
43
0.0
10
-221.69499999999999
20
-78.871900000000011
10
-235.69400000000002
20
-78.871900000000011
10
-235.69400000000002
20
-77.871499999999997
10
-236.49500000000003
20
-77.871499999999997
10
-236.49500000000003
20
-74.772300000000001
10
-235.69400000000002
20
-74.772300000000001
10
-235.69400000000002
20
-68.972300000000004
10
-236.49500000000003
20
-68.972300000000004
10
-236.49500000000003
20
-65.871700000000004
10
-235.69400000000002
20
-65.871700000000004
10
-235.69400000000002
20
-64.872699999999995
10
-221.69499999999999
20
-64.872699999999995
10
-221.69499999999999
20
-65.871700000000004
10
-220.89400000000001
20
-65.871700000000004
10
-220.89400000000001
20
-68.972300000000004
10
-221.69499999999999
20
-68.972300000000004
10
-221.69499999999999
20
-74.772300000000001
10
-220.89400000000001
20
-74.772300000000001
10
-220.89400000000001
20
-77.871499999999997
10
-221.69499999999999
20
-77.871499999999997
0
LWPOLYLINE
5
154
100
AcDbEntity
8
0
100
AcDbPolyline
90
20
70
1
43
0.0
10
-88.343299999999971
20
-40.771900000000009
10
-102.34400000000001
20
-40.771900000000009
10
-102.34400000000001
20
-39.771500000000003
10
-103.143
20
-39.771500000000003
10
-103.143
20
-36.673699999999997
10
-102.34400000000001
20
-36.673699999999997
10
-102.34400000000001
20
-30.872200000000003
10
-103.143
20
-30.872200000000003
10
-103.143
20
-27.771600000000003
10
-102.34400000000001
20
-27.771600000000003
10
-102.34400000000001
20
-26.772500000000004
10
-88.343299999999971
20
-26.772500000000004
10
-88.343299999999971
20
-27.771600000000003
10
-87.543899999999979
20
-27.771600000000003
10
-87.543899999999979
20
-30.872200000000003
10
-88.343299999999971
20
-30.872200000000003
10
-88.343299999999971
20
-36.673699999999997
10
-87.543899999999979
20
-36.673699999999997
10
-87.543899999999979
20
-39.771500000000003
10
-88.343299999999971
20
-39.771500000000003
0
LWPOLYLINE
5
155
100
AcDbEntity
8
0
100
AcDbPolyline
90
20
70
1
43
0.0
10
-183.595
20
-59.821899999999999
10
-197.59400000000002
20
-59.821899999999999
10
-197.59400000000002
20
-58.8215
10
-198.39500000000001
20
-58.8215
10
-198.39500000000001
20
-55.722300000000004
10
-197.59400000000002
20
-55.722300000000004
10
-197.59400000000002
20
-49.9223
10
-198.39500000000001
20
-49.9223
10
-198.39500000000001
20
-46.8217
10
-197.59400000000002
20
-46.8217
10
-197.59400000000002
20
-45.822700000000005
10
-183.595
20
-45.822700000000005
10
-183.595
20
-46.8217
10
-182.79400000000004
20
-46.8217
10
-182.79400000000004
20
-49.9223
10
-183.595
20
-49.9223
10
-183.595
20
-55.722300000000004
10
-182.79400000000004
20
-55.722300000000004
10
-182.79400000000004
20
-58.8215
10
-183.595
20
-58.8215
0
LWPOLYLINE
5
156
100
AcDbEntity
8
0
100
AcDbPolyline
90
20
70
1
43
0.0
10
-202.64500000000001
20
-78.871900000000011
10
-216.64400000000001
20
-78.871900000000011
10
-216.64400000000001
20
-77.871499999999997
10
-217.44500000000002
20
-77.871499999999997
10
-217.44500000000002
20
-74.772300000000001
10
-216.64400000000001
20
-74.772300000000001
10
-216.64400000000001
20
-68.972300000000004
10
-217.44500000000002
20
-68.972300000000004
10
-217.44500000000002
20
-65.871700000000004
10
-216.64400000000001
20
-65.871700000000004
10
-216.64400000000001
20
-64.872699999999995
10
-202.64500000000001
20
-64.872699999999995
10
-202.64500000000001
20
-65.871700000000004
10
-201.84400000000005
20
-65.871700000000004
10
-201.84400000000005
20
-68.972300000000004
10
-202.64500000000001
20
-68.972300000000004
10
-202.64500000000001
20
-74.772300000000001
10
-201.84400000000005
20
-74.772300000000001
10
-201.84400000000005
20
-77.871499999999997
10
-202.64500000000001
20
-77.871499999999997
0
LWPOLYLINE
5
157
100
AcDbEntity
8
0
100
AcDbPolyline
90
20
70
1
43
0.0
10
-221.69499999999999
20
-97.921899999999994
10
-235.69400000000002
20
-97.921899999999994
10
-235.69400000000002
20
-96.921499999999995
10
-236.49500000000003
20
-96.921499999999995
10
-236.49500000000003
20
-93.822299999999998
10
-235.69400000000002
20
-93.822299999999998
10
-235.69400000000002
20
-88.022300000000001
10
-236.49500000000003
20
-88.022300000000001
10
-236.49500000000003
20
-84.921700000000001
10
-235.69400000000002
20
-84.921700000000001
10
-235.69400000000002
20
-83.92270000000002
10
-221.69499999999999
20
-83.92270000000002
10
-221.69499999999999
20
-84.921700000000001
10
-220.89400000000001
20
-84.921700000000001
10
-220.89400000000001
20
-88.022300000000001
10
-221.69499999999999
20
-88.022300000000001
10
-221.69499999999999
20
-93.822299999999998
10
-220.89400000000001
20
-93.822299999999998
10
-220.89400000000001
20
-96.921499999999995
10
-221.69499999999999
20
-96.921499999999995
0
LWPOLYLINE
5
158
100
AcDbEntity
8
0
100
AcDbPolyline
90
20
70
1
43
0.0
10
-259.79500000000002
20
-78.871900000000011
10
-273.79400000000004
20
-78.871900000000011
10
-273.79400000000004
20
-77.871499999999997
10
-274.59500000000003
20
-77.871499999999997
10
-274.59500000000003
20
-74.772300000000001
10
-273.79400000000004
20
-74.772300000000001
10
-273.79400000000004
20
-68.972300000000004
10
-274.59500000000003
20
-68.972300000000004
10
-274.59500000000003
20
-65.871700000000004
10
-273.79400000000004
20
-65.871700000000004
10
-273.79400000000004
20
-64.872699999999995
10
-259.79500000000002
20
-64.872699999999995
10
-259.79500000000002
20
-65.871700000000004
10
-258.99400000000003
20
-65.871700000000004
10
-258.99400000000003
20
-68.972300000000004
10
-259.79500000000002
20
-68.972300000000004
10
-259.79500000000002
20
-74.772300000000001
10
-258.99400000000003
20
-74.772300000000001
10
-258.99400000000003
20
-77.871499999999997
10
-259.79500000000002
20
-77.871499999999997
0
LWPOLYLINE
5
159
100
AcDbEntity
8
0
100
AcDbPolyline
90
20
70
1
43
0.0
10
-259.79500000000002
20
-97.921899999999994
10
-273.79400000000004
20
-97.921899999999994
10
-273.79400000000004
20
-96.921499999999995
10
-274.59500000000003
20
-96.921499999999995
10
-274.59500000000003
20
-93.822299999999998
10
-273.79400000000004
20
-93.822299999999998
10
-273.79400000000004
20
-88.022300000000001
10
-274.59500000000003
20
-88.022300000000001
10
-274.59500000000003
20
-84.921700000000001
10
-273.79400000000004
20
-84.921700000000001
10
-273.79400000000004
20
-83.92270000000002
10
-259.79500000000002
20
-83.92270000000002
10
-259.79500000000002
20
-84.921700000000001
10
-258.99400000000003
20
-84.921700000000001
10
-258.99400000000003
20
-88.022300000000001
10
-259.79500000000002
20
-88.022300000000001
10
-259.79500000000002
20
-93.822299999999998
10
-258.99400000000003
20
-93.822299999999998
10
-258.99400000000003
20
-96.921499999999995
10
-259.79500000000002
20
-96.921499999999995
0
LWPOLYLINE
5
160
100
AcDbEntity
8
0
100
AcDbPolyline
90
20
70
1
43
0.0
10
-107.393
20
-97.921899999999994
10
-121.39399999999998
20
-97.921899999999994
10
-121.39399999999998
20
-96.921499999999995
10
-122.19300000000001
20
-96.921499999999995
10
-122.19300000000001
20
-93.822299999999998
10
-121.39399999999998
20
-93.822299999999998
10
-121.39399999999998
20
-88.022300000000001
10
-122.19300000000001
20
-88.022300000000001
10
-122.19300000000001
20
-84.921700000000001
10
-121.39399999999998
20
-84.921700000000001
10
-121.39399999999998
20
-83.92270000000002
10
-107.393
20
-83.92270000000002
10
-107.393
20
-84.921700000000001
10
-106.59400000000002
20
-84.921700000000001
10
-106.59400000000002
20
-88.022300000000001
10
-107.393
20
-88.022300000000001
10
-107.393
20
-93.822299999999998
10
-106.59400000000002
20
-93.822299999999998
10
-106.59400000000002
20
-96.921499999999995
10
-107.393
20
-96.921499999999995
0
LWPOLYLINE
5
161
100
AcDbEntity
8
0
100
AcDbPolyline
90
20
70
1
43
0.0
10
-107.393
20
-40.771900000000009
10
-121.39399999999998
20
-40.771900000000009
10
-121.39399999999998
20
-39.771500000000003
10
-122.19300000000001
20
-39.771500000000003
10
-122.19300000000001
20
-36.673699999999997
10
-121.39399999999998
20
-36.673699999999997
10
-121.39399999999998
20
-30.872200000000003
10
-122.19300000000001
20
-30.872200000000003
10
-122.19300000000001
20
-27.771600000000003
10
-121.39399999999998
20
-27.771600000000003
10
-121.39399999999998
20
-26.772500000000004
10
-107.393
20
-26.772500000000004
10
-107.393
20
-27.771600000000003
10
-106.59400000000002
20
-27.771600000000003
10
-106.59400000000002
20
-30.872200000000003
10
-107.393
20
-30.872200000000003
10
-107.393
20
-36.673699999999997
10
-106.59400000000002
20
-36.673699999999997
10
-106.59400000000002
20
-39.771500000000003
10
-107.393
20
-39.771500000000003
0
LWPOLYLINE
5
162
100
AcDbEntity
8
0
100
AcDbPolyline
90
20
70
1
43
0.0
10
-88.343299999999971
20
-97.921899999999994
10
-102.34400000000001
20
-97.921899999999994
10
-102.34400000000001
20
-96.921499999999995
10
-103.143
20
-96.921499999999995
10
-103.143
20
-93.822299999999998
10
-102.34400000000001
20
-93.822299999999998
10
-102.34400000000001
20
-88.022300000000001
10
-103.143
20
-88.022300000000001
10
-103.143
20
-84.921700000000001
10
-102.34400000000001
20
-84.921700000000001
10
-102.34400000000001
20
-83.92270000000002
10
-88.343299999999971
20
-83.92270000000002
10
-88.343299999999971
20
-84.921700000000001
10
-87.543899999999979
20
-84.921700000000001
10
-87.543899999999979
20
-88.022300000000001
10
-88.343299999999971
20
-88.022300000000001
10
-88.343299999999971
20
-93.822299999999998
10
-87.543899999999979
20
-93.822299999999998
10
-87.543899999999979
20
-96.921499999999995
10
-88.343299999999971
20
-96.921499999999995
0
LWPOLYLINE
5
163
100
AcDbEntity
8
0
100
AcDbPolyline
90
20
70
1
43
0.0
10
-240.745
20
-97.921899999999994
10
-254.74400000000003
20
-97.921899999999994
10
-254.74400000000003
20
-96.921499999999995
10
-255.54500000000002
20
-96.921499999999995
10
-255.54500000000002
20
-93.822299999999998
10
-254.74400000000003
20
-93.822299999999998
10
-254.74400000000003
20
-88.022300000000001
10
-255.54500000000002
20
-88.022300000000001
10
-255.54500000000002
20
-84.921700000000001
10
-254.74400000000003
20
-84.921700000000001
10
-254.74400000000003
20
-83.92270000000002
10
-240.745
20
-83.92270000000002
10
-240.745
20
-84.921700000000001
10
-239.94400000000002
20
-84.921700000000001
10
-239.94400000000002
20
-88.022300000000001
10
-240.745
20
-88.022300000000001
10
-240.745
20
-93.822299999999998
10
-239.94400000000002
20
-93.822299999999998
10
-239.94400000000002
20
-96.921499999999995
10
-240.745
20
-96.921499999999995
0
LWPOLYLINE
5
164
100
AcDbEntity
8
0
100
AcDbPolyline
90
20
70
1
43
0.0
10
-183.595
20
-97.921899999999994
10
-197.59400000000002
20
-97.921899999999994
10
-197.59400000000002
20
-96.921499999999995
10
-198.39500000000001
20
-96.921499999999995
10
-198.39500000000001
20
-93.822299999999998
10
-197.59400000000002
20
-93.822299999999998
10
-197.59400000000002
20
-88.022300000000001
10
-198.39500000000001
20
-88.022300000000001
10
-198.39500000000001
20
-84.921700000000001
10
-197.59400000000002
20
-84.921700000000001
10
-197.59400000000002
20
-83.92270000000002
10
-183.595
20
-83.92270000000002
10
-183.595
20
-84.921700000000001
10
-182.79400000000004
20
-84.921700000000001
10
-182.79400000000004
20
-88.022300000000001
10
-183.595
20
-88.022300000000001
10
-183.595
20
-93.822299999999998
10
-182.79400000000004
20
-93.822299999999998
10
-182.79400000000004
20
-96.921499999999995
10
-183.595
20
-96.921499999999995
0
LWPOLYLINE
5
165
100
AcDbEntity
8
0
100
AcDbPolyline
90
20
70
1
43
0.0
10
-69.293300000000002
20
-21.721999999999998
10
-83.293999999999997
20
-21.721999999999998
10
-83.293999999999997
20
-20.721599999999999
10
-84.093400000000003
20
-20.721599999999999
10
-84.093400000000003
20
-17.623699999999999
10
-83.293999999999997
20
-17.623699999999999
10
-83.293999999999997
20
-11.8222
10
-84.093400000000003
20
-11.8222
10
-84.093400000000003
20
-8.7216200000000033
10
-83.293999999999997
20
-8.7216200000000033
10
-83.293999999999997
20
-7.7225199999999994
10
-69.293300000000002
20
-7.7225199999999994
10
-69.293300000000002
20
-8.7216200000000033
10
-68.493899999999996
20
-8.7216200000000033
10
-68.493899999999996
20
-11.8222
10
-69.293300000000002
20
-11.8222
10
-69.293300000000002
20
-17.623699999999999
10
-68.493899999999996
20
-17.623699999999999
10
-68.493899999999996
20
-20.721599999999999
10
-69.293300000000002
20
-20.721599999999999
0
LWPOLYLINE
5
166
100
AcDbEntity
8
0
100
AcDbPolyline
90
52
70
1
43
0.0
10
-119.30099999999999
20
-21.721999999999998
10
-133.30000000000001
20
-21.721999999999998
10
-133.30000000000001
20
-20.721599999999999
10
-134.101
20
-20.721599999999999
10
-134.101
20
-17.623699999999999
10
-133.30000000000001
20
-17.623699999999999
10
-133.30000000000001
20
-17.021500000000003
10
-134.82599999999999
20
-17.021500000000003
10
-134.82599999999999
20
-20.2517
10
-141.57499999999999
20
-20.2517
10
-141.57499999999999
20
-17.021500000000003
10
-142.40100000000001
20
-17.021500000000003
10
-142.40100000000001
20
-14.222700000000001
10
-141.57499999999999
20
-14.222700000000001
10
-141.57499999999999
20
-7.9526699999999995
10
-139.84999999999999
20
-7.9526699999999995
10
-139.84999999999999
20
-6.7523800000000023
10
-136.55000000000001
20
-6.7523800000000023
10
-136.55000000000001
20
-7.9526699999999995
10
-134.82599999999999
20
-7.9526699999999995
10
-134.82599999999999
20
-12.423000000000002
10
-133.30000000000001
20
-12.423000000000002
10
-133.30000000000001
20
-11.8222
10
-134.101
20
-11.8222
10
-134.101
20
-8.7216200000000033
10
-133.30000000000001
20
-8.7216200000000033
10
-133.30000000000001
20
-7.7225199999999994
10
-119.30099999999999
20
-7.7225199999999994
10
-119.30099999999999
20
-8.7216200000000033
10
-118.50000000000001
20
-8.7216200000000033
10
-118.50000000000001
20
-11.8222
10
-119.30099999999999
20
-11.8222
10
-119.30099999999999
20
-12.423000000000002
10
-117.77600000000004
20
-12.423000000000002
10
-117.77600000000004
20
-7.9526699999999995
10
-116.05000000000001
20
-7.9526699999999995
10
-116.05000000000001
20
-6.7523800000000023
10
-112.75100000000002
20
-6.7523800000000023
10
-112.75100000000002
20
-7.9526699999999995
10
-111.02600000000002
20
-7.9526699999999995
10
-111.02600000000002
20
-14.222700000000001
10
-110.19999999999999
20
-14.222700000000001
10
-110.19999999999999
20
-17.021500000000003
10
-111.02600000000002
20
-17.021500000000003
10
-111.02600000000002
20
-20.2517
10
-117.77600000000004
20
-20.2517
10
-117.77600000000004
20
-17.021500000000003
10
-119.30099999999999
20
-17.021500000000003
10
-119.30099999999999
20
-17.623699999999999
10
-118.50000000000001
20
-17.623699999999999
10
-118.50000000000001
20
-20.721599999999999
10
-119.30099999999999
20
-20.721599999999999
0
LWPOLYLINE
5
167
100
AcDbEntity
8
0
100
AcDbPolyline
90
20
70
1
43
0.0
10
-264.55700000000002
20
-16.959499999999998
10
-278.55700000000002
20
-16.959499999999998
10
-278.55700000000002
20
-15.960400000000003
10
-279.35599999999999
20
-15.960400000000003
10
-279.35599999999999
20
-12.859800000000003
10
-278.55700000000002
20
-12.859800000000003
10
-278.55700000000002
20
-7.0596800000000037
10
-279.35599999999999
20
-7.0596800000000037
10
-279.35599999999999
20
-3.9604899999999965
10
-278.55700000000002
20
-3.9604899999999965
10
-278.55700000000002
20
-2.9600299999999979
10
-264.55700000000002
20
-2.9600299999999979
10
-264.55700000000002
20
-3.9604899999999965
10
-263.75599999999997
20
-3.9604899999999965
10
-263.75599999999997
20
-7.0596800000000037
10
-264.55700000000002
20
-7.0596800000000037
10
-264.55700000000002
20
-12.859800000000003
10
-263.75599999999997
20
-12.859800000000003
10
-263.75599999999997
20
-15.960400000000003
10
-264.55700000000002
20
-15.960400000000003
0
LWPOLYLINE
5
168
100
AcDbEntity
8
0
100
AcDbPolyline
90
52
70
1
43
0.0
10
-166.92599999999999
20
-21.721999999999998
10
-180.92500000000001
20
-21.721999999999998
10
-180.92500000000001
20
-20.721599999999999
10
-181.726
20
-20.721599999999999
10
-181.726
20
-17.623699999999999
10
-180.92500000000001
20
-17.623699999999999
10
-180.92500000000001
20
-17.021500000000003
10
-182.45100000000002
20
-17.021500000000003
10
-182.45100000000002
20
-20.2517
10
-189.19999999999999
20
-20.2517
10
-189.19999999999999
20
-17.021500000000003
10
-190.02599999999998
20
-17.021500000000003
10
-190.02599999999998
20
-14.222700000000001
10
-189.19999999999999
20
-14.222700000000001
10
-189.19999999999999
20
-7.9526699999999995
10
-187.47499999999999
20
-7.9526699999999995
10
-187.47499999999999
20
-6.7523800000000023
10
-184.17500000000001
20
-6.7523800000000023
10
-184.17500000000001
20
-7.9526699999999995
10
-182.45100000000002
20
-7.9526699999999995
10
-182.45100000000002
20
-12.423000000000002
10
-180.92500000000001
20
-12.423000000000002
10
-180.92500000000001
20
-11.8222
10
-181.726
20
-11.8222
10
-181.726
20
-8.7216200000000033
10
-180.92500000000001
20
-8.7216200000000033
10
-180.92500000000001
20
-7.7225199999999994
10
-166.92599999999999
20
-7.7225199999999994
10
-166.92599999999999
20
-8.7216200000000033
10
-166.125
20
-8.7216200000000033
10
-166.125
20
-11.8222
10
-166.92599999999999
20
-11.8222
10
-166.92599999999999
20
-12.423000000000002
10
-165.40099999999998
20
-12.423000000000002
10
-165.40099999999998
20
-7.9526699999999995
10
-163.67500000000004
20
-7.9526699999999995
10
-163.67500000000004
20
-6.7523800000000023
10
-160.376
20
-6.7523800000000023
10
-160.376
20
-7.9526699999999995
10
-158.65100000000001
20
-7.9526699999999995
10
-158.65100000000001
20
-14.222700000000001
10
-157.82499999999999
20
-14.222700000000001
10
-157.82499999999999
20
-17.021500000000003
10
-158.65100000000001
20
-17.021500000000003
10
-158.65100000000001
20
-20.2517
10
-165.40099999999998
20
-20.2517
10
-165.40099999999998
20
-17.021500000000003
10
-166.92599999999999
20
-17.021500000000003
10
-166.92599999999999
20
-17.623699999999999
10
-166.125
20
-17.623699999999999
10
-166.125
20
-20.721599999999999
10
-166.92599999999999
20
-20.721599999999999
0
LWPOLYLINE
5
169
100
AcDbEntity
8
0
100
AcDbPolyline
90
20
70
1
43
0.0
10
-145.495
20
-59.821899999999999
10
-159.494
20
-59.821899999999999
10
-159.494
20
-58.8215
10
-160.29499999999999
20
-58.8215
10
-160.29499999999999
20
-55.722300000000004
10
-159.494
20
-55.722300000000004
10
-159.494
20
-49.9223
10
-160.29499999999999
20
-49.9223
10
-160.29499999999999
20
-46.8217
10
-159.494
20
-46.8217
10
-159.494
20
-45.822700000000005
10
-145.495
20
-45.822700000000005
10
-145.495
20
-46.8217
10
-144.69400000000002
20
-46.8217
10
-144.69400000000002
20
-49.9223
10
-145.495
20
-49.9223
10
-145.495
20
-55.722300000000004
10
-144.69400000000002
20
-55.722300000000004
10
-144.69400000000002
20
-58.8215
10
-145.495
20
-58.8215
0
LWPOLYLINE
5
170
100
AcDbEntity
8
0
100
AcDbPolyline
90
20
70
1
43
0.0
10
-43.10100000000002
20
-59.821899999999999
10
-57.100299999999997
20
-59.821899999999999
10
-57.100299999999997
20
-58.8215
10
-57.901100000000021
20
-58.8215
10
-57.901100000000021
20
-55.722300000000004
10
-57.100299999999997
20
-55.722300000000004
10
-57.100299999999997
20
-49.9223
10
-57.901100000000021
20
-49.9223
10
-57.901100000000021
20
-46.8217
10
-57.100299999999997
20
-46.8217
10
-57.100299999999997
20
-45.822700000000005
10
-43.10100000000002
20
-45.822700000000005
10
-43.10100000000002
20
-46.8217
10
-42.300199999999997
20
-46.8217
10
-42.300199999999997
20
-49.9223
10
-43.10100000000002
20
-49.9223
10
-43.10100000000002
20
-55.722300000000004
10
-42.300199999999997
20
-55.722300000000004
10
-42.300199999999997
20
-58.8215
10
-43.10100000000002
20
-58.8215
0
LWPOLYLINE
5
171
100
AcDbEntity
8
0
100
AcDbPolyline
90
20
70
1
43
0.0
10
-69.293300000000002
20
-97.921899999999994
10
-83.293999999999997
20
-97.921899999999994
10
-83.293999999999997
20
-96.921499999999995
10
-84.093400000000003
20
-96.921499999999995
10
-84.093400000000003
20
-93.822299999999998
10
-83.293999999999997
20
-93.822299999999998
10
-83.293999999999997
20
-88.022300000000001
10
-84.093400000000003
20
-88.022300000000001
10
-84.093400000000003
20
-84.921700000000001
10
-83.293999999999997
20
-84.921700000000001
10
-83.293999999999997
20
-83.92270000000002
10
-69.293300000000002
20
-83.92270000000002
10
-69.293300000000002
20
-84.921700000000001
10
-68.493899999999996
20
-84.921700000000001
10
-68.493899999999996
20
-88.022300000000001
10
-69.293300000000002
20
-88.022300000000001
10
-69.293300000000002
20
-93.822299999999998
10
-68.493899999999996
20
-93.822299999999998
10
-68.493899999999996
20
-96.921499999999995
10
-69.293300000000002
20
-96.921499999999995
0
LWPOLYLINE
5
172
100
AcDbEntity
8
0
100
AcDbPolyline
90
20
70
1
43
0.0
10
-278.84500000000003
20
-78.871900000000011
10
-292.84399999999999
20
-78.871900000000011
10
-292.84399999999999
20
-77.871499999999997
10
-293.64499999999998
20
-77.871499999999997
10
-293.64499999999998
20
-74.772300000000001
10
-292.84399999999999
20
-74.772300000000001
10
-292.84399999999999
20
-68.972300000000004
10
-293.64499999999998
20
-68.972300000000004
10
-293.64499999999998
20
-65.871700000000004
10
-292.84399999999999
20
-65.871700000000004
10
-292.84399999999999
20
-64.872699999999995
10
-278.84500000000003
20
-64.872699999999995
10
-278.84500000000003
20
-65.871700000000004
10
-278.04400000000004
20
-65.871700000000004
10
-278.04400000000004
20
-68.972300000000004
10
-278.84500000000003
20
-68.972300000000004
10
-278.84500000000003
20
-74.772300000000001
10
-278.04400000000004
20
-74.772300000000001
10
-278.04400000000004
20
-77.871499999999997
10
-278.84500000000003
20
-77.871499999999997
0
LWPOLYLINE
5
173
100
AcDbEntity
8
0
100
AcDbPolyline
90
20
70
1
43
0.0
10
-221.69499999999999
20
-40.771900000000009
10
-235.69400000000002
20
-40.771900000000009
10
-235.69400000000002
20
-39.771500000000003
10
-236.49500000000003
20
-39.771500000000003
10
-236.49500000000003
20
-36.673699999999997
10
-235.69400000000002
20
-36.673699999999997
10
-235.69400000000002
20
-30.872200000000003
10
-236.49500000000003
20
-30.872200000000003
10
-236.49500000000003
20
-27.771600000000003
10
-235.69400000000002
20
-27.771600000000003
10
-235.69400000000002
20
-26.772500000000004
10
-221.69499999999999
20
-26.772500000000004
10
-221.69499999999999
20
-27.771600000000003
10
-220.89400000000001
20
-27.771600000000003
10
-220.89400000000001
20
-30.872200000000003
10
-221.69499999999999
20
-30.872200000000003
10
-221.69499999999999
20
-36.673699999999997
10
-220.89400000000001
20
-36.673699999999997
10
-220.89400000000001
20
-39.771500000000003
10
-221.69499999999999
20
-39.771500000000003
0
LWPOLYLINE
5
174
100
AcDbEntity
8
0
100
AcDbPolyline
90
20
70
1
43
0.0
10
-240.745
20
-40.771900000000009
10
-254.74400000000003
20
-40.771900000000009
10
-254.74400000000003
20
-39.771500000000003
10
-255.54500000000002
20
-39.771500000000003
10
-255.54500000000002
20
-36.673699999999997
10
-254.74400000000003
20
-36.673699999999997
10
-254.74400000000003
20
-30.872200000000003
10
-255.54500000000002
20
-30.872200000000003
10
-255.54500000000002
20
-27.771600000000003
10
-254.74400000000003
20
-27.771600000000003
10
-254.74400000000003
20
-26.772500000000004
10
-240.745
20
-26.772500000000004
10
-240.745
20
-27.771600000000003
10
-239.94400000000002
20
-27.771600000000003
10
-239.94400000000002
20
-30.872200000000003
10
-240.745
20
-30.872200000000003
10
-240.745
20
-36.673699999999997
10
-239.94400000000002
20
-36.673699999999997
10
-239.94400000000002
20
-39.771500000000003
10
-240.745
20
-39.771500000000003
0
LWPOLYLINE
5
175
100
AcDbEntity
8
0
100
AcDbPolyline
90
20
70
1
43
0.0
10
-221.69499999999999
20
-21.721999999999998
10
-235.69400000000002
20
-21.721999999999998
10
-235.69400000000002
20
-20.721599999999999
10
-236.49500000000003
20
-20.721599999999999
10
-236.49500000000003
20
-17.623699999999999
10
-235.69400000000002
20
-17.623699999999999
10
-235.69400000000002
20
-11.8222
10
-236.49500000000003
20
-11.8222
10
-236.49500000000003
20
-8.7216200000000033
10
-235.69400000000002
20
-8.7216200000000033
10
-235.69400000000002
20
-7.7225199999999994
10
-221.69499999999999
20
-7.7225199999999994
10
-221.69499999999999
20
-8.7216200000000033
10
-220.89400000000001
20
-8.7216200000000033
10
-220.89400000000001
20
-11.8222
10
-221.69499999999999
20
-11.8222
10
-221.69499999999999
20
-17.623699999999999
10
-220.89400000000001
20
-17.623699999999999
10
-220.89400000000001
20
-20.721599999999999
10
-221.69499999999999
20
-20.721599999999999
0
LWPOLYLINE
5
176
100
AcDbEntity
8
0
100
AcDbPolyline
90
20
70
1
43
0.0
10
-164.54499999999999
20
-78.871900000000011
10
-178.54400000000001
20
-78.871900000000011
10
-178.54400000000001
20
-77.871499999999997
10
-179.345
20
-77.871499999999997
10
-179.345
20
-74.772300000000001
10
-178.54400000000001
20
-74.772300000000001
10
-178.54400000000001
20
-68.972300000000004
10
-179.345
20
-68.972300000000004
10
-179.345
20
-65.871700000000004
10
-178.54400000000001
20
-65.871700000000004
10
-178.54400000000001
20
-64.872699999999995
10
-164.54499999999999
20
-64.872699999999995
10
-164.54499999999999
20
-65.871700000000004
10
-163.74400000000003
20
-65.871700000000004
10
-163.74400000000003
20
-68.972300000000004
10
-164.54499999999999
20
-68.972300000000004
10
-164.54499999999999
20
-74.772300000000001
10
-163.74400000000003
20
-74.772300000000001
10
-163.74400000000003
20
-77.871499999999997
10
-164.54499999999999
20
-77.871499999999997
0
LWPOLYLINE
5
177
100
AcDbEntity
8
0
100
AcDbPolyline
90
20
70
1
43
0.0
10
-69.293300000000002
20
-78.871900000000011
10
-83.293999999999997
20
-78.871900000000011
10
-83.293999999999997
20
-77.871499999999997
10
-84.093400000000003
20
-77.871499999999997
10
-84.093400000000003
20
-74.772300000000001
10
-83.293999999999997
20
-74.772300000000001
10
-83.293999999999997
20
-68.972300000000004
10
-84.093400000000003
20
-68.972300000000004
10
-84.093400000000003
20
-65.871700000000004
10
-83.293999999999997
20
-65.871700000000004
10
-83.293999999999997
20
-64.872699999999995
10
-69.293300000000002
20
-64.872699999999995
10
-69.293300000000002
20
-65.871700000000004
10
-68.493899999999996
20
-65.871700000000004
10
-68.493899999999996
20
-68.972300000000004
10
-69.293300000000002
20
-68.972300000000004
10
-69.293300000000002
20
-74.772300000000001
10
-68.493899999999996
20
-74.772300000000001
10
-68.493899999999996
20
-77.871499999999997
10
-69.293300000000002
20
-77.871499999999997
0
LWPOLYLINE
5
178
100
AcDbEntity
8
0
100
AcDbPolyline
90
20
70
1
43
0.0
10
-126.44500000000001
20
-97.921899999999994
10
-140.44399999999999
20
-97.921899999999994
10
-140.44399999999999
20
-96.921499999999995
10
-141.245
20
-96.921499999999995
10
-141.245
20
-93.822299999999998
10
-140.44399999999999
20
-93.822299999999998
10
-140.44399999999999
20
-88.022300000000001
10
-141.245
20
-88.022300000000001
10
-141.245
20
-84.921700000000001
10
-140.44399999999999
20
-84.921700000000001
10
-140.44399999999999
20
-83.92270000000002
10
-126.44500000000001
20
-83.92270000000002
10
-126.44500000000001
20
-84.921700000000001
10
-125.64399999999999
20
-84.921700000000001
10
-125.64399999999999
20
-88.022300000000001
10
-126.44500000000001
20
-88.022300000000001
10
-126.44500000000001
20
-93.822299999999998
10
-125.64399999999999
20
-93.822299999999998
10
-125.64399999999999
20
-96.921499999999995
10
-126.44500000000001
20
-96.921499999999995
0
LWPOLYLINE
5
179
100
AcDbEntity
8
0
100
AcDbPolyline
90
20
70
1
43
0.0
10
-183.595
20
-78.871900000000011
10
-197.59400000000002
20
-78.871900000000011
10
-197.59400000000002
20
-77.871499999999997
10
-198.39500000000001
20
-77.871499999999997
10
-198.39500000000001
20
-74.772300000000001
10
-197.59400000000002
20
-74.772300000000001
10
-197.59400000000002
20
-68.972300000000004
10
-198.39500000000001
20
-68.972300000000004
10
-198.39500000000001
20
-65.871700000000004
10
-197.59400000000002
20
-65.871700000000004
10
-197.59400000000002
20
-64.872699999999995
10
-183.595
20
-64.872699999999995
10
-183.595
20
-65.871700000000004
10
-182.79400000000004
20
-65.871700000000004
10
-182.79400000000004
20
-68.972300000000004
10
-183.595
20
-68.972300000000004
10
-183.595
20
-74.772300000000001
10
-182.79400000000004
20
-74.772300000000001
10
-182.79400000000004
20
-77.871499999999997
10
-183.595
20
-77.871499999999997
0
ENDSEC
0
SECTION
2
OBJECTS
0
DICTIONARY
5
C
100
AcDbDictionary
3
ACAD_GROUP
350
D
3
ACAD_MLINESTYLE
350
17
0
DICTIONARY
5
D
100
AcDbDictionary
0
DICTIONARY
5
1A
330
C
100
AcDbDictionary
0
DICTIONARY
5
17
100
AcDbDictionary
0
ENDSEC
0
EOF
