0
SECTION
2
HEADER
9
$INSUNITS
70
4
9
$ACADVER
1
AC1014
9
$HANDSEED
5
FFFF
0
ENDSEC
0
SECTION
2
TABLES
0
TABLE
2
VPORT
5
8
100
AcDbSymbolTable
0
ENDTAB
0
TABLE
2
LTYPE
5
5
100
AcDbSymbolTable
0
LTYPE
5
14
100
AcDbSymbolTableRecord
100
AcDbLinetypeTableRecord
2
BYBLOCK
70
0
0
LTYPE
5
15
100
AcDbSymbolTableRecord
100
AcDbLinetypeTableRecord
2
BYLAYER
70
0
0
ENDTAB
0
TABLE
2
LAYER
5
2
100
AcDbSymbolTable
70
2
0
LAYER
5
50
100
AcDbSymbolTableRecord
100
AcDbLayerTableRecord
2
0
70
0
6
CONTINUOUS
0
ENDTAB
0
TABLE
2
STYLE
5
3
100
AcDbSymbolTable
70
1
0
STYLE
5
11
100
AcDbSymbolTableRecord
100
AcDbTextStyleTableRecord
2
STANDARD
70
0
0
ENDTAB
0
TABLE
2
VIEW
5
6
100
AcDbSymbolTable
70
0
0
ENDTAB
0
TABLE
2
UCS
5
7
100
AcDbSymbolTable
70
0
0
ENDTAB
0
TABLE
2
APPID
5
9
100
AcDbSymbolTable
70
2
0
APPID
5
12
100
AcDbSymbolTableRecord
100
AcDbRegAppTableRecord
2
ACAD
70
0
0
ENDTAB
0
TABLE
2
DIMSTYLE
5
A
100
AcDbSymbolTable
70
1
0
ENDTAB
0
TABLE
2
BLOCK_RECORD
5
1
100
AcDbSymbolTable
70
1
0
BLOCK_RECORD
5
1F
100
AcDbSymbolTableRecord
100
AcDbBlockTableRecord
2
*MODEL_SPACE
0
BLOCK_RECORD
5
1B
100
AcDbSymbolTableRecord
100
AcDbBlockTableRecord
2
*PAPER_SPACE
0
ENDTAB
0
ENDSEC
0
SECTION
2
BLOCKS
0
BLOCK
5
20
100
AcDbEntity
100
AcDbBlockBegin
2
*MODEL_SPACE
0
ENDBLK
5
21
100
AcDbEntity
100
AcDbBlockEnd
0
BLOCK
5
1C
100
AcDbEntity
100
AcDbBlockBegin
2
*PAPER_SPACE
0
ENDBLK
5
1D
100
AcDbEntity
100
AcDbBlockEnd
0
ENDSEC
0
SECTION
2
ENTITIES
0
LWPOLYLINE
5
100
100
AcDbEntity
8
0
100
AcDbPolyline
90
8
70
1
43
0.0
10
-318.68200000000002
20
0.66591800000000023
42
0.41421356237308771
10
-320.18200000000002
20
-0.83408200000000932
10
-320.18200000000002
20
-18.984740000000006
42
0.41421356237308204
10
-318.68200000000002
20
-20.484740000000009
10
-243.48199999999997
20
-20.484740000000006
42
0.41421356237308721
10
-241.982
20
-18.984740000000006
10
-241.982
20
-0.83408200000000066
42
0.41421356237309043
10
-243.48199999999997
20
0.66591799999996892
0
LWPOLYLINE
5
101
100
AcDbEntity
8
0
100
AcDbPolyline
90
20
70
1
43
0.0
10
0.90628499999998779
20
-5.6979499999999916
42
0.41421356237309476
10
-0.59371500000001021
20
-4.1979499999999916
10
-237.71950000000004
20
-4.1979499999999978
42
0.41421356237308682
10
-239.21950000000004
20
-5.6979500000000005
10
-239.21950000000004
20
-21.747949999999999
42
-0.41421356237309936
10
-240.71950000000001
20
-23.247949999999999
10
-290.10625000000005
20
-23.247950000000003
42
0.41421356237308637
10
-291.60625000000005
20
-24.747950000000003
10
-291.60625000000005
20
-40.797299999999993
42
-0.41421356237310025
10
-293.10625000000005
20
-42.2973
10
-309.15625000000006
20
-42.2973
42
0.41421356237309681
10
-310.65625000000006
20
-43.797300000000007
10
-310.65625000000006
20
-59.847300000000004
42
-0.41421356237310025
10
-312.15625
20
-61.347300000000011
10
-328.30800000000005
20
-61.34729999999999
42
0.41421356237307078
10
-329.80799999999999
20
-62.847299999999997
10
-329.80799999999999
20
-98.945999999999998
42
0.41421356237312307
10
-327.20799999999986
20
-101.54600000000003
10
-0.59371500000001265
20
-101.54600000000001
42
0.41421356237308915
10
0.90628500000001111
20
-100.04599999999999
0
LWPOLYLINE
5
102
100
AcDbEntity
8
0
100
AcDbPolyline
90
8
70
1
43
0.0
10
-335.70799999999997
20
-120.44599999999994
10
41.904915399999965
20
-120.44600000000001
42
0.41421356237309548
10
47.904915399999986
20
-114.44600000000003
10
47.904915399999979
20
6.5659180000000106
42
0.41421356237309498
10
41.904915399999979
20
12.565918000000025
10
-335.70800000000008
20
12.565918000000007
42
0.41421356237308932
10
-341.70800000000008
20
6.5659179999999999
10
-341.70799999999997
20
-114.44600000000001
42
0.41421356237309764
0
SPLINE
5
103
100
AcDbEntity
8
0
100
AcDbSpline
70
4
71
3
72
8
73
4
74
0
42
0.000000001
43
0.0000000001
44
0.0000000001
40
0
40
0
40
0
40
0
40
1
40
1
40
1
40
1
41
1
41
1
41
1
41
1
10
-302.723731651376
20
-33.389671734025292
30
0
10
-302.73196016235977
20
-33.544337457929259
30
0
10
-302.67584338821399
20
-33.695572895211193
30
0
10
-302.5690815908813
20
-33.808490412372556
30
0
0
SPLINE
5
104
100
AcDbEntity
8
0
100
AcDbSpline
70
4
71
3
72
8
73
4
74
0
42
0.000000001
43
0.0000000001
44
0.0000000001
40
0
40
0
40
0
40
0
40
1
40
1
40
1
40
1
41
1
41
1
41
1
41
1
10
-302.5690815908813
20
-33.808490412372556
30
0
10
-302.46300898355469
20
-33.920723960664084
30
0
10
-302.31449897947937
20
-33.984369613514559
30
0
10
-302.15915972897835
20
-33.984369613514559
30
0
0
SPLINE
5
105
100
AcDbEntity
8
0
100
AcDbSpline
70
0
71
2
72
6
73
3
74
0
42
0.000000001
43
0.0000000001
44
0.0000000001
40
0
40
0
40
0
40
1
40
1
40
1
10
-302.15915972897835
20
-33.984369613514559
30
0
10
-301.11142384310392
20
-33.986421520124097
30
0
10
-299.30474356852204
20
-33.986421520124097
30
0
0
SPLINE
5
106
100
AcDbEntity
8
0
100
AcDbSpline
70
4
71
3
72
8
73
4
74
0
42
0.000000001
43
0.0000000001
44
0.0000000001
40
0
40
0
40
0
40
0
40
1
40
1
40
1
40
1
41
1
41
1
41
1
41
1
10
-299.30474356852204
20
-33.986421520124097
30
0
10
-299.22742898054747
20
-33.986421520124097
30
0
10
-299.15351857351294
20
-33.965892011755926
30
0
10
-299.0843907274309
20
-33.924143805013301
30
0
0
SPLINE
5
107
100
AcDbEntity
8
0
100
AcDbSpline
70
4
71
3
72
8
73
4
74
0
42
0.000000001
43
0.0000000001
44
0.0000000001
40
0
40
0
40
0
40
0
40
1
40
1
40
1
40
1
41
1
41
1
41
1
41
1
10
-299.0843907274309
20
-33.924143805013301
30
0
10
-299.01459457588822
20
-33.885820663756341
30
0
10
-298.95367435624428
20
-33.832444986226378
30
0
10
-298.89962515211732
20
-33.765379489026678
30
0
0
SPLINE
5
108
100
AcDbEntity
8
0
100
AcDbSpline
70
4
71
3
72
8
73
4
74
0
42
0.000000001
43
0.0000000001
44
0.0000000001
40
0
40
0
40
0
40
0
40
1
40
1
40
1
40
1
41
1
41
1
41
1
41
1
10
-298.89962515211732
20
-33.765379489026678
30
0
10
-298.84624425345089
20
-33.701049867306359
30
0
10
-298.80380685670207
20
-33.627139460271813
30
0
10
-298.7716446564101
20
-33.544337457929259
30
0
0
SPLINE
5
109
100
AcDbEntity
8
0
100
AcDbSpline
70
4
71
3
72
8
73
4
74
0
42
0.000000001
43
0.0000000001
44
0.0000000001
40
0
40
0
40
0
40
0
40
1
40
1
40
1
40
1
41
1
41
1
41
1
41
1
10
-298.7716446564101
20
-33.544337457929259
30
0
10
-298.7394824561182
20
-33.460846265580471
30
0
10
-298.72373550870248
20
-33.375303166622132
30
0
10
-298.72373550870248
20
-33.289076098793956
30
0
0
SPLINE
5
110
100
AcDbEntity
8
0
100
AcDbSpline
70
4
71
3
72
8
73
4
74
0
42
0.000000001
43
0.0000000001
44
0.0000000001
40
0
40
0
40
0
40
0
40
1
40
1
40
1
40
1
41
1
41
1
41
1
41
1
10
-298.72373550870248
20
-33.289076098793956
30
0
10
-298.72373550870248
20
-33.003704445976226
30
0
10
-299.02827395328512
20
-32.759391809894858
30
0
10
-299.63801914791094
20
-32.557511349425916
30
0
0
SPLINE
5
111
100
AcDbEntity
8
0
100
AcDbSpline
70
4
71
3
72
8
73
4
74
0
42
0.000000001
43
0.0000000001
44
0.0000000001
40
0
40
0
40
0
40
0
40
1
40
1
40
1
40
1
41
1
41
1
41
1
41
1
10
-299.63801914791094
20
-32.557511349425916
30
0
10
-300.60294781030643
20
-32.21739086020213
30
0
10
-301.16549393177655
20
-32.00113661119363
30
0
10
-301.32561574323012
20
-31.908064633530586
30
0
0
SPLINE
5
112
100
AcDbEntity
8
0
100
AcDbSpline
70
4
71
3
72
8
73
4
74
0
42
0.000000001
43
0.0000000001
44
0.0000000001
40
0
40
0
40
0
40
0
40
1
40
1
40
1
40
1
41
1
41
1
41
1
41
1
10
-301.32561574323012
20
-31.908064633530586
30
0
10
-301.9408535733603
20
-31.552207639163939
30
0
10
-302.24812789342235
20
-31.072479183445587
30
0
10
-302.24812789342235
20
-30.469573677518177
30
0
0
SPLINE
5
113
100
AcDbEntity
8
0
100
AcDbSpline
70
4
71
3
72
8
73
4
74
0
42
0.000000001
43
0.0000000001
44
0.0000000001
40
0
40
0
40
0
40
0
40
1
40
1
40
1
40
1
41
1
41
1
41
1
41
1
10
-302.24812789342235
20
-30.469573677518177
30
0
10
-302.24812789342235
20
-30.100710832351652
30
0
10
-302.12630833868013
20
-29.771544287318203
30
0
10
-301.88335841920207
20
-29.482747569014833
30
0
0
SPLINE
5
114
100
AcDbEntity
8
0
100
AcDbSpline
70
4
71
3
72
8
73
4
74
0
42
0.000000001
43
0.0000000001
44
0.0000000001
40
0
40
0
40
0
40
0
40
1
40
1
40
1
40
1
41
1
41
1
41
1
41
1
10
-301.88335841920207
20
-29.482747569014833
30
0
10
-301.64794782070152
20
-29.200800981682754
30
0
10
-301.3776391464296
20
-29.059141108578661
30
0
10
-301.07310070184695
20
-29.059141108578661
30
0
0
LINE
5
115
100
AcDbEntity
8
0
100
AcDbLine
10
-301.07310070184695
20
-29.059141108578661
30
0
11
-296.96703195184693
21
-29.059141108578661
31
0
0
LINE
5
116
100
AcDbEntity
8
0
100
AcDbLine
10
-296.96703195184693
20
-29.059141108578661
30
0
11
-296.96703195184693
21
-29.757170498778642
31
0
0
LINE
5
117
100
AcDbEntity
8
0
100
AcDbLine
10
-296.96703195184693
20
-29.757170498778642
30
0
11
-299.89807351027162
21
-29.757170498778642
31
0
0
SPLINE
5
118
100
AcDbEntity
8
0
100
AcDbSpline
70
4
71
3
72
8
73
4
74
0
42
0.000000001
43
0.0000000001
44
0.0000000001
40
0
40
0
40
0
40
0
40
1
40
1
40
1
40
1
41
1
41
1
41
1
41
1
10
-299.89807351027162
20
-29.757170498778642
30
0
10
-299.97336229731866
20
-29.757170498778642
30
0
10
-300.04520513433442
20
-29.776332069407122
30
0
10
-300.11502217042278
20
-29.814655210664078
30
0
0
SPLINE
5
119
100
AcDbEntity
8
0
100
AcDbSpline
70
4
71
3
72
8
73
4
74
0
42
0.000000001
43
0.0000000001
44
0.0000000001
40
0
40
0
40
0
40
0
40
1
40
1
40
1
40
1
41
1
41
1
41
1
41
1
10
-300.11502217042278
20
-29.814655210664078
30
0
10
-300.18686500743854
20
-29.853662320790907
30
0
10
-300.24983191255563
20
-29.904991312847748
30
0
10
-300.30321281122201
20
-29.968631744561804
30
0
0
SPLINE
5
120
100
AcDbEntity
8
0
100
AcDbSpline
70
4
71
3
72
8
73
4
74
0
42
0.000000001
43
0.0000000001
44
0.0000000001
40
0
40
0
40
0
40
0
40
1
40
1
40
1
40
1
41
1
41
1
41
1
41
1
10
-300.30321281122201
20
-29.968631744561804
30
0
10
-300.35659370988833
20
-30.032961366282123
30
0
10
-300.39969941209785
20
-30.108239711056367
30
0
10
-300.43186161238975
20
-30.19515074775439
30
0
0
SPLINE
5
121
100
AcDbEntity
8
0
100
AcDbSpline
70
4
71
3
72
8
73
4
74
0
42
0.000000001
43
0.0000000001
44
0.0000000001
40
0
40
0
40
0
40
0
40
1
40
1
40
1
40
1
41
1
41
1
41
1
41
1
10
-300.43186161238975
20
-30.19515074775439
30
0
10
-300.46402381268172
20
-30.281377815582569
30
0
10
-300.47977076009738
20
-30.373081855505912
30
0
10
-300.47977076009738
20
-30.469573677518177
30
0
0
SPLINE
5
122
100
AcDbEntity
8
0
100
AcDbSpline
70
4
71
3
72
8
73
4
74
0
42
0.000000001
43
0.0000000001
44
0.0000000001
40
0
40
0
40
0
40
0
40
1
40
1
40
1
40
1
41
1
41
1
41
1
41
1
10
-300.47977076009738
20
-30.469573677518177
30
0
10
-300.47977076009738
20
-30.745364545021662
30
0
10
-300.1766106955273
20
-30.98762527449351
30
0
10
-299.56960137638083
20
-31.195661454791047
30
0
0
SPLINE
5
123
100
AcDbEntity
8
0
100
AcDbSpline
70
4
71
3
72
8
73
4
74
0
42
0.000000001
43
0.0000000001
44
0.0000000001
40
0
40
0
40
0
40
0
40
1
40
1
40
1
40
1
41
1
41
1
41
1
41
1
10
-299.56960137638083
20
-31.195661454791047
30
0
10
-298.59920096302659
20
-31.548787794814718
30
0
10
-298.03529734608958
20
-31.769829825912133
30
0
10
-297.87720133556354
20
-31.860160706959384
30
0
0
SPLINE
5
124
100
AcDbEntity
8
0
100
AcDbSpline
70
4
71
3
72
8
73
4
74
0
42
0.000000001
43
0.0000000001
44
0.0000000001
40
0
40
0
40
0
40
0
40
1
40
1
40
1
40
1
41
1
41
1
41
1
41
1
10
-297.87720133556354
20
-31.860160706959384
30
0
10
-297.27088120642333
20
-32.196861351833952
30
0
10
-296.96703195184693
20
-32.673164742066675
30
0
10
-296.96703195184693
20
-33.289076098793956
30
0
0
SPLINE
5
125
100
AcDbEntity
8
0
100
AcDbSpline
70
4
71
3
72
8
73
4
74
0
42
0.000000001
43
0.0000000001
44
0.0000000001
40
0
40
0
40
0
40
0
40
1
40
1
40
1
40
1
41
1
41
1
41
1
41
1
10
-296.96703195184693
20
-33.289076098793956
30
0
10
-296.96703195184693
20
-33.651778002995464
30
0
10
-297.08335887108473
20
-33.975472797070168
30
0
10
-297.31605447865155
20
-34.260844449887891
30
0
0
SPLINE
5
126
100
AcDbEntity
8
0
100
AcDbSpline
70
4
71
3
72
8
73
4
74
0
42
0.000000001
43
0.0000000001
44
0.0000000001
40
0
40
0
40
0
40
0
40
1
40
1
40
1
40
1
41
1
41
1
41
1
41
1
10
-297.31605447865155
20
-34.260844449887891
30
0
10
-297.55146507715216
20
-34.54348022722624
30
0
10
-297.82655631237651
20
-34.684450910324081
30
0
10
-298.14205914342233
20
-34.684450910324081
30
0
0
LINE
5
127
100
AcDbEntity
8
0
100
AcDbLine
10
-298.14205914342233
20
-34.684450910324081
30
0
11
-309.75743777886061
21
-34.684450910324081
31
0
0
SPLINE
5
128
100
AcDbEntity
8
0
100
AcDbSpline
70
4
71
3
72
8
73
4
74
0
42
0.000000001
43
0.0000000001
44
0.0000000001
40
0
40
0
40
0
40
0
40
1
40
1
40
1
40
1
41
1
41
1
41
1
41
1
10
-309.75743777886061
20
-34.684450910324081
30
0
10
-310.06264452890383
20
-34.684450910324081
30
0
10
-310.333642393182
20
-34.54484816496592
30
0
10
-310.57180975170758
20
-34.265632231976809
30
0
0
SPLINE
5
129
100
AcDbEntity
8
0
100
AcDbSpline
70
4
71
3
72
8
73
4
74
0
42
0.000000001
43
0.0000000001
44
0.0000000001
40
0
40
0
40
0
40
0
40
1
40
1
40
1
40
1
41
1
41
1
41
1
41
1
10
-310.57180975170758
20
-34.265632231976809
30
0
10
-310.81200291116068
20
-33.970679793844823
30
0
10
-310.93244408589032
20
-33.644933093160596
30
0
10
-310.93244408589032
20
-33.289076098793956
30
0
0
LINE
5
130
100
AcDbEntity
8
0
100
AcDbLine
10
-310.93244408589032
20
-33.289076098793956
30
0
11
-310.93244408589032
21
-29.059141108578661
31
0
0
LINE
5
131
100
AcDbEntity
8
0
100
AcDbLine
10
-310.93244408589032
20
-29.059141108578661
30
0
11
-309.16822209260295
21
-29.059141108578661
31
0
0
LINE
5
132
100
AcDbEntity
8
0
100
AcDbLine
10
-309.16822209260295
20
-29.059141108578661
30
0
11
-309.16822209260295
21
-33.289076098793956
31
0
0
SPLINE
5
133
100
AcDbEntity
8
0
100
AcDbSpline
70
4
71
3
72
8
73
4
74
0
42
0.000000001
43
0.0000000001
44
0.0000000001
40
0
40
0
40
0
40
0
40
1
40
1
40
1
40
1
41
1
41
1
41
1
41
1
10
-309.16822209260295
20
-33.289076098793956
30
0
10
-309.16822209260295
20
-33.375303166622132
30
0
10
-309.15247514518728
20
-33.460846265580471
30
0
10
-309.12031294489532
20
-33.544337457929259
30
0
0
SPLINE
5
134
100
AcDbEntity
8
0
100
AcDbSpline
70
4
71
3
72
8
73
4
74
0
42
0.000000001
43
0.0000000001
44
0.0000000001
40
0
40
0
40
0
40
0
40
1
40
1
40
1
40
1
41
1
41
1
41
1
41
1
10
-309.12031294489532
20
-33.544337457929259
30
0
10
-309.08815074460335
20
-33.627139460271813
30
0
10
-309.04366666238138
20
-33.701049867306367
30
0
10
-308.98754988823561
20
-33.765379489026685
30
0
0
SPLINE
5
135
100
AcDbEntity
8
0
100
AcDbSpline
70
4
71
3
72
8
73
4
74
0
42
0.000000001
43
0.0000000001
44
0.0000000001
40
0
40
0
40
0
40
0
40
1
40
1
40
1
40
1
41
1
41
1
41
1
41
1
10
-308.98754988823561
20
-33.765379489026685
30
0
10
-308.93416898956923
20
-33.832444986226378
30
0
10
-308.8725804644647
20
-33.885820663756348
30
0
10
-308.80345261838266
20
-33.924143805013301
30
0
0
SPLINE
5
136
100
AcDbEntity
8
0
100
AcDbSpline
70
4
71
3
72
8
73
4
74
0
42
0.000000001
43
0.0000000001
44
0.0000000001
40
0
40
0
40
0
40
0
40
1
40
1
40
1
40
1
41
1
41
1
41
1
41
1
10
-308.80345261838266
20
-33.924143805013301
30
0
10
-308.73365646683999
20
-33.965892011755926
30
0
10
-308.6617927452786
20
-33.986421520124097
30
0
10
-308.58652484277718
20
-33.986421520124097
30
0
0
LINE
5
137
100
AcDbEntity
8
0
100
AcDbLine
10
-308.58652484277718
20
-33.986421520124097
30
0
11
-308.28610065368639
21
-33.986421520124097
31
0
0
SPLINE
5
138
100
AcDbEntity
8
0
100
AcDbSpline
70
4
71
3
72
8
73
4
74
0
42
0.000000001
43
0.0000000001
44
0.0000000001
40
0
40
0
40
0
40
0
40
1
40
1
40
1
40
1
41
1
41
1
41
1
41
1
10
-308.28610065368645
20
-33.986421520124097
30
0
10
-308.2115010566456
20
-33.986421520124097
30
0
10
-308.13894814507796
20
-33.965892011755926
30
0
10
-308.06984118354148
20
-33.924143805013301
30
0
0
SPLINE
5
139
100
AcDbEntity
8
0
100
AcDbSpline
70
4
71
3
72
8
73
4
74
0
42
0.000000001
43
0.0000000001
44
0.0000000001
40
0
40
0
40
0
40
0
40
1
40
1
40
1
40
1
41
1
41
1
41
1
41
1
10
-308.06984118354148
20
-33.924143805013301
30
0
10
-308.00004503199881
20
-33.885820663756348
30
0
10
-307.93707812688183
20
-33.832444986226378
30
0
10
-307.88096135273605
20
-33.765379489026685
30
0
0
SPLINE
5
140
100
AcDbEntity
8
0
100
AcDbSpline
70
4
71
3
72
8
73
4
74
0
42
0.000000001
43
0.0000000001
44
0.0000000001
40
0
40
0
40
0
40
0
40
1
40
1
40
1
40
1
41
1
41
1
41
1
41
1
10
-307.88096135273605
20
-33.765379489026685
30
0
10
-307.82758045406968
20
-33.701049867306359
30
0
10
-307.78514305732079
20
-33.627139460271813
30
0
10
-307.75298085702889
20
-33.544337457929259
30
0
0
SPLINE
5
141
100
AcDbEntity
8
0
100
AcDbSpline
70
4
71
3
72
8
73
4
74
0
42
0.000000001
43
0.0000000001
44
0.0000000001
40
0
40
0
40
0
40
0
40
1
40
1
40
1
40
1
41
1
41
1
41
1
41
1
10
-307.75298085702889
20
-33.544337457929259
30
0
10
-307.72081865673692
20
-33.460846265580471
30
0
10
-307.70440340386062
20
-33.375303166622132
30
0
10
-307.70440340386062
20
-33.289076098793956
30
0
0
LINE
5
142
100
AcDbEntity
8
0
100
AcDbLine
10
-307.70440340386062
20
-33.289076098793949
30
0
11
-307.70440340386062
21
-29.059141108578661
31
0
0
LINE
5
143
100
AcDbEntity
8
0
100
AcDbLine
10
-307.70440340386062
20
-29.059141108578661
30
0
11
-305.94836815246572
21
-29.059141108578661
31
0
0
LINE
5
144
100
AcDbEntity
8
0
100
AcDbLine
10
-305.94836815246572
20
-29.059141108578661
30
0
11
-305.94836815246572
21
-33.289076098793956
31
0
0
SPLINE
5
145
100
AcDbEntity
8
0
100
AcDbSpline
70
4
71
3
72
8
73
4
74
0
42
0.000000001
43
0.0000000001
44
0.0000000001
40
0
40
0
40
0
40
0
40
1
40
1
40
1
40
1
41
1
41
1
41
1
41
1
10
-305.94836815246572
20
-33.289076098793956
30
0
10
-305.94836815246572
20
-33.375303166622132
30
0
10
-305.93126370958316
20
-33.460846265580471
30
0
10
-305.89636563381185
20
-33.544337457929259
30
0
0
SPLINE
5
146
100
AcDbEntity
8
0
100
AcDbSpline
70
4
71
3
72
8
73
4
74
0
42
0.000000001
43
0.0000000001
44
0.0000000001
40
0
40
0
40
0
40
0
40
1
40
1
40
1
40
1
41
1
41
1
41
1
41
1
10
-305.89636563381185
20
-33.544337457929259
30
0
10
-305.86420343351989
20
-33.627139460271813
30
0
10
-305.82040854130418
20
-33.701049867306359
30
0
10
-305.76360257715214
20
-33.765379489026685
30
0
0
SPLINE
5
147
100
AcDbEntity
8
0
100
AcDbSpline
70
4
71
3
72
8
73
4
74
0
42
0.000000001
43
0.0000000001
44
0.0000000001
40
0
40
0
40
0
40
0
40
1
40
1
40
1
40
1
41
1
41
1
41
1
41
1
10
-305.76360257715214
20
-33.765379489026685
30
0
10
-305.71022167848577
20
-33.832444986226378
30
0
10
-305.64794396337498
20
-33.885820663756348
30
0
10
-305.57541193635296
20
-33.924143805013301
30
0
0
SPLINE
5
148
100
AcDbEntity
8
0
100
AcDbSpline
70
4
71
3
72
8
73
4
74
0
42
0.000000001
43
0.0000000001
44
0.0000000001
40
0
40
0
40
0
40
0
40
1
40
1
40
1
40
1
41
1
41
1
41
1
41
1
10
-305.57541193635296
20
-33.924143805013301
30
0
10
-305.50628409027092
20
-33.965892011755926
30
0
10
-305.43375206324879
20
-33.986421520124097
30
0
10
-305.359152466208
20
-33.986421520124097
30
0
0
LINE
5
149
100
AcDbEntity
8
0
100
AcDbLine
10
-305.359152466208
20
-33.986421520124097
30
0
11
-305.06215334260298
21
-33.986421520124097
31
0
0
SPLINE
5
150
100
AcDbEntity
8
0
100
AcDbSpline
70
4
71
3
72
8
73
4
74
0
42
0.000000001
43
0.0000000001
44
0.0000000001
40
0
40
0
40
0
40
0
40
1
40
1
40
1
40
1
41
1
41
1
41
1
41
1
10
-305.06215334260293
20
-33.986421520124097
30
0
10
-304.98755374556214
20
-33.986421520124097
30
0
10
-304.91500083399444
20
-33.965892011755926
30
0
10
-304.84589387245808
20
-33.924143805013301
30
0
0
SPLINE
5
151
100
AcDbEntity
8
0
100
AcDbSpline
70
4
71
3
72
8
73
4
74
0
42
0.000000001
43
0.0000000001
44
0.0000000001
40
0
40
0
40
0
40
0
40
1
40
1
40
1
40
1
41
1
41
1
41
1
41
1
10
-304.84589387245808
20
-33.924143805013301
30
0
10
-304.77609772091535
20
-33.885820663756341
30
0
10
-304.71313081579831
20
-33.832444986226378
30
0
10
-304.65701404165259
20
-33.765379489026685
30
0
0
SPLINE
5
152
100
AcDbEntity
8
0
100
AcDbSpline
70
4
71
3
72
8
73
4
74
0
42
0.000000001
43
0.0000000001
44
0.0000000001
40
0
40
0
40
0
40
0
40
1
40
1
40
1
40
1
41
1
41
1
41
1
41
1
10
-304.65701404165259
20
-33.765379489026685
30
0
10
-304.60363314298615
20
-33.701049867306359
30
0
10
-304.56119574623733
20
-33.627139460271813
30
0
10
-304.52903354594537
20
-33.544337457929259
30
0
0
SPLINE
5
153
100
AcDbEntity
8
0
100
AcDbSpline
70
4
71
3
72
8
73
4
74
0
42
0.000000001
43
0.0000000001
44
0.0000000001
40
0
40
0
40
0
40
0
40
1
40
1
40
1
40
1
41
1
41
1
41
1
41
1
10
-304.52903354594537
20
-33.544337457929259
30
0
10
-304.49687134565346
20
-33.460846265580471
30
0
10
-304.48045609277716
20
-33.375303166622132
30
0
10
-304.48045609277716
20
-33.289076098793956
30
0
0
LINE
5
154
100
AcDbEntity
8
0
100
AcDbLine
10
-304.48045609277716
20
-33.289076098793949
30
0
11
-304.48045609277716
21
-29.059141108578661
31
0
0
LINE
5
155
100
AcDbEntity
8
0
100
AcDbLine
10
-304.48045609277716
20
-29.059141108578661
30
0
11
-302.72030658589034
21
-29.059141108578661
31
0
0
LINE
5
156
100
AcDbEntity
8
0
100
AcDbLine
10
-302.72030658589034
20
-29.059141108578661
30
0
11
-302.72030658589034
21
-33.289076098793956
31
0
0
SPLINE
5
157
100
AcDbEntity
8
0
100
AcDbSpline
70
4
71
3
72
8
73
4
74
0
42
0.000000001
43
0.0000000001
44
0.0000000001
40
0
40
0
40
0
40
0
40
1
40
1
40
1
40
1
41
1
41
1
41
1
41
1
10
-302.72030658589034
20
-33.289076098793956
30
0
10
-302.72030658589034
20
-33.322606236825592
30
0
10
-302.72168496590285
20
-33.356141595993648
30
0
10
-302.723731651376
20
-33.389671734025292
30
0
0
LINE
5
158
100
AcDbEntity
8
0
100
AcDbLine
10
-314.99745381915398
20
-33.986421520124097
30
0
11
-313.82723007307681
21
-33.986421520124097
31
0
0
SPLINE
5
159
100
AcDbEntity
8
0
100
AcDbSpline
70
4
71
3
72
8
73
4
74
0
42
0.000000001
43
0.0000000001
44
0.0000000001
40
0
40
0
40
0
40
0
40
1
40
1
40
1
40
1
41
1
41
1
41
1
41
1
10
-313.82723007307681
20
-33.986421520124097
30
0
10
-313.75196217057533
20
-33.986421520124097
30
0
10
-313.68009844901394
20
-33.965892011755926
30
0
10
-313.61030229747126
20
-33.924143805013308
30
0
0
SPLINE
5
160
100
AcDbEntity
8
0
100
AcDbSpline
70
4
71
3
72
8
73
4
74
0
42
0.000000001
43
0.0000000001
44
0.0000000001
40
0
40
0
40
0
40
0
40
1
40
1
40
1
40
1
41
1
41
1
41
1
41
1
10
-313.61030229747126
20
-33.924143805013308
30
0
10
-313.54117445138922
20
-33.885820663756348
30
0
10
-313.47820754627219
20
-33.832444986226378
30
0
10
-313.42209077212641
20
-33.765379489026685
30
0
0
SPLINE
5
161
100
AcDbEntity
8
0
100
AcDbSpline
70
4
71
3
72
8
73
4
74
0
42
0.000000001
43
0.0000000001
44
0.0000000001
40
0
40
0
40
0
40
0
40
1
40
1
40
1
40
1
41
1
41
1
41
1
41
1
10
-313.42209077212641
20
-33.765379489026685
30
0
10
-313.36873075800565
20
-33.701049867306367
30
0
10
-313.32560417125057
20
-33.627139460271813
30
0
10
-313.29344197095861
20
-33.544337457929259
30
0
0
SPLINE
5
162
100
AcDbEntity
8
0
100
AcDbSpline
70
4
71
3
72
8
73
4
74
0
42
0.000000001
43
0.0000000001
44
0.0000000001
40
0
40
0
40
0
40
0
40
1
40
1
40
1
40
1
41
1
41
1
41
1
41
1
10
-313.29344197095861
20
-33.544337457929259
30
0
10
-313.26127977066665
20
-33.460846265580479
30
0
10
-313.24553282325098
20
-33.375303166622132
30
0
10
-313.24553282325098
20
-33.289076098793956
30
0
0
LINE
5
163
100
AcDbEntity
8
0
100
AcDbLine
10
-313.24553282325098
20
-33.289076098793949
30
0
11
-313.24553282325098
21
-32.220810704551354
31
0
0
LINE
5
164
100
AcDbEntity
8
0
100
AcDbLine
10
-313.24553282325098
20
-32.220810704551354
30
0
11
-314.99745381915398
21
-32.220810704551354
31
0
0
LINE
5
165
100
AcDbEntity
8
0
100
AcDbLine
10
-314.99745381915398
20
-32.220810704551354
30
0
11
-314.99745381915398
21
-33.986421520124097
31
0
0
LINE
5
166
100
AcDbEntity
8
0
100
AcDbLine
10
-314.99745381915398
20
-29.059141108578661
30
0
11
-314.99745381915398
21
-31.522781314351374
31
0
0
LINE
5
167
100
AcDbEntity
8
0
100
AcDbLine
10
-314.99745381915398
20
-31.522781314351374
30
0
11
-313.24553282325098
21
-31.522781314351374
31
0
0
LINE
5
168
100
AcDbEntity
8
0
100
AcDbLine
10
-313.24553282325098
20
-31.522781314351374
30
0
11
-313.24553282325098
21
-29.059141108578661
31
0
0
LINE
5
169
100
AcDbEntity
8
0
100
AcDbLine
10
-313.24553282325098
20
-29.059141108578661
30
0
11
-311.48540420090978
21
-29.059141108578661
31
0
0
LINE
5
170
100
AcDbEntity
8
0
100
AcDbLine
10
-311.48540420090978
20
-29.059141108578661
30
0
11
-311.48540420090978
21
-33.289076098793956
31
0
0
SPLINE
5
171
100
AcDbEntity
8
0
100
AcDbSpline
70
4
71
3
72
8
73
4
74
0
42
0.000000001
43
0.0000000001
44
0.0000000001
40
0
40
0
40
0
40
0
40
1
40
1
40
1
40
1
41
1
41
1
41
1
41
1
10
-311.48540420090978
20
-33.289076098793956
30
0
10
-311.48540420090978
20
-33.654513878474845
30
0
10
-311.60310950016014
20
-33.978892641419385
30
0
10
-311.83785179320006
20
-34.260844449887891
30
0
0
SPLINE
5
172
100
AcDbEntity
8
0
100
AcDbSpline
70
4
71
3
72
8
73
4
74
0
42
0.000000001
43
0.0000000001
44
0.0000000001
40
0
40
0
40
0
40
0
40
1
40
1
40
1
40
1
41
1
41
1
41
1
41
1
10
-311.83785179320006
20
-34.260844449887891
30
0
10
-312.07326239170067
20
-34.54348022722624
30
0
10
-312.34699613145818
20
-34.684450910324081
30
0
10
-312.65974220247892
20
-34.684450910324081
30
0
0
LINE
5
173
100
AcDbEntity
8
0
100
AcDbLine
10
-312.65974220247898
20
-34.684450910324081
30
0
11
-316.76581095247894
21
-34.684450910324081
31
0
0
LINE
5
174
100
AcDbEntity
8
0
100
AcDbLine
10
-316.76581095247894
20
-34.684450910324081
30
0
11
-316.765810952479
21
-29.059141108578661
31
0
0
LINE
5
175
100
AcDbEntity
8
0
100
AcDbLine
10
-316.765810952479
20
-29.059141108578661
30
0
11
-314.99745381915398
21
-29.059141108578661
31
0
0
SPLINE
5
176
100
AcDbEntity
8
0
100
AcDbSpline
70
4
71
3
72
8
73
4
74
0
42
0.000000001
43
0.0000000001
44
0.0000000001
40
0
40
0
40
0
40
0
40
1
40
1
40
1
40
1
41
1
41
1
41
1
41
1
10
-318.49789163002004
20
-29.059141108578661
30
0
10
-318.18240968351989
20
-29.059141108578661
30
0
10
-317.90660837374361
20
-29.198743853936804
30
0
10
-317.67119777524306
20
-29.477959786925933
30
0
0
SPLINE
5
177
100
AcDbEntity
8
0
100
AcDbSpline
70
4
71
3
72
8
73
4
74
0
42
0.000000001
43
0.0000000001
44
0.0000000001
40
0
40
0
40
0
40
0
40
1
40
1
40
1
40
1
41
1
41
1
41
1
41
1
10
-317.67119777524306
20
-29.477959786925933
30
0
10
-317.43921224222811
20
-29.760590343127866
30
0
10
-317.3228644384447
20
-30.090446078167567
30
0
10
-317.3228644384447
20
-30.469573677518184
30
0
0
LINE
5
178
100
AcDbEntity
8
0
100
AcDbLine
10
-317.3228644384447
20
-30.469573677518184
30
0
11
-317.3228644384447
21
-34.684450910324081
31
0
0
LINE
5
179
100
AcDbEntity
8
0
100
AcDbLine
10
-317.3228644384447
20
-34.684450910324081
30
0
11
-319.08299306078584
21
-34.684450910324081
31
0
0
LINE
5
180
100
AcDbEntity
8
0
100
AcDbLine
10
-319.08299306078584
20
-34.684450910324081
30
0
11
-319.08299306078584
21
-30.469573677518184
31
0
0
SPLINE
5
181
100
AcDbEntity
8
0
100
AcDbSpline
70
4
71
3
72
8
73
4
74
0
42
0.000000001
43
0.0000000001
44
0.0000000001
40
0
40
0
40
0
40
0
40
1
40
1
40
1
40
1
41
1
41
1
41
1
41
1
10
-319.08299306078584
20
-30.469573677518184
30
0
10
-319.08299306078584
20
-30.37650169985514
30
0
10
-319.0987400082015
20
-30.286170818807889
30
0
10
-319.13090220849347
20
-30.199943750979713
30
0
0
SPLINE
5
182
100
AcDbEntity
8
0
100
AcDbSpline
70
4
71
3
72
8
73
4
74
0
42
0.000000001
43
0.0000000001
44
0.0000000001
40
0
40
0
40
0
40
0
40
1
40
1
40
1
40
1
41
1
41
1
41
1
41
1
10
-319.13090220849347
20
-30.199943750979713
30
0
10
-319.16306440878543
20
-30.116452558630911
30
0
10
-319.20619099554051
20
-30.041174213856671
30
0
10
-319.25955100966127
20
-29.973424747787124
30
0
0
SPLINE
5
183
100
AcDbEntity
8
0
100
AcDbSpline
70
4
71
3
72
8
73
4
74
0
42
0.000000001
43
0.0000000001
44
0.0000000001
40
0
40
0
40
0
40
0
40
1
40
1
40
1
40
1
41
1
41
1
41
1
41
1
10
-319.25955100966127
20
-29.973424747787124
30
0
10
-319.31566778380699
20
-29.909779094936667
30
0
10
-319.37863468892408
20
-29.8564034174067
30
0
10
-319.44776253500612
20
-29.814655210664082
30
0
0
SPLINE
5
184
100
AcDbEntity
8
0
100
AcDbSpline
70
4
71
3
72
8
73
4
74
0
42
0.000000001
43
0.0000000001
44
0.0000000001
40
0
40
0
40
0
40
0
40
1
40
1
40
1
40
1
41
1
41
1
41
1
41
1
10
-319.44776253500612
20
-29.814655210664082
30
0
10
-319.5175586865488
20
-29.776332069407122
30
0
10
-319.58942240811018
20
-29.757170498778642
30
0
10
-319.6646903106116
20
-29.757170498778642
30
0
0
LINE
5
185
100
AcDbEntity
8
0
100
AcDbLine
10
-319.6646903106116
20
-29.757170498778642
30
0
11
-322.01405550375614
21
-29.757170498778642
31
0
0
LINE
5
186
100
AcDbEntity
8
0
100
AcDbLine
10
-322.01405550375614
20
-29.757170498778642
30
0
11
-322.01405550375614
21
-29.059141108578661
31
0
0
LINE
5
187
100
AcDbEntity
8
0
100
AcDbLine
10
-322.01405550375614
20
-29.059141108578661
30
0
11
-318.49789163002004
21
-29.059141108578661
31
0
0
SPLINE
5
188
100
AcDbEntity
8
0
100
AcDbSpline
70
4
71
3
72
8
73
4
74
0
42
0.000000001
43
0.0000000001
44
0.0000000001
40
0
40
0
40
0
40
0
40
1
40
1
40
1
40
1
41
1
41
1
41
1
41
1
10
-323.40053871997827
20
-29.059141108578665
30
0
10
-323.08505677347807
20
-29.059141108578665
30
0
10
-322.80994465370804
20
-29.198743853936804
30
0
10
-322.57453405520749
20
-29.477959786925933
30
0
0
SPLINE
5
189
100
AcDbEntity
8
0
100
AcDbSpline
70
4
71
3
72
8
73
4
74
0
42
0.000000001
43
0.0000000001
44
0.0000000001
40
0
40
0
40
0
40
0
40
1
40
1
40
1
40
1
41
1
41
1
41
1
41
1
10
-322.57453405520749
20
-29.477959786925933
30
0
10
-322.34185933218623
20
-29.760590343127866
30
0
10
-322.22620071840913
20
-30.090446078167567
30
0
10
-322.22620071840913
20
-30.469573677518184
30
0
0
LINE
5
190
100
AcDbEntity
8
0
100
AcDbLine
10
-322.22620071840913
20
-30.469573677518184
30
0
11
-322.22620071840913
21
-34.684450910324081
31
0
0
LINE
5
191
100
AcDbEntity
8
0
100
AcDbLine
10
-322.22620071840913
20
-34.684450910324081
30
0
11
-323.98632934075033
21
-34.684450910324081
31
0
0
LINE
5
192
100
AcDbEntity
8
0
100
AcDbLine
10
-323.98632934075033
20
-34.684450910324081
30
0
11
-323.98632934075022
21
-30.469573677518184
31
0
0
SPLINE
5
193
100
AcDbEntity
8
0
100
AcDbSpline
70
4
71
3
72
8
73
4
74
0
42
0.000000001
43
0.0000000001
44
0.0000000001
40
0
40
0
40
0
40
0
40
1
40
1
40
1
40
1
41
1
41
1
41
1
41
1
10
-323.98632934075022
20
-30.469573677518184
30
0
10
-323.98632934075022
20
-30.37650169985514
30
0
10
-324.00207628816594
20
-30.286170818807893
30
0
10
-324.0342384884579
20
-30.199943750979713
30
0
0
SPLINE
5
194
100
AcDbEntity
8
0
100
AcDbSpline
70
4
71
3
72
8
73
4
74
0
42
0.000000001
43
0.0000000001
44
0.0000000001
40
0
40
0
40
0
40
0
40
1
40
1
40
1
40
1
41
1
41
1
41
1
41
1
10
-324.0342384884579
20
-30.199943750979713
30
0
10
-324.06640068874987
20
-30.116452558630911
30
0
10
-324.10950639095927
20
-30.041174213856671
30
0
10
-324.1628872896257
20
-29.973424747787128
30
0
0
SPLINE
5
195
100
AcDbEntity
8
0
100
AcDbSpline
70
4
71
3
72
8
73
4
74
0
42
0.000000001
43
0.0000000001
44
0.0000000001
40
0
40
0
40
0
40
0
40
1
40
1
40
1
40
1
41
1
41
1
41
1
41
1
10
-324.1628872896257
20
-29.973424747787128
30
0
10
-324.21900406377148
20
-29.90977909493667
30
0
10
-324.28128177888226
20
-29.8564034174067
30
0
10
-324.35107793042494
20
-29.814655210664082
30
0
0
SPLINE
5
196
100
AcDbEntity
8
0
100
AcDbSpline
70
4
71
3
72
8
73
4
74
0
42
0.000000001
43
0.0000000001
44
0.0000000001
40
0
40
0
40
0
40
0
40
1
40
1
40
1
40
1
41
1
41
1
41
1
41
1
10
-324.35107793042494
20
-29.814655210664082
30
0
10
-324.42089496651317
20
-29.776332069407122
30
0
10
-324.49273780352905
20
-29.757170498778642
30
0
10
-324.56733740056984
20
-29.757170498778642
30
0
0
LINE
5
197
100
AcDbEntity
8
0
100
AcDbLine
10
-324.56733740056984
20
-29.757170498778642
30
0
11
-326.91737089917495
21
-29.757170498778642
31
0
0
LINE
5
198
100
AcDbEntity
8
0
100
AcDbLine
10
-326.91737089917495
20
-29.757170498778642
30
0
11
-326.9173708991749
21
-29.059141108578665
31
0
0
LINE
5
199
100
AcDbEntity
8
0
100
AcDbLine
10
-326.9173708991749
20
-29.059141108578665
30
0
11
-323.40053871997827
21
-29.059141108578665
31
0
0
LINE
5
200
100
AcDbEntity
8
0
100
AcDbLine
10
-335.36139217469378
20
-33.962813432468344
30
0
11
-335.36139217469378
21
-31.797255877149357
31
0
0
SPLINE
5
201
100
AcDbEntity
8
0
100
AcDbSpline
70
4
71
3
72
8
73
4
74
0
42
0.000000001
43
0.0000000001
44
0.0000000001
40
0
40
0
40
0
40
0
40
1
40
1
40
1
40
1
41
1
41
1
41
1
41
1
10
-335.36139217469378
20
-31.797255877149357
30
0
10
-335.36139217469378
20
-31.398852973545978
30
0
10
-335.03794202018025
20
-31.075402819032458
30
0
10
-334.63953976418958
20
-31.075402819032458
30
0
0
LINE
5
202
100
AcDbEntity
8
0
100
AcDbLine
10
-334.63953976418958
20
-31.075402819032458
30
0
11
-327.63924996199239
21
-31.075402819032458
31
0
0
SPLINE
5
203
100
AcDbEntity
8
0
100
AcDbSpline
70
4
71
3
72
8
73
4
74
0
42
0.000000001
43
0.0000000001
44
0.0000000001
40
0
40
0
40
0
40
0
40
1
40
1
40
1
40
1
41
1
41
1
41
1
41
1
10
-327.63924996199239
20
-31.075402819032458
30
0
10
-327.24084738219528
20
-31.075402819032458
30
0
10
-326.91739738958495
20
-31.398852973545978
30
0
10
-326.91739738958495
20
-31.797255877149357
30
0
0
LINE
5
204
100
AcDbEntity
8
0
100
AcDbLine
10
-326.91739738958495
20
-31.797255877149357
30
0
11
-326.91739738958495
21
-33.962813432468344
31
0
0
SPLINE
5
205
100
AcDbEntity
8
0
100
AcDbSpline
70
4
71
3
72
8
73
4
74
0
42
0.000000001
43
0.0000000001
44
0.0000000001
40
0
40
0
40
0
40
0
40
1
40
1
40
1
40
1
41
1
41
1
41
1
41
1
10
-326.91739738958495
20
-33.962813432468344
30
0
10
-326.91739738958495
20
-34.36121601226538
30
0
10
-327.24084738219528
20
-34.684666166778896
30
0
10
-327.63924996199239
20
-34.684666166778896
30
0
0
LINE
5
206
100
AcDbEntity
8
0
100
AcDbLine
10
-327.63924996199245
20
-34.684666166778896
30
0
11
-334.63953976418958
21
-34.684666166778896
31
0
0
SPLINE
5
207
100
AcDbEntity
8
0
100
AcDbSpline
70
4
71
3
72
8
73
4
74
0
42
0.000000001
43
0.0000000001
44
0.0000000001
40
0
40
0
40
0
40
0
40
1
40
1
40
1
40
1
41
1
41
1
41
1
41
1
10
-334.63953976418958
20
-34.684666166778896
30
0
10
-335.03794202018025
20
-34.684666166778896
30
0
10
-335.36139217469378
20
-34.36121601226538
30
0
10
-335.36139217469378
20
-33.962813432468344
30
0
0
LINE
5
208
100
AcDbEntity
8
0
100
AcDbLine
10
-329.48500779358858
20
-33.775177695571955
30
0
11
-330.28983428387403
21
-33.775177695571955
31
0
0
LINE
5
209
100
AcDbEntity
8
0
100
AcDbLine
10
-330.28983428387403
20
-33.775177695571955
30
0
11
-330.28983428387403
21
-34.081566170146075
31
0
0
LINE
5
210
100
AcDbEntity
8
0
100
AcDbLine
10
-330.28983428387403
20
-34.081566170146075
30
0
11
-329.08533200725685
21
-34.081566170146075
31
0
0
SPLINE
5
211
100
AcDbEntity
8
0
100
AcDbSpline
70
4
71
3
72
8
73
4
74
0
42
0.000000001
43
0.0000000001
44
0.0000000001
40
0
40
0
40
0
40
0
40
1
40
1
40
1
40
1
41
1
41
1
41
1
41
1
10
-329.0853320072568
20
-34.081566170146075
30
0
10
-328.97820845052735
20
-34.081566170146075
30
0
10
-328.88436937276373
20
-34.019558227169924
30
0
10
-328.80381445015979
20
-33.895627826091783
30
0
0
SPLINE
5
212
100
AcDbEntity
8
0
100
AcDbSpline
70
4
71
3
72
8
73
4
74
0
42
0.000000001
43
0.0000000001
44
0.0000000001
40
0
40
0
40
0
40
0
40
1
40
1
40
1
40
1
41
1
41
1
41
1
41
1
10
-328.80381445015979
20
-33.895627826091783
30
0
10
-328.72321710892504
20
-33.7716550063829
30
0
10
-328.68293980952626
20
-33.629389395024269
30
0
10
-328.68293980952626
20
-33.468789220997849
30
0
0
LINE
5
213
100
AcDbEntity
8
0
100
AcDbLine
10
-328.68293980952626
20
-33.468789220997849
30
0
11
-328.68293980952626
21
-31.611529626248739
31
0
0
LINE
5
214
100
AcDbEntity
8
0
100
AcDbLine
10
-328.68293980952626
20
-31.611529626248739
30
0
11
-329.28587013163616
21
-31.611529626248736
31
0
0
LINE
5
215
100
AcDbEntity
8
0
100
AcDbLine
10
-329.28587013163616
20
-31.611529626248736
30
0
11
-329.28587013163616
21
-32.69333228969181
31
0
0
LINE
5
216
100
AcDbEntity
8
0
100
AcDbLine
10
-329.28587013163616
20
-32.69333228969181
30
0
11
-330.08929615949461
21
-32.69333228969181
31
0
0
LINE
5
217
100
AcDbEntity
8
0
100
AcDbLine
10
-330.08929615949461
20
-32.69333228969181
30
0
11
-330.08929615949467
21
-32.999720764265923
31
0
0
LINE
5
218
100
AcDbEntity
8
0
100
AcDbLine
10
-330.08929615949467
20
-32.999720764265923
30
0
11
-329.28587013163622
21
-32.999720764265923
31
0
0
LINE
5
219
100
AcDbEntity
8
0
100
AcDbLine
10
-329.28587013163622
20
-32.999720764265923
30
0
11
-329.28587013163616
21
-33.468789220997849
31
0
0
SPLINE
5
220
100
AcDbEntity
8
0
100
AcDbSpline
70
4
71
3
72
8
73
4
74
0
42
0.000000001
43
0.0000000001
44
0.0000000001
40
0
40
0
40
0
40
0
40
1
40
1
40
1
40
1
41
1
41
1
41
1
41
1
10
-329.28587013163616
20
-33.468789220997849
30
0
10
-329.28587013163616
20
-33.506817361548677
30
0
10
-329.29134504925804
20
-33.544166156395065
30
0
10
-329.30233762693894
20
-33.580793510712603
30
0
0
SPLINE
5
221
100
AcDbEntity
8
0
100
AcDbSpline
70
4
71
3
72
8
73
4
74
0
42
0.000000001
43
0.0000000001
44
0.0000000001
40
0
40
0
40
0
40
0
40
1
40
1
40
1
40
1
41
1
41
1
41
1
41
1
10
-329.30233762693894
20
-33.580793510712603
30
0
10
-329.31332988081351
20
-33.617420865030148
30
0
10
-329.32797240357559
20
-33.649804089629797
30
0
10
-329.34630729004971
20
-33.677985603142282
30
0
0
SPLINE
5
222
100
AcDbEntity
8
0
100
AcDbSpline
70
4
71
3
72
8
73
4
74
0
42
0.000000001
43
0.0000000001
44
0.0000000001
40
0
40
0
40
0
40
0
40
1
40
1
40
1
40
1
41
1
41
1
41
1
41
1
10
-329.34630729004971
20
-33.677985603142282
30
0
10
-329.36553361538199
20
-33.707567579081712
30
0
10
-329.38705184199932
20
-33.730825940978193
30
0
10
-329.41086164609538
20
-33.747717622588318
30
0
0
SPLINE
5
223
100
AcDbEntity
8
0
100
AcDbSpline
70
4
71
3
72
8
73
4
74
0
42
0.000000001
43
0.0000000001
44
0.0000000001
40
0
40
0
40
0
40
0
40
1
40
1
40
1
40
1
41
1
41
1
41
1
41
1
10
-329.41086164609538
20
-33.747717622588318
30
0
10
-329.43467145019144
20
-33.76601009043172
30
0
10
-329.45937269314555
20
-33.775177695571955
30
0
10
-329.48500779358858
20
-33.775177695571955
30
0
0
LINE
5
224
100
AcDbEntity
8
0
100
AcDbLine
10
-331.6467881479341
20
-31.611529626248739
30
0
11
-332.2524348814427
21
-31.611529626248739
31
0
0
LINE
5
225
100
AcDbEntity
8
0
100
AcDbLine
10
-332.2524348814427
20
-31.611529626248739
30
0
11
-332.2524348814427
21
-32.135518228947959
31
0
0
SPLINE
5
226
100
AcDbEntity
8
0
100
AcDbSpline
70
4
71
3
72
8
73
4
74
0
42
0.000000001
43
0.0000000001
44
0.0000000001
40
0
40
0
40
0
40
0
40
1
40
1
40
1
40
1
41
1
41
1
41
1
41
1
10
-332.2524348814427
20
-32.135518228947959
30
0
10
-332.2524348814427
20
-32.259490724850494
30
0
10
-332.22773363848859
20
-32.373574822696639
30
0
10
-332.17828841014318
20
-32.477812293504435
30
0
0
SPLINE
5
227
100
AcDbEntity
8
0
100
AcDbSpline
70
4
71
3
72
8
73
4
74
0
42
0.000000001
43
0.0000000001
44
0.0000000001
40
0
40
0
40
0
40
0
40
1
40
1
40
1
40
1
41
1
41
1
41
1
41
1
10
-332.17828841014318
20
-32.477812293504435
30
0
10
-332.12977768689933
20
-32.580648978078955
30
0
10
-332.06933988087309
20
-32.658148140238282
30
0
10
-331.99697693490242
20
-32.71026671373901
30
0
0
SPLINE
5
228
100
AcDbEntity
8
0
100
AcDbSpline
70
4
71
3
72
8
73
4
74
0
42
0.000000001
43
0.0000000001
44
0.0000000001
40
0
40
0
40
0
40
0
40
1
40
1
40
1
40
1
41
1
41
1
41
1
41
1
10
-331.99697693490242
20
-32.71026671373901
30
0
10
-332.13890254960245
20
-32.831396189963272
30
0
10
-332.20986535695255
20
-33.011689618066391
30
0
10
-332.20986535695255
20
-33.251146998048348
30
0
0
LINE
5
229
100
AcDbEntity
8
0
100
AcDbLine
10
-332.20986535695255
20
-33.251146998048348
30
0
11
-332.20986535695255
21
-33.468789220997849
31
0
0
SPLINE
5
230
100
AcDbEntity
8
0
100
AcDbSpline
70
4
71
3
72
8
73
4
74
0
42
0.000000001
43
0.0000000001
44
0.0000000001
40
0
40
0
40
0
40
0
40
1
40
1
40
1
40
1
41
1
41
1
41
1
41
1
10
-332.20986535695255
20
-33.468789220997849
30
0
10
-332.20986535695255
20
-33.626546051539655
30
0
10
-332.16912145261563
20
-33.768132317193839
30
0
10
-332.08763234871645
20
-33.893505599329657
30
0
0
SPLINE
5
231
100
AcDbEntity
8
0
100
AcDbSpline
70
4
71
3
72
8
73
4
74
0
42
0.000000001
43
0.0000000001
44
0.0000000001
40
0
40
0
40
0
40
0
40
1
40
1
40
1
40
1
41
1
41
1
41
1
41
1
10
-332.08763234871645
20
-33.893505599329657
30
0
10
-332.00614389243003
20
-34.018879205271823
30
0
10
-331.9131959297182
20
-34.081566170146075
30
0
10
-331.8088312030182
20
-34.081566170146075
30
0
0
LINE
5
232
100
AcDbEntity
8
0
100
AcDbLine
10
-331.8088312030182
20
-34.081566170146075
30
0
11
-330.44364391511306
21
-34.081566170146075
31
0
0
LINE
5
233
100
AcDbEntity
8
0
100
AcDbLine
10
-330.44364391511306
20
-34.081566170146075
30
0
11
-330.44364391511306
21
-31.611529626248739
31
0
0
LINE
5
234
100
AcDbEntity
8
0
100
AcDbLine
10
-330.44364391511306
20
-31.611529626248739
30
0
11
-331.04657423722296
21
-31.611529626248736
31
0
0
LINE
5
235
100
AcDbEntity
8
0
100
AcDbLine
10
-331.04657423722296
20
-31.611529626248736
30
0
11
-331.04657423722296
21
-32.536976245383286
31
0
0
LINE
5
236
100
AcDbEntity
8
0
100
AcDbLine
10
-331.04657423722296
20
-32.536976245383286
30
0
11
-331.44760839115725
21
-32.536976245383286
31
0
0
SPLINE
5
237
100
AcDbEntity
8
0
100
AcDbSpline
70
4
71
3
72
8
73
4
74
0
42
0.000000001
43
0.0000000001
44
0.0000000001
40
0
40
0
40
0
40
0
40
1
40
1
40
1
40
1
41
1
41
1
41
1
41
1
10
-331.44760839115725
20
-32.536976245383286
30
0
10
-331.50074565940832
20
-32.536976245383286
30
0
10
-331.54743141011153
20
-32.505993807016921
30
0
10
-331.58770903331674
20
-32.444028606477843
30
0
0
SPLINE
5
238
100
AcDbEntity
8
0
100
AcDbSpline
70
4
71
3
72
8
73
4
74
0
42
0.000000001
43
0.0000000001
44
0.0000000001
40
0
40
0
40
0
40
0
40
1
40
1
40
1
40
1
41
1
41
1
41
1
41
1
10
-331.58770903331674
20
-32.444028606477843
30
0
10
-331.62709489385742
20
-32.383463868365716
30
0
10
-331.6467881479341
20
-32.312331062686404
30
0
10
-331.6467881479341
20
-32.230630513246247
30
0
0
LINE
5
239
100
AcDbEntity
8
0
100
AcDbLine
10
-331.6467881479341
20
-32.230630513246247
30
0
11
-331.6467881479341
21
-31.611529626248739
31
0
0
LINE
5
240
100
AcDbEntity
8
0
100
AcDbLine
10
-331.60833549726959
20
-33.468789220997849
30
0
11
-331.60833549726959
21
-33.156076808574454
31
0
0
SPLINE
5
241
100
AcDbEntity
8
0
100
AcDbSpline
70
4
71
3
72
8
73
4
74
0
42
0.000000001
43
0.0000000001
44
0.0000000001
40
0
40
0
40
0
40
0
40
1
40
1
40
1
40
1
41
1
41
1
41
1
41
1
10
-331.60833549726959
20
-33.156076808574454
30
0
10
-331.60833549726959
20
-33.115247743169746
30
0
10
-331.60281848482327
20
-33.076498162090076
30
0
10
-331.59182590714238
20
-33.03987080777253
30
0
0
SPLINE
5
242
100
AcDbEntity
8
0
100
AcDbSpline
70
4
71
3
72
8
73
4
74
0
42
0.000000001
43
0.0000000001
44
0.0000000001
40
0
40
0
40
0
40
0
40
1
40
1
40
1
40
1
41
1
41
1
41
1
41
1
10
-331.59182590714238
20
-33.03987080777253
30
0
10
-331.58083332946154
20
-33.003243453454985
30
0
10
-331.56572387795501
20
-32.970860228855337
30
0
10
-331.54649755262267
20
-32.942678715342851
30
0
0
SPLINE
5
243
100
AcDbEntity
8
0
100
AcDbSpline
70
4
71
3
72
8
73
4
74
0
42
0.000000001
43
0.0000000001
44
0.0000000001
40
0
40
0
40
0
40
0
40
1
40
1
40
1
40
1
41
1
41
1
41
1
41
1
10
-331.54649755262267
20
-32.942678715342851
30
0
10
-331.5282050847793
20
-32.914497525636712
30
0
10
-331.50668750577466
20
-32.891960604269066
30
0
10
-331.48194352038342
20
-32.87506892265894
30
0
0
SPLINE
5
244
100
AcDbEntity
8
0
100
AcDbSpline
70
4
71
3
72
8
73
4
74
0
42
0.000000001
43
0.0000000001
44
0.0000000001
40
0
40
0
40
0
40
0
40
1
40
1
40
1
40
1
41
1
41
1
41
1
41
1
10
-331.48194352038342
20
-32.87506892265894
30
0
10
-331.45817613491818
20
-32.858176917242481
30
0
10
-331.43343279713963
20
-32.849688657806681
30
0
10
-331.40779769669655
20
-32.849688657806681
30
0
0
LINE
5
245
100
AcDbEntity
8
0
100
AcDbLine
10
-331.40779769669666
20
-32.849688657806681
30
0
11
-331.04657423722296
21
-32.849688657806681
31
0
0
LINE
5
246
100
AcDbEntity
8
0
100
AcDbLine
10
-331.04657423722296
20
-32.849688657806681
30
0
11
-331.04657423722296
21
-33.775177695571962
31
0
0
LINE
5
247
100
AcDbEntity
8
0
100
AcDbLine
10
-331.04657423722296
20
-33.775177695571962
30
0
11
-331.40779769669655
21
-33.775177695571955
31
0
0
SPLINE
5
248
100
AcDbEntity
8
0
100
AcDbSpline
70
4
71
3
72
8
73
4
74
0
42
0.000000001
43
0.0000000001
44
0.0000000001
40
0
40
0
40
0
40
0
40
1
40
1
40
1
40
1
41
1
41
1
41
1
41
1
10
-331.40779769669655
20
-33.775177695571955
30
0
10
-331.43343279713963
20
-33.775177695571955
30
0
10
-331.45817613491818
20
-33.76601009043172
30
0
10
-331.48194352038342
20
-33.747717622588318
30
0
0
SPLINE
5
249
100
AcDbEntity
8
0
100
AcDbSpline
70
4
71
3
72
8
73
4
74
0
42
0.000000001
43
0.0000000001
44
0.0000000001
40
0
40
0
40
0
40
0
40
1
40
1
40
1
40
1
41
1
41
1
41
1
41
1
10
-331.48194352038342
20
-33.747717622588318
30
0
10
-331.50668750577466
20
-33.730825940978193
30
0
10
-331.5282050847793
20
-33.707567579081712
30
0
10
-331.54649755262267
20
-33.677985603142282
30
0
0
SPLINE
5
250
100
AcDbEntity
8
0
100
AcDbSpline
70
4
71
3
72
8
73
4
74
0
42
0.000000001
43
0.0000000001
44
0.0000000001
40
0
40
0
40
0
40
0
40
1
40
1
40
1
40
1
41
1
41
1
41
1
41
1
10
-331.54649755262267
20
-33.677985603142282
30
0
10
-331.56572387795501
20
-33.649804089629797
30
0
10
-331.58083332946154
20
-33.617420865030148
30
0
10
-331.59182590714238
20
-33.580793510712603
30
0
0
SPLINE
5
251
100
AcDbEntity
8
0
100
AcDbSpline
70
4
71
3
72
8
73
4
74
0
42
0.000000001
43
0.0000000001
44
0.0000000001
40
0
40
0
40
0
40
0
40
1
40
1
40
1
40
1
41
1
41
1
41
1
41
1
10
-331.59182590714238
20
-33.580793510712603
30
0
10
-331.60281848482327
20
-33.544166156395065
30
0
10
-331.60833549726959
20
-33.506817361548677
30
0
10
-331.60833549726959
20
-33.468789220997849
30
0
0
LINE
5
252
100
AcDbEntity
8
0
100
AcDbLine
10
-334.22878623910913
20
-32.999720764265923
30
0
11
-334.22878623910913
21
-34.081566170146075
31
0
0
LINE
5
253
100
AcDbEntity
8
0
100
AcDbLine
10
-334.22878623910913
20
-34.081566170146075
30
0
11
-333.62449819700936
21
-34.081566170146075
31
0
0
LINE
5
254
100
AcDbEntity
8
0
100
AcDbLine
10
-333.62449819700936
20
-34.081566170146075
30
0
11
-333.62449819700936
21
-32.999720764265923
31
0
0
SPLINE
5
255
100
AcDbEntity
8
0
100
AcDbSpline
70
4
71
3
72
8
73
4
74
0
42
0.000000001
43
0.0000000001
44
0.0000000001
40
0
40
0
40
0
40
0
40
1
40
1
40
1
40
1
41
1
41
1
41
1
41
1
10
-333.62449819700936
20
-32.999720764265923
30
0
10
-333.62449819700936
20
-32.961692947521442
30
0
10
-333.6189805369504
20
-32.923664806970613
30
0
10
-333.60803070170664
20
-32.885636990226118
30
0
0
SPLINE
5
256
100
AcDbEntity
8
0
100
AcDbSpline
70
4
71
3
72
8
73
4
74
0
42
0.000000001
43
0.0000000001
44
0.0000000001
40
0
40
0
40
0
40
0
40
1
40
1
40
1
40
1
41
1
41
1
41
1
41
1
10
-333.60803070170664
20
-32.885636990226118
30
0
10
-333.59703812402574
20
-32.84900963590858
30
0
10
-333.58239560126356
20
-32.816583992678197
30
0
10
-333.56406039098312
20
-32.788444897796445
30
0
0
SPLINE
5
257
100
AcDbEntity
8
0
100
AcDbSpline
70
4
71
3
72
8
73
4
74
0
42
0.000000001
43
0.0000000001
44
0.0000000001
40
0
40
0
40
0
40
0
40
1
40
1
40
1
40
1
41
1
41
1
41
1
41
1
10
-333.56406039098312
20
-32.788444897796445
30
0
10
-333.54576792313969
20
-32.760263384283959
30
0
10
-333.52424969652242
20
-32.737005346193818
30
0
10
-333.49950635874382
20
-32.718712878350416
30
0
0
SPLINE
5
258
100
AcDbEntity
8
0
100
AcDbSpline
70
4
71
3
72
8
73
4
74
0
42
0.000000001
43
0.0000000001
44
0.0000000001
40
0
40
0
40
0
40
0
40
1
40
1
40
1
40
1
41
1
41
1
41
1
41
1
10
-333.49950635874382
20
-32.718712878350416
30
0
10
-333.47569623084144
20
-32.701778454303216
30
0
10
-333.45052805914287
20
-32.69333228969181
30
0
10
-333.42395974882368
20
-32.69333228969181
30
0
0
LINE
5
259
100
AcDbEntity
8
0
100
AcDbLine
10
-333.42395974882368
20
-32.69333228969181
30
0
11
-333.22206325684181
21
-32.69333228969181
31
0
0
SPLINE
5
260
100
AcDbEntity
8
0
100
AcDbSpline
70
4
71
3
72
8
73
4
74
0
42
0.000000001
43
0.0000000001
44
0.0000000001
40
0
40
0
40
0
40
0
40
1
40
1
40
1
40
1
41
1
41
1
41
1
41
1
10
-333.22206325684181
20
-32.69333228969181
30
0
10
-333.19642815639872
20
-32.69333228969181
30
0
10
-333.17172691344462
20
-32.701778454303216
30
0
10
-333.14791743315487
20
-32.718712878350416
30
0
0
SPLINE
5
261
100
AcDbEntity
8
0
100
AcDbSpline
70
4
71
3
72
8
73
4
74
0
42
0.000000001
43
0.0000000001
44
0.0000000001
40
0
40
0
40
0
40
0
40
1
40
1
40
1
40
1
41
1
41
1
41
1
41
1
10
-333.14791743315487
20
-32.718712878350416
30
0
10
-333.12410730525249
20
-32.737005346193818
30
0
10
-333.10258907863522
20
-32.760263384283959
30
0
10
-333.08336340091563
20
-32.788444897796445
30
0
0
SPLINE
5
262
100
AcDbEntity
8
0
100
AcDbSpline
70
4
71
3
72
8
73
4
74
0
42
0.000000001
43
0.0000000001
44
0.0000000001
40
0
40
0
40
0
40
0
40
1
40
1
40
1
40
1
41
1
41
1
41
1
41
1
10
-333.08336340091563
20
-32.788444897796445
30
0
10
-333.06507093307221
20
-32.816583992678197
30
0
10
-333.050385667873
20
-32.84900963590858
30
0
10
-333.03943583262924
20
-32.885636990226118
30
0
0
SPLINE
5
263
100
AcDbEntity
8
0
100
AcDbSpline
70
4
71
3
72
8
73
4
74
0
42
0.000000001
43
0.0000000001
44
0.0000000001
40
0
40
0
40
0
40
0
40
1
40
1
40
1
40
1
41
1
41
1
41
1
41
1
10
-333.03943583262924
20
-32.885636990226118
30
0
10
-333.02844325494834
20
-32.923664806970613
30
0
10
-333.02292559488933
20
-32.961692947521442
30
0
10
-333.02292559488933
20
-32.999720764265923
30
0
0
LINE
5
264
100
AcDbEntity
8
0
100
AcDbLine
10
-333.02292559488933
20
-32.999720764265923
30
0
11
-333.02292559488933
21
-34.081566170146075
31
0
0
LINE
5
265
100
AcDbEntity
8
0
100
AcDbLine
10
-333.02292559488933
20
-34.081566170146075
30
0
11
-332.42139638281907
21
-34.081566170146075
31
0
0
LINE
5
266
100
AcDbEntity
8
0
100
AcDbLine
10
-332.42139638281907
20
-34.081566170146075
30
0
11
-332.42139638281913
21
-32.999720764265923
31
0
0
SPLINE
5
267
100
AcDbEntity
8
0
100
AcDbSpline
70
4
71
3
72
8
73
4
74
0
42
0.000000001
43
0.0000000001
44
0.0000000001
40
0
40
0
40
0
40
0
40
1
40
1
40
1
40
1
41
1
41
1
41
1
41
1
10
-332.42139638281913
20
-32.999720764265923
30
0
10
-332.42139638281913
20
-32.83771980400622
30
0
10
-332.46120642966719
20
-32.694775494555827
30
0
10
-332.54086991341296
20
-32.570802674846952
30
0
0
SPLINE
5
268
100
AcDbEntity
8
0
100
AcDbSpline
70
4
71
3
72
8
73
4
74
0
42
0.000000001
43
0.0000000001
44
0.0000000001
40
0
40
0
40
0
40
0
40
1
40
1
40
1
40
1
41
1
41
1
41
1
41
1
10
-332.54086991341296
20
-32.570802674846952
30
0
10
-332.62142515982327
20
-32.448230317565013
30
0
10
-332.71530633241122
20
-32.386986557554771
30
0
10
-332.82242988914072
20
-32.386986557554771
30
0
0
LINE
5
269
100
AcDbEntity
8
0
100
AcDbLine
10
-332.82242988914072
20
-32.386986557554771
30
0
11
-333.02292559488933
21
-32.386986557554771
31
0
0
LINE
5
270
100
AcDbEntity
8
0
100
AcDbLine
10
-333.02292559488933
20
-32.386986557554771
30
0
11
-333.02292559488933
21
-31.611529626248736
31
0
0
LINE
5
271
100
AcDbEntity
8
0
100
AcDbLine
10
-333.02292559488933
20
-31.611529626248736
30
0
11
-333.62449819700936
21
-31.611529626248739
31
0
0
LINE
5
272
100
AcDbEntity
8
0
100
AcDbLine
10
-333.62449819700936
20
-31.611529626248739
30
0
11
-333.62449819700936
21
-32.386986557554778
31
0
0
LINE
5
273
100
AcDbEntity
8
0
100
AcDbLine
10
-333.62449819700936
20
-32.386986557554778
30
0
11
-333.82775208517478
21
-32.386986557554771
31
0
0
SPLINE
5
274
100
AcDbEntity
8
0
100
AcDbSpline
70
4
71
3
72
8
73
4
74
0
42
0.000000001
43
0.0000000001
44
0.0000000001
40
0
40
0
40
0
40
0
40
1
40
1
40
1
40
1
41
1
41
1
41
1
41
1
10
-333.82775208517478
20
-32.386986557554771
30
0
10
-333.93305066936364
20
-32.386986557554771
30
0
10
-334.02553170333101
20
-32.448230317565013
30
0
10
-334.1051951870769
20
-32.570802674846952
30
0
0
SPLINE
5
275
100
AcDbEntity
8
0
100
AcDbSpline
70
4
71
3
72
8
73
4
74
0
42
0.000000001
43
0.0000000001
44
0.0000000001
40
0
40
0
40
0
40
0
40
1
40
1
40
1
40
1
41
1
41
1
41
1
41
1
10
-334.1051951870769
20
-32.570802674846952
30
0
10
-334.18757540602775
20
-32.69897720564299
30
0
10
-334.22878623910913
20
-32.841964257530456
30
0
10
-334.22878623910913
20
-32.999720764265923
30
0
0
SPLINE
5
276
100
AcDbEntity
8
0
100
AcDbSpline
70
4
71
3
72
8
73
4
74
0
42
0.000000001
43
0.0000000001
44
0.0000000001
40
0
40
0
40
0
40
0
40
1
40
1
40
1
40
1
41
1
41
1
41
1
41
1
10
-328.12045678514448
20
-33.782350329842288
30
0
10
-328.12045678514448
20
-33.948340908035483
30
0
10
-327.9857034809084
20
-34.083136307095955
30
0
10
-327.81971306461844
20
-34.083136307095955
30
0
0
SPLINE
5
277
100
AcDbEntity
8
0
100
AcDbSpline
70
4
71
3
72
8
73
4
74
0
42
0.000000001
43
0.0000000001
44
0.0000000001
40
0
40
0
40
0
40
0
40
1
40
1
40
1
40
1
41
1
41
1
41
1
41
1
10
-327.81971306461844
20
-34.083136307095955
30
0
10
-327.65372264832831
20
-34.083136307095955
30
0
10
-327.51892708736472
20
-33.948340908035483
30
0
10
-327.51892708736472
20
-33.782350329842288
30
0
0
LINE
5
278
100
AcDbEntity
8
0
100
AcDbLine
10
-327.51892708736472
20
-33.782350329842288
30
0
11
-327.51892708736472
21
-33.180820470159347
31
0
0
SPLINE
5
279
100
AcDbEntity
8
0
100
AcDbSpline
70
4
71
3
72
8
73
4
74
0
42
0.000000001
43
0.0000000001
44
0.0000000001
40
0
40
0
40
0
40
0
40
1
40
1
40
1
40
1
41
1
41
1
41
1
41
1
10
-327.51892708736472
20
-33.180820470159347
30
0
10
-327.51892708736472
20
-33.014830215772491
30
0
10
-327.65372264832831
20
-32.880034492905679
30
0
10
-327.81971306461844
20
-32.880034492905679
30
0
0
SPLINE
5
280
100
AcDbEntity
8
0
100
AcDbSpline
70
4
71
3
72
8
73
4
74
0
42
0.000000001
43
0.0000000001
44
0.0000000001
40
0
40
0
40
0
40
0
40
1
40
1
40
1
40
1
41
1
41
1
41
1
41
1
10
-327.81971306461844
20
-32.880034492905679
30
0
10
-327.9857034809084
20
-32.880034492905679
30
0
10
-328.12045678514448
20
-33.014830215772491
30
0
10
-328.12045678514448
20
-33.180820470159347
30
0
0
LINE
5
281
100
AcDbEntity
8
0
100
AcDbLine
10
-328.12045678514448
20
-33.18082047015934
30
0
11
-328.12045678514448
21
-33.782350329842288
31
0
0
SPLINE
5
282
100
AcDbEntity
8
0
100
AcDbSpline
70
4
71
3
72
8
73
4
74
0
42
0.000000001
43
0.0000000001
44
0.0000000001
40
0
40
0
40
0
40
0
40
1
40
1
40
1
40
1
41
1
41
1
41
1
41
1
10
-335.66317491197094
20
-34.08364565447112
30
0
10
-335.66317491197094
20
-34.243057459224275
30
0
10
-335.72649848011258
20
-34.395933556780818
30
0
10
-335.83918179172542
20
-34.50861686839368
30
0
0
SPLINE
5
283
100
AcDbEntity
8
0
100
AcDbSpline
70
4
71
3
72
8
73
4
74
0
42
0.000000001
43
0.0000000001
44
0.0000000001
40
0
40
0
40
0
40
0
40
1
40
1
40
1
40
1
41
1
41
1
41
1
41
1
10
-335.83918179172542
20
-34.50861686839368
30
0
10
-335.95190784577539
20
-34.621342598637277
30
0
10
-336.10478329571924
20
-34.684666166778896
30
0
10
-336.26415300564804
20
-34.684666166778896
30
0
0
LINE
5
284
100
AcDbEntity
8
0
100
AcDbLine
10
-336.26415300564804
20
-34.684666166778896
30
0
11
-337.18488856632018
21
-34.684666166778896
31
0
0
SPLINE
5
285
100
AcDbEntity
8
0
100
AcDbSpline
70
4
71
3
72
8
73
4
74
0
42
0.000000001
43
0.0000000001
44
0.0000000001
40
0
40
0
40
0
40
0
40
1
40
1
40
1
40
1
41
1
41
1
41
1
41
1
10
-337.18488856632018
20
-34.684666166778896
30
0
10
-337.2322964051649
20
-34.684666166778896
30
0
10
-337.27503560417813
20
-34.656102561783456
30
0
10
-337.29315774988595
20
-34.612344991826319
30
0
0
SPLINE
5
286
100
AcDbEntity
8
0
100
AcDbSpline
70
4
71
3
72
8
73
4
74
0
42
0.000000001
43
0.0000000001
44
0.0000000001
40
0
40
0
40
0
40
0
40
1
40
1
40
1
40
1
41
1
41
1
41
1
41
1
10
-337.29315774988595
20
-34.612344991826319
30
0
10
-337.31128054320635
20
-34.568545003238441
30
0
10
-337.30126456545145
20
-34.518166241210537
30
0
10
-337.26777780883998
20
-34.484637065968357
30
0
0
SPLINE
5
287
100
AcDbEntity
8
0
100
AcDbSpline
70
4
71
3
72
8
73
4
74
0
42
0.000000001
43
0.0000000001
44
0.0000000001
40
0
40
0
40
0
40
0
40
1
40
1
40
1
40
1
41
1
41
1
41
1
41
1
10
-337.26777780883998
20
-34.484637065968357
30
0
10
-336.92056026886115
20
-34.137461944620277
30
0
10
-336.21037913412954
20
-33.427238715064298
30
0
10
-335.86320433658784
20
-33.080063593716218
30
0
0
SPLINE
5
288
100
AcDbEntity
8
0
100
AcDbSpline
70
4
71
3
72
8
73
4
74
0
42
0.000000001
43
0.0000000001
44
0.0000000001
40
0
40
0
40
0
40
0
40
1
40
1
40
1
40
1
41
1
41
1
41
1
41
1
10
-335.86320433658784
20
-33.080063593716218
30
0
10
-335.8296748375393
20
-33.046534418474039
30
0
10
-335.77929639931773
20
-33.036518116912752
30
0
10
-335.73549641072987
20
-33.054683005057612
30
0
0
SPLINE
5
289
100
AcDbEntity
8
0
100
AcDbSpline
70
4
71
3
72
8
73
4
74
0
42
0.000000001
43
0.0000000001
44
0.0000000001
40
0
40
0
40
0
40
0
40
1
40
1
40
1
40
1
41
1
41
1
41
1
41
1
10
-335.73549641072987
20
-33.054683005057612
30
0
10
-335.691696422142
20
-33.072805798378077
30
0
10
-335.66317491197094
20
-33.115544997391233
30
0
10
-335.66317491197094
20
-33.162910093798899
30
0
0
SPLINE
5
290
100
AcDbEntity
8
0
100
AcDbSpline
70
4
71
3
72
8
73
4
74
0
42
0.000000001
43
0.0000000001
44
0.0000000001
40
0
40
0
40
0
40
0
40
1
40
1
40
1
40
1
41
1
41
1
41
1
41
1
10
-335.66317491197094
20
-33.162910093798899
30
0
10
-335.66317491197094
20
-33.408733830260879
30
0
10
-335.66317491197094
20
-33.773097887440578
30
0
10
-335.66317491197094
20
-34.08364565447112
30
0
0
SPLINE
5
291
100
AcDbEntity
8
0
100
AcDbSpline
70
4
71
3
72
8
73
4
74
0
42
0.000000001
43
0.0000000001
44
0.0000000001
40
0
40
0
40
0
40
0
40
1
40
1
40
1
40
1
41
1
41
1
41
1
41
1
10
-335.66317491197094
20
-31.67646577450618
30
0
10
-335.66317491197094
20
-31.517053969753018
30
0
10
-335.72649848011258
20
-31.364177872196475
30
0
10
-335.83918179172542
20
-31.251494560583613
30
0
0
SPLINE
5
292
100
AcDbEntity
8
0
100
AcDbSpline
70
4
71
3
72
8
73
4
74
0
42
0.000000001
43
0.0000000001
44
0.0000000001
40
0
40
0
40
0
40
0
40
1
40
1
40
1
40
1
41
1
41
1
41
1
41
1
10
-335.83918179172542
20
-31.251494560583613
30
0
10
-335.95190784577539
20
-31.13876883034002
30
0
10
-336.10478329571924
20
-31.0754452621984
30
0
10
-336.26415300564804
20
-31.0754452621984
30
0
0
LINE
5
293
100
AcDbEntity
8
0
100
AcDbLine
10
-336.26415300564804
20
-31.0754452621984
30
0
11
-337.18488856632018
21
-31.0754452621984
31
0
0
SPLINE
5
294
100
AcDbEntity
8
0
100
AcDbSpline
70
4
71
3
72
8
73
4
74
0
42
0.000000001
43
0.0000000001
44
0.0000000001
40
0
40
0
40
0
40
0
40
1
40
1
40
1
40
1
41
1
41
1
41
1
41
1
10
-337.18488856632018
20
-31.0754452621984
30
0
10
-337.2322964051649
20
-31.0754452621984
30
0
10
-337.27503560417813
20
-31.104008867193841
30
0
10
-337.29315774988595
20
-31.147766437150977
30
0
0
SPLINE
5
295
100
AcDbEntity
8
0
100
AcDbSpline
70
4
71
3
72
8
73
4
74
0
42
0.000000001
43
0.0000000001
44
0.0000000001
40
0
40
0
40
0
40
0
40
1
40
1
40
1
40
1
41
1
41
1
41
1
41
1
10
-337.29315774988595
20
-31.147766437150977
30
0
10
-337.31128054320635
20
-31.191566425738849
30
0
10
-337.30126456545145
20
-31.24194518776676
30
0
10
-337.26777780883998
20
-31.275474363008936
30
0
0
SPLINE
5
296
100
AcDbEntity
8
0
100
AcDbSpline
70
4
71
3
72
8
73
4
74
0
42
0.000000001
43
0.0000000001
44
0.0000000001
40
0
40
0
40
0
40
0
40
1
40
1
40
1
40
1
41
1
41
1
41
1
41
1
10
-337.26777780883998
20
-31.275474363008936
30
0
10
-336.92056026886115
20
-31.622649484357019
30
0
10
-336.21037913412954
20
-32.332872713912991
30
0
10
-335.86320433658784
20
-32.680047835261085
30
0
0
SPLINE
5
297
100
AcDbEntity
8
0
100
AcDbSpline
70
4
71
3
72
8
73
4
74
0
42
0.000000001
43
0.0000000001
44
0.0000000001
40
0
40
0
40
0
40
0
40
1
40
1
40
1
40
1
41
1
41
1
41
1
41
1
10
-335.86320433658784
20
-32.680047835261085
30
0
10
-335.8296748375393
20
-32.713577010503258
30
0
10
-335.77929639931773
20
-32.723593312064544
30
0
10
-335.73549641072987
20
-32.705428423919685
30
0
0
SPLINE
5
298
100
AcDbEntity
8
0
100
AcDbSpline
70
4
71
3
72
8
73
4
74
0
42
0.000000001
43
0.0000000001
44
0.0000000001
40
0
40
0
40
0
40
0
40
1
40
1
40
1
40
1
41
1
41
1
41
1
41
1
10
-335.73549641072987
20
-32.705428423919685
30
0
10
-335.691696422142
20
-32.687305630599219
30
0
10
-335.66317491197094
20
-32.644566431586064
30
0
10
-335.66317491197094
20
-32.597201335178397
30
0
0
SPLINE
5
299
100
AcDbEntity
8
0
100
AcDbSpline
70
4
71
3
72
8
73
4
74
0
42
0.000000001
43
0.0000000001
44
0.0000000001
40
0
40
0
40
0
40
0
40
1
40
1
40
1
40
1
41
1
41
1
41
1
41
1
10
-335.66317491197094
20
-32.597201335178397
30
0
10
-335.66317491197094
20
-32.351377598716418
30
0
10
-335.66317491197094
20
-31.987013541536719
30
0
10
-335.66317491197094
20
-31.67646577450618
30
0
0
ENDSEC
0
SECTION
2
OBJECTS
0
DICTIONARY
5
C
100
AcDbDictionary
3
ACAD_GROUP
350
D
3
ACAD_MLINESTYLE
350
17
0
DICTIONARY
5
D
100
AcDbDictionary
0
DICTIONARY
5
1A
330
C
100
AcDbDictionary
0
DICTIONARY
5
17
100
AcDbDictionary
0
ENDSEC
0
EOF
