G04 #@! TF.GenerationSoftware,KiCad,Pcbnew,8.0.4*
G04 #@! TF.CreationDate,2024-09-04T19:59:22-04:00*
G04 #@! TF.ProjectId,small-fry-pcb,736d616c-6c2d-4667-9279-2d7063622e6b,1.0*
G04 #@! TF.SameCoordinates,Original*
G04 #@! TF.FileFunction,Soldermask,Top*
G04 #@! TF.FilePolarity,Negative*
%FSLAX46Y46*%
G04 Gerber Fmt 4.6, Leading zero omitted, Abs format (unit mm)*
G04 Created by KiCad (PCBNEW 8.0.4) date 2024-09-04 19:59:22*
%MOMM*%
%LPD*%
G01*
G04 APERTURE LIST*
%ADD10C,1.750000*%
%ADD11C,3.987800*%
%ADD12C,3.048000*%
%ADD13O,1.800000X1.800000*%
%ADD14O,1.500000X1.500000*%
%ADD15O,1.700000X1.700000*%
%ADD16R,3.500000X1.700000*%
%ADD17R,1.700000X1.700000*%
%ADD18R,1.700000X3.500000*%
G04 APERTURE END LIST*
D10*
G04 #@! TO.C,MX51*
X209876250Y-96400000D03*
D11*
X214956250Y-96400000D03*
D10*
X220036250Y-96400000D03*
G04 #@! TD*
G04 #@! TO.C,MX44*
X350370000Y-77350000D03*
D11*
X355450000Y-77350000D03*
D10*
X360530000Y-77350000D03*
G04 #@! TD*
G04 #@! TO.C,MX11*
X286076250Y-39250000D03*
D11*
X291156250Y-39250000D03*
D10*
X296236250Y-39250000D03*
G04 #@! TD*
G04 #@! TO.C,MX23*
X228926250Y-58300000D03*
D11*
X234006250Y-58300000D03*
D10*
X239086250Y-58300000D03*
G04 #@! TD*
G04 #@! TO.C,MX32*
X107482500Y-77350000D03*
D11*
X112562500Y-77350000D03*
D10*
X117642500Y-77350000D03*
G04 #@! TD*
G04 #@! TO.C,MX59*
X107482500Y-115450000D03*
D11*
X112562500Y-115450000D03*
D10*
X117642500Y-115450000D03*
G04 #@! TD*
G04 #@! TO.C,MX2*
X107482500Y-39250000D03*
D11*
X112562500Y-39250000D03*
D10*
X117642500Y-39250000D03*
G04 #@! TD*
G04 #@! TO.C,MX1*
X74145000Y-39250000D03*
D11*
X79225000Y-39250000D03*
D10*
X84305000Y-39250000D03*
G04 #@! TD*
G04 #@! TO.C,MX54*
X267026250Y-96400000D03*
D11*
X272106250Y-96400000D03*
D10*
X277186250Y-96400000D03*
G04 #@! TD*
G04 #@! TO.C,MX5*
X171776250Y-39250000D03*
D11*
X176856250Y-39250000D03*
D10*
X181936250Y-39250000D03*
G04 #@! TD*
G04 #@! TO.C,MX45*
X74145000Y-96400000D03*
D11*
X79225000Y-96400000D03*
D10*
X84305000Y-96400000D03*
G04 #@! TD*
D11*
G04 #@! TO.C,MX62*
X176824500Y-107195000D03*
D12*
X176824500Y-122435000D03*
D10*
X183682500Y-115450000D03*
D11*
X188762500Y-115450000D03*
D10*
X193842500Y-115450000D03*
D11*
X200700500Y-107195000D03*
D12*
X200700500Y-122435000D03*
G04 #@! TD*
D10*
G04 #@! TO.C,MX66*
X309888750Y-120212500D03*
D11*
X314968750Y-120212500D03*
D10*
X320048750Y-120212500D03*
G04 #@! TD*
G04 #@! TO.C,MX50*
X190826250Y-96400000D03*
D11*
X195906250Y-96400000D03*
D10*
X200986250Y-96400000D03*
G04 #@! TD*
G04 #@! TO.C,MX65*
X286076250Y-115450000D03*
D11*
X291156250Y-115450000D03*
D10*
X296236250Y-115450000D03*
G04 #@! TD*
G04 #@! TO.C,MX34*
X152726250Y-77350000D03*
D11*
X157806250Y-77350000D03*
D10*
X162886250Y-77350000D03*
G04 #@! TD*
G04 #@! TO.C,MX12*
X305126250Y-39250000D03*
D11*
X310206250Y-39250000D03*
D10*
X315286250Y-39250000D03*
G04 #@! TD*
G04 #@! TO.C,MX35*
X171776250Y-77350000D03*
D11*
X176856250Y-77350000D03*
D10*
X181936250Y-77350000D03*
G04 #@! TD*
G04 #@! TO.C,MX46*
X107482500Y-96400000D03*
D11*
X112562500Y-96400000D03*
D10*
X117642500Y-96400000D03*
G04 #@! TD*
G04 #@! TO.C,MX9*
X247976250Y-39250000D03*
D11*
X253056250Y-39250000D03*
D10*
X258136250Y-39250000D03*
G04 #@! TD*
G04 #@! TO.C,MX18*
X133676250Y-58300000D03*
D11*
X138756250Y-58300000D03*
D10*
X143836250Y-58300000D03*
G04 #@! TD*
G04 #@! TO.C,MX57*
X331320000Y-96400000D03*
D11*
X336400000Y-96400000D03*
D10*
X341480000Y-96400000D03*
G04 #@! TD*
G04 #@! TO.C,MX43*
X324176250Y-77350000D03*
D11*
X329256250Y-77350000D03*
D10*
X334336250Y-77350000D03*
G04 #@! TD*
G04 #@! TO.C,MX3*
X133676250Y-39250000D03*
D11*
X138756250Y-39250000D03*
D10*
X143836250Y-39250000D03*
G04 #@! TD*
G04 #@! TO.C,MX31*
X74145000Y-77350000D03*
D11*
X79225000Y-77350000D03*
D10*
X84305000Y-77350000D03*
G04 #@! TD*
G04 #@! TO.C,MX37*
X209876250Y-77350000D03*
D11*
X214956250Y-77350000D03*
D10*
X220036250Y-77350000D03*
G04 #@! TD*
G04 #@! TO.C,MX17*
X107482500Y-58300000D03*
D11*
X112562500Y-58300000D03*
D10*
X117642500Y-58300000D03*
G04 #@! TD*
G04 #@! TO.C,MX36*
X190826250Y-77350000D03*
D11*
X195906250Y-77350000D03*
D10*
X200986250Y-77350000D03*
G04 #@! TD*
D13*
G04 #@! TO.C,U1*
X46885000Y-31130000D03*
D14*
X47185000Y-34160000D03*
X52035000Y-34160000D03*
D13*
X52335000Y-31130000D03*
D15*
X40720000Y-31000000D03*
D16*
X39820000Y-31000000D03*
D15*
X40720000Y-33540000D03*
D16*
X39820000Y-33540000D03*
D17*
X40720000Y-36080000D03*
D16*
X39820000Y-36080000D03*
D15*
X40720000Y-38620000D03*
D16*
X39820000Y-38620000D03*
D15*
X40720000Y-41160000D03*
D16*
X39820000Y-41160000D03*
D15*
X40720000Y-43700000D03*
D16*
X39820000Y-43700000D03*
D15*
X40720000Y-46240000D03*
D16*
X39820000Y-46240000D03*
D17*
X40720000Y-48780000D03*
D16*
X39820000Y-48780000D03*
D15*
X40720000Y-51320000D03*
D16*
X39820000Y-51320000D03*
D15*
X40720000Y-53860000D03*
D16*
X39820000Y-53860000D03*
D15*
X40720000Y-56400000D03*
D16*
X39820000Y-56400000D03*
D15*
X40720000Y-58940000D03*
D16*
X39820000Y-58940000D03*
D17*
X40720000Y-61480000D03*
D16*
X39820000Y-61480000D03*
D15*
X40720000Y-64020000D03*
D16*
X39820000Y-64020000D03*
D15*
X40720000Y-66560000D03*
D16*
X39820000Y-66560000D03*
D15*
X40720000Y-69100000D03*
D16*
X39820000Y-69100000D03*
D15*
X40720000Y-71640000D03*
D16*
X39820000Y-71640000D03*
D17*
X40720000Y-74180000D03*
D16*
X39820000Y-74180000D03*
D15*
X40720000Y-76720000D03*
D16*
X39820000Y-76720000D03*
D15*
X40720000Y-79260000D03*
D16*
X39820000Y-79260000D03*
D15*
X58500000Y-79260000D03*
D16*
X59400000Y-79260000D03*
D15*
X58500000Y-76720000D03*
D16*
X59400000Y-76720000D03*
D17*
X58500000Y-74180000D03*
D16*
X59400000Y-74180000D03*
D15*
X58500000Y-71640000D03*
D16*
X59400000Y-71640000D03*
D15*
X58500000Y-69100000D03*
D16*
X59400000Y-69100000D03*
D15*
X58500000Y-66560000D03*
D16*
X59400000Y-66560000D03*
D15*
X58500000Y-64020000D03*
D16*
X59400000Y-64020000D03*
D17*
X58500000Y-61480000D03*
D16*
X59400000Y-61480000D03*
D15*
X58500000Y-58940000D03*
D16*
X59400000Y-58940000D03*
D15*
X58500000Y-56400000D03*
D16*
X59400000Y-56400000D03*
D15*
X58500000Y-53860000D03*
D16*
X59400000Y-53860000D03*
D15*
X58500000Y-51320000D03*
D16*
X59400000Y-51320000D03*
D17*
X58500000Y-48780000D03*
D16*
X59400000Y-48780000D03*
D15*
X58500000Y-46240000D03*
D16*
X59400000Y-46240000D03*
D15*
X58500000Y-43700000D03*
D16*
X59400000Y-43700000D03*
D15*
X58500000Y-41160000D03*
D16*
X59400000Y-41160000D03*
D15*
X58500000Y-38620000D03*
D16*
X59400000Y-38620000D03*
D17*
X58500000Y-36080000D03*
D16*
X59400000Y-36080000D03*
D15*
X58500000Y-33540000D03*
D16*
X59400000Y-33540000D03*
D15*
X58500000Y-31000000D03*
D16*
X59400000Y-31000000D03*
D15*
X47070000Y-79030000D03*
D18*
X47070000Y-79930000D03*
D17*
X49610000Y-79030000D03*
D18*
X49610000Y-79930000D03*
D15*
X52150000Y-79030000D03*
D18*
X52150000Y-79930000D03*
G04 #@! TD*
D10*
G04 #@! TO.C,MX47*
X133676250Y-96400000D03*
D11*
X138756250Y-96400000D03*
D10*
X143836250Y-96400000D03*
G04 #@! TD*
G04 #@! TO.C,MX25*
X267026250Y-58300000D03*
D11*
X272106250Y-58300000D03*
D10*
X277186250Y-58300000D03*
G04 #@! TD*
G04 #@! TO.C,MX61*
X152726250Y-115450000D03*
D11*
X157806250Y-115450000D03*
D10*
X162886250Y-115450000D03*
G04 #@! TD*
G04 #@! TO.C,MX26*
X286076250Y-58300000D03*
D11*
X291156250Y-58300000D03*
D10*
X296236250Y-58300000D03*
G04 #@! TD*
G04 #@! TO.C,MX15*
X369420000Y-39250000D03*
D11*
X374500000Y-39250000D03*
D10*
X379580000Y-39250000D03*
G04 #@! TD*
G04 #@! TO.C,MX58*
X74145000Y-115450000D03*
D11*
X79225000Y-115450000D03*
D10*
X84305000Y-115450000D03*
G04 #@! TD*
D11*
G04 #@! TO.C,MX63*
X224449500Y-107195000D03*
D12*
X224449500Y-122435000D03*
D10*
X231307500Y-115450000D03*
D11*
X236387500Y-115450000D03*
D10*
X241467500Y-115450000D03*
D11*
X248325500Y-107195000D03*
D12*
X248325500Y-122435000D03*
G04 #@! TD*
D10*
G04 #@! TO.C,MX28*
X324176250Y-58300000D03*
D11*
X329256250Y-58300000D03*
D10*
X334336250Y-58300000D03*
G04 #@! TD*
G04 #@! TO.C,MX8*
X228926250Y-39250000D03*
D11*
X234006250Y-39250000D03*
D10*
X239086250Y-39250000D03*
G04 #@! TD*
G04 #@! TO.C,MX10*
X267026250Y-39250000D03*
D11*
X272106250Y-39250000D03*
D10*
X277186250Y-39250000D03*
G04 #@! TD*
G04 #@! TO.C,MX53*
X247976250Y-96400000D03*
D11*
X253056250Y-96400000D03*
D10*
X258136250Y-96400000D03*
G04 #@! TD*
G04 #@! TO.C,MX64*
X267026250Y-115450000D03*
D11*
X272106250Y-115450000D03*
D10*
X277186250Y-115450000D03*
G04 #@! TD*
G04 #@! TO.C,MX49*
X171776250Y-96400000D03*
D11*
X176856250Y-96400000D03*
D10*
X181936250Y-96400000D03*
G04 #@! TD*
G04 #@! TO.C,MX27*
X305126250Y-58300000D03*
D11*
X310206250Y-58300000D03*
D10*
X315286250Y-58300000D03*
G04 #@! TD*
G04 #@! TO.C,MX33*
X133676250Y-77350000D03*
D11*
X138756250Y-77350000D03*
D10*
X143836250Y-77350000D03*
G04 #@! TD*
G04 #@! TO.C,MX21*
X190826250Y-58300000D03*
D11*
X195906250Y-58300000D03*
D10*
X200986250Y-58300000D03*
G04 #@! TD*
G04 #@! TO.C,MX19*
X152726250Y-58300000D03*
D11*
X157806250Y-58300000D03*
D10*
X162886250Y-58300000D03*
G04 #@! TD*
G04 #@! TO.C,MX55*
X286076250Y-96400000D03*
D11*
X291156250Y-96400000D03*
D10*
X296236250Y-96400000D03*
G04 #@! TD*
G04 #@! TO.C,MX29*
X343226250Y-58300000D03*
D11*
X348306250Y-58300000D03*
D10*
X353386250Y-58300000D03*
G04 #@! TD*
G04 #@! TO.C,MX7*
X209876250Y-39250000D03*
D11*
X214956250Y-39250000D03*
D10*
X220036250Y-39250000D03*
G04 #@! TD*
G04 #@! TO.C,MX13*
X324176250Y-39250000D03*
D11*
X329256250Y-39250000D03*
D10*
X334336250Y-39250000D03*
G04 #@! TD*
G04 #@! TO.C,MX4*
X152726250Y-39250000D03*
D11*
X157806250Y-39250000D03*
D10*
X162886250Y-39250000D03*
G04 #@! TD*
G04 #@! TO.C,MX41*
X286076250Y-77350000D03*
D11*
X291156250Y-77350000D03*
D10*
X296236250Y-77350000D03*
G04 #@! TD*
G04 #@! TO.C,MX52*
X228926250Y-96400000D03*
D11*
X234006250Y-96400000D03*
D10*
X239086250Y-96400000D03*
G04 #@! TD*
G04 #@! TO.C,MX16*
X74145000Y-58300000D03*
D11*
X79225000Y-58300000D03*
D10*
X84305000Y-58300000D03*
G04 #@! TD*
G04 #@! TO.C,MX20*
X171776250Y-58300000D03*
D11*
X176856250Y-58300000D03*
D10*
X181936250Y-58300000D03*
G04 #@! TD*
G04 #@! TO.C,MX69*
X367038750Y-120212500D03*
D11*
X372118750Y-120212500D03*
D10*
X377198750Y-120212500D03*
G04 #@! TD*
G04 #@! TO.C,MX6*
X190826250Y-39250000D03*
D11*
X195906250Y-39250000D03*
D10*
X200986250Y-39250000D03*
G04 #@! TD*
G04 #@! TO.C,MX38*
X228926250Y-77350000D03*
D11*
X234006250Y-77350000D03*
D10*
X239086250Y-77350000D03*
G04 #@! TD*
G04 #@! TO.C,MX68*
X347988750Y-120212500D03*
D11*
X353068750Y-120212500D03*
D10*
X358148750Y-120212500D03*
G04 #@! TD*
G04 #@! TO.C,MX42*
X305126250Y-77350000D03*
D11*
X310206250Y-77350000D03*
D10*
X315286250Y-77350000D03*
G04 #@! TD*
G04 #@! TO.C,MX60*
X133676250Y-115450000D03*
D11*
X138756250Y-115450000D03*
D10*
X143836250Y-115450000D03*
G04 #@! TD*
G04 #@! TO.C,MX48*
X152726250Y-96400000D03*
D11*
X157806250Y-96400000D03*
D10*
X162886250Y-96400000D03*
G04 #@! TD*
G04 #@! TO.C,MX67*
X328938750Y-120212500D03*
D11*
X334018750Y-120212500D03*
D10*
X339098750Y-120212500D03*
G04 #@! TD*
G04 #@! TO.C,MX40*
X267026250Y-77350000D03*
D11*
X272106250Y-77350000D03*
D10*
X277186250Y-77350000D03*
G04 #@! TD*
G04 #@! TO.C,MX39*
X247976250Y-77350000D03*
D11*
X253056250Y-77350000D03*
D10*
X258136250Y-77350000D03*
G04 #@! TD*
G04 #@! TO.C,MX30*
X369420000Y-58300000D03*
D11*
X374500000Y-58300000D03*
D10*
X379580000Y-58300000D03*
G04 #@! TD*
G04 #@! TO.C,MX56*
X305126250Y-96400000D03*
D11*
X310206250Y-96400000D03*
D10*
X315286250Y-96400000D03*
G04 #@! TD*
G04 #@! TO.C,MX14*
X343226250Y-39250000D03*
D11*
X348306250Y-39250000D03*
D10*
X353386250Y-39250000D03*
G04 #@! TD*
G04 #@! TO.C,MX24*
X247976250Y-58300000D03*
D11*
X253056250Y-58300000D03*
D10*
X258136250Y-58300000D03*
G04 #@! TD*
G04 #@! TO.C,MX22*
X209876250Y-58300000D03*
D11*
X214956250Y-58300000D03*
D10*
X220036250Y-58300000D03*
G04 #@! TD*
M02*
