M48
; DRILL file {KiCad 8.0.4} date 2024-09-04T20:00:19-0400
; FORMAT={-:-/ absolute / inch / decimal}
; #@! TF.CreationDate,2024-09-04T20:00:19-04:00
; #@! TF.GenerationSoftware,Kicad,Pcbnew,8.0.4
; #@! TF.FileFunction,NonPlated,1,2,NPTH
FMAT,2
INCH
; #@! TA.AperFunction,NonPlated,NPTH,ComponentDrill
T1C0.0591
; #@! TA.AperFunction,NonPlated,NPTH,ComponentDrill
T2C0.0689
; #@! TA.AperFunction,NonPlated,NPTH,ComponentDrill
T3C0.0709
; #@! TA.AperFunction,NonPlated,NPTH,ComponentDrill
T4C0.1200
; #@! TA.AperFunction,NonPlated,NPTH,ComponentDrill
T5C0.1570
%
G90
G05
T1
X1.8577Y-1.3449
X2.0486Y-1.3449
T2
X2.9191Y-1.5453
X2.9191Y-2.2953
X2.9191Y-3.0453
X2.9191Y-3.7953
X2.9191Y-4.5453
X3.3191Y-1.5453
X3.3191Y-2.2953
X3.3191Y-3.0453
X3.3191Y-3.7953
X3.3191Y-4.5453
X4.2316Y-1.5453
X4.2316Y-2.2953
X4.2316Y-3.0453
X4.2316Y-3.7953
X4.2316Y-4.5453
X4.6316Y-1.5453
X4.6316Y-2.2953
X4.6316Y-3.0453
X4.6316Y-3.7953
X4.6316Y-4.5453
X5.2628Y-1.5453
X5.2628Y-2.2953
X5.2628Y-3.0453
X5.2628Y-3.7953
X5.2628Y-4.5453
X5.6628Y-1.5453
X5.6628Y-2.2953
X5.6628Y-3.0453
X5.6628Y-3.7953
X5.6628Y-4.5453
X6.0128Y-1.5453
X6.0128Y-2.2953
X6.0128Y-3.0453
X6.0128Y-3.7953
X6.0128Y-4.5453
X6.4128Y-1.5453
X6.4128Y-2.2953
X6.4128Y-3.0453
X6.4128Y-3.7953
X6.4128Y-4.5453
X6.7628Y-1.5453
X6.7628Y-2.2953
X6.7628Y-3.0453
X6.7628Y-3.7953
X7.1628Y-1.5453
X7.1628Y-2.2953
X7.1628Y-3.0453
X7.1628Y-3.7953
X7.2316Y-4.5453
X7.5128Y-1.5453
X7.5128Y-2.2953
X7.5128Y-3.0453
X7.5128Y-3.7953
X7.6316Y-4.5453
X7.9128Y-1.5453
X7.9128Y-2.2953
X7.9128Y-3.0453
X7.9128Y-3.7953
X8.2628Y-1.5453
X8.2628Y-2.2953
X8.2628Y-3.0453
X8.2628Y-3.7953
X8.6628Y-1.5453
X8.6628Y-2.2953
X8.6628Y-3.0453
X8.6628Y-3.7953
X9.0128Y-1.5453
X9.0128Y-2.2953
X9.0128Y-3.0453
X9.0128Y-3.7953
X9.1066Y-4.5453
X9.4128Y-1.5453
X9.4128Y-2.2953
X9.4128Y-3.0453
X9.4128Y-3.7953
X9.5066Y-4.5453
X9.7628Y-1.5453
X9.7628Y-2.2953
X9.7628Y-3.0453
X9.7628Y-3.7953
X10.1628Y-1.5453
X10.1628Y-2.2953
X10.1628Y-3.0453
X10.1628Y-3.7953
X10.5128Y-1.5453
X10.5128Y-2.2953
X10.5128Y-3.0453
X10.5128Y-3.7953
X10.5128Y-4.5453
X10.9128Y-1.5453
X10.9128Y-2.2953
X10.9128Y-3.0453
X10.9128Y-3.7953
X10.9128Y-4.5453
X11.2628Y-1.5453
X11.2628Y-2.2953
X11.2628Y-3.0453
X11.2628Y-3.7953
X11.2628Y-4.5453
X11.6628Y-1.5453
X11.6628Y-2.2953
X11.6628Y-3.0453
X11.6628Y-3.7953
X11.6628Y-4.5453
X12.0128Y-1.5453
X12.0128Y-2.2953
X12.0128Y-3.0453
X12.0128Y-3.7953
X12.2003Y-4.7328
X12.4128Y-1.5453
X12.4128Y-2.2953
X12.4128Y-3.0453
X12.4128Y-3.7953
X12.6003Y-4.7328
X12.7628Y-1.5453
X12.7628Y-2.2953
X12.7628Y-3.0453
X12.9503Y-4.7328
X13.0441Y-3.7953
X13.1628Y-1.5453
X13.1628Y-2.2953
X13.1628Y-3.0453
X13.3503Y-4.7328
X13.4441Y-3.7953
X13.5128Y-1.5453
X13.5128Y-2.2953
X13.7003Y-4.7328
X13.7941Y-3.0453
X13.9128Y-1.5453
X13.9128Y-2.2953
X14.1003Y-4.7328
X14.1941Y-3.0453
X14.4503Y-4.7328
X14.5441Y-1.5453
X14.5441Y-2.2953
X14.8503Y-4.7328
X14.9441Y-1.5453
X14.9441Y-2.2953
T3
X1.8459Y-1.2256
X2.0604Y-1.2256
T4
X6.9616Y-4.8203
X7.9016Y-4.8203
X8.8366Y-4.8203
X9.7766Y-4.8203
T5
X3.1191Y-1.5453
X3.1191Y-2.2953
X3.1191Y-3.0453
X3.1191Y-3.7953
X3.1191Y-4.5453
X4.4316Y-1.5453
X4.4316Y-2.2953
X4.4316Y-3.0453
X4.4316Y-3.7953
X4.4316Y-4.5453
X5.4628Y-1.5453
X5.4628Y-2.2953
X5.4628Y-3.0453
X5.4628Y-3.7953
X5.4628Y-4.5453
X6.2128Y-1.5453
X6.2128Y-2.2953
X6.2128Y-3.0453
X6.2128Y-3.7953
X6.2128Y-4.5453
X6.9616Y-4.2203
X6.9628Y-1.5453
X6.9628Y-2.2953
X6.9628Y-3.0453
X6.9628Y-3.7953
X7.4316Y-4.5453
X7.7128Y-1.5453
X7.7128Y-2.2953
X7.7128Y-3.0453
X7.7128Y-3.7953
X7.9016Y-4.2203
X8.4628Y-1.5453
X8.4628Y-2.2953
X8.4628Y-3.0453
X8.4628Y-3.7953
X8.8366Y-4.2203
X9.2128Y-1.5453
X9.2128Y-2.2953
X9.2128Y-3.0453
X9.2128Y-3.7953
X9.3066Y-4.5453
X9.7766Y-4.2203
X9.9628Y-1.5453
X9.9628Y-2.2953
X9.9628Y-3.0453
X9.9628Y-3.7953
X10.7128Y-1.5453
X10.7128Y-2.2953
X10.7128Y-3.0453
X10.7128Y-3.7953
X10.7128Y-4.5453
X11.4628Y-1.5453
X11.4628Y-2.2953
X11.4628Y-3.0453
X11.4628Y-3.7953
X11.4628Y-4.5453
X12.2128Y-1.5453
X12.2128Y-2.2953
X12.2128Y-3.0453
X12.2128Y-3.7953
X12.4003Y-4.7328
X12.9628Y-1.5453
X12.9628Y-2.2953
X12.9628Y-3.0453
X13.1503Y-4.7328
X13.2441Y-3.7953
X13.7128Y-1.5453
X13.7128Y-2.2953
X13.9003Y-4.7328
X13.9941Y-3.0453
X14.6503Y-4.7328
X14.7441Y-1.5453
X14.7441Y-2.2953
M30
