G04 #@! TF.GenerationSoftware,KiCad,Pcbnew,8.0.4*
G04 #@! TF.CreationDate,2024-09-04T19:59:22-04:00*
G04 #@! TF.ProjectId,small-fry-pcb,736d616c-6c2d-4667-9279-2d7063622e6b,1.0*
G04 #@! TF.SameCoordinates,Original*
G04 #@! TF.FileFunction,Copper,L1,Top*
G04 #@! TF.FilePolarity,Positive*
%FSLAX46Y46*%
G04 Gerber Fmt 4.6, Leading zero omitted, Abs format (unit mm)*
G04 Created by KiCad (PCBNEW 8.0.4) date 2024-09-04 19:59:22*
%MOMM*%
%LPD*%
G01*
G04 APERTURE LIST*
G04 Aperture macros list*
%AMHorizOval*
0 Thick line with rounded ends*
0 $1 width*
0 $2 $3 position (X,Y) of the first rounded end (center of the circle)*
0 $4 $5 position (X,Y) of the second rounded end (center of the circle)*
0 Add line between two ends*
20,1,$1,$2,$3,$4,$5,0*
0 Add two circle primitives to create the rounded ends*
1,1,$1,$2,$3*
1,1,$1,$4,$5*%
G04 Aperture macros list end*
G04 #@! TA.AperFunction,ComponentPad*
%ADD10HorizOval,2.250000X0.655001X0.730000X-0.655001X-0.730000X0*%
G04 #@! TD*
G04 #@! TA.AperFunction,ComponentPad*
%ADD11C,2.250000*%
G04 #@! TD*
G04 #@! TA.AperFunction,ComponentPad*
%ADD12HorizOval,2.250000X0.020000X0.290000X-0.020000X-0.290000X0*%
G04 #@! TD*
G04 #@! TA.AperFunction,ComponentPad*
%ADD13O,1.700000X1.700000*%
G04 #@! TD*
G04 #@! TA.AperFunction,SMDPad,CuDef*
%ADD14R,3.500000X1.700000*%
G04 #@! TD*
G04 #@! TA.AperFunction,ComponentPad*
%ADD15R,1.700000X1.700000*%
G04 #@! TD*
G04 #@! TA.AperFunction,SMDPad,CuDef*
%ADD16R,1.700000X3.500000*%
G04 #@! TD*
G04 #@! TA.AperFunction,Conductor*
%ADD17C,0.250000*%
G04 #@! TD*
G04 APERTURE END LIST*
D10*
G04 #@! TO.P,MX51,1,COL*
G04 #@! TO.N,col6*
X211801251Y-93130000D03*
D11*
X212456250Y-92400000D03*
D12*
G04 #@! TO.P,MX51,2,ROW*
G04 #@! TO.N,Net-(D51-A)*
X217476250Y-91610000D03*
D11*
X217496250Y-91320000D03*
G04 #@! TD*
D10*
G04 #@! TO.P,MX44,1,COL*
G04 #@! TO.N,col13*
X352295001Y-74080000D03*
D11*
X352950000Y-73350000D03*
D12*
G04 #@! TO.P,MX44,2,ROW*
G04 #@! TO.N,Net-(D44-A)*
X357970000Y-72560000D03*
D11*
X357990000Y-72270000D03*
G04 #@! TD*
D10*
G04 #@! TO.P,MX11,1,COL*
G04 #@! TO.N,col10*
X288001251Y-35980000D03*
D11*
X288656250Y-35250000D03*
D12*
G04 #@! TO.P,MX11,2,ROW*
G04 #@! TO.N,Net-(D11-A)*
X293676250Y-34460000D03*
D11*
X293696250Y-34170000D03*
G04 #@! TD*
D10*
G04 #@! TO.P,MX23,1,COL*
G04 #@! TO.N,col7*
X230851251Y-55030000D03*
D11*
X231506250Y-54300000D03*
D12*
G04 #@! TO.P,MX23,2,ROW*
G04 #@! TO.N,Net-(D23-A)*
X236526250Y-53510000D03*
D11*
X236546250Y-53220000D03*
G04 #@! TD*
D10*
G04 #@! TO.P,MX32,1,COL*
G04 #@! TO.N,col1*
X109407501Y-74080000D03*
D11*
X110062500Y-73350000D03*
D12*
G04 #@! TO.P,MX32,2,ROW*
G04 #@! TO.N,Net-(D32-A)*
X115082500Y-72560000D03*
D11*
X115102500Y-72270000D03*
G04 #@! TD*
D10*
G04 #@! TO.P,MX59,1,COL*
G04 #@! TO.N,col1*
X109407501Y-112180000D03*
D11*
X110062500Y-111450000D03*
D12*
G04 #@! TO.P,MX59,2,ROW*
G04 #@! TO.N,Net-(D59-A)*
X115082500Y-110660000D03*
D11*
X115102500Y-110370000D03*
G04 #@! TD*
D10*
G04 #@! TO.P,MX2,1,COL*
G04 #@! TO.N,col1*
X109407501Y-35980000D03*
D11*
X110062500Y-35250000D03*
D12*
G04 #@! TO.P,MX2,2,ROW*
G04 #@! TO.N,Net-(D2-A)*
X115082500Y-34460000D03*
D11*
X115102500Y-34170000D03*
G04 #@! TD*
D10*
G04 #@! TO.P,MX1,1,COL*
G04 #@! TO.N,col0*
X76070001Y-35980000D03*
D11*
X76725000Y-35250000D03*
D12*
G04 #@! TO.P,MX1,2,ROW*
G04 #@! TO.N,Net-(D1-A)*
X81745000Y-34460000D03*
D11*
X81765000Y-34170000D03*
G04 #@! TD*
D10*
G04 #@! TO.P,MX54,1,COL*
G04 #@! TO.N,col9*
X268951251Y-93130000D03*
D11*
X269606250Y-92400000D03*
D12*
G04 #@! TO.P,MX54,2,ROW*
G04 #@! TO.N,Net-(D54-A)*
X274626250Y-91610000D03*
D11*
X274646250Y-91320000D03*
G04 #@! TD*
D10*
G04 #@! TO.P,MX5,1,COL*
G04 #@! TO.N,col4*
X173701251Y-35980000D03*
D11*
X174356250Y-35250000D03*
D12*
G04 #@! TO.P,MX5,2,ROW*
G04 #@! TO.N,Net-(D5-A)*
X179376250Y-34460000D03*
D11*
X179396250Y-34170000D03*
G04 #@! TD*
D10*
G04 #@! TO.P,MX45,1,COL*
G04 #@! TO.N,col0*
X76070001Y-93130000D03*
D11*
X76725000Y-92400000D03*
D12*
G04 #@! TO.P,MX45,2,ROW*
G04 #@! TO.N,Net-(D45-A)*
X81745000Y-91610000D03*
D11*
X81765000Y-91320000D03*
G04 #@! TD*
D10*
G04 #@! TO.P,MX62,1,COL*
G04 #@! TO.N,col4*
X185607501Y-112180000D03*
D11*
X186262500Y-111450000D03*
D12*
G04 #@! TO.P,MX62,2,ROW*
G04 #@! TO.N,Net-(D62-A)*
X191282500Y-110660000D03*
D11*
X191302500Y-110370000D03*
G04 #@! TD*
D10*
G04 #@! TO.P,MX66,1,COL*
G04 #@! TO.N,col11*
X311813751Y-116942500D03*
D11*
X312468750Y-116212500D03*
D12*
G04 #@! TO.P,MX66,2,ROW*
G04 #@! TO.N,Net-(D66-A)*
X317488750Y-115422500D03*
D11*
X317508750Y-115132500D03*
G04 #@! TD*
D10*
G04 #@! TO.P,MX50,1,COL*
G04 #@! TO.N,col5*
X192751251Y-93130000D03*
D11*
X193406250Y-92400000D03*
D12*
G04 #@! TO.P,MX50,2,ROW*
G04 #@! TO.N,Net-(D50-A)*
X198426250Y-91610000D03*
D11*
X198446250Y-91320000D03*
G04 #@! TD*
D10*
G04 #@! TO.P,MX65,1,COL*
G04 #@! TO.N,col10*
X288001251Y-112180000D03*
D11*
X288656250Y-111450000D03*
D12*
G04 #@! TO.P,MX65,2,ROW*
G04 #@! TO.N,Net-(D65-A)*
X293676250Y-110660000D03*
D11*
X293696250Y-110370000D03*
G04 #@! TD*
D10*
G04 #@! TO.P,MX34,1,COL*
G04 #@! TO.N,col3*
X154651251Y-74080000D03*
D11*
X155306250Y-73350000D03*
D12*
G04 #@! TO.P,MX34,2,ROW*
G04 #@! TO.N,Net-(D34-A)*
X160326250Y-72560000D03*
D11*
X160346250Y-72270000D03*
G04 #@! TD*
D10*
G04 #@! TO.P,MX12,1,COL*
G04 #@! TO.N,col11*
X307051251Y-35980000D03*
D11*
X307706250Y-35250000D03*
D12*
G04 #@! TO.P,MX12,2,ROW*
G04 #@! TO.N,Net-(D12-A)*
X312726250Y-34460000D03*
D11*
X312746250Y-34170000D03*
G04 #@! TD*
D10*
G04 #@! TO.P,MX35,1,COL*
G04 #@! TO.N,col4*
X173701251Y-74080000D03*
D11*
X174356250Y-73350000D03*
D12*
G04 #@! TO.P,MX35,2,ROW*
G04 #@! TO.N,Net-(D35-A)*
X179376250Y-72560000D03*
D11*
X179396250Y-72270000D03*
G04 #@! TD*
D10*
G04 #@! TO.P,MX46,1,COL*
G04 #@! TO.N,col1*
X109407501Y-93130000D03*
D11*
X110062500Y-92400000D03*
D12*
G04 #@! TO.P,MX46,2,ROW*
G04 #@! TO.N,Net-(D46-A)*
X115082500Y-91610000D03*
D11*
X115102500Y-91320000D03*
G04 #@! TD*
D10*
G04 #@! TO.P,MX9,1,COL*
G04 #@! TO.N,col8*
X249901251Y-35980000D03*
D11*
X250556250Y-35250000D03*
D12*
G04 #@! TO.P,MX9,2,ROW*
G04 #@! TO.N,Net-(D9-A)*
X255576250Y-34460000D03*
D11*
X255596250Y-34170000D03*
G04 #@! TD*
D10*
G04 #@! TO.P,MX18,1,COL*
G04 #@! TO.N,col2*
X135601251Y-55030000D03*
D11*
X136256250Y-54300000D03*
D12*
G04 #@! TO.P,MX18,2,ROW*
G04 #@! TO.N,Net-(D18-A)*
X141276250Y-53510000D03*
D11*
X141296250Y-53220000D03*
G04 #@! TD*
D10*
G04 #@! TO.P,MX57,1,COL*
G04 #@! TO.N,col12*
X333245001Y-93130000D03*
D11*
X333900000Y-92400000D03*
D12*
G04 #@! TO.P,MX57,2,ROW*
G04 #@! TO.N,Net-(D57-A)*
X338920000Y-91610000D03*
D11*
X338940000Y-91320000D03*
G04 #@! TD*
D10*
G04 #@! TO.P,MX43,1,COL*
G04 #@! TO.N,col12*
X326101251Y-74080000D03*
D11*
X326756250Y-73350000D03*
D12*
G04 #@! TO.P,MX43,2,ROW*
G04 #@! TO.N,Net-(D43-A)*
X331776250Y-72560000D03*
D11*
X331796250Y-72270000D03*
G04 #@! TD*
D10*
G04 #@! TO.P,MX3,1,COL*
G04 #@! TO.N,col2*
X135601251Y-35980000D03*
D11*
X136256250Y-35250000D03*
D12*
G04 #@! TO.P,MX3,2,ROW*
G04 #@! TO.N,Net-(D3-A)*
X141276250Y-34460000D03*
D11*
X141296250Y-34170000D03*
G04 #@! TD*
D10*
G04 #@! TO.P,MX31,1,COL*
G04 #@! TO.N,col0*
X76070001Y-74080000D03*
D11*
X76725000Y-73350000D03*
D12*
G04 #@! TO.P,MX31,2,ROW*
G04 #@! TO.N,Net-(D31-A)*
X81745000Y-72560000D03*
D11*
X81765000Y-72270000D03*
G04 #@! TD*
D10*
G04 #@! TO.P,MX37,1,COL*
G04 #@! TO.N,col6*
X211801251Y-74080000D03*
D11*
X212456250Y-73350000D03*
D12*
G04 #@! TO.P,MX37,2,ROW*
G04 #@! TO.N,Net-(D37-A)*
X217476250Y-72560000D03*
D11*
X217496250Y-72270000D03*
G04 #@! TD*
D10*
G04 #@! TO.P,MX17,1,COL*
G04 #@! TO.N,col1*
X109407501Y-55030000D03*
D11*
X110062500Y-54300000D03*
D12*
G04 #@! TO.P,MX17,2,ROW*
G04 #@! TO.N,Net-(D17-A)*
X115082500Y-53510000D03*
D11*
X115102500Y-53220000D03*
G04 #@! TD*
D10*
G04 #@! TO.P,MX36,1,COL*
G04 #@! TO.N,col5*
X192751251Y-74080000D03*
D11*
X193406250Y-73350000D03*
D12*
G04 #@! TO.P,MX36,2,ROW*
G04 #@! TO.N,Net-(D36-A)*
X198426250Y-72560000D03*
D11*
X198446250Y-72270000D03*
G04 #@! TD*
D13*
G04 #@! TO.P,U1,1,GPIO0*
G04 #@! TO.N,col14*
X40720000Y-31000000D03*
D14*
X39820000Y-31000000D03*
D13*
G04 #@! TO.P,U1,2,GPIO1*
G04 #@! TO.N,col13*
X40720000Y-33540000D03*
D14*
X39820000Y-33540000D03*
D15*
G04 #@! TO.P,U1,3,GND*
G04 #@! TO.N,unconnected-(U1-GND-Pad3)*
X40720000Y-36080000D03*
D14*
X39820000Y-36080000D03*
D13*
G04 #@! TO.P,U1,4,GPIO2*
G04 #@! TO.N,col12*
X40720000Y-38620000D03*
D14*
X39820000Y-38620000D03*
D13*
G04 #@! TO.P,U1,5,GPIO3*
G04 #@! TO.N,col11*
X40720000Y-41160000D03*
D14*
X39820000Y-41160000D03*
D13*
G04 #@! TO.P,U1,6,GPIO4*
G04 #@! TO.N,col10*
X40720000Y-43700000D03*
D14*
X39820000Y-43700000D03*
D13*
G04 #@! TO.P,U1,7,GPIO5*
G04 #@! TO.N,col9*
X40720000Y-46240000D03*
D14*
X39820000Y-46240000D03*
D15*
G04 #@! TO.P,U1,8,GND*
G04 #@! TO.N,unconnected-(U1-GND-Pad8)*
X40720000Y-48780000D03*
D14*
X39820000Y-48780000D03*
D13*
G04 #@! TO.P,U1,9,GPIO6*
G04 #@! TO.N,col8*
X40720000Y-51320000D03*
D14*
X39820000Y-51320000D03*
D13*
G04 #@! TO.P,U1,10,GPIO7*
G04 #@! TO.N,col7*
X40720000Y-53860000D03*
D14*
X39820000Y-53860000D03*
D13*
G04 #@! TO.P,U1,11,GPIO8*
G04 #@! TO.N,col6*
X40720000Y-56400000D03*
D14*
X39820000Y-56400000D03*
D13*
G04 #@! TO.P,U1,12,GPIO9*
G04 #@! TO.N,col5*
X40720000Y-58940000D03*
D14*
X39820000Y-58940000D03*
D15*
G04 #@! TO.P,U1,13,GND*
G04 #@! TO.N,unconnected-(U1-GND-Pad13)*
X40720000Y-61480000D03*
D14*
X39820000Y-61480000D03*
D13*
G04 #@! TO.P,U1,14,GPIO10*
G04 #@! TO.N,col4*
X40720000Y-64020000D03*
D14*
X39820000Y-64020000D03*
D13*
G04 #@! TO.P,U1,15,GPIO11*
G04 #@! TO.N,col3*
X40720000Y-66560000D03*
D14*
X39820000Y-66560000D03*
D13*
G04 #@! TO.P,U1,16,GPIO12*
G04 #@! TO.N,col2*
X40720000Y-69100000D03*
D14*
X39820000Y-69100000D03*
D13*
G04 #@! TO.P,U1,17,GPIO13*
G04 #@! TO.N,col1*
X40720000Y-71640000D03*
D14*
X39820000Y-71640000D03*
D15*
G04 #@! TO.P,U1,18,GND*
G04 #@! TO.N,unconnected-(U1-GND-Pad18)*
X40720000Y-74180000D03*
D14*
X39820000Y-74180000D03*
D13*
G04 #@! TO.P,U1,19,GPIO14*
G04 #@! TO.N,col0*
X40720000Y-76720000D03*
D14*
X39820000Y-76720000D03*
D13*
G04 #@! TO.P,U1,20,GPIO15*
G04 #@! TO.N,unconnected-(U1-GPIO15-Pad20)*
X40720000Y-79260000D03*
D14*
X39820000Y-79260000D03*
D13*
G04 #@! TO.P,U1,21,GPIO16*
G04 #@! TO.N,unconnected-(U1-GPIO16-Pad21)*
X58500000Y-79260000D03*
D14*
X59400000Y-79260000D03*
D13*
G04 #@! TO.P,U1,22,GPIO17*
G04 #@! TO.N,row4*
X58500000Y-76720000D03*
D14*
X59400000Y-76720000D03*
D15*
G04 #@! TO.P,U1,23,GND*
G04 #@! TO.N,unconnected-(U1-GND-Pad23)*
X58500000Y-74180000D03*
D14*
X59400000Y-74180000D03*
D13*
G04 #@! TO.P,U1,24,GPIO18*
G04 #@! TO.N,row3*
X58500000Y-71640000D03*
D14*
X59400000Y-71640000D03*
D13*
G04 #@! TO.P,U1,25,GPIO19*
G04 #@! TO.N,row2*
X58500000Y-69100000D03*
D14*
X59400000Y-69100000D03*
D13*
G04 #@! TO.P,U1,26,GPIO20*
G04 #@! TO.N,row1*
X58500000Y-66560000D03*
D14*
X59400000Y-66560000D03*
D13*
G04 #@! TO.P,U1,27,GPIO21*
G04 #@! TO.N,row0*
X58500000Y-64020000D03*
D14*
X59400000Y-64020000D03*
D15*
G04 #@! TO.P,U1,28,GND*
G04 #@! TO.N,unconnected-(U1-GND-Pad28)*
X58500000Y-61480000D03*
D14*
X59400000Y-61480000D03*
D13*
G04 #@! TO.P,U1,29,GPIO22*
G04 #@! TO.N,unconnected-(U1-GPIO22-Pad29)*
X58500000Y-58940000D03*
D14*
X59400000Y-58940000D03*
D13*
G04 #@! TO.P,U1,30,RUN*
G04 #@! TO.N,unconnected-(U1-RUN-Pad30)*
X58500000Y-56400000D03*
D14*
X59400000Y-56400000D03*
D13*
G04 #@! TO.P,U1,31,GPIO26_ADC0*
G04 #@! TO.N,unconnected-(U1-GPIO26_ADC0-Pad31)*
X58500000Y-53860000D03*
D14*
X59400000Y-53860000D03*
D13*
G04 #@! TO.P,U1,32,GPIO27_ADC1*
G04 #@! TO.N,unconnected-(U1-GPIO27_ADC1-Pad32)*
X58500000Y-51320000D03*
D14*
X59400000Y-51320000D03*
D15*
G04 #@! TO.P,U1,33,AGND*
G04 #@! TO.N,unconnected-(U1-AGND-Pad33)*
X58500000Y-48780000D03*
D14*
X59400000Y-48780000D03*
D13*
G04 #@! TO.P,U1,34,GPIO28_ADC2*
G04 #@! TO.N,unconnected-(U1-GPIO28_ADC2-Pad34)*
X58500000Y-46240000D03*
D14*
X59400000Y-46240000D03*
D13*
G04 #@! TO.P,U1,35,ADC_VREF*
G04 #@! TO.N,unconnected-(U1-ADC_VREF-Pad35)*
X58500000Y-43700000D03*
D14*
X59400000Y-43700000D03*
D13*
G04 #@! TO.P,U1,36,3V3*
G04 #@! TO.N,unconnected-(U1-3V3-Pad36)*
X58500000Y-41160000D03*
D14*
X59400000Y-41160000D03*
D13*
G04 #@! TO.P,U1,37,3V3_EN*
G04 #@! TO.N,unconnected-(U1-3V3_EN-Pad37)*
X58500000Y-38620000D03*
D14*
X59400000Y-38620000D03*
D15*
G04 #@! TO.P,U1,38,GND*
G04 #@! TO.N,unconnected-(U1-GND-Pad38)*
X58500000Y-36080000D03*
D14*
X59400000Y-36080000D03*
D13*
G04 #@! TO.P,U1,39,VSYS*
G04 #@! TO.N,unconnected-(U1-VSYS-Pad39)*
X58500000Y-33540000D03*
D14*
X59400000Y-33540000D03*
D13*
G04 #@! TO.P,U1,40,VBUS*
G04 #@! TO.N,unconnected-(U1-VBUS-Pad40)*
X58500000Y-31000000D03*
D14*
X59400000Y-31000000D03*
D13*
G04 #@! TO.P,U1,41,SWCLK*
G04 #@! TO.N,unconnected-(U1-SWCLK-Pad41)*
X47070000Y-79030000D03*
D16*
X47070000Y-79930000D03*
D15*
G04 #@! TO.P,U1,42,GND*
G04 #@! TO.N,unconnected-(U1-GND-Pad42)*
X49610000Y-79030000D03*
D16*
X49610000Y-79930000D03*
D13*
G04 #@! TO.P,U1,43,SWDIO*
G04 #@! TO.N,unconnected-(U1-SWDIO-Pad43)*
X52150000Y-79030000D03*
D16*
X52150000Y-79930000D03*
G04 #@! TD*
D10*
G04 #@! TO.P,MX47,1,COL*
G04 #@! TO.N,col2*
X135601251Y-93130000D03*
D11*
X136256250Y-92400000D03*
D12*
G04 #@! TO.P,MX47,2,ROW*
G04 #@! TO.N,Net-(D47-A)*
X141276250Y-91610000D03*
D11*
X141296250Y-91320000D03*
G04 #@! TD*
D10*
G04 #@! TO.P,MX25,1,COL*
G04 #@! TO.N,col9*
X268951251Y-55030000D03*
D11*
X269606250Y-54300000D03*
D12*
G04 #@! TO.P,MX25,2,ROW*
G04 #@! TO.N,Net-(D25-A)*
X274626250Y-53510000D03*
D11*
X274646250Y-53220000D03*
G04 #@! TD*
D10*
G04 #@! TO.P,MX61,1,COL*
G04 #@! TO.N,col3*
X154651251Y-112180000D03*
D11*
X155306250Y-111450000D03*
D12*
G04 #@! TO.P,MX61,2,ROW*
G04 #@! TO.N,Net-(D61-A)*
X160326250Y-110660000D03*
D11*
X160346250Y-110370000D03*
G04 #@! TD*
D10*
G04 #@! TO.P,MX26,1,COL*
G04 #@! TO.N,col10*
X288001251Y-55030000D03*
D11*
X288656250Y-54300000D03*
D12*
G04 #@! TO.P,MX26,2,ROW*
G04 #@! TO.N,Net-(D26-A)*
X293676250Y-53510000D03*
D11*
X293696250Y-53220000D03*
G04 #@! TD*
D10*
G04 #@! TO.P,MX15,1,COL*
G04 #@! TO.N,col14*
X371345001Y-35980000D03*
D11*
X372000000Y-35250000D03*
D12*
G04 #@! TO.P,MX15,2,ROW*
G04 #@! TO.N,Net-(D15-A)*
X377020000Y-34460000D03*
D11*
X377040000Y-34170000D03*
G04 #@! TD*
D10*
G04 #@! TO.P,MX58,1,COL*
G04 #@! TO.N,col0*
X76070001Y-112180000D03*
D11*
X76725000Y-111450000D03*
D12*
G04 #@! TO.P,MX58,2,ROW*
G04 #@! TO.N,Net-(D58-A)*
X81745000Y-110660000D03*
D11*
X81765000Y-110370000D03*
G04 #@! TD*
D10*
G04 #@! TO.P,MX63,1,COL*
G04 #@! TO.N,col7*
X233232501Y-112180000D03*
D11*
X233887500Y-111450000D03*
D12*
G04 #@! TO.P,MX63,2,ROW*
G04 #@! TO.N,Net-(D63-A)*
X238907500Y-110660000D03*
D11*
X238927500Y-110370000D03*
G04 #@! TD*
D10*
G04 #@! TO.P,MX28,1,COL*
G04 #@! TO.N,col12*
X326101251Y-55030000D03*
D11*
X326756250Y-54300000D03*
D12*
G04 #@! TO.P,MX28,2,ROW*
G04 #@! TO.N,Net-(D28-A)*
X331776250Y-53510000D03*
D11*
X331796250Y-53220000D03*
G04 #@! TD*
D10*
G04 #@! TO.P,MX8,1,COL*
G04 #@! TO.N,col7*
X230851251Y-35980000D03*
D11*
X231506250Y-35250000D03*
D12*
G04 #@! TO.P,MX8,2,ROW*
G04 #@! TO.N,Net-(D8-A)*
X236526250Y-34460000D03*
D11*
X236546250Y-34170000D03*
G04 #@! TD*
D10*
G04 #@! TO.P,MX10,1,COL*
G04 #@! TO.N,col9*
X268951251Y-35980000D03*
D11*
X269606250Y-35250000D03*
D12*
G04 #@! TO.P,MX10,2,ROW*
G04 #@! TO.N,Net-(D10-A)*
X274626250Y-34460000D03*
D11*
X274646250Y-34170000D03*
G04 #@! TD*
D10*
G04 #@! TO.P,MX53,1,COL*
G04 #@! TO.N,col8*
X249901251Y-93130000D03*
D11*
X250556250Y-92400000D03*
D12*
G04 #@! TO.P,MX53,2,ROW*
G04 #@! TO.N,Net-(D53-A)*
X255576250Y-91610000D03*
D11*
X255596250Y-91320000D03*
G04 #@! TD*
D10*
G04 #@! TO.P,MX64,1,COL*
G04 #@! TO.N,col9*
X268951251Y-112180000D03*
D11*
X269606250Y-111450000D03*
D12*
G04 #@! TO.P,MX64,2,ROW*
G04 #@! TO.N,Net-(D64-A)*
X274626250Y-110660000D03*
D11*
X274646250Y-110370000D03*
G04 #@! TD*
D10*
G04 #@! TO.P,MX49,1,COL*
G04 #@! TO.N,col4*
X173701251Y-93130000D03*
D11*
X174356250Y-92400000D03*
D12*
G04 #@! TO.P,MX49,2,ROW*
G04 #@! TO.N,Net-(D49-A)*
X179376250Y-91610000D03*
D11*
X179396250Y-91320000D03*
G04 #@! TD*
D10*
G04 #@! TO.P,MX27,1,COL*
G04 #@! TO.N,col11*
X307051251Y-55030000D03*
D11*
X307706250Y-54300000D03*
D12*
G04 #@! TO.P,MX27,2,ROW*
G04 #@! TO.N,Net-(D27-A)*
X312726250Y-53510000D03*
D11*
X312746250Y-53220000D03*
G04 #@! TD*
D10*
G04 #@! TO.P,MX33,1,COL*
G04 #@! TO.N,col2*
X135601251Y-74080000D03*
D11*
X136256250Y-73350000D03*
D12*
G04 #@! TO.P,MX33,2,ROW*
G04 #@! TO.N,Net-(D33-A)*
X141276250Y-72560000D03*
D11*
X141296250Y-72270000D03*
G04 #@! TD*
D10*
G04 #@! TO.P,MX21,1,COL*
G04 #@! TO.N,col5*
X192751251Y-55030000D03*
D11*
X193406250Y-54300000D03*
D12*
G04 #@! TO.P,MX21,2,ROW*
G04 #@! TO.N,Net-(D21-A)*
X198426250Y-53510000D03*
D11*
X198446250Y-53220000D03*
G04 #@! TD*
D10*
G04 #@! TO.P,MX19,1,COL*
G04 #@! TO.N,col3*
X154651251Y-55030000D03*
D11*
X155306250Y-54300000D03*
D12*
G04 #@! TO.P,MX19,2,ROW*
G04 #@! TO.N,Net-(D19-A)*
X160326250Y-53510000D03*
D11*
X160346250Y-53220000D03*
G04 #@! TD*
D10*
G04 #@! TO.P,MX55,1,COL*
G04 #@! TO.N,col10*
X288001251Y-93130000D03*
D11*
X288656250Y-92400000D03*
D12*
G04 #@! TO.P,MX55,2,ROW*
G04 #@! TO.N,Net-(D55-A)*
X293676250Y-91610000D03*
D11*
X293696250Y-91320000D03*
G04 #@! TD*
D10*
G04 #@! TO.P,MX29,1,COL*
G04 #@! TO.N,col13*
X345151251Y-55030000D03*
D11*
X345806250Y-54300000D03*
D12*
G04 #@! TO.P,MX29,2,ROW*
G04 #@! TO.N,Net-(D29-A)*
X350826250Y-53510000D03*
D11*
X350846250Y-53220000D03*
G04 #@! TD*
D10*
G04 #@! TO.P,MX7,1,COL*
G04 #@! TO.N,col6*
X211801251Y-35980000D03*
D11*
X212456250Y-35250000D03*
D12*
G04 #@! TO.P,MX7,2,ROW*
G04 #@! TO.N,Net-(D7-A)*
X217476250Y-34460000D03*
D11*
X217496250Y-34170000D03*
G04 #@! TD*
D10*
G04 #@! TO.P,MX13,1,COL*
G04 #@! TO.N,col12*
X326101251Y-35980000D03*
D11*
X326756250Y-35250000D03*
D12*
G04 #@! TO.P,MX13,2,ROW*
G04 #@! TO.N,Net-(D13-A)*
X331776250Y-34460000D03*
D11*
X331796250Y-34170000D03*
G04 #@! TD*
D10*
G04 #@! TO.P,MX4,1,COL*
G04 #@! TO.N,col3*
X154651251Y-35980000D03*
D11*
X155306250Y-35250000D03*
D12*
G04 #@! TO.P,MX4,2,ROW*
G04 #@! TO.N,Net-(D4-A)*
X160326250Y-34460000D03*
D11*
X160346250Y-34170000D03*
G04 #@! TD*
D10*
G04 #@! TO.P,MX41,1,COL*
G04 #@! TO.N,col10*
X288001251Y-74080000D03*
D11*
X288656250Y-73350000D03*
D12*
G04 #@! TO.P,MX41,2,ROW*
G04 #@! TO.N,Net-(D41-A)*
X293676250Y-72560000D03*
D11*
X293696250Y-72270000D03*
G04 #@! TD*
D10*
G04 #@! TO.P,MX52,1,COL*
G04 #@! TO.N,col7*
X230851251Y-93130000D03*
D11*
X231506250Y-92400000D03*
D12*
G04 #@! TO.P,MX52,2,ROW*
G04 #@! TO.N,Net-(D52-A)*
X236526250Y-91610000D03*
D11*
X236546250Y-91320000D03*
G04 #@! TD*
D10*
G04 #@! TO.P,MX16,1,COL*
G04 #@! TO.N,col0*
X76070001Y-55030000D03*
D11*
X76725000Y-54300000D03*
D12*
G04 #@! TO.P,MX16,2,ROW*
G04 #@! TO.N,Net-(D16-A)*
X81745000Y-53510000D03*
D11*
X81765000Y-53220000D03*
G04 #@! TD*
D10*
G04 #@! TO.P,MX20,1,COL*
G04 #@! TO.N,col4*
X173701251Y-55030000D03*
D11*
X174356250Y-54300000D03*
D12*
G04 #@! TO.P,MX20,2,ROW*
G04 #@! TO.N,Net-(D20-A)*
X179376250Y-53510000D03*
D11*
X179396250Y-53220000D03*
G04 #@! TD*
D10*
G04 #@! TO.P,MX69,1,COL*
G04 #@! TO.N,col14*
X368963751Y-116942500D03*
D11*
X369618750Y-116212500D03*
D12*
G04 #@! TO.P,MX69,2,ROW*
G04 #@! TO.N,Net-(D69-A)*
X374638750Y-115422500D03*
D11*
X374658750Y-115132500D03*
G04 #@! TD*
D10*
G04 #@! TO.P,MX6,1,COL*
G04 #@! TO.N,col5*
X192751251Y-35980000D03*
D11*
X193406250Y-35250000D03*
D12*
G04 #@! TO.P,MX6,2,ROW*
G04 #@! TO.N,Net-(D6-A)*
X198426250Y-34460000D03*
D11*
X198446250Y-34170000D03*
G04 #@! TD*
D10*
G04 #@! TO.P,MX38,1,COL*
G04 #@! TO.N,col7*
X230851251Y-74080000D03*
D11*
X231506250Y-73350000D03*
D12*
G04 #@! TO.P,MX38,2,ROW*
G04 #@! TO.N,Net-(D38-A)*
X236526250Y-72560000D03*
D11*
X236546250Y-72270000D03*
G04 #@! TD*
D10*
G04 #@! TO.P,MX68,1,COL*
G04 #@! TO.N,col13*
X349913751Y-116942500D03*
D11*
X350568750Y-116212500D03*
D12*
G04 #@! TO.P,MX68,2,ROW*
G04 #@! TO.N,Net-(D68-A)*
X355588750Y-115422500D03*
D11*
X355608750Y-115132500D03*
G04 #@! TD*
D10*
G04 #@! TO.P,MX42,1,COL*
G04 #@! TO.N,col11*
X307051251Y-74080000D03*
D11*
X307706250Y-73350000D03*
D12*
G04 #@! TO.P,MX42,2,ROW*
G04 #@! TO.N,Net-(D42-A)*
X312726250Y-72560000D03*
D11*
X312746250Y-72270000D03*
G04 #@! TD*
D10*
G04 #@! TO.P,MX60,1,COL*
G04 #@! TO.N,col2*
X135601251Y-112180000D03*
D11*
X136256250Y-111450000D03*
D12*
G04 #@! TO.P,MX60,2,ROW*
G04 #@! TO.N,Net-(D60-A)*
X141276250Y-110660000D03*
D11*
X141296250Y-110370000D03*
G04 #@! TD*
D10*
G04 #@! TO.P,MX48,1,COL*
G04 #@! TO.N,col3*
X154651251Y-93130000D03*
D11*
X155306250Y-92400000D03*
D12*
G04 #@! TO.P,MX48,2,ROW*
G04 #@! TO.N,Net-(D48-A)*
X160326250Y-91610000D03*
D11*
X160346250Y-91320000D03*
G04 #@! TD*
D10*
G04 #@! TO.P,MX67,1,COL*
G04 #@! TO.N,col12*
X330863751Y-116942500D03*
D11*
X331518750Y-116212500D03*
D12*
G04 #@! TO.P,MX67,2,ROW*
G04 #@! TO.N,Net-(D67-A)*
X336538750Y-115422500D03*
D11*
X336558750Y-115132500D03*
G04 #@! TD*
D10*
G04 #@! TO.P,MX40,1,COL*
G04 #@! TO.N,col9*
X268951251Y-74080000D03*
D11*
X269606250Y-73350000D03*
D12*
G04 #@! TO.P,MX40,2,ROW*
G04 #@! TO.N,Net-(D40-A)*
X274626250Y-72560000D03*
D11*
X274646250Y-72270000D03*
G04 #@! TD*
D10*
G04 #@! TO.P,MX39,1,COL*
G04 #@! TO.N,col8*
X249901251Y-74080000D03*
D11*
X250556250Y-73350000D03*
D12*
G04 #@! TO.P,MX39,2,ROW*
G04 #@! TO.N,Net-(D39-A)*
X255576250Y-72560000D03*
D11*
X255596250Y-72270000D03*
G04 #@! TD*
D10*
G04 #@! TO.P,MX30,1,COL*
G04 #@! TO.N,col14*
X371345001Y-55030000D03*
D11*
X372000000Y-54300000D03*
D12*
G04 #@! TO.P,MX30,2,ROW*
G04 #@! TO.N,Net-(D30-A)*
X377020000Y-53510000D03*
D11*
X377040000Y-53220000D03*
G04 #@! TD*
D10*
G04 #@! TO.P,MX56,1,COL*
G04 #@! TO.N,col11*
X307051251Y-93130000D03*
D11*
X307706250Y-92400000D03*
D12*
G04 #@! TO.P,MX56,2,ROW*
G04 #@! TO.N,Net-(D56-A)*
X312726250Y-91610000D03*
D11*
X312746250Y-91320000D03*
G04 #@! TD*
D10*
G04 #@! TO.P,MX14,1,COL*
G04 #@! TO.N,col13*
X345151251Y-35980000D03*
D11*
X345806250Y-35250000D03*
D12*
G04 #@! TO.P,MX14,2,ROW*
G04 #@! TO.N,Net-(D14-A)*
X350826250Y-34460000D03*
D11*
X350846250Y-34170000D03*
G04 #@! TD*
D10*
G04 #@! TO.P,MX24,1,COL*
G04 #@! TO.N,col8*
X249901251Y-55030000D03*
D11*
X250556250Y-54300000D03*
D12*
G04 #@! TO.P,MX24,2,ROW*
G04 #@! TO.N,Net-(D24-A)*
X255576250Y-53510000D03*
D11*
X255596250Y-53220000D03*
G04 #@! TD*
D10*
G04 #@! TO.P,MX22,1,COL*
G04 #@! TO.N,col6*
X211801251Y-55030000D03*
D11*
X212456250Y-54300000D03*
D12*
G04 #@! TO.P,MX22,2,ROW*
G04 #@! TO.N,Net-(D22-A)*
X217476250Y-53510000D03*
D11*
X217496250Y-53220000D03*
G04 #@! TD*
D17*
G04 #@! TO.N,col6*
X34150000Y-61360000D02*
X39110000Y-56400000D01*
X45500000Y-120500000D02*
X34150000Y-109150000D01*
X39110000Y-56400000D02*
X40720000Y-56400000D01*
X212456250Y-92400000D02*
X212456250Y-112043750D01*
X204000000Y-120500000D02*
X45500000Y-120500000D01*
X34150000Y-109150000D02*
X34150000Y-61360000D01*
X212456250Y-54300000D02*
X212456250Y-73350000D01*
X212456250Y-73350000D02*
X212456250Y-92400000D01*
X212456250Y-112043750D02*
X204000000Y-120500000D01*
X212456250Y-35250000D02*
X212456250Y-54300000D01*
G04 #@! TO.N,col0*
X76725000Y-73350000D02*
X76725000Y-92400000D01*
X76725000Y-111450000D02*
X40836396Y-111450000D01*
X76725000Y-111450000D02*
X76725000Y-92400000D01*
X38030000Y-76720000D02*
X40720000Y-76720000D01*
X37000000Y-77750000D02*
X38030000Y-76720000D01*
X40836396Y-111450000D02*
X37000000Y-107613604D01*
X37000000Y-107613604D02*
X37000000Y-77750000D01*
X76725000Y-35250000D02*
X76725000Y-54300000D01*
X76725000Y-54300000D02*
X76725000Y-73350000D01*
G04 #@! TO.N,col1*
X110062500Y-54300000D02*
X110062500Y-35250000D01*
X110062500Y-111450000D02*
X108800000Y-111450000D01*
X110062500Y-73350000D02*
X110062500Y-54300000D01*
X108800000Y-111450000D02*
X102250000Y-118000000D01*
X110062500Y-92400000D02*
X110062500Y-73350000D01*
X36500000Y-107750000D02*
X36500000Y-74250000D01*
X36500000Y-74250000D02*
X39110000Y-71640000D01*
X39110000Y-71640000D02*
X40720000Y-71640000D01*
X46750000Y-118000000D02*
X36500000Y-107750000D01*
X102250000Y-118000000D02*
X46750000Y-118000000D01*
X110062500Y-111450000D02*
X110062500Y-92400000D01*
G04 #@! TO.N,col2*
X134982630Y-111450000D02*
X127982630Y-118450000D01*
X36050000Y-70950000D02*
X37900000Y-69100000D01*
X136256250Y-54300000D02*
X136256250Y-73350000D01*
X46450000Y-118450000D02*
X36050000Y-108050000D01*
X136256250Y-73350000D02*
X136256250Y-92400000D01*
X136256250Y-111450000D02*
X134982630Y-111450000D01*
X136256250Y-35250000D02*
X136256250Y-54300000D01*
X36050000Y-108050000D02*
X36050000Y-70950000D01*
X136256250Y-92400000D02*
X136256250Y-111450000D01*
X37900000Y-69100000D02*
X40720000Y-69100000D01*
X127982630Y-118450000D02*
X46450000Y-118450000D01*
G04 #@! TO.N,col3*
X146600000Y-118900000D02*
X46150000Y-118900000D01*
X39110000Y-66560000D02*
X40720000Y-66560000D01*
X155306250Y-73350000D02*
X155306250Y-54300000D01*
X35500000Y-108250000D02*
X35500000Y-70170000D01*
X35500000Y-70170000D02*
X39110000Y-66560000D01*
X154050000Y-111450000D02*
X146600000Y-118900000D01*
X155306250Y-111450000D02*
X155306250Y-92400000D01*
X155306250Y-111450000D02*
X154050000Y-111450000D01*
X155306250Y-92400000D02*
X155306250Y-73350000D01*
X155306250Y-54300000D02*
X155306250Y-35250000D01*
X46150000Y-118900000D02*
X35500000Y-108250000D01*
G04 #@! TO.N,col4*
X186262500Y-111450000D02*
X185050000Y-111450000D01*
X185050000Y-111450000D02*
X177000000Y-119500000D01*
X174356250Y-92400000D02*
X174356250Y-99606250D01*
X177000000Y-119500000D02*
X46000000Y-119500000D01*
X174356250Y-54300000D02*
X174356250Y-73350000D01*
X174356250Y-99606250D02*
X186200000Y-111450000D01*
X174356250Y-73350000D02*
X174356250Y-92400000D01*
X39110000Y-64020000D02*
X40720000Y-64020000D01*
X174356250Y-35250000D02*
X174356250Y-54300000D01*
X186200000Y-111450000D02*
X186262500Y-111450000D01*
X46000000Y-119500000D02*
X35050000Y-108550000D01*
X35050000Y-108550000D02*
X35050000Y-68080000D01*
X35050000Y-68080000D02*
X39110000Y-64020000D01*
G04 #@! TO.N,col5*
X199750000Y-112250000D02*
X199750000Y-117500000D01*
X39110000Y-58940000D02*
X40720000Y-58940000D01*
X197250000Y-120000000D02*
X45750000Y-120000000D01*
X193406250Y-92400000D02*
X193406250Y-73350000D01*
X193406250Y-54300000D02*
X193406250Y-35250000D01*
X193406250Y-73350000D02*
X193406250Y-54300000D01*
X199750000Y-117500000D02*
X197250000Y-120000000D01*
X193250000Y-92556250D02*
X193250000Y-105750000D01*
X193406250Y-92400000D02*
X193250000Y-92556250D01*
X34600000Y-63450000D02*
X39110000Y-58940000D01*
X45750000Y-120000000D02*
X34600000Y-108850000D01*
X193250000Y-105750000D02*
X199750000Y-112250000D01*
X34600000Y-108850000D02*
X34600000Y-63450000D01*
G04 #@! TO.N,col8*
X250556250Y-73350000D02*
X250556250Y-92400000D01*
X250556250Y-35250000D02*
X250556250Y-54300000D01*
X48467094Y-124950000D02*
X33050000Y-109532906D01*
X251500000Y-105750000D02*
X251500000Y-113750000D01*
X250556250Y-92400000D02*
X250556250Y-104806250D01*
X251500000Y-113750000D02*
X240300000Y-124950000D01*
X240300000Y-124950000D02*
X48467094Y-124950000D01*
X250556250Y-54300000D02*
X250556250Y-73350000D01*
X33050000Y-56700000D02*
X38430000Y-51320000D01*
X33050000Y-109532906D02*
X33050000Y-56700000D01*
X38430000Y-51320000D02*
X40720000Y-51320000D01*
X250556250Y-104806250D02*
X251500000Y-105750000D01*
G04 #@! TO.N,col7*
X39110000Y-53860000D02*
X40720000Y-53860000D01*
X218500000Y-124500000D02*
X48750000Y-124500000D01*
X233887500Y-111450000D02*
X232800000Y-111450000D01*
X231506250Y-54300000D02*
X231506250Y-35250000D01*
X33500000Y-109250000D02*
X33500000Y-59470000D01*
X231506250Y-92400000D02*
X231506250Y-73350000D01*
X33500000Y-59470000D02*
X39110000Y-53860000D01*
X231506250Y-73350000D02*
X231506250Y-54300000D01*
X233887500Y-111450000D02*
X231506250Y-109068750D01*
X231506250Y-109068750D02*
X231506250Y-92400000D01*
X223000000Y-120000000D02*
X218500000Y-124500000D01*
X232800000Y-111450000D02*
X224250000Y-120000000D01*
X48750000Y-124500000D02*
X33500000Y-109250000D01*
X224250000Y-120000000D02*
X223000000Y-120000000D01*
G04 #@! TO.N,col9*
X32500000Y-52850000D02*
X39110000Y-46240000D01*
X254600000Y-125400000D02*
X48280698Y-125400000D01*
X32500000Y-109619302D02*
X32500000Y-52850000D01*
X269606250Y-111450000D02*
X269606250Y-92400000D01*
X48280698Y-125400000D02*
X32500000Y-109619302D01*
X269606250Y-73350000D02*
X269606250Y-54300000D01*
X269606250Y-92400000D02*
X269606250Y-73350000D01*
X269606250Y-54300000D02*
X269606250Y-35250000D01*
X269606250Y-111450000D02*
X268550000Y-111450000D01*
X268550000Y-111450000D02*
X254600000Y-125400000D01*
X39110000Y-46240000D02*
X40720000Y-46240000D01*
G04 #@! TO.N,col10*
X39050000Y-43700000D02*
X40720000Y-43700000D01*
X32000000Y-50750000D02*
X39050000Y-43700000D01*
X288656250Y-111450000D02*
X287550000Y-111450000D01*
X288656250Y-73350000D02*
X288656250Y-92400000D01*
X32000000Y-109863604D02*
X32000000Y-50750000D01*
X288656250Y-54300000D02*
X288656250Y-73350000D01*
X273150000Y-125850000D02*
X47986396Y-125850000D01*
X288656250Y-92400000D02*
X288656250Y-111450000D01*
X287550000Y-111450000D02*
X273150000Y-125850000D01*
X47986396Y-125850000D02*
X32000000Y-109863604D01*
X288656250Y-35250000D02*
X288656250Y-54300000D01*
G04 #@! TO.N,col11*
X48000000Y-126500000D02*
X31550000Y-110050000D01*
X31550000Y-47450000D02*
X37840000Y-41160000D01*
X311287500Y-116212500D02*
X301000000Y-126500000D01*
X307706250Y-54300000D02*
X307706250Y-35250000D01*
X307706250Y-111450000D02*
X307706250Y-92400000D01*
X312468750Y-116212500D02*
X307706250Y-111450000D01*
X31550000Y-110050000D02*
X31550000Y-47450000D01*
X301000000Y-126500000D02*
X48000000Y-126500000D01*
X312468750Y-116212500D02*
X311287500Y-116212500D01*
X307706250Y-92400000D02*
X307706250Y-73350000D01*
X307706250Y-73350000D02*
X307706250Y-54300000D01*
X37840000Y-41160000D02*
X40720000Y-41160000D01*
G04 #@! TO.N,col12*
X326756250Y-73350000D02*
X326756250Y-85256250D01*
X333900000Y-113831250D02*
X333900000Y-92400000D01*
X326756250Y-85256250D02*
X333900000Y-92400000D01*
X31100000Y-110350000D02*
X31100000Y-44900000D01*
X319550000Y-126950000D02*
X47700000Y-126950000D01*
X47700000Y-126950000D02*
X31100000Y-110350000D01*
X37380000Y-38620000D02*
X40720000Y-38620000D01*
X326756250Y-35250000D02*
X326756250Y-54300000D01*
X330287500Y-116212500D02*
X319550000Y-126950000D01*
X31100000Y-44900000D02*
X37380000Y-38620000D01*
X326756250Y-54300000D02*
X326756250Y-73350000D01*
X331518750Y-116212500D02*
X333900000Y-113831250D01*
X331518750Y-116212500D02*
X330287500Y-116212500D01*
G04 #@! TO.N,col13*
X350568750Y-116212500D02*
X349287500Y-116212500D01*
X47400000Y-127400000D02*
X30500000Y-110500000D01*
X338100000Y-127400000D02*
X47400000Y-127400000D01*
X30500000Y-42150000D02*
X39110000Y-33540000D01*
X345806250Y-66206250D02*
X345806250Y-54300000D01*
X352950000Y-113831250D02*
X352950000Y-73350000D01*
X349287500Y-116212500D02*
X338100000Y-127400000D01*
X345806250Y-54300000D02*
X345806250Y-35250000D01*
X39110000Y-33540000D02*
X40720000Y-33540000D01*
X30500000Y-110500000D02*
X30500000Y-42150000D01*
X350568750Y-116212500D02*
X352950000Y-113831250D01*
X352950000Y-73350000D02*
X345806250Y-66206250D01*
G04 #@! TO.N,col14*
X356900000Y-127850000D02*
X47100000Y-127850000D01*
X369618750Y-116212500D02*
X368537500Y-116212500D01*
X38500000Y-31000000D02*
X40720000Y-31000000D01*
X30050000Y-110800000D02*
X30050000Y-39450000D01*
X30050000Y-39450000D02*
X38500000Y-31000000D01*
X372000000Y-113831250D02*
X369618750Y-116212500D01*
X47100000Y-127850000D02*
X30050000Y-110800000D01*
X368537500Y-116212500D02*
X356900000Y-127850000D01*
X372000000Y-35250000D02*
X372000000Y-54300000D01*
X372000000Y-54300000D02*
X372000000Y-113831250D01*
G04 #@! TD*
M02*
