M48
; DRILL file {KiCad 8.0.4} date 2024-09-04T20:00:19-0400
; FORMAT={-:-/ absolute / inch / decimal}
; #@! TF.CreationDate,2024-09-04T20:00:19-04:00
; #@! TF.GenerationSoftware,Kicad,Pcbnew,8.0.4
; #@! TF.FileFunction,Plated,1,2,PTH
FMAT,2
INCH
; #@! TA.AperFunction,Plated,PTH,ComponentDrill
T1C0.0402
; #@! TA.AperFunction,Plated,PTH,ComponentDrill
T2C0.0579
%
G90
G05
T1
X1.6031Y-1.2205
X1.6031Y-1.3205
X1.6031Y-1.4205
X1.6031Y-1.5205
X1.6031Y-1.6205
X1.6031Y-1.7205
X1.6031Y-1.8205
X1.6031Y-1.9205
X1.6031Y-2.0205
X1.6031Y-2.1205
X1.6031Y-2.2205
X1.6031Y-2.3205
X1.6031Y-2.4205
X1.6031Y-2.5205
X1.6031Y-2.6205
X1.6031Y-2.7205
X1.6031Y-2.8205
X1.6031Y-2.9205
X1.6031Y-3.0205
X1.6031Y-3.1205
X1.8531Y-3.1114
X1.9531Y-3.1114
X2.0531Y-3.1114
X2.3031Y-1.2205
X2.3031Y-1.3205
X2.3031Y-1.4205
X2.3031Y-1.5205
X2.3031Y-1.6205
X2.3031Y-1.7205
X2.3031Y-1.8205
X2.3031Y-1.9205
X2.3031Y-2.0205
X2.3031Y-2.1205
X2.3031Y-2.2205
X2.3031Y-2.3205
X2.3031Y-2.4205
X2.3031Y-2.5205
X2.3031Y-2.6205
X2.3031Y-2.7205
X2.3031Y-2.8205
X2.3031Y-2.9205
X2.3031Y-3.0205
X2.3031Y-3.1205
T2
X2.9691Y-1.4453
X2.9691Y-2.1953
X2.9691Y-2.9453
X2.9691Y-3.6953
X2.9691Y-4.4453
X3.0207Y-1.3878
X3.0207Y-2.1378
X3.0207Y-2.8878
X3.0207Y-3.6378
X3.0207Y-4.3878
X3.2175Y-1.3681
X3.2175Y-2.1181
X3.2175Y-2.8681
X3.2175Y-3.6181
X3.2175Y-4.3681
X3.2191Y-1.3453
X3.2191Y-2.0953
X3.2191Y-2.8453
X3.2191Y-3.5953
X3.2191Y-4.3453
X4.2816Y-1.4453
X4.2816Y-2.1953
X4.2816Y-2.9453
X4.2816Y-3.6953
X4.2816Y-4.4453
X4.3332Y-1.3878
X4.3332Y-2.1378
X4.3332Y-2.8878
X4.3332Y-3.6378
X4.3332Y-4.3878
X4.53Y-1.3681
X4.53Y-2.1181
X4.53Y-2.8681
X4.53Y-3.6181
X4.53Y-4.3681
X4.5316Y-1.3453
X4.5316Y-2.0953
X4.5316Y-2.8453
X4.5316Y-3.5953
X4.5316Y-4.3453
X5.3128Y-1.4453
X5.3128Y-2.1953
X5.3128Y-2.9453
X5.3128Y-3.6953
X5.3128Y-4.4453
X5.3644Y-1.3878
X5.3644Y-2.1378
X5.3644Y-2.8878
X5.3644Y-3.6378
X5.3644Y-4.3878
X5.5613Y-1.3681
X5.5613Y-2.1181
X5.5613Y-2.8681
X5.5613Y-3.6181
X5.5613Y-4.3681
X5.5628Y-1.3453
X5.5628Y-2.0953
X5.5628Y-2.8453
X5.5628Y-3.5953
X5.5628Y-4.3453
X6.0628Y-1.4453
X6.0628Y-2.1953
X6.0628Y-2.9453
X6.0628Y-3.6953
X6.0628Y-4.4453
X6.1144Y-1.3878
X6.1144Y-2.1378
X6.1144Y-2.8878
X6.1144Y-3.6378
X6.1144Y-4.3878
X6.3113Y-1.3681
X6.3113Y-2.1181
X6.3113Y-2.8681
X6.3113Y-3.6181
X6.3113Y-4.3681
X6.3128Y-1.3453
X6.3128Y-2.0953
X6.3128Y-2.8453
X6.3128Y-3.5953
X6.3128Y-4.3453
X6.8128Y-1.4453
X6.8128Y-2.1953
X6.8128Y-2.9453
X6.8128Y-3.6953
X6.8644Y-1.3878
X6.8644Y-2.1378
X6.8644Y-2.8878
X6.8644Y-3.6378
X7.0613Y-1.3681
X7.0613Y-2.1181
X7.0613Y-2.8681
X7.0613Y-3.6181
X7.0628Y-1.3453
X7.0628Y-2.0953
X7.0628Y-2.8453
X7.0628Y-3.5953
X7.2816Y-4.4453
X7.3332Y-4.3878
X7.53Y-4.3681
X7.5316Y-4.3453
X7.5628Y-1.4453
X7.5628Y-2.1953
X7.5628Y-2.9453
X7.5628Y-3.6953
X7.6144Y-1.3878
X7.6144Y-2.1378
X7.6144Y-2.8878
X7.6144Y-3.6378
X7.8113Y-1.3681
X7.8113Y-2.1181
X7.8113Y-2.8681
X7.8113Y-3.6181
X7.8128Y-1.3453
X7.8128Y-2.0953
X7.8128Y-2.8453
X7.8128Y-3.5953
X8.3128Y-1.4453
X8.3128Y-2.1953
X8.3128Y-2.9453
X8.3128Y-3.6953
X8.3644Y-1.3878
X8.3644Y-2.1378
X8.3644Y-2.8878
X8.3644Y-3.6378
X8.5613Y-1.3681
X8.5613Y-2.1181
X8.5613Y-2.8681
X8.5613Y-3.6181
X8.5628Y-1.3453
X8.5628Y-2.0953
X8.5628Y-2.8453
X8.5628Y-3.5953
X9.0628Y-1.4453
X9.0628Y-2.1953
X9.0628Y-2.9453
X9.0628Y-3.6953
X9.1144Y-1.3878
X9.1144Y-2.1378
X9.1144Y-2.8878
X9.1144Y-3.6378
X9.1566Y-4.4453
X9.2082Y-4.3878
X9.3113Y-1.3681
X9.3113Y-2.1181
X9.3113Y-2.8681
X9.3113Y-3.6181
X9.3128Y-1.3453
X9.3128Y-2.0953
X9.3128Y-2.8453
X9.3128Y-3.5953
X9.405Y-4.3681
X9.4066Y-4.3453
X9.8128Y-1.4453
X9.8128Y-2.1953
X9.8128Y-2.9453
X9.8128Y-3.6953
X9.8644Y-1.3878
X9.8644Y-2.1378
X9.8644Y-2.8878
X9.8644Y-3.6378
X10.0613Y-1.3681
X10.0613Y-2.1181
X10.0613Y-2.8681
X10.0613Y-3.6181
X10.0628Y-1.3453
X10.0628Y-2.0953
X10.0628Y-2.8453
X10.0628Y-3.5953
X10.5628Y-1.4453
X10.5628Y-2.1953
X10.5628Y-2.9453
X10.5628Y-3.6953
X10.5628Y-4.4453
X10.6144Y-1.3878
X10.6144Y-2.1378
X10.6144Y-2.8878
X10.6144Y-3.6378
X10.6144Y-4.3878
X10.8113Y-1.3681
X10.8113Y-2.1181
X10.8113Y-2.8681
X10.8113Y-3.6181
X10.8113Y-4.3681
X10.8128Y-1.3453
X10.8128Y-2.0953
X10.8128Y-2.8453
X10.8128Y-3.5953
X10.8128Y-4.3453
X11.3128Y-1.4453
X11.3128Y-2.1953
X11.3128Y-2.9453
X11.3128Y-3.6953
X11.3128Y-4.4453
X11.3644Y-1.3878
X11.3644Y-2.1378
X11.3644Y-2.8878
X11.3644Y-3.6378
X11.3644Y-4.3878
X11.5613Y-1.3681
X11.5613Y-2.1181
X11.5613Y-2.8681
X11.5613Y-3.6181
X11.5613Y-4.3681
X11.5628Y-1.3453
X11.5628Y-2.0953
X11.5628Y-2.8453
X11.5628Y-3.5953
X11.5628Y-4.3453
X12.0628Y-1.4453
X12.0628Y-2.1953
X12.0628Y-2.9453
X12.0628Y-3.6953
X12.1144Y-1.3878
X12.1144Y-2.1378
X12.1144Y-2.8878
X12.1144Y-3.6378
X12.2503Y-4.6328
X12.3019Y-4.5753
X12.3113Y-1.3681
X12.3113Y-2.1181
X12.3113Y-2.8681
X12.3113Y-3.6181
X12.3128Y-1.3453
X12.3128Y-2.0953
X12.3128Y-2.8453
X12.3128Y-3.5953
X12.4988Y-4.5556
X12.5003Y-4.5328
X12.8128Y-1.4453
X12.8128Y-2.1953
X12.8128Y-2.9453
X12.8644Y-1.3878
X12.8644Y-2.1378
X12.8644Y-2.8878
X13.0003Y-4.6328
X13.0519Y-4.5753
X13.0613Y-1.3681
X13.0613Y-2.1181
X13.0613Y-2.8681
X13.0628Y-1.3453
X13.0628Y-2.0953
X13.0628Y-2.8453
X13.0941Y-3.6953
X13.1457Y-3.6378
X13.2488Y-4.5556
X13.2503Y-4.5328
X13.3425Y-3.6181
X13.3441Y-3.5953
X13.5628Y-1.4453
X13.5628Y-2.1953
X13.6144Y-1.3878
X13.6144Y-2.1378
X13.7503Y-4.6328
X13.8019Y-4.5753
X13.8113Y-1.3681
X13.8113Y-2.1181
X13.8128Y-1.3453
X13.8128Y-2.0953
X13.8441Y-2.9453
X13.8957Y-2.8878
X13.9988Y-4.5556
X14.0003Y-4.5328
X14.0925Y-2.8681
X14.0941Y-2.8453
X14.5003Y-4.6328
X14.5519Y-4.5753
X14.5941Y-1.4453
X14.5941Y-2.1953
X14.6457Y-1.3878
X14.6457Y-2.1378
X14.7488Y-4.5556
X14.7503Y-4.5328
X14.8425Y-1.3681
X14.8425Y-2.1181
X14.8441Y-1.3453
X14.8441Y-2.0953
M30
