G04 #@! TF.GenerationSoftware,KiCad,Pcbnew,8.0.4*
G04 #@! TF.CreationDate,2024-09-04T19:59:22-04:00*
G04 #@! TF.ProjectId,small-fry-pcb,736d616c-6c2d-4667-9279-2d7063622e6b,1.0*
G04 #@! TF.SameCoordinates,Original*
G04 #@! TF.FileFunction,Soldermask,Bot*
G04 #@! TF.FilePolarity,Negative*
%FSLAX46Y46*%
G04 Gerber Fmt 4.6, Leading zero omitted, Abs format (unit mm)*
G04 Created by KiCad (PCBNEW 8.0.4) date 2024-09-04 19:59:22*
%MOMM*%
%LPD*%
G01*
G04 APERTURE LIST*
G04 Aperture macros list*
%AMRoundRect*
0 Rectangle with rounded corners*
0 $1 Rounding radius*
0 $2 $3 $4 $5 $6 $7 $8 $9 X,Y pos of 4 corners*
0 Add a 4 corners polygon primitive as box body*
4,1,4,$2,$3,$4,$5,$6,$7,$8,$9,$2,$3,0*
0 Add four circle primitives for the rounded corners*
1,1,$1+$1,$2,$3*
1,1,$1+$1,$4,$5*
1,1,$1+$1,$6,$7*
1,1,$1+$1,$8,$9*
0 Add four rect primitives between the rounded corners*
20,1,$1+$1,$2,$3,$4,$5,0*
20,1,$1+$1,$4,$5,$6,$7,0*
20,1,$1+$1,$6,$7,$8,$9,0*
20,1,$1+$1,$8,$9,$2,$3,0*%
%AMHorizOval*
0 Thick line with rounded ends*
0 $1 width*
0 $2 $3 position (X,Y) of the first rounded end (center of the circle)*
0 $4 $5 position (X,Y) of the second rounded end (center of the circle)*
0 Add line between two ends*
20,1,$1,$2,$3,$4,$5,0*
0 Add two circle primitives to create the rounded ends*
1,1,$1,$2,$3*
1,1,$1,$4,$5*%
G04 Aperture macros list end*
%ADD10C,1.750000*%
%ADD11C,3.987800*%
%ADD12HorizOval,2.250000X0.655001X0.730000X-0.655001X-0.730000X0*%
%ADD13C,2.250000*%
%ADD14HorizOval,2.250000X0.020000X0.290000X-0.020000X-0.290000X0*%
%ADD15C,3.048000*%
%ADD16O,1.800000X1.800000*%
%ADD17O,1.500000X1.500000*%
%ADD18O,1.700000X1.700000*%
%ADD19R,1.700000X1.700000*%
%ADD20RoundRect,0.225000X0.375000X-0.225000X0.375000X0.225000X-0.375000X0.225000X-0.375000X-0.225000X0*%
G04 APERTURE END LIST*
D10*
G04 #@! TO.C,MX51*
X209876250Y-96400000D03*
D11*
X214956250Y-96400000D03*
D10*
X220036250Y-96400000D03*
D12*
X211801251Y-93130000D03*
D13*
X212456250Y-92400000D03*
D14*
X217476250Y-91610000D03*
D13*
X217496250Y-91320000D03*
G04 #@! TD*
D10*
G04 #@! TO.C,MX44*
X350370000Y-77350000D03*
D11*
X355450000Y-77350000D03*
D10*
X360530000Y-77350000D03*
D12*
X352295001Y-74080000D03*
D13*
X352950000Y-73350000D03*
D14*
X357970000Y-72560000D03*
D13*
X357990000Y-72270000D03*
G04 #@! TD*
D10*
G04 #@! TO.C,MX11*
X286076250Y-39250000D03*
D11*
X291156250Y-39250000D03*
D10*
X296236250Y-39250000D03*
D12*
X288001251Y-35980000D03*
D13*
X288656250Y-35250000D03*
D14*
X293676250Y-34460000D03*
D13*
X293696250Y-34170000D03*
G04 #@! TD*
D10*
G04 #@! TO.C,MX23*
X228926250Y-58300000D03*
D11*
X234006250Y-58300000D03*
D10*
X239086250Y-58300000D03*
D12*
X230851251Y-55030000D03*
D13*
X231506250Y-54300000D03*
D14*
X236526250Y-53510000D03*
D13*
X236546250Y-53220000D03*
G04 #@! TD*
D10*
G04 #@! TO.C,MX32*
X107482500Y-77350000D03*
D11*
X112562500Y-77350000D03*
D10*
X117642500Y-77350000D03*
D12*
X109407501Y-74080000D03*
D13*
X110062500Y-73350000D03*
D14*
X115082500Y-72560000D03*
D13*
X115102500Y-72270000D03*
G04 #@! TD*
D10*
G04 #@! TO.C,MX59*
X107482500Y-115450000D03*
D11*
X112562500Y-115450000D03*
D10*
X117642500Y-115450000D03*
D12*
X109407501Y-112180000D03*
D13*
X110062500Y-111450000D03*
D14*
X115082500Y-110660000D03*
D13*
X115102500Y-110370000D03*
G04 #@! TD*
D10*
G04 #@! TO.C,MX2*
X107482500Y-39250000D03*
D11*
X112562500Y-39250000D03*
D10*
X117642500Y-39250000D03*
D12*
X109407501Y-35980000D03*
D13*
X110062500Y-35250000D03*
D14*
X115082500Y-34460000D03*
D13*
X115102500Y-34170000D03*
G04 #@! TD*
D10*
G04 #@! TO.C,MX1*
X74145000Y-39250000D03*
D11*
X79225000Y-39250000D03*
D10*
X84305000Y-39250000D03*
D12*
X76070001Y-35980000D03*
D13*
X76725000Y-35250000D03*
D14*
X81745000Y-34460000D03*
D13*
X81765000Y-34170000D03*
G04 #@! TD*
D10*
G04 #@! TO.C,MX54*
X267026250Y-96400000D03*
D11*
X272106250Y-96400000D03*
D10*
X277186250Y-96400000D03*
D12*
X268951251Y-93130000D03*
D13*
X269606250Y-92400000D03*
D14*
X274626250Y-91610000D03*
D13*
X274646250Y-91320000D03*
G04 #@! TD*
D10*
G04 #@! TO.C,MX5*
X171776250Y-39250000D03*
D11*
X176856250Y-39250000D03*
D10*
X181936250Y-39250000D03*
D12*
X173701251Y-35980000D03*
D13*
X174356250Y-35250000D03*
D14*
X179376250Y-34460000D03*
D13*
X179396250Y-34170000D03*
G04 #@! TD*
D10*
G04 #@! TO.C,MX45*
X74145000Y-96400000D03*
D11*
X79225000Y-96400000D03*
D10*
X84305000Y-96400000D03*
D12*
X76070001Y-93130000D03*
D13*
X76725000Y-92400000D03*
D14*
X81745000Y-91610000D03*
D13*
X81765000Y-91320000D03*
G04 #@! TD*
D11*
G04 #@! TO.C,MX62*
X176824500Y-107195000D03*
D15*
X176824500Y-122435000D03*
D10*
X183682500Y-115450000D03*
D11*
X188762500Y-115450000D03*
D10*
X193842500Y-115450000D03*
D11*
X200700500Y-107195000D03*
D15*
X200700500Y-122435000D03*
D12*
X185607501Y-112180000D03*
D13*
X186262500Y-111450000D03*
D14*
X191282500Y-110660000D03*
D13*
X191302500Y-110370000D03*
G04 #@! TD*
D10*
G04 #@! TO.C,MX66*
X309888750Y-120212500D03*
D11*
X314968750Y-120212500D03*
D10*
X320048750Y-120212500D03*
D12*
X311813751Y-116942500D03*
D13*
X312468750Y-116212500D03*
D14*
X317488750Y-115422500D03*
D13*
X317508750Y-115132500D03*
G04 #@! TD*
D10*
G04 #@! TO.C,MX50*
X190826250Y-96400000D03*
D11*
X195906250Y-96400000D03*
D10*
X200986250Y-96400000D03*
D12*
X192751251Y-93130000D03*
D13*
X193406250Y-92400000D03*
D14*
X198426250Y-91610000D03*
D13*
X198446250Y-91320000D03*
G04 #@! TD*
D10*
G04 #@! TO.C,MX65*
X286076250Y-115450000D03*
D11*
X291156250Y-115450000D03*
D10*
X296236250Y-115450000D03*
D12*
X288001251Y-112180000D03*
D13*
X288656250Y-111450000D03*
D14*
X293676250Y-110660000D03*
D13*
X293696250Y-110370000D03*
G04 #@! TD*
D10*
G04 #@! TO.C,MX34*
X152726250Y-77350000D03*
D11*
X157806250Y-77350000D03*
D10*
X162886250Y-77350000D03*
D12*
X154651251Y-74080000D03*
D13*
X155306250Y-73350000D03*
D14*
X160326250Y-72560000D03*
D13*
X160346250Y-72270000D03*
G04 #@! TD*
D10*
G04 #@! TO.C,MX12*
X305126250Y-39250000D03*
D11*
X310206250Y-39250000D03*
D10*
X315286250Y-39250000D03*
D12*
X307051251Y-35980000D03*
D13*
X307706250Y-35250000D03*
D14*
X312726250Y-34460000D03*
D13*
X312746250Y-34170000D03*
G04 #@! TD*
D10*
G04 #@! TO.C,MX35*
X171776250Y-77350000D03*
D11*
X176856250Y-77350000D03*
D10*
X181936250Y-77350000D03*
D12*
X173701251Y-74080000D03*
D13*
X174356250Y-73350000D03*
D14*
X179376250Y-72560000D03*
D13*
X179396250Y-72270000D03*
G04 #@! TD*
D10*
G04 #@! TO.C,MX46*
X107482500Y-96400000D03*
D11*
X112562500Y-96400000D03*
D10*
X117642500Y-96400000D03*
D12*
X109407501Y-93130000D03*
D13*
X110062500Y-92400000D03*
D14*
X115082500Y-91610000D03*
D13*
X115102500Y-91320000D03*
G04 #@! TD*
D10*
G04 #@! TO.C,MX9*
X247976250Y-39250000D03*
D11*
X253056250Y-39250000D03*
D10*
X258136250Y-39250000D03*
D12*
X249901251Y-35980000D03*
D13*
X250556250Y-35250000D03*
D14*
X255576250Y-34460000D03*
D13*
X255596250Y-34170000D03*
G04 #@! TD*
D10*
G04 #@! TO.C,MX18*
X133676250Y-58300000D03*
D11*
X138756250Y-58300000D03*
D10*
X143836250Y-58300000D03*
D12*
X135601251Y-55030000D03*
D13*
X136256250Y-54300000D03*
D14*
X141276250Y-53510000D03*
D13*
X141296250Y-53220000D03*
G04 #@! TD*
D10*
G04 #@! TO.C,MX57*
X331320000Y-96400000D03*
D11*
X336400000Y-96400000D03*
D10*
X341480000Y-96400000D03*
D12*
X333245001Y-93130000D03*
D13*
X333900000Y-92400000D03*
D14*
X338920000Y-91610000D03*
D13*
X338940000Y-91320000D03*
G04 #@! TD*
D10*
G04 #@! TO.C,MX43*
X324176250Y-77350000D03*
D11*
X329256250Y-77350000D03*
D10*
X334336250Y-77350000D03*
D12*
X326101251Y-74080000D03*
D13*
X326756250Y-73350000D03*
D14*
X331776250Y-72560000D03*
D13*
X331796250Y-72270000D03*
G04 #@! TD*
D10*
G04 #@! TO.C,MX3*
X133676250Y-39250000D03*
D11*
X138756250Y-39250000D03*
D10*
X143836250Y-39250000D03*
D12*
X135601251Y-35980000D03*
D13*
X136256250Y-35250000D03*
D14*
X141276250Y-34460000D03*
D13*
X141296250Y-34170000D03*
G04 #@! TD*
D10*
G04 #@! TO.C,MX31*
X74145000Y-77350000D03*
D11*
X79225000Y-77350000D03*
D10*
X84305000Y-77350000D03*
D12*
X76070001Y-74080000D03*
D13*
X76725000Y-73350000D03*
D14*
X81745000Y-72560000D03*
D13*
X81765000Y-72270000D03*
G04 #@! TD*
D10*
G04 #@! TO.C,MX37*
X209876250Y-77350000D03*
D11*
X214956250Y-77350000D03*
D10*
X220036250Y-77350000D03*
D12*
X211801251Y-74080000D03*
D13*
X212456250Y-73350000D03*
D14*
X217476250Y-72560000D03*
D13*
X217496250Y-72270000D03*
G04 #@! TD*
D10*
G04 #@! TO.C,MX17*
X107482500Y-58300000D03*
D11*
X112562500Y-58300000D03*
D10*
X117642500Y-58300000D03*
D12*
X109407501Y-55030000D03*
D13*
X110062500Y-54300000D03*
D14*
X115082500Y-53510000D03*
D13*
X115102500Y-53220000D03*
G04 #@! TD*
D10*
G04 #@! TO.C,MX36*
X190826250Y-77350000D03*
D11*
X195906250Y-77350000D03*
D10*
X200986250Y-77350000D03*
D12*
X192751251Y-74080000D03*
D13*
X193406250Y-73350000D03*
D14*
X198426250Y-72560000D03*
D13*
X198446250Y-72270000D03*
G04 #@! TD*
D16*
G04 #@! TO.C,U1*
X46885000Y-31130000D03*
D17*
X47185000Y-34160000D03*
X52035000Y-34160000D03*
D16*
X52335000Y-31130000D03*
D18*
X40720000Y-31000000D03*
X40720000Y-33540000D03*
D19*
X40720000Y-36080000D03*
D18*
X40720000Y-38620000D03*
X40720000Y-41160000D03*
X40720000Y-43700000D03*
X40720000Y-46240000D03*
D19*
X40720000Y-48780000D03*
D18*
X40720000Y-51320000D03*
X40720000Y-53860000D03*
X40720000Y-56400000D03*
X40720000Y-58940000D03*
D19*
X40720000Y-61480000D03*
D18*
X40720000Y-64020000D03*
X40720000Y-66560000D03*
X40720000Y-69100000D03*
X40720000Y-71640000D03*
D19*
X40720000Y-74180000D03*
D18*
X40720000Y-76720000D03*
X40720000Y-79260000D03*
X58500000Y-79260000D03*
X58500000Y-76720000D03*
D19*
X58500000Y-74180000D03*
D18*
X58500000Y-71640000D03*
X58500000Y-69100000D03*
X58500000Y-66560000D03*
X58500000Y-64020000D03*
D19*
X58500000Y-61480000D03*
D18*
X58500000Y-58940000D03*
X58500000Y-56400000D03*
X58500000Y-53860000D03*
X58500000Y-51320000D03*
D19*
X58500000Y-48780000D03*
D18*
X58500000Y-46240000D03*
X58500000Y-43700000D03*
X58500000Y-41160000D03*
X58500000Y-38620000D03*
D19*
X58500000Y-36080000D03*
D18*
X58500000Y-33540000D03*
X58500000Y-31000000D03*
X47070000Y-79030000D03*
D19*
X49610000Y-79030000D03*
D18*
X52150000Y-79030000D03*
G04 #@! TD*
D10*
G04 #@! TO.C,MX47*
X133676250Y-96400000D03*
D11*
X138756250Y-96400000D03*
D10*
X143836250Y-96400000D03*
D12*
X135601251Y-93130000D03*
D13*
X136256250Y-92400000D03*
D14*
X141276250Y-91610000D03*
D13*
X141296250Y-91320000D03*
G04 #@! TD*
D10*
G04 #@! TO.C,MX25*
X267026250Y-58300000D03*
D11*
X272106250Y-58300000D03*
D10*
X277186250Y-58300000D03*
D12*
X268951251Y-55030000D03*
D13*
X269606250Y-54300000D03*
D14*
X274626250Y-53510000D03*
D13*
X274646250Y-53220000D03*
G04 #@! TD*
D10*
G04 #@! TO.C,MX61*
X152726250Y-115450000D03*
D11*
X157806250Y-115450000D03*
D10*
X162886250Y-115450000D03*
D12*
X154651251Y-112180000D03*
D13*
X155306250Y-111450000D03*
D14*
X160326250Y-110660000D03*
D13*
X160346250Y-110370000D03*
G04 #@! TD*
D10*
G04 #@! TO.C,MX26*
X286076250Y-58300000D03*
D11*
X291156250Y-58300000D03*
D10*
X296236250Y-58300000D03*
D12*
X288001251Y-55030000D03*
D13*
X288656250Y-54300000D03*
D14*
X293676250Y-53510000D03*
D13*
X293696250Y-53220000D03*
G04 #@! TD*
D10*
G04 #@! TO.C,MX15*
X369420000Y-39250000D03*
D11*
X374500000Y-39250000D03*
D10*
X379580000Y-39250000D03*
D12*
X371345001Y-35980000D03*
D13*
X372000000Y-35250000D03*
D14*
X377020000Y-34460000D03*
D13*
X377040000Y-34170000D03*
G04 #@! TD*
D10*
G04 #@! TO.C,MX58*
X74145000Y-115450000D03*
D11*
X79225000Y-115450000D03*
D10*
X84305000Y-115450000D03*
D12*
X76070001Y-112180000D03*
D13*
X76725000Y-111450000D03*
D14*
X81745000Y-110660000D03*
D13*
X81765000Y-110370000D03*
G04 #@! TD*
D11*
G04 #@! TO.C,MX63*
X224449500Y-107195000D03*
D15*
X224449500Y-122435000D03*
D10*
X231307500Y-115450000D03*
D11*
X236387500Y-115450000D03*
D10*
X241467500Y-115450000D03*
D11*
X248325500Y-107195000D03*
D15*
X248325500Y-122435000D03*
D12*
X233232501Y-112180000D03*
D13*
X233887500Y-111450000D03*
D14*
X238907500Y-110660000D03*
D13*
X238927500Y-110370000D03*
G04 #@! TD*
D10*
G04 #@! TO.C,MX28*
X324176250Y-58300000D03*
D11*
X329256250Y-58300000D03*
D10*
X334336250Y-58300000D03*
D12*
X326101251Y-55030000D03*
D13*
X326756250Y-54300000D03*
D14*
X331776250Y-53510000D03*
D13*
X331796250Y-53220000D03*
G04 #@! TD*
D10*
G04 #@! TO.C,MX8*
X228926250Y-39250000D03*
D11*
X234006250Y-39250000D03*
D10*
X239086250Y-39250000D03*
D12*
X230851251Y-35980000D03*
D13*
X231506250Y-35250000D03*
D14*
X236526250Y-34460000D03*
D13*
X236546250Y-34170000D03*
G04 #@! TD*
D10*
G04 #@! TO.C,MX10*
X267026250Y-39250000D03*
D11*
X272106250Y-39250000D03*
D10*
X277186250Y-39250000D03*
D12*
X268951251Y-35980000D03*
D13*
X269606250Y-35250000D03*
D14*
X274626250Y-34460000D03*
D13*
X274646250Y-34170000D03*
G04 #@! TD*
D10*
G04 #@! TO.C,MX53*
X247976250Y-96400000D03*
D11*
X253056250Y-96400000D03*
D10*
X258136250Y-96400000D03*
D12*
X249901251Y-93130000D03*
D13*
X250556250Y-92400000D03*
D14*
X255576250Y-91610000D03*
D13*
X255596250Y-91320000D03*
G04 #@! TD*
D10*
G04 #@! TO.C,MX64*
X267026250Y-115450000D03*
D11*
X272106250Y-115450000D03*
D10*
X277186250Y-115450000D03*
D12*
X268951251Y-112180000D03*
D13*
X269606250Y-111450000D03*
D14*
X274626250Y-110660000D03*
D13*
X274646250Y-110370000D03*
G04 #@! TD*
D10*
G04 #@! TO.C,MX49*
X171776250Y-96400000D03*
D11*
X176856250Y-96400000D03*
D10*
X181936250Y-96400000D03*
D12*
X173701251Y-93130000D03*
D13*
X174356250Y-92400000D03*
D14*
X179376250Y-91610000D03*
D13*
X179396250Y-91320000D03*
G04 #@! TD*
D10*
G04 #@! TO.C,MX27*
X305126250Y-58300000D03*
D11*
X310206250Y-58300000D03*
D10*
X315286250Y-58300000D03*
D12*
X307051251Y-55030000D03*
D13*
X307706250Y-54300000D03*
D14*
X312726250Y-53510000D03*
D13*
X312746250Y-53220000D03*
G04 #@! TD*
D10*
G04 #@! TO.C,MX33*
X133676250Y-77350000D03*
D11*
X138756250Y-77350000D03*
D10*
X143836250Y-77350000D03*
D12*
X135601251Y-74080000D03*
D13*
X136256250Y-73350000D03*
D14*
X141276250Y-72560000D03*
D13*
X141296250Y-72270000D03*
G04 #@! TD*
D10*
G04 #@! TO.C,MX21*
X190826250Y-58300000D03*
D11*
X195906250Y-58300000D03*
D10*
X200986250Y-58300000D03*
D12*
X192751251Y-55030000D03*
D13*
X193406250Y-54300000D03*
D14*
X198426250Y-53510000D03*
D13*
X198446250Y-53220000D03*
G04 #@! TD*
D10*
G04 #@! TO.C,MX19*
X152726250Y-58300000D03*
D11*
X157806250Y-58300000D03*
D10*
X162886250Y-58300000D03*
D12*
X154651251Y-55030000D03*
D13*
X155306250Y-54300000D03*
D14*
X160326250Y-53510000D03*
D13*
X160346250Y-53220000D03*
G04 #@! TD*
D10*
G04 #@! TO.C,MX55*
X286076250Y-96400000D03*
D11*
X291156250Y-96400000D03*
D10*
X296236250Y-96400000D03*
D12*
X288001251Y-93130000D03*
D13*
X288656250Y-92400000D03*
D14*
X293676250Y-91610000D03*
D13*
X293696250Y-91320000D03*
G04 #@! TD*
D10*
G04 #@! TO.C,MX29*
X343226250Y-58300000D03*
D11*
X348306250Y-58300000D03*
D10*
X353386250Y-58300000D03*
D12*
X345151251Y-55030000D03*
D13*
X345806250Y-54300000D03*
D14*
X350826250Y-53510000D03*
D13*
X350846250Y-53220000D03*
G04 #@! TD*
D10*
G04 #@! TO.C,MX7*
X209876250Y-39250000D03*
D11*
X214956250Y-39250000D03*
D10*
X220036250Y-39250000D03*
D12*
X211801251Y-35980000D03*
D13*
X212456250Y-35250000D03*
D14*
X217476250Y-34460000D03*
D13*
X217496250Y-34170000D03*
G04 #@! TD*
D10*
G04 #@! TO.C,MX13*
X324176250Y-39250000D03*
D11*
X329256250Y-39250000D03*
D10*
X334336250Y-39250000D03*
D12*
X326101251Y-35980000D03*
D13*
X326756250Y-35250000D03*
D14*
X331776250Y-34460000D03*
D13*
X331796250Y-34170000D03*
G04 #@! TD*
D10*
G04 #@! TO.C,MX4*
X152726250Y-39250000D03*
D11*
X157806250Y-39250000D03*
D10*
X162886250Y-39250000D03*
D12*
X154651251Y-35980000D03*
D13*
X155306250Y-35250000D03*
D14*
X160326250Y-34460000D03*
D13*
X160346250Y-34170000D03*
G04 #@! TD*
D10*
G04 #@! TO.C,MX41*
X286076250Y-77350000D03*
D11*
X291156250Y-77350000D03*
D10*
X296236250Y-77350000D03*
D12*
X288001251Y-74080000D03*
D13*
X288656250Y-73350000D03*
D14*
X293676250Y-72560000D03*
D13*
X293696250Y-72270000D03*
G04 #@! TD*
D10*
G04 #@! TO.C,MX52*
X228926250Y-96400000D03*
D11*
X234006250Y-96400000D03*
D10*
X239086250Y-96400000D03*
D12*
X230851251Y-93130000D03*
D13*
X231506250Y-92400000D03*
D14*
X236526250Y-91610000D03*
D13*
X236546250Y-91320000D03*
G04 #@! TD*
D10*
G04 #@! TO.C,MX16*
X74145000Y-58300000D03*
D11*
X79225000Y-58300000D03*
D10*
X84305000Y-58300000D03*
D12*
X76070001Y-55030000D03*
D13*
X76725000Y-54300000D03*
D14*
X81745000Y-53510000D03*
D13*
X81765000Y-53220000D03*
G04 #@! TD*
D10*
G04 #@! TO.C,MX20*
X171776250Y-58300000D03*
D11*
X176856250Y-58300000D03*
D10*
X181936250Y-58300000D03*
D12*
X173701251Y-55030000D03*
D13*
X174356250Y-54300000D03*
D14*
X179376250Y-53510000D03*
D13*
X179396250Y-53220000D03*
G04 #@! TD*
D10*
G04 #@! TO.C,MX69*
X367038750Y-120212500D03*
D11*
X372118750Y-120212500D03*
D10*
X377198750Y-120212500D03*
D12*
X368963751Y-116942500D03*
D13*
X369618750Y-116212500D03*
D14*
X374638750Y-115422500D03*
D13*
X374658750Y-115132500D03*
G04 #@! TD*
D10*
G04 #@! TO.C,MX6*
X190826250Y-39250000D03*
D11*
X195906250Y-39250000D03*
D10*
X200986250Y-39250000D03*
D12*
X192751251Y-35980000D03*
D13*
X193406250Y-35250000D03*
D14*
X198426250Y-34460000D03*
D13*
X198446250Y-34170000D03*
G04 #@! TD*
D10*
G04 #@! TO.C,MX38*
X228926250Y-77350000D03*
D11*
X234006250Y-77350000D03*
D10*
X239086250Y-77350000D03*
D12*
X230851251Y-74080000D03*
D13*
X231506250Y-73350000D03*
D14*
X236526250Y-72560000D03*
D13*
X236546250Y-72270000D03*
G04 #@! TD*
D10*
G04 #@! TO.C,MX68*
X347988750Y-120212500D03*
D11*
X353068750Y-120212500D03*
D10*
X358148750Y-120212500D03*
D12*
X349913751Y-116942500D03*
D13*
X350568750Y-116212500D03*
D14*
X355588750Y-115422500D03*
D13*
X355608750Y-115132500D03*
G04 #@! TD*
D10*
G04 #@! TO.C,MX42*
X305126250Y-77350000D03*
D11*
X310206250Y-77350000D03*
D10*
X315286250Y-77350000D03*
D12*
X307051251Y-74080000D03*
D13*
X307706250Y-73350000D03*
D14*
X312726250Y-72560000D03*
D13*
X312746250Y-72270000D03*
G04 #@! TD*
D10*
G04 #@! TO.C,MX60*
X133676250Y-115450000D03*
D11*
X138756250Y-115450000D03*
D10*
X143836250Y-115450000D03*
D12*
X135601251Y-112180000D03*
D13*
X136256250Y-111450000D03*
D14*
X141276250Y-110660000D03*
D13*
X141296250Y-110370000D03*
G04 #@! TD*
D10*
G04 #@! TO.C,MX48*
X152726250Y-96400000D03*
D11*
X157806250Y-96400000D03*
D10*
X162886250Y-96400000D03*
D12*
X154651251Y-93130000D03*
D13*
X155306250Y-92400000D03*
D14*
X160326250Y-91610000D03*
D13*
X160346250Y-91320000D03*
G04 #@! TD*
D10*
G04 #@! TO.C,MX67*
X328938750Y-120212500D03*
D11*
X334018750Y-120212500D03*
D10*
X339098750Y-120212500D03*
D12*
X330863751Y-116942500D03*
D13*
X331518750Y-116212500D03*
D14*
X336538750Y-115422500D03*
D13*
X336558750Y-115132500D03*
G04 #@! TD*
D10*
G04 #@! TO.C,MX40*
X267026250Y-77350000D03*
D11*
X272106250Y-77350000D03*
D10*
X277186250Y-77350000D03*
D12*
X268951251Y-74080000D03*
D13*
X269606250Y-73350000D03*
D14*
X274626250Y-72560000D03*
D13*
X274646250Y-72270000D03*
G04 #@! TD*
D10*
G04 #@! TO.C,MX39*
X247976250Y-77350000D03*
D11*
X253056250Y-77350000D03*
D10*
X258136250Y-77350000D03*
D12*
X249901251Y-74080000D03*
D13*
X250556250Y-73350000D03*
D14*
X255576250Y-72560000D03*
D13*
X255596250Y-72270000D03*
G04 #@! TD*
D10*
G04 #@! TO.C,MX30*
X369420000Y-58300000D03*
D11*
X374500000Y-58300000D03*
D10*
X379580000Y-58300000D03*
D12*
X371345001Y-55030000D03*
D13*
X372000000Y-54300000D03*
D14*
X377020000Y-53510000D03*
D13*
X377040000Y-53220000D03*
G04 #@! TD*
D10*
G04 #@! TO.C,MX56*
X305126250Y-96400000D03*
D11*
X310206250Y-96400000D03*
D10*
X315286250Y-96400000D03*
D12*
X307051251Y-93130000D03*
D13*
X307706250Y-92400000D03*
D14*
X312726250Y-91610000D03*
D13*
X312746250Y-91320000D03*
G04 #@! TD*
D10*
G04 #@! TO.C,MX14*
X343226250Y-39250000D03*
D11*
X348306250Y-39250000D03*
D10*
X353386250Y-39250000D03*
D12*
X345151251Y-35980000D03*
D13*
X345806250Y-35250000D03*
D14*
X350826250Y-34460000D03*
D13*
X350846250Y-34170000D03*
G04 #@! TD*
D10*
G04 #@! TO.C,MX24*
X247976250Y-58300000D03*
D11*
X253056250Y-58300000D03*
D10*
X258136250Y-58300000D03*
D12*
X249901251Y-55030000D03*
D13*
X250556250Y-54300000D03*
D14*
X255576250Y-53510000D03*
D13*
X255596250Y-53220000D03*
G04 #@! TD*
D10*
G04 #@! TO.C,MX22*
X209876250Y-58300000D03*
D11*
X214956250Y-58300000D03*
D10*
X220036250Y-58300000D03*
D12*
X211801251Y-55030000D03*
D13*
X212456250Y-54300000D03*
D14*
X217476250Y-53510000D03*
D13*
X217496250Y-53220000D03*
G04 #@! TD*
D20*
G04 #@! TO.C,D29*
X356306250Y-60950000D03*
X356306250Y-57650000D03*
G04 #@! TD*
G04 #@! TO.C,D30*
X382500000Y-60950000D03*
X382500000Y-57650000D03*
G04 #@! TD*
G04 #@! TO.C,D55*
X299156250Y-99050000D03*
X299156250Y-95750000D03*
G04 #@! TD*
G04 #@! TO.C,D11*
X299156250Y-41900000D03*
X299156250Y-38600000D03*
G04 #@! TD*
G04 #@! TO.C,D20*
X184856250Y-60950000D03*
X184856250Y-57650000D03*
G04 #@! TD*
G04 #@! TO.C,D25*
X280106250Y-60950000D03*
X280106250Y-57650000D03*
G04 #@! TD*
G04 #@! TO.C,D63*
X244387500Y-118100000D03*
X244387500Y-114800000D03*
G04 #@! TD*
G04 #@! TO.C,D18*
X146756250Y-60950000D03*
X146756250Y-57650000D03*
G04 #@! TD*
G04 #@! TO.C,D60*
X146756250Y-118100000D03*
X146756250Y-114800000D03*
G04 #@! TD*
G04 #@! TO.C,D26*
X299156250Y-60950000D03*
X299156250Y-57650000D03*
G04 #@! TD*
G04 #@! TO.C,D6*
X203906250Y-41900000D03*
X203906250Y-38600000D03*
G04 #@! TD*
G04 #@! TO.C,D34*
X165806250Y-80000000D03*
X165806250Y-76700000D03*
G04 #@! TD*
G04 #@! TO.C,D32*
X120562500Y-80000000D03*
X120562500Y-76700000D03*
G04 #@! TD*
G04 #@! TO.C,D57*
X344400000Y-99050000D03*
X344400000Y-95750000D03*
G04 #@! TD*
G04 #@! TO.C,D41*
X299156250Y-80000000D03*
X299156250Y-76700000D03*
G04 #@! TD*
G04 #@! TO.C,D35*
X184856250Y-80000000D03*
X184856250Y-76700000D03*
G04 #@! TD*
G04 #@! TO.C,D56*
X318206250Y-99050000D03*
X318206250Y-95750000D03*
G04 #@! TD*
G04 #@! TO.C,D47*
X146756250Y-99050000D03*
X146756250Y-95750000D03*
G04 #@! TD*
G04 #@! TO.C,D4*
X165806250Y-41900000D03*
X165806250Y-38600000D03*
G04 #@! TD*
G04 #@! TO.C,D24*
X261056250Y-60950000D03*
X261056250Y-57650000D03*
G04 #@! TD*
G04 #@! TO.C,D40*
X280106250Y-80000000D03*
X280106250Y-76700000D03*
G04 #@! TD*
G04 #@! TO.C,D44*
X363450000Y-80000000D03*
X363450000Y-76700000D03*
G04 #@! TD*
G04 #@! TO.C,D9*
X261056250Y-41900000D03*
X261056250Y-38600000D03*
G04 #@! TD*
G04 #@! TO.C,D2*
X120562500Y-41900000D03*
X120562500Y-38600000D03*
G04 #@! TD*
G04 #@! TO.C,D54*
X280106250Y-99050000D03*
X280106250Y-95750000D03*
G04 #@! TD*
G04 #@! TO.C,D65*
X299156250Y-118100000D03*
X299156250Y-114800000D03*
G04 #@! TD*
G04 #@! TO.C,D64*
X280106250Y-118100000D03*
X280106250Y-114800000D03*
G04 #@! TD*
G04 #@! TO.C,D59*
X120562500Y-118100000D03*
X120562500Y-114800000D03*
G04 #@! TD*
G04 #@! TO.C,D67*
X342018750Y-122862500D03*
X342018750Y-119562500D03*
G04 #@! TD*
G04 #@! TO.C,D21*
X203906250Y-60950000D03*
X203906250Y-57650000D03*
G04 #@! TD*
G04 #@! TO.C,D27*
X318206250Y-60950000D03*
X318206250Y-57650000D03*
G04 #@! TD*
G04 #@! TO.C,D53*
X261056250Y-99050000D03*
X261056250Y-95750000D03*
G04 #@! TD*
G04 #@! TO.C,D52*
X242006250Y-99050000D03*
X242006250Y-95750000D03*
G04 #@! TD*
G04 #@! TO.C,D31*
X87225000Y-80000000D03*
X87225000Y-76700000D03*
G04 #@! TD*
G04 #@! TO.C,D38*
X242006250Y-80000000D03*
X242006250Y-76700000D03*
G04 #@! TD*
G04 #@! TO.C,D14*
X356306250Y-41900000D03*
X356306250Y-38600000D03*
G04 #@! TD*
G04 #@! TO.C,D22*
X222956250Y-60950000D03*
X222956250Y-57650000D03*
G04 #@! TD*
G04 #@! TO.C,D12*
X318206250Y-41900000D03*
X318206250Y-38600000D03*
G04 #@! TD*
G04 #@! TO.C,D58*
X87225000Y-118100000D03*
X87225000Y-114800000D03*
G04 #@! TD*
G04 #@! TO.C,D50*
X203906250Y-99050000D03*
X203906250Y-95750000D03*
G04 #@! TD*
G04 #@! TO.C,D17*
X120562500Y-60950000D03*
X120562500Y-57650000D03*
G04 #@! TD*
G04 #@! TO.C,D10*
X280106250Y-41900000D03*
X280106250Y-38600000D03*
G04 #@! TD*
G04 #@! TO.C,D43*
X337256250Y-80000000D03*
X337256250Y-76700000D03*
G04 #@! TD*
G04 #@! TO.C,D49*
X184856250Y-99050000D03*
X184856250Y-95750000D03*
G04 #@! TD*
G04 #@! TO.C,D51*
X222956250Y-99050000D03*
X222956250Y-95750000D03*
G04 #@! TD*
G04 #@! TO.C,D3*
X146756250Y-41900000D03*
X146756250Y-38600000D03*
G04 #@! TD*
G04 #@! TO.C,D66*
X322968750Y-122862500D03*
X322968750Y-119562500D03*
G04 #@! TD*
G04 #@! TO.C,D45*
X87225000Y-99050000D03*
X87225000Y-95750000D03*
G04 #@! TD*
G04 #@! TO.C,D15*
X382500000Y-41900000D03*
X382500000Y-38600000D03*
G04 #@! TD*
G04 #@! TO.C,D42*
X318206250Y-80000000D03*
X318206250Y-76700000D03*
G04 #@! TD*
G04 #@! TO.C,D48*
X165806250Y-99050000D03*
X165806250Y-95750000D03*
G04 #@! TD*
G04 #@! TO.C,D1*
X87225000Y-41900000D03*
X87225000Y-38600000D03*
G04 #@! TD*
G04 #@! TO.C,D68*
X361068750Y-122862500D03*
X361068750Y-119562500D03*
G04 #@! TD*
G04 #@! TO.C,D61*
X165806250Y-118100000D03*
X165806250Y-114800000D03*
G04 #@! TD*
G04 #@! TO.C,D19*
X165806250Y-60950000D03*
X165806250Y-57650000D03*
G04 #@! TD*
G04 #@! TO.C,D69*
X380118750Y-122862500D03*
X380118750Y-119562500D03*
G04 #@! TD*
G04 #@! TO.C,D16*
X87225000Y-60950000D03*
X87225000Y-57650000D03*
G04 #@! TD*
G04 #@! TO.C,D5*
X184856250Y-41900000D03*
X184856250Y-38600000D03*
G04 #@! TD*
G04 #@! TO.C,D33*
X146756250Y-80000000D03*
X146756250Y-76700000D03*
G04 #@! TD*
G04 #@! TO.C,D8*
X242006250Y-41900000D03*
X242006250Y-38600000D03*
G04 #@! TD*
G04 #@! TO.C,D37*
X222956250Y-80000000D03*
X222956250Y-76700000D03*
G04 #@! TD*
G04 #@! TO.C,D46*
X120562500Y-99050000D03*
X120562500Y-95750000D03*
G04 #@! TD*
G04 #@! TO.C,D62*
X196762500Y-118100000D03*
X196762500Y-114800000D03*
G04 #@! TD*
G04 #@! TO.C,D39*
X261056250Y-80000000D03*
X261056250Y-76700000D03*
G04 #@! TD*
G04 #@! TO.C,D7*
X222956250Y-41900000D03*
X222956250Y-38600000D03*
G04 #@! TD*
G04 #@! TO.C,D23*
X242006250Y-60950000D03*
X242006250Y-57650000D03*
G04 #@! TD*
G04 #@! TO.C,D28*
X337256250Y-60950000D03*
X337256250Y-57650000D03*
G04 #@! TD*
G04 #@! TO.C,D13*
X337256250Y-41900000D03*
X337256250Y-38600000D03*
G04 #@! TD*
G04 #@! TO.C,D36*
X203906250Y-80000000D03*
X203906250Y-76700000D03*
G04 #@! TD*
M02*
