G04 #@! TF.GenerationSoftware,KiCad,Pcbnew,8.0.4*
G04 #@! TF.CreationDate,2024-09-04T19:59:22-04:00*
G04 #@! TF.ProjectId,small-fry-pcb,736d616c-6c2d-4667-9279-2d7063622e6b,1.0*
G04 #@! TF.SameCoordinates,Original*
G04 #@! TF.FileFunction,Legend,Bot*
G04 #@! TF.FilePolarity,Positive*
%FSLAX46Y46*%
G04 Gerber Fmt 4.6, Leading zero omitted, Abs format (unit mm)*
G04 Created by KiCad (PCBNEW 8.0.4) date 2024-09-04 19:59:22*
%MOMM*%
%LPD*%
G01*
G04 APERTURE LIST*
G04 Aperture macros list*
%AMRoundRect*
0 Rectangle with rounded corners*
0 $1 Rounding radius*
0 $2 $3 $4 $5 $6 $7 $8 $9 X,Y pos of 4 corners*
0 Add a 4 corners polygon primitive as box body*
4,1,4,$2,$3,$4,$5,$6,$7,$8,$9,$2,$3,0*
0 Add four circle primitives for the rounded corners*
1,1,$1+$1,$2,$3*
1,1,$1+$1,$4,$5*
1,1,$1+$1,$6,$7*
1,1,$1+$1,$8,$9*
0 Add four rect primitives between the rounded corners*
20,1,$1+$1,$2,$3,$4,$5,0*
20,1,$1+$1,$4,$5,$6,$7,0*
20,1,$1+$1,$6,$7,$8,$9,0*
20,1,$1+$1,$8,$9,$2,$3,0*%
%AMHorizOval*
0 Thick line with rounded ends*
0 $1 width*
0 $2 $3 position (X,Y) of the first rounded end (center of the circle)*
0 $4 $5 position (X,Y) of the second rounded end (center of the circle)*
0 Add line between two ends*
20,1,$1,$2,$3,$4,$5,0*
0 Add two circle primitives to create the rounded ends*
1,1,$1,$2,$3*
1,1,$1,$4,$5*%
G04 Aperture macros list end*
%ADD10C,0.150000*%
%ADD11C,0.000000*%
%ADD12C,0.120000*%
%ADD13C,1.750000*%
%ADD14C,3.987800*%
%ADD15HorizOval,2.250000X0.655001X0.730000X-0.655001X-0.730000X0*%
%ADD16C,2.250000*%
%ADD17HorizOval,2.250000X0.020000X0.290000X-0.020000X-0.290000X0*%
%ADD18C,3.048000*%
%ADD19O,1.800000X1.800000*%
%ADD20O,1.500000X1.500000*%
%ADD21O,1.700000X1.700000*%
%ADD22R,1.700000X1.700000*%
%ADD23RoundRect,0.225000X0.375000X-0.225000X0.375000X0.225000X-0.375000X0.225000X-0.375000X-0.225000X0*%
G04 APERTURE END LIST*
D10*
X358761069Y-58085714D02*
X357761069Y-58085714D01*
X357761069Y-58085714D02*
X357761069Y-58323809D01*
X357761069Y-58323809D02*
X357808688Y-58466666D01*
X357808688Y-58466666D02*
X357903926Y-58561904D01*
X357903926Y-58561904D02*
X357999164Y-58609523D01*
X357999164Y-58609523D02*
X358189640Y-58657142D01*
X358189640Y-58657142D02*
X358332497Y-58657142D01*
X358332497Y-58657142D02*
X358522973Y-58609523D01*
X358522973Y-58609523D02*
X358618211Y-58561904D01*
X358618211Y-58561904D02*
X358713450Y-58466666D01*
X358713450Y-58466666D02*
X358761069Y-58323809D01*
X358761069Y-58323809D02*
X358761069Y-58085714D01*
X357856307Y-59038095D02*
X357808688Y-59085714D01*
X357808688Y-59085714D02*
X357761069Y-59180952D01*
X357761069Y-59180952D02*
X357761069Y-59419047D01*
X357761069Y-59419047D02*
X357808688Y-59514285D01*
X357808688Y-59514285D02*
X357856307Y-59561904D01*
X357856307Y-59561904D02*
X357951545Y-59609523D01*
X357951545Y-59609523D02*
X358046783Y-59609523D01*
X358046783Y-59609523D02*
X358189640Y-59561904D01*
X358189640Y-59561904D02*
X358761069Y-58990476D01*
X358761069Y-58990476D02*
X358761069Y-59609523D01*
X358761069Y-60085714D02*
X358761069Y-60276190D01*
X358761069Y-60276190D02*
X358713450Y-60371428D01*
X358713450Y-60371428D02*
X358665830Y-60419047D01*
X358665830Y-60419047D02*
X358522973Y-60514285D01*
X358522973Y-60514285D02*
X358332497Y-60561904D01*
X358332497Y-60561904D02*
X357951545Y-60561904D01*
X357951545Y-60561904D02*
X357856307Y-60514285D01*
X357856307Y-60514285D02*
X357808688Y-60466666D01*
X357808688Y-60466666D02*
X357761069Y-60371428D01*
X357761069Y-60371428D02*
X357761069Y-60180952D01*
X357761069Y-60180952D02*
X357808688Y-60085714D01*
X357808688Y-60085714D02*
X357856307Y-60038095D01*
X357856307Y-60038095D02*
X357951545Y-59990476D01*
X357951545Y-59990476D02*
X358189640Y-59990476D01*
X358189640Y-59990476D02*
X358284878Y-60038095D01*
X358284878Y-60038095D02*
X358332497Y-60085714D01*
X358332497Y-60085714D02*
X358380116Y-60180952D01*
X358380116Y-60180952D02*
X358380116Y-60371428D01*
X358380116Y-60371428D02*
X358332497Y-60466666D01*
X358332497Y-60466666D02*
X358284878Y-60514285D01*
X358284878Y-60514285D02*
X358189640Y-60561904D01*
X384954819Y-58085714D02*
X383954819Y-58085714D01*
X383954819Y-58085714D02*
X383954819Y-58323809D01*
X383954819Y-58323809D02*
X384002438Y-58466666D01*
X384002438Y-58466666D02*
X384097676Y-58561904D01*
X384097676Y-58561904D02*
X384192914Y-58609523D01*
X384192914Y-58609523D02*
X384383390Y-58657142D01*
X384383390Y-58657142D02*
X384526247Y-58657142D01*
X384526247Y-58657142D02*
X384716723Y-58609523D01*
X384716723Y-58609523D02*
X384811961Y-58561904D01*
X384811961Y-58561904D02*
X384907200Y-58466666D01*
X384907200Y-58466666D02*
X384954819Y-58323809D01*
X384954819Y-58323809D02*
X384954819Y-58085714D01*
X383954819Y-58990476D02*
X383954819Y-59609523D01*
X383954819Y-59609523D02*
X384335771Y-59276190D01*
X384335771Y-59276190D02*
X384335771Y-59419047D01*
X384335771Y-59419047D02*
X384383390Y-59514285D01*
X384383390Y-59514285D02*
X384431009Y-59561904D01*
X384431009Y-59561904D02*
X384526247Y-59609523D01*
X384526247Y-59609523D02*
X384764342Y-59609523D01*
X384764342Y-59609523D02*
X384859580Y-59561904D01*
X384859580Y-59561904D02*
X384907200Y-59514285D01*
X384907200Y-59514285D02*
X384954819Y-59419047D01*
X384954819Y-59419047D02*
X384954819Y-59133333D01*
X384954819Y-59133333D02*
X384907200Y-59038095D01*
X384907200Y-59038095D02*
X384859580Y-58990476D01*
X383954819Y-60228571D02*
X383954819Y-60323809D01*
X383954819Y-60323809D02*
X384002438Y-60419047D01*
X384002438Y-60419047D02*
X384050057Y-60466666D01*
X384050057Y-60466666D02*
X384145295Y-60514285D01*
X384145295Y-60514285D02*
X384335771Y-60561904D01*
X384335771Y-60561904D02*
X384573866Y-60561904D01*
X384573866Y-60561904D02*
X384764342Y-60514285D01*
X384764342Y-60514285D02*
X384859580Y-60466666D01*
X384859580Y-60466666D02*
X384907200Y-60419047D01*
X384907200Y-60419047D02*
X384954819Y-60323809D01*
X384954819Y-60323809D02*
X384954819Y-60228571D01*
X384954819Y-60228571D02*
X384907200Y-60133333D01*
X384907200Y-60133333D02*
X384859580Y-60085714D01*
X384859580Y-60085714D02*
X384764342Y-60038095D01*
X384764342Y-60038095D02*
X384573866Y-59990476D01*
X384573866Y-59990476D02*
X384335771Y-59990476D01*
X384335771Y-59990476D02*
X384145295Y-60038095D01*
X384145295Y-60038095D02*
X384050057Y-60085714D01*
X384050057Y-60085714D02*
X384002438Y-60133333D01*
X384002438Y-60133333D02*
X383954819Y-60228571D01*
X301611069Y-96185714D02*
X300611069Y-96185714D01*
X300611069Y-96185714D02*
X300611069Y-96423809D01*
X300611069Y-96423809D02*
X300658688Y-96566666D01*
X300658688Y-96566666D02*
X300753926Y-96661904D01*
X300753926Y-96661904D02*
X300849164Y-96709523D01*
X300849164Y-96709523D02*
X301039640Y-96757142D01*
X301039640Y-96757142D02*
X301182497Y-96757142D01*
X301182497Y-96757142D02*
X301372973Y-96709523D01*
X301372973Y-96709523D02*
X301468211Y-96661904D01*
X301468211Y-96661904D02*
X301563450Y-96566666D01*
X301563450Y-96566666D02*
X301611069Y-96423809D01*
X301611069Y-96423809D02*
X301611069Y-96185714D01*
X300611069Y-97661904D02*
X300611069Y-97185714D01*
X300611069Y-97185714D02*
X301087259Y-97138095D01*
X301087259Y-97138095D02*
X301039640Y-97185714D01*
X301039640Y-97185714D02*
X300992021Y-97280952D01*
X300992021Y-97280952D02*
X300992021Y-97519047D01*
X300992021Y-97519047D02*
X301039640Y-97614285D01*
X301039640Y-97614285D02*
X301087259Y-97661904D01*
X301087259Y-97661904D02*
X301182497Y-97709523D01*
X301182497Y-97709523D02*
X301420592Y-97709523D01*
X301420592Y-97709523D02*
X301515830Y-97661904D01*
X301515830Y-97661904D02*
X301563450Y-97614285D01*
X301563450Y-97614285D02*
X301611069Y-97519047D01*
X301611069Y-97519047D02*
X301611069Y-97280952D01*
X301611069Y-97280952D02*
X301563450Y-97185714D01*
X301563450Y-97185714D02*
X301515830Y-97138095D01*
X300611069Y-98614285D02*
X300611069Y-98138095D01*
X300611069Y-98138095D02*
X301087259Y-98090476D01*
X301087259Y-98090476D02*
X301039640Y-98138095D01*
X301039640Y-98138095D02*
X300992021Y-98233333D01*
X300992021Y-98233333D02*
X300992021Y-98471428D01*
X300992021Y-98471428D02*
X301039640Y-98566666D01*
X301039640Y-98566666D02*
X301087259Y-98614285D01*
X301087259Y-98614285D02*
X301182497Y-98661904D01*
X301182497Y-98661904D02*
X301420592Y-98661904D01*
X301420592Y-98661904D02*
X301515830Y-98614285D01*
X301515830Y-98614285D02*
X301563450Y-98566666D01*
X301563450Y-98566666D02*
X301611069Y-98471428D01*
X301611069Y-98471428D02*
X301611069Y-98233333D01*
X301611069Y-98233333D02*
X301563450Y-98138095D01*
X301563450Y-98138095D02*
X301515830Y-98090476D01*
X301611069Y-39035714D02*
X300611069Y-39035714D01*
X300611069Y-39035714D02*
X300611069Y-39273809D01*
X300611069Y-39273809D02*
X300658688Y-39416666D01*
X300658688Y-39416666D02*
X300753926Y-39511904D01*
X300753926Y-39511904D02*
X300849164Y-39559523D01*
X300849164Y-39559523D02*
X301039640Y-39607142D01*
X301039640Y-39607142D02*
X301182497Y-39607142D01*
X301182497Y-39607142D02*
X301372973Y-39559523D01*
X301372973Y-39559523D02*
X301468211Y-39511904D01*
X301468211Y-39511904D02*
X301563450Y-39416666D01*
X301563450Y-39416666D02*
X301611069Y-39273809D01*
X301611069Y-39273809D02*
X301611069Y-39035714D01*
X301611069Y-40559523D02*
X301611069Y-39988095D01*
X301611069Y-40273809D02*
X300611069Y-40273809D01*
X300611069Y-40273809D02*
X300753926Y-40178571D01*
X300753926Y-40178571D02*
X300849164Y-40083333D01*
X300849164Y-40083333D02*
X300896783Y-39988095D01*
X301611069Y-41511904D02*
X301611069Y-40940476D01*
X301611069Y-41226190D02*
X300611069Y-41226190D01*
X300611069Y-41226190D02*
X300753926Y-41130952D01*
X300753926Y-41130952D02*
X300849164Y-41035714D01*
X300849164Y-41035714D02*
X300896783Y-40940476D01*
X187311069Y-58085714D02*
X186311069Y-58085714D01*
X186311069Y-58085714D02*
X186311069Y-58323809D01*
X186311069Y-58323809D02*
X186358688Y-58466666D01*
X186358688Y-58466666D02*
X186453926Y-58561904D01*
X186453926Y-58561904D02*
X186549164Y-58609523D01*
X186549164Y-58609523D02*
X186739640Y-58657142D01*
X186739640Y-58657142D02*
X186882497Y-58657142D01*
X186882497Y-58657142D02*
X187072973Y-58609523D01*
X187072973Y-58609523D02*
X187168211Y-58561904D01*
X187168211Y-58561904D02*
X187263450Y-58466666D01*
X187263450Y-58466666D02*
X187311069Y-58323809D01*
X187311069Y-58323809D02*
X187311069Y-58085714D01*
X186406307Y-59038095D02*
X186358688Y-59085714D01*
X186358688Y-59085714D02*
X186311069Y-59180952D01*
X186311069Y-59180952D02*
X186311069Y-59419047D01*
X186311069Y-59419047D02*
X186358688Y-59514285D01*
X186358688Y-59514285D02*
X186406307Y-59561904D01*
X186406307Y-59561904D02*
X186501545Y-59609523D01*
X186501545Y-59609523D02*
X186596783Y-59609523D01*
X186596783Y-59609523D02*
X186739640Y-59561904D01*
X186739640Y-59561904D02*
X187311069Y-58990476D01*
X187311069Y-58990476D02*
X187311069Y-59609523D01*
X186311069Y-60228571D02*
X186311069Y-60323809D01*
X186311069Y-60323809D02*
X186358688Y-60419047D01*
X186358688Y-60419047D02*
X186406307Y-60466666D01*
X186406307Y-60466666D02*
X186501545Y-60514285D01*
X186501545Y-60514285D02*
X186692021Y-60561904D01*
X186692021Y-60561904D02*
X186930116Y-60561904D01*
X186930116Y-60561904D02*
X187120592Y-60514285D01*
X187120592Y-60514285D02*
X187215830Y-60466666D01*
X187215830Y-60466666D02*
X187263450Y-60419047D01*
X187263450Y-60419047D02*
X187311069Y-60323809D01*
X187311069Y-60323809D02*
X187311069Y-60228571D01*
X187311069Y-60228571D02*
X187263450Y-60133333D01*
X187263450Y-60133333D02*
X187215830Y-60085714D01*
X187215830Y-60085714D02*
X187120592Y-60038095D01*
X187120592Y-60038095D02*
X186930116Y-59990476D01*
X186930116Y-59990476D02*
X186692021Y-59990476D01*
X186692021Y-59990476D02*
X186501545Y-60038095D01*
X186501545Y-60038095D02*
X186406307Y-60085714D01*
X186406307Y-60085714D02*
X186358688Y-60133333D01*
X186358688Y-60133333D02*
X186311069Y-60228571D01*
X282561069Y-58085714D02*
X281561069Y-58085714D01*
X281561069Y-58085714D02*
X281561069Y-58323809D01*
X281561069Y-58323809D02*
X281608688Y-58466666D01*
X281608688Y-58466666D02*
X281703926Y-58561904D01*
X281703926Y-58561904D02*
X281799164Y-58609523D01*
X281799164Y-58609523D02*
X281989640Y-58657142D01*
X281989640Y-58657142D02*
X282132497Y-58657142D01*
X282132497Y-58657142D02*
X282322973Y-58609523D01*
X282322973Y-58609523D02*
X282418211Y-58561904D01*
X282418211Y-58561904D02*
X282513450Y-58466666D01*
X282513450Y-58466666D02*
X282561069Y-58323809D01*
X282561069Y-58323809D02*
X282561069Y-58085714D01*
X281656307Y-59038095D02*
X281608688Y-59085714D01*
X281608688Y-59085714D02*
X281561069Y-59180952D01*
X281561069Y-59180952D02*
X281561069Y-59419047D01*
X281561069Y-59419047D02*
X281608688Y-59514285D01*
X281608688Y-59514285D02*
X281656307Y-59561904D01*
X281656307Y-59561904D02*
X281751545Y-59609523D01*
X281751545Y-59609523D02*
X281846783Y-59609523D01*
X281846783Y-59609523D02*
X281989640Y-59561904D01*
X281989640Y-59561904D02*
X282561069Y-58990476D01*
X282561069Y-58990476D02*
X282561069Y-59609523D01*
X281561069Y-60514285D02*
X281561069Y-60038095D01*
X281561069Y-60038095D02*
X282037259Y-59990476D01*
X282037259Y-59990476D02*
X281989640Y-60038095D01*
X281989640Y-60038095D02*
X281942021Y-60133333D01*
X281942021Y-60133333D02*
X281942021Y-60371428D01*
X281942021Y-60371428D02*
X281989640Y-60466666D01*
X281989640Y-60466666D02*
X282037259Y-60514285D01*
X282037259Y-60514285D02*
X282132497Y-60561904D01*
X282132497Y-60561904D02*
X282370592Y-60561904D01*
X282370592Y-60561904D02*
X282465830Y-60514285D01*
X282465830Y-60514285D02*
X282513450Y-60466666D01*
X282513450Y-60466666D02*
X282561069Y-60371428D01*
X282561069Y-60371428D02*
X282561069Y-60133333D01*
X282561069Y-60133333D02*
X282513450Y-60038095D01*
X282513450Y-60038095D02*
X282465830Y-59990476D01*
X246842319Y-115235714D02*
X245842319Y-115235714D01*
X245842319Y-115235714D02*
X245842319Y-115473809D01*
X245842319Y-115473809D02*
X245889938Y-115616666D01*
X245889938Y-115616666D02*
X245985176Y-115711904D01*
X245985176Y-115711904D02*
X246080414Y-115759523D01*
X246080414Y-115759523D02*
X246270890Y-115807142D01*
X246270890Y-115807142D02*
X246413747Y-115807142D01*
X246413747Y-115807142D02*
X246604223Y-115759523D01*
X246604223Y-115759523D02*
X246699461Y-115711904D01*
X246699461Y-115711904D02*
X246794700Y-115616666D01*
X246794700Y-115616666D02*
X246842319Y-115473809D01*
X246842319Y-115473809D02*
X246842319Y-115235714D01*
X245842319Y-116664285D02*
X245842319Y-116473809D01*
X245842319Y-116473809D02*
X245889938Y-116378571D01*
X245889938Y-116378571D02*
X245937557Y-116330952D01*
X245937557Y-116330952D02*
X246080414Y-116235714D01*
X246080414Y-116235714D02*
X246270890Y-116188095D01*
X246270890Y-116188095D02*
X246651842Y-116188095D01*
X246651842Y-116188095D02*
X246747080Y-116235714D01*
X246747080Y-116235714D02*
X246794700Y-116283333D01*
X246794700Y-116283333D02*
X246842319Y-116378571D01*
X246842319Y-116378571D02*
X246842319Y-116569047D01*
X246842319Y-116569047D02*
X246794700Y-116664285D01*
X246794700Y-116664285D02*
X246747080Y-116711904D01*
X246747080Y-116711904D02*
X246651842Y-116759523D01*
X246651842Y-116759523D02*
X246413747Y-116759523D01*
X246413747Y-116759523D02*
X246318509Y-116711904D01*
X246318509Y-116711904D02*
X246270890Y-116664285D01*
X246270890Y-116664285D02*
X246223271Y-116569047D01*
X246223271Y-116569047D02*
X246223271Y-116378571D01*
X246223271Y-116378571D02*
X246270890Y-116283333D01*
X246270890Y-116283333D02*
X246318509Y-116235714D01*
X246318509Y-116235714D02*
X246413747Y-116188095D01*
X245842319Y-117092857D02*
X245842319Y-117711904D01*
X245842319Y-117711904D02*
X246223271Y-117378571D01*
X246223271Y-117378571D02*
X246223271Y-117521428D01*
X246223271Y-117521428D02*
X246270890Y-117616666D01*
X246270890Y-117616666D02*
X246318509Y-117664285D01*
X246318509Y-117664285D02*
X246413747Y-117711904D01*
X246413747Y-117711904D02*
X246651842Y-117711904D01*
X246651842Y-117711904D02*
X246747080Y-117664285D01*
X246747080Y-117664285D02*
X246794700Y-117616666D01*
X246794700Y-117616666D02*
X246842319Y-117521428D01*
X246842319Y-117521428D02*
X246842319Y-117235714D01*
X246842319Y-117235714D02*
X246794700Y-117140476D01*
X246794700Y-117140476D02*
X246747080Y-117092857D01*
X149211069Y-58085714D02*
X148211069Y-58085714D01*
X148211069Y-58085714D02*
X148211069Y-58323809D01*
X148211069Y-58323809D02*
X148258688Y-58466666D01*
X148258688Y-58466666D02*
X148353926Y-58561904D01*
X148353926Y-58561904D02*
X148449164Y-58609523D01*
X148449164Y-58609523D02*
X148639640Y-58657142D01*
X148639640Y-58657142D02*
X148782497Y-58657142D01*
X148782497Y-58657142D02*
X148972973Y-58609523D01*
X148972973Y-58609523D02*
X149068211Y-58561904D01*
X149068211Y-58561904D02*
X149163450Y-58466666D01*
X149163450Y-58466666D02*
X149211069Y-58323809D01*
X149211069Y-58323809D02*
X149211069Y-58085714D01*
X149211069Y-59609523D02*
X149211069Y-59038095D01*
X149211069Y-59323809D02*
X148211069Y-59323809D01*
X148211069Y-59323809D02*
X148353926Y-59228571D01*
X148353926Y-59228571D02*
X148449164Y-59133333D01*
X148449164Y-59133333D02*
X148496783Y-59038095D01*
X148639640Y-60180952D02*
X148592021Y-60085714D01*
X148592021Y-60085714D02*
X148544402Y-60038095D01*
X148544402Y-60038095D02*
X148449164Y-59990476D01*
X148449164Y-59990476D02*
X148401545Y-59990476D01*
X148401545Y-59990476D02*
X148306307Y-60038095D01*
X148306307Y-60038095D02*
X148258688Y-60085714D01*
X148258688Y-60085714D02*
X148211069Y-60180952D01*
X148211069Y-60180952D02*
X148211069Y-60371428D01*
X148211069Y-60371428D02*
X148258688Y-60466666D01*
X148258688Y-60466666D02*
X148306307Y-60514285D01*
X148306307Y-60514285D02*
X148401545Y-60561904D01*
X148401545Y-60561904D02*
X148449164Y-60561904D01*
X148449164Y-60561904D02*
X148544402Y-60514285D01*
X148544402Y-60514285D02*
X148592021Y-60466666D01*
X148592021Y-60466666D02*
X148639640Y-60371428D01*
X148639640Y-60371428D02*
X148639640Y-60180952D01*
X148639640Y-60180952D02*
X148687259Y-60085714D01*
X148687259Y-60085714D02*
X148734878Y-60038095D01*
X148734878Y-60038095D02*
X148830116Y-59990476D01*
X148830116Y-59990476D02*
X149020592Y-59990476D01*
X149020592Y-59990476D02*
X149115830Y-60038095D01*
X149115830Y-60038095D02*
X149163450Y-60085714D01*
X149163450Y-60085714D02*
X149211069Y-60180952D01*
X149211069Y-60180952D02*
X149211069Y-60371428D01*
X149211069Y-60371428D02*
X149163450Y-60466666D01*
X149163450Y-60466666D02*
X149115830Y-60514285D01*
X149115830Y-60514285D02*
X149020592Y-60561904D01*
X149020592Y-60561904D02*
X148830116Y-60561904D01*
X148830116Y-60561904D02*
X148734878Y-60514285D01*
X148734878Y-60514285D02*
X148687259Y-60466666D01*
X148687259Y-60466666D02*
X148639640Y-60371428D01*
X149211069Y-115235714D02*
X148211069Y-115235714D01*
X148211069Y-115235714D02*
X148211069Y-115473809D01*
X148211069Y-115473809D02*
X148258688Y-115616666D01*
X148258688Y-115616666D02*
X148353926Y-115711904D01*
X148353926Y-115711904D02*
X148449164Y-115759523D01*
X148449164Y-115759523D02*
X148639640Y-115807142D01*
X148639640Y-115807142D02*
X148782497Y-115807142D01*
X148782497Y-115807142D02*
X148972973Y-115759523D01*
X148972973Y-115759523D02*
X149068211Y-115711904D01*
X149068211Y-115711904D02*
X149163450Y-115616666D01*
X149163450Y-115616666D02*
X149211069Y-115473809D01*
X149211069Y-115473809D02*
X149211069Y-115235714D01*
X148211069Y-116664285D02*
X148211069Y-116473809D01*
X148211069Y-116473809D02*
X148258688Y-116378571D01*
X148258688Y-116378571D02*
X148306307Y-116330952D01*
X148306307Y-116330952D02*
X148449164Y-116235714D01*
X148449164Y-116235714D02*
X148639640Y-116188095D01*
X148639640Y-116188095D02*
X149020592Y-116188095D01*
X149020592Y-116188095D02*
X149115830Y-116235714D01*
X149115830Y-116235714D02*
X149163450Y-116283333D01*
X149163450Y-116283333D02*
X149211069Y-116378571D01*
X149211069Y-116378571D02*
X149211069Y-116569047D01*
X149211069Y-116569047D02*
X149163450Y-116664285D01*
X149163450Y-116664285D02*
X149115830Y-116711904D01*
X149115830Y-116711904D02*
X149020592Y-116759523D01*
X149020592Y-116759523D02*
X148782497Y-116759523D01*
X148782497Y-116759523D02*
X148687259Y-116711904D01*
X148687259Y-116711904D02*
X148639640Y-116664285D01*
X148639640Y-116664285D02*
X148592021Y-116569047D01*
X148592021Y-116569047D02*
X148592021Y-116378571D01*
X148592021Y-116378571D02*
X148639640Y-116283333D01*
X148639640Y-116283333D02*
X148687259Y-116235714D01*
X148687259Y-116235714D02*
X148782497Y-116188095D01*
X148211069Y-117378571D02*
X148211069Y-117473809D01*
X148211069Y-117473809D02*
X148258688Y-117569047D01*
X148258688Y-117569047D02*
X148306307Y-117616666D01*
X148306307Y-117616666D02*
X148401545Y-117664285D01*
X148401545Y-117664285D02*
X148592021Y-117711904D01*
X148592021Y-117711904D02*
X148830116Y-117711904D01*
X148830116Y-117711904D02*
X149020592Y-117664285D01*
X149020592Y-117664285D02*
X149115830Y-117616666D01*
X149115830Y-117616666D02*
X149163450Y-117569047D01*
X149163450Y-117569047D02*
X149211069Y-117473809D01*
X149211069Y-117473809D02*
X149211069Y-117378571D01*
X149211069Y-117378571D02*
X149163450Y-117283333D01*
X149163450Y-117283333D02*
X149115830Y-117235714D01*
X149115830Y-117235714D02*
X149020592Y-117188095D01*
X149020592Y-117188095D02*
X148830116Y-117140476D01*
X148830116Y-117140476D02*
X148592021Y-117140476D01*
X148592021Y-117140476D02*
X148401545Y-117188095D01*
X148401545Y-117188095D02*
X148306307Y-117235714D01*
X148306307Y-117235714D02*
X148258688Y-117283333D01*
X148258688Y-117283333D02*
X148211069Y-117378571D01*
X301611069Y-58085714D02*
X300611069Y-58085714D01*
X300611069Y-58085714D02*
X300611069Y-58323809D01*
X300611069Y-58323809D02*
X300658688Y-58466666D01*
X300658688Y-58466666D02*
X300753926Y-58561904D01*
X300753926Y-58561904D02*
X300849164Y-58609523D01*
X300849164Y-58609523D02*
X301039640Y-58657142D01*
X301039640Y-58657142D02*
X301182497Y-58657142D01*
X301182497Y-58657142D02*
X301372973Y-58609523D01*
X301372973Y-58609523D02*
X301468211Y-58561904D01*
X301468211Y-58561904D02*
X301563450Y-58466666D01*
X301563450Y-58466666D02*
X301611069Y-58323809D01*
X301611069Y-58323809D02*
X301611069Y-58085714D01*
X300706307Y-59038095D02*
X300658688Y-59085714D01*
X300658688Y-59085714D02*
X300611069Y-59180952D01*
X300611069Y-59180952D02*
X300611069Y-59419047D01*
X300611069Y-59419047D02*
X300658688Y-59514285D01*
X300658688Y-59514285D02*
X300706307Y-59561904D01*
X300706307Y-59561904D02*
X300801545Y-59609523D01*
X300801545Y-59609523D02*
X300896783Y-59609523D01*
X300896783Y-59609523D02*
X301039640Y-59561904D01*
X301039640Y-59561904D02*
X301611069Y-58990476D01*
X301611069Y-58990476D02*
X301611069Y-59609523D01*
X300611069Y-60466666D02*
X300611069Y-60276190D01*
X300611069Y-60276190D02*
X300658688Y-60180952D01*
X300658688Y-60180952D02*
X300706307Y-60133333D01*
X300706307Y-60133333D02*
X300849164Y-60038095D01*
X300849164Y-60038095D02*
X301039640Y-59990476D01*
X301039640Y-59990476D02*
X301420592Y-59990476D01*
X301420592Y-59990476D02*
X301515830Y-60038095D01*
X301515830Y-60038095D02*
X301563450Y-60085714D01*
X301563450Y-60085714D02*
X301611069Y-60180952D01*
X301611069Y-60180952D02*
X301611069Y-60371428D01*
X301611069Y-60371428D02*
X301563450Y-60466666D01*
X301563450Y-60466666D02*
X301515830Y-60514285D01*
X301515830Y-60514285D02*
X301420592Y-60561904D01*
X301420592Y-60561904D02*
X301182497Y-60561904D01*
X301182497Y-60561904D02*
X301087259Y-60514285D01*
X301087259Y-60514285D02*
X301039640Y-60466666D01*
X301039640Y-60466666D02*
X300992021Y-60371428D01*
X300992021Y-60371428D02*
X300992021Y-60180952D01*
X300992021Y-60180952D02*
X301039640Y-60085714D01*
X301039640Y-60085714D02*
X301087259Y-60038095D01*
X301087259Y-60038095D02*
X301182497Y-59990476D01*
X206361069Y-39511905D02*
X205361069Y-39511905D01*
X205361069Y-39511905D02*
X205361069Y-39750000D01*
X205361069Y-39750000D02*
X205408688Y-39892857D01*
X205408688Y-39892857D02*
X205503926Y-39988095D01*
X205503926Y-39988095D02*
X205599164Y-40035714D01*
X205599164Y-40035714D02*
X205789640Y-40083333D01*
X205789640Y-40083333D02*
X205932497Y-40083333D01*
X205932497Y-40083333D02*
X206122973Y-40035714D01*
X206122973Y-40035714D02*
X206218211Y-39988095D01*
X206218211Y-39988095D02*
X206313450Y-39892857D01*
X206313450Y-39892857D02*
X206361069Y-39750000D01*
X206361069Y-39750000D02*
X206361069Y-39511905D01*
X205361069Y-40940476D02*
X205361069Y-40750000D01*
X205361069Y-40750000D02*
X205408688Y-40654762D01*
X205408688Y-40654762D02*
X205456307Y-40607143D01*
X205456307Y-40607143D02*
X205599164Y-40511905D01*
X205599164Y-40511905D02*
X205789640Y-40464286D01*
X205789640Y-40464286D02*
X206170592Y-40464286D01*
X206170592Y-40464286D02*
X206265830Y-40511905D01*
X206265830Y-40511905D02*
X206313450Y-40559524D01*
X206313450Y-40559524D02*
X206361069Y-40654762D01*
X206361069Y-40654762D02*
X206361069Y-40845238D01*
X206361069Y-40845238D02*
X206313450Y-40940476D01*
X206313450Y-40940476D02*
X206265830Y-40988095D01*
X206265830Y-40988095D02*
X206170592Y-41035714D01*
X206170592Y-41035714D02*
X205932497Y-41035714D01*
X205932497Y-41035714D02*
X205837259Y-40988095D01*
X205837259Y-40988095D02*
X205789640Y-40940476D01*
X205789640Y-40940476D02*
X205742021Y-40845238D01*
X205742021Y-40845238D02*
X205742021Y-40654762D01*
X205742021Y-40654762D02*
X205789640Y-40559524D01*
X205789640Y-40559524D02*
X205837259Y-40511905D01*
X205837259Y-40511905D02*
X205932497Y-40464286D01*
X168261069Y-77135714D02*
X167261069Y-77135714D01*
X167261069Y-77135714D02*
X167261069Y-77373809D01*
X167261069Y-77373809D02*
X167308688Y-77516666D01*
X167308688Y-77516666D02*
X167403926Y-77611904D01*
X167403926Y-77611904D02*
X167499164Y-77659523D01*
X167499164Y-77659523D02*
X167689640Y-77707142D01*
X167689640Y-77707142D02*
X167832497Y-77707142D01*
X167832497Y-77707142D02*
X168022973Y-77659523D01*
X168022973Y-77659523D02*
X168118211Y-77611904D01*
X168118211Y-77611904D02*
X168213450Y-77516666D01*
X168213450Y-77516666D02*
X168261069Y-77373809D01*
X168261069Y-77373809D02*
X168261069Y-77135714D01*
X167261069Y-78040476D02*
X167261069Y-78659523D01*
X167261069Y-78659523D02*
X167642021Y-78326190D01*
X167642021Y-78326190D02*
X167642021Y-78469047D01*
X167642021Y-78469047D02*
X167689640Y-78564285D01*
X167689640Y-78564285D02*
X167737259Y-78611904D01*
X167737259Y-78611904D02*
X167832497Y-78659523D01*
X167832497Y-78659523D02*
X168070592Y-78659523D01*
X168070592Y-78659523D02*
X168165830Y-78611904D01*
X168165830Y-78611904D02*
X168213450Y-78564285D01*
X168213450Y-78564285D02*
X168261069Y-78469047D01*
X168261069Y-78469047D02*
X168261069Y-78183333D01*
X168261069Y-78183333D02*
X168213450Y-78088095D01*
X168213450Y-78088095D02*
X168165830Y-78040476D01*
X167594402Y-79516666D02*
X168261069Y-79516666D01*
X167213450Y-79278571D02*
X167927735Y-79040476D01*
X167927735Y-79040476D02*
X167927735Y-79659523D01*
X123017319Y-77135714D02*
X122017319Y-77135714D01*
X122017319Y-77135714D02*
X122017319Y-77373809D01*
X122017319Y-77373809D02*
X122064938Y-77516666D01*
X122064938Y-77516666D02*
X122160176Y-77611904D01*
X122160176Y-77611904D02*
X122255414Y-77659523D01*
X122255414Y-77659523D02*
X122445890Y-77707142D01*
X122445890Y-77707142D02*
X122588747Y-77707142D01*
X122588747Y-77707142D02*
X122779223Y-77659523D01*
X122779223Y-77659523D02*
X122874461Y-77611904D01*
X122874461Y-77611904D02*
X122969700Y-77516666D01*
X122969700Y-77516666D02*
X123017319Y-77373809D01*
X123017319Y-77373809D02*
X123017319Y-77135714D01*
X122017319Y-78040476D02*
X122017319Y-78659523D01*
X122017319Y-78659523D02*
X122398271Y-78326190D01*
X122398271Y-78326190D02*
X122398271Y-78469047D01*
X122398271Y-78469047D02*
X122445890Y-78564285D01*
X122445890Y-78564285D02*
X122493509Y-78611904D01*
X122493509Y-78611904D02*
X122588747Y-78659523D01*
X122588747Y-78659523D02*
X122826842Y-78659523D01*
X122826842Y-78659523D02*
X122922080Y-78611904D01*
X122922080Y-78611904D02*
X122969700Y-78564285D01*
X122969700Y-78564285D02*
X123017319Y-78469047D01*
X123017319Y-78469047D02*
X123017319Y-78183333D01*
X123017319Y-78183333D02*
X122969700Y-78088095D01*
X122969700Y-78088095D02*
X122922080Y-78040476D01*
X122112557Y-79040476D02*
X122064938Y-79088095D01*
X122064938Y-79088095D02*
X122017319Y-79183333D01*
X122017319Y-79183333D02*
X122017319Y-79421428D01*
X122017319Y-79421428D02*
X122064938Y-79516666D01*
X122064938Y-79516666D02*
X122112557Y-79564285D01*
X122112557Y-79564285D02*
X122207795Y-79611904D01*
X122207795Y-79611904D02*
X122303033Y-79611904D01*
X122303033Y-79611904D02*
X122445890Y-79564285D01*
X122445890Y-79564285D02*
X123017319Y-78992857D01*
X123017319Y-78992857D02*
X123017319Y-79611904D01*
X346854819Y-96185714D02*
X345854819Y-96185714D01*
X345854819Y-96185714D02*
X345854819Y-96423809D01*
X345854819Y-96423809D02*
X345902438Y-96566666D01*
X345902438Y-96566666D02*
X345997676Y-96661904D01*
X345997676Y-96661904D02*
X346092914Y-96709523D01*
X346092914Y-96709523D02*
X346283390Y-96757142D01*
X346283390Y-96757142D02*
X346426247Y-96757142D01*
X346426247Y-96757142D02*
X346616723Y-96709523D01*
X346616723Y-96709523D02*
X346711961Y-96661904D01*
X346711961Y-96661904D02*
X346807200Y-96566666D01*
X346807200Y-96566666D02*
X346854819Y-96423809D01*
X346854819Y-96423809D02*
X346854819Y-96185714D01*
X345854819Y-97661904D02*
X345854819Y-97185714D01*
X345854819Y-97185714D02*
X346331009Y-97138095D01*
X346331009Y-97138095D02*
X346283390Y-97185714D01*
X346283390Y-97185714D02*
X346235771Y-97280952D01*
X346235771Y-97280952D02*
X346235771Y-97519047D01*
X346235771Y-97519047D02*
X346283390Y-97614285D01*
X346283390Y-97614285D02*
X346331009Y-97661904D01*
X346331009Y-97661904D02*
X346426247Y-97709523D01*
X346426247Y-97709523D02*
X346664342Y-97709523D01*
X346664342Y-97709523D02*
X346759580Y-97661904D01*
X346759580Y-97661904D02*
X346807200Y-97614285D01*
X346807200Y-97614285D02*
X346854819Y-97519047D01*
X346854819Y-97519047D02*
X346854819Y-97280952D01*
X346854819Y-97280952D02*
X346807200Y-97185714D01*
X346807200Y-97185714D02*
X346759580Y-97138095D01*
X345854819Y-98042857D02*
X345854819Y-98709523D01*
X345854819Y-98709523D02*
X346854819Y-98280952D01*
X301611069Y-77135714D02*
X300611069Y-77135714D01*
X300611069Y-77135714D02*
X300611069Y-77373809D01*
X300611069Y-77373809D02*
X300658688Y-77516666D01*
X300658688Y-77516666D02*
X300753926Y-77611904D01*
X300753926Y-77611904D02*
X300849164Y-77659523D01*
X300849164Y-77659523D02*
X301039640Y-77707142D01*
X301039640Y-77707142D02*
X301182497Y-77707142D01*
X301182497Y-77707142D02*
X301372973Y-77659523D01*
X301372973Y-77659523D02*
X301468211Y-77611904D01*
X301468211Y-77611904D02*
X301563450Y-77516666D01*
X301563450Y-77516666D02*
X301611069Y-77373809D01*
X301611069Y-77373809D02*
X301611069Y-77135714D01*
X300944402Y-78564285D02*
X301611069Y-78564285D01*
X300563450Y-78326190D02*
X301277735Y-78088095D01*
X301277735Y-78088095D02*
X301277735Y-78707142D01*
X301611069Y-79611904D02*
X301611069Y-79040476D01*
X301611069Y-79326190D02*
X300611069Y-79326190D01*
X300611069Y-79326190D02*
X300753926Y-79230952D01*
X300753926Y-79230952D02*
X300849164Y-79135714D01*
X300849164Y-79135714D02*
X300896783Y-79040476D01*
X187311069Y-77135714D02*
X186311069Y-77135714D01*
X186311069Y-77135714D02*
X186311069Y-77373809D01*
X186311069Y-77373809D02*
X186358688Y-77516666D01*
X186358688Y-77516666D02*
X186453926Y-77611904D01*
X186453926Y-77611904D02*
X186549164Y-77659523D01*
X186549164Y-77659523D02*
X186739640Y-77707142D01*
X186739640Y-77707142D02*
X186882497Y-77707142D01*
X186882497Y-77707142D02*
X187072973Y-77659523D01*
X187072973Y-77659523D02*
X187168211Y-77611904D01*
X187168211Y-77611904D02*
X187263450Y-77516666D01*
X187263450Y-77516666D02*
X187311069Y-77373809D01*
X187311069Y-77373809D02*
X187311069Y-77135714D01*
X186311069Y-78040476D02*
X186311069Y-78659523D01*
X186311069Y-78659523D02*
X186692021Y-78326190D01*
X186692021Y-78326190D02*
X186692021Y-78469047D01*
X186692021Y-78469047D02*
X186739640Y-78564285D01*
X186739640Y-78564285D02*
X186787259Y-78611904D01*
X186787259Y-78611904D02*
X186882497Y-78659523D01*
X186882497Y-78659523D02*
X187120592Y-78659523D01*
X187120592Y-78659523D02*
X187215830Y-78611904D01*
X187215830Y-78611904D02*
X187263450Y-78564285D01*
X187263450Y-78564285D02*
X187311069Y-78469047D01*
X187311069Y-78469047D02*
X187311069Y-78183333D01*
X187311069Y-78183333D02*
X187263450Y-78088095D01*
X187263450Y-78088095D02*
X187215830Y-78040476D01*
X186311069Y-79564285D02*
X186311069Y-79088095D01*
X186311069Y-79088095D02*
X186787259Y-79040476D01*
X186787259Y-79040476D02*
X186739640Y-79088095D01*
X186739640Y-79088095D02*
X186692021Y-79183333D01*
X186692021Y-79183333D02*
X186692021Y-79421428D01*
X186692021Y-79421428D02*
X186739640Y-79516666D01*
X186739640Y-79516666D02*
X186787259Y-79564285D01*
X186787259Y-79564285D02*
X186882497Y-79611904D01*
X186882497Y-79611904D02*
X187120592Y-79611904D01*
X187120592Y-79611904D02*
X187215830Y-79564285D01*
X187215830Y-79564285D02*
X187263450Y-79516666D01*
X187263450Y-79516666D02*
X187311069Y-79421428D01*
X187311069Y-79421428D02*
X187311069Y-79183333D01*
X187311069Y-79183333D02*
X187263450Y-79088095D01*
X187263450Y-79088095D02*
X187215830Y-79040476D01*
X320661069Y-96185714D02*
X319661069Y-96185714D01*
X319661069Y-96185714D02*
X319661069Y-96423809D01*
X319661069Y-96423809D02*
X319708688Y-96566666D01*
X319708688Y-96566666D02*
X319803926Y-96661904D01*
X319803926Y-96661904D02*
X319899164Y-96709523D01*
X319899164Y-96709523D02*
X320089640Y-96757142D01*
X320089640Y-96757142D02*
X320232497Y-96757142D01*
X320232497Y-96757142D02*
X320422973Y-96709523D01*
X320422973Y-96709523D02*
X320518211Y-96661904D01*
X320518211Y-96661904D02*
X320613450Y-96566666D01*
X320613450Y-96566666D02*
X320661069Y-96423809D01*
X320661069Y-96423809D02*
X320661069Y-96185714D01*
X319661069Y-97661904D02*
X319661069Y-97185714D01*
X319661069Y-97185714D02*
X320137259Y-97138095D01*
X320137259Y-97138095D02*
X320089640Y-97185714D01*
X320089640Y-97185714D02*
X320042021Y-97280952D01*
X320042021Y-97280952D02*
X320042021Y-97519047D01*
X320042021Y-97519047D02*
X320089640Y-97614285D01*
X320089640Y-97614285D02*
X320137259Y-97661904D01*
X320137259Y-97661904D02*
X320232497Y-97709523D01*
X320232497Y-97709523D02*
X320470592Y-97709523D01*
X320470592Y-97709523D02*
X320565830Y-97661904D01*
X320565830Y-97661904D02*
X320613450Y-97614285D01*
X320613450Y-97614285D02*
X320661069Y-97519047D01*
X320661069Y-97519047D02*
X320661069Y-97280952D01*
X320661069Y-97280952D02*
X320613450Y-97185714D01*
X320613450Y-97185714D02*
X320565830Y-97138095D01*
X319661069Y-98566666D02*
X319661069Y-98376190D01*
X319661069Y-98376190D02*
X319708688Y-98280952D01*
X319708688Y-98280952D02*
X319756307Y-98233333D01*
X319756307Y-98233333D02*
X319899164Y-98138095D01*
X319899164Y-98138095D02*
X320089640Y-98090476D01*
X320089640Y-98090476D02*
X320470592Y-98090476D01*
X320470592Y-98090476D02*
X320565830Y-98138095D01*
X320565830Y-98138095D02*
X320613450Y-98185714D01*
X320613450Y-98185714D02*
X320661069Y-98280952D01*
X320661069Y-98280952D02*
X320661069Y-98471428D01*
X320661069Y-98471428D02*
X320613450Y-98566666D01*
X320613450Y-98566666D02*
X320565830Y-98614285D01*
X320565830Y-98614285D02*
X320470592Y-98661904D01*
X320470592Y-98661904D02*
X320232497Y-98661904D01*
X320232497Y-98661904D02*
X320137259Y-98614285D01*
X320137259Y-98614285D02*
X320089640Y-98566666D01*
X320089640Y-98566666D02*
X320042021Y-98471428D01*
X320042021Y-98471428D02*
X320042021Y-98280952D01*
X320042021Y-98280952D02*
X320089640Y-98185714D01*
X320089640Y-98185714D02*
X320137259Y-98138095D01*
X320137259Y-98138095D02*
X320232497Y-98090476D01*
X149211069Y-96185714D02*
X148211069Y-96185714D01*
X148211069Y-96185714D02*
X148211069Y-96423809D01*
X148211069Y-96423809D02*
X148258688Y-96566666D01*
X148258688Y-96566666D02*
X148353926Y-96661904D01*
X148353926Y-96661904D02*
X148449164Y-96709523D01*
X148449164Y-96709523D02*
X148639640Y-96757142D01*
X148639640Y-96757142D02*
X148782497Y-96757142D01*
X148782497Y-96757142D02*
X148972973Y-96709523D01*
X148972973Y-96709523D02*
X149068211Y-96661904D01*
X149068211Y-96661904D02*
X149163450Y-96566666D01*
X149163450Y-96566666D02*
X149211069Y-96423809D01*
X149211069Y-96423809D02*
X149211069Y-96185714D01*
X148544402Y-97614285D02*
X149211069Y-97614285D01*
X148163450Y-97376190D02*
X148877735Y-97138095D01*
X148877735Y-97138095D02*
X148877735Y-97757142D01*
X148211069Y-98042857D02*
X148211069Y-98709523D01*
X148211069Y-98709523D02*
X149211069Y-98280952D01*
X168261069Y-39511905D02*
X167261069Y-39511905D01*
X167261069Y-39511905D02*
X167261069Y-39750000D01*
X167261069Y-39750000D02*
X167308688Y-39892857D01*
X167308688Y-39892857D02*
X167403926Y-39988095D01*
X167403926Y-39988095D02*
X167499164Y-40035714D01*
X167499164Y-40035714D02*
X167689640Y-40083333D01*
X167689640Y-40083333D02*
X167832497Y-40083333D01*
X167832497Y-40083333D02*
X168022973Y-40035714D01*
X168022973Y-40035714D02*
X168118211Y-39988095D01*
X168118211Y-39988095D02*
X168213450Y-39892857D01*
X168213450Y-39892857D02*
X168261069Y-39750000D01*
X168261069Y-39750000D02*
X168261069Y-39511905D01*
X167594402Y-40940476D02*
X168261069Y-40940476D01*
X167213450Y-40702381D02*
X167927735Y-40464286D01*
X167927735Y-40464286D02*
X167927735Y-41083333D01*
X263511069Y-58085714D02*
X262511069Y-58085714D01*
X262511069Y-58085714D02*
X262511069Y-58323809D01*
X262511069Y-58323809D02*
X262558688Y-58466666D01*
X262558688Y-58466666D02*
X262653926Y-58561904D01*
X262653926Y-58561904D02*
X262749164Y-58609523D01*
X262749164Y-58609523D02*
X262939640Y-58657142D01*
X262939640Y-58657142D02*
X263082497Y-58657142D01*
X263082497Y-58657142D02*
X263272973Y-58609523D01*
X263272973Y-58609523D02*
X263368211Y-58561904D01*
X263368211Y-58561904D02*
X263463450Y-58466666D01*
X263463450Y-58466666D02*
X263511069Y-58323809D01*
X263511069Y-58323809D02*
X263511069Y-58085714D01*
X262606307Y-59038095D02*
X262558688Y-59085714D01*
X262558688Y-59085714D02*
X262511069Y-59180952D01*
X262511069Y-59180952D02*
X262511069Y-59419047D01*
X262511069Y-59419047D02*
X262558688Y-59514285D01*
X262558688Y-59514285D02*
X262606307Y-59561904D01*
X262606307Y-59561904D02*
X262701545Y-59609523D01*
X262701545Y-59609523D02*
X262796783Y-59609523D01*
X262796783Y-59609523D02*
X262939640Y-59561904D01*
X262939640Y-59561904D02*
X263511069Y-58990476D01*
X263511069Y-58990476D02*
X263511069Y-59609523D01*
X262844402Y-60466666D02*
X263511069Y-60466666D01*
X262463450Y-60228571D02*
X263177735Y-59990476D01*
X263177735Y-59990476D02*
X263177735Y-60609523D01*
X282561069Y-77135714D02*
X281561069Y-77135714D01*
X281561069Y-77135714D02*
X281561069Y-77373809D01*
X281561069Y-77373809D02*
X281608688Y-77516666D01*
X281608688Y-77516666D02*
X281703926Y-77611904D01*
X281703926Y-77611904D02*
X281799164Y-77659523D01*
X281799164Y-77659523D02*
X281989640Y-77707142D01*
X281989640Y-77707142D02*
X282132497Y-77707142D01*
X282132497Y-77707142D02*
X282322973Y-77659523D01*
X282322973Y-77659523D02*
X282418211Y-77611904D01*
X282418211Y-77611904D02*
X282513450Y-77516666D01*
X282513450Y-77516666D02*
X282561069Y-77373809D01*
X282561069Y-77373809D02*
X282561069Y-77135714D01*
X281894402Y-78564285D02*
X282561069Y-78564285D01*
X281513450Y-78326190D02*
X282227735Y-78088095D01*
X282227735Y-78088095D02*
X282227735Y-78707142D01*
X281561069Y-79278571D02*
X281561069Y-79373809D01*
X281561069Y-79373809D02*
X281608688Y-79469047D01*
X281608688Y-79469047D02*
X281656307Y-79516666D01*
X281656307Y-79516666D02*
X281751545Y-79564285D01*
X281751545Y-79564285D02*
X281942021Y-79611904D01*
X281942021Y-79611904D02*
X282180116Y-79611904D01*
X282180116Y-79611904D02*
X282370592Y-79564285D01*
X282370592Y-79564285D02*
X282465830Y-79516666D01*
X282465830Y-79516666D02*
X282513450Y-79469047D01*
X282513450Y-79469047D02*
X282561069Y-79373809D01*
X282561069Y-79373809D02*
X282561069Y-79278571D01*
X282561069Y-79278571D02*
X282513450Y-79183333D01*
X282513450Y-79183333D02*
X282465830Y-79135714D01*
X282465830Y-79135714D02*
X282370592Y-79088095D01*
X282370592Y-79088095D02*
X282180116Y-79040476D01*
X282180116Y-79040476D02*
X281942021Y-79040476D01*
X281942021Y-79040476D02*
X281751545Y-79088095D01*
X281751545Y-79088095D02*
X281656307Y-79135714D01*
X281656307Y-79135714D02*
X281608688Y-79183333D01*
X281608688Y-79183333D02*
X281561069Y-79278571D01*
X365904819Y-77135714D02*
X364904819Y-77135714D01*
X364904819Y-77135714D02*
X364904819Y-77373809D01*
X364904819Y-77373809D02*
X364952438Y-77516666D01*
X364952438Y-77516666D02*
X365047676Y-77611904D01*
X365047676Y-77611904D02*
X365142914Y-77659523D01*
X365142914Y-77659523D02*
X365333390Y-77707142D01*
X365333390Y-77707142D02*
X365476247Y-77707142D01*
X365476247Y-77707142D02*
X365666723Y-77659523D01*
X365666723Y-77659523D02*
X365761961Y-77611904D01*
X365761961Y-77611904D02*
X365857200Y-77516666D01*
X365857200Y-77516666D02*
X365904819Y-77373809D01*
X365904819Y-77373809D02*
X365904819Y-77135714D01*
X365238152Y-78564285D02*
X365904819Y-78564285D01*
X364857200Y-78326190D02*
X365571485Y-78088095D01*
X365571485Y-78088095D02*
X365571485Y-78707142D01*
X365238152Y-79516666D02*
X365904819Y-79516666D01*
X364857200Y-79278571D02*
X365571485Y-79040476D01*
X365571485Y-79040476D02*
X365571485Y-79659523D01*
X263511069Y-39511905D02*
X262511069Y-39511905D01*
X262511069Y-39511905D02*
X262511069Y-39750000D01*
X262511069Y-39750000D02*
X262558688Y-39892857D01*
X262558688Y-39892857D02*
X262653926Y-39988095D01*
X262653926Y-39988095D02*
X262749164Y-40035714D01*
X262749164Y-40035714D02*
X262939640Y-40083333D01*
X262939640Y-40083333D02*
X263082497Y-40083333D01*
X263082497Y-40083333D02*
X263272973Y-40035714D01*
X263272973Y-40035714D02*
X263368211Y-39988095D01*
X263368211Y-39988095D02*
X263463450Y-39892857D01*
X263463450Y-39892857D02*
X263511069Y-39750000D01*
X263511069Y-39750000D02*
X263511069Y-39511905D01*
X263511069Y-40559524D02*
X263511069Y-40750000D01*
X263511069Y-40750000D02*
X263463450Y-40845238D01*
X263463450Y-40845238D02*
X263415830Y-40892857D01*
X263415830Y-40892857D02*
X263272973Y-40988095D01*
X263272973Y-40988095D02*
X263082497Y-41035714D01*
X263082497Y-41035714D02*
X262701545Y-41035714D01*
X262701545Y-41035714D02*
X262606307Y-40988095D01*
X262606307Y-40988095D02*
X262558688Y-40940476D01*
X262558688Y-40940476D02*
X262511069Y-40845238D01*
X262511069Y-40845238D02*
X262511069Y-40654762D01*
X262511069Y-40654762D02*
X262558688Y-40559524D01*
X262558688Y-40559524D02*
X262606307Y-40511905D01*
X262606307Y-40511905D02*
X262701545Y-40464286D01*
X262701545Y-40464286D02*
X262939640Y-40464286D01*
X262939640Y-40464286D02*
X263034878Y-40511905D01*
X263034878Y-40511905D02*
X263082497Y-40559524D01*
X263082497Y-40559524D02*
X263130116Y-40654762D01*
X263130116Y-40654762D02*
X263130116Y-40845238D01*
X263130116Y-40845238D02*
X263082497Y-40940476D01*
X263082497Y-40940476D02*
X263034878Y-40988095D01*
X263034878Y-40988095D02*
X262939640Y-41035714D01*
X123017319Y-39511905D02*
X122017319Y-39511905D01*
X122017319Y-39511905D02*
X122017319Y-39750000D01*
X122017319Y-39750000D02*
X122064938Y-39892857D01*
X122064938Y-39892857D02*
X122160176Y-39988095D01*
X122160176Y-39988095D02*
X122255414Y-40035714D01*
X122255414Y-40035714D02*
X122445890Y-40083333D01*
X122445890Y-40083333D02*
X122588747Y-40083333D01*
X122588747Y-40083333D02*
X122779223Y-40035714D01*
X122779223Y-40035714D02*
X122874461Y-39988095D01*
X122874461Y-39988095D02*
X122969700Y-39892857D01*
X122969700Y-39892857D02*
X123017319Y-39750000D01*
X123017319Y-39750000D02*
X123017319Y-39511905D01*
X122112557Y-40464286D02*
X122064938Y-40511905D01*
X122064938Y-40511905D02*
X122017319Y-40607143D01*
X122017319Y-40607143D02*
X122017319Y-40845238D01*
X122017319Y-40845238D02*
X122064938Y-40940476D01*
X122064938Y-40940476D02*
X122112557Y-40988095D01*
X122112557Y-40988095D02*
X122207795Y-41035714D01*
X122207795Y-41035714D02*
X122303033Y-41035714D01*
X122303033Y-41035714D02*
X122445890Y-40988095D01*
X122445890Y-40988095D02*
X123017319Y-40416667D01*
X123017319Y-40416667D02*
X123017319Y-41035714D01*
X282561069Y-96185714D02*
X281561069Y-96185714D01*
X281561069Y-96185714D02*
X281561069Y-96423809D01*
X281561069Y-96423809D02*
X281608688Y-96566666D01*
X281608688Y-96566666D02*
X281703926Y-96661904D01*
X281703926Y-96661904D02*
X281799164Y-96709523D01*
X281799164Y-96709523D02*
X281989640Y-96757142D01*
X281989640Y-96757142D02*
X282132497Y-96757142D01*
X282132497Y-96757142D02*
X282322973Y-96709523D01*
X282322973Y-96709523D02*
X282418211Y-96661904D01*
X282418211Y-96661904D02*
X282513450Y-96566666D01*
X282513450Y-96566666D02*
X282561069Y-96423809D01*
X282561069Y-96423809D02*
X282561069Y-96185714D01*
X281561069Y-97661904D02*
X281561069Y-97185714D01*
X281561069Y-97185714D02*
X282037259Y-97138095D01*
X282037259Y-97138095D02*
X281989640Y-97185714D01*
X281989640Y-97185714D02*
X281942021Y-97280952D01*
X281942021Y-97280952D02*
X281942021Y-97519047D01*
X281942021Y-97519047D02*
X281989640Y-97614285D01*
X281989640Y-97614285D02*
X282037259Y-97661904D01*
X282037259Y-97661904D02*
X282132497Y-97709523D01*
X282132497Y-97709523D02*
X282370592Y-97709523D01*
X282370592Y-97709523D02*
X282465830Y-97661904D01*
X282465830Y-97661904D02*
X282513450Y-97614285D01*
X282513450Y-97614285D02*
X282561069Y-97519047D01*
X282561069Y-97519047D02*
X282561069Y-97280952D01*
X282561069Y-97280952D02*
X282513450Y-97185714D01*
X282513450Y-97185714D02*
X282465830Y-97138095D01*
X281894402Y-98566666D02*
X282561069Y-98566666D01*
X281513450Y-98328571D02*
X282227735Y-98090476D01*
X282227735Y-98090476D02*
X282227735Y-98709523D01*
X301611069Y-115235714D02*
X300611069Y-115235714D01*
X300611069Y-115235714D02*
X300611069Y-115473809D01*
X300611069Y-115473809D02*
X300658688Y-115616666D01*
X300658688Y-115616666D02*
X300753926Y-115711904D01*
X300753926Y-115711904D02*
X300849164Y-115759523D01*
X300849164Y-115759523D02*
X301039640Y-115807142D01*
X301039640Y-115807142D02*
X301182497Y-115807142D01*
X301182497Y-115807142D02*
X301372973Y-115759523D01*
X301372973Y-115759523D02*
X301468211Y-115711904D01*
X301468211Y-115711904D02*
X301563450Y-115616666D01*
X301563450Y-115616666D02*
X301611069Y-115473809D01*
X301611069Y-115473809D02*
X301611069Y-115235714D01*
X300611069Y-116664285D02*
X300611069Y-116473809D01*
X300611069Y-116473809D02*
X300658688Y-116378571D01*
X300658688Y-116378571D02*
X300706307Y-116330952D01*
X300706307Y-116330952D02*
X300849164Y-116235714D01*
X300849164Y-116235714D02*
X301039640Y-116188095D01*
X301039640Y-116188095D02*
X301420592Y-116188095D01*
X301420592Y-116188095D02*
X301515830Y-116235714D01*
X301515830Y-116235714D02*
X301563450Y-116283333D01*
X301563450Y-116283333D02*
X301611069Y-116378571D01*
X301611069Y-116378571D02*
X301611069Y-116569047D01*
X301611069Y-116569047D02*
X301563450Y-116664285D01*
X301563450Y-116664285D02*
X301515830Y-116711904D01*
X301515830Y-116711904D02*
X301420592Y-116759523D01*
X301420592Y-116759523D02*
X301182497Y-116759523D01*
X301182497Y-116759523D02*
X301087259Y-116711904D01*
X301087259Y-116711904D02*
X301039640Y-116664285D01*
X301039640Y-116664285D02*
X300992021Y-116569047D01*
X300992021Y-116569047D02*
X300992021Y-116378571D01*
X300992021Y-116378571D02*
X301039640Y-116283333D01*
X301039640Y-116283333D02*
X301087259Y-116235714D01*
X301087259Y-116235714D02*
X301182497Y-116188095D01*
X300611069Y-117664285D02*
X300611069Y-117188095D01*
X300611069Y-117188095D02*
X301087259Y-117140476D01*
X301087259Y-117140476D02*
X301039640Y-117188095D01*
X301039640Y-117188095D02*
X300992021Y-117283333D01*
X300992021Y-117283333D02*
X300992021Y-117521428D01*
X300992021Y-117521428D02*
X301039640Y-117616666D01*
X301039640Y-117616666D02*
X301087259Y-117664285D01*
X301087259Y-117664285D02*
X301182497Y-117711904D01*
X301182497Y-117711904D02*
X301420592Y-117711904D01*
X301420592Y-117711904D02*
X301515830Y-117664285D01*
X301515830Y-117664285D02*
X301563450Y-117616666D01*
X301563450Y-117616666D02*
X301611069Y-117521428D01*
X301611069Y-117521428D02*
X301611069Y-117283333D01*
X301611069Y-117283333D02*
X301563450Y-117188095D01*
X301563450Y-117188095D02*
X301515830Y-117140476D01*
X282561069Y-115235714D02*
X281561069Y-115235714D01*
X281561069Y-115235714D02*
X281561069Y-115473809D01*
X281561069Y-115473809D02*
X281608688Y-115616666D01*
X281608688Y-115616666D02*
X281703926Y-115711904D01*
X281703926Y-115711904D02*
X281799164Y-115759523D01*
X281799164Y-115759523D02*
X281989640Y-115807142D01*
X281989640Y-115807142D02*
X282132497Y-115807142D01*
X282132497Y-115807142D02*
X282322973Y-115759523D01*
X282322973Y-115759523D02*
X282418211Y-115711904D01*
X282418211Y-115711904D02*
X282513450Y-115616666D01*
X282513450Y-115616666D02*
X282561069Y-115473809D01*
X282561069Y-115473809D02*
X282561069Y-115235714D01*
X281561069Y-116664285D02*
X281561069Y-116473809D01*
X281561069Y-116473809D02*
X281608688Y-116378571D01*
X281608688Y-116378571D02*
X281656307Y-116330952D01*
X281656307Y-116330952D02*
X281799164Y-116235714D01*
X281799164Y-116235714D02*
X281989640Y-116188095D01*
X281989640Y-116188095D02*
X282370592Y-116188095D01*
X282370592Y-116188095D02*
X282465830Y-116235714D01*
X282465830Y-116235714D02*
X282513450Y-116283333D01*
X282513450Y-116283333D02*
X282561069Y-116378571D01*
X282561069Y-116378571D02*
X282561069Y-116569047D01*
X282561069Y-116569047D02*
X282513450Y-116664285D01*
X282513450Y-116664285D02*
X282465830Y-116711904D01*
X282465830Y-116711904D02*
X282370592Y-116759523D01*
X282370592Y-116759523D02*
X282132497Y-116759523D01*
X282132497Y-116759523D02*
X282037259Y-116711904D01*
X282037259Y-116711904D02*
X281989640Y-116664285D01*
X281989640Y-116664285D02*
X281942021Y-116569047D01*
X281942021Y-116569047D02*
X281942021Y-116378571D01*
X281942021Y-116378571D02*
X281989640Y-116283333D01*
X281989640Y-116283333D02*
X282037259Y-116235714D01*
X282037259Y-116235714D02*
X282132497Y-116188095D01*
X281894402Y-117616666D02*
X282561069Y-117616666D01*
X281513450Y-117378571D02*
X282227735Y-117140476D01*
X282227735Y-117140476D02*
X282227735Y-117759523D01*
X123017319Y-115235714D02*
X122017319Y-115235714D01*
X122017319Y-115235714D02*
X122017319Y-115473809D01*
X122017319Y-115473809D02*
X122064938Y-115616666D01*
X122064938Y-115616666D02*
X122160176Y-115711904D01*
X122160176Y-115711904D02*
X122255414Y-115759523D01*
X122255414Y-115759523D02*
X122445890Y-115807142D01*
X122445890Y-115807142D02*
X122588747Y-115807142D01*
X122588747Y-115807142D02*
X122779223Y-115759523D01*
X122779223Y-115759523D02*
X122874461Y-115711904D01*
X122874461Y-115711904D02*
X122969700Y-115616666D01*
X122969700Y-115616666D02*
X123017319Y-115473809D01*
X123017319Y-115473809D02*
X123017319Y-115235714D01*
X122017319Y-116711904D02*
X122017319Y-116235714D01*
X122017319Y-116235714D02*
X122493509Y-116188095D01*
X122493509Y-116188095D02*
X122445890Y-116235714D01*
X122445890Y-116235714D02*
X122398271Y-116330952D01*
X122398271Y-116330952D02*
X122398271Y-116569047D01*
X122398271Y-116569047D02*
X122445890Y-116664285D01*
X122445890Y-116664285D02*
X122493509Y-116711904D01*
X122493509Y-116711904D02*
X122588747Y-116759523D01*
X122588747Y-116759523D02*
X122826842Y-116759523D01*
X122826842Y-116759523D02*
X122922080Y-116711904D01*
X122922080Y-116711904D02*
X122969700Y-116664285D01*
X122969700Y-116664285D02*
X123017319Y-116569047D01*
X123017319Y-116569047D02*
X123017319Y-116330952D01*
X123017319Y-116330952D02*
X122969700Y-116235714D01*
X122969700Y-116235714D02*
X122922080Y-116188095D01*
X123017319Y-117235714D02*
X123017319Y-117426190D01*
X123017319Y-117426190D02*
X122969700Y-117521428D01*
X122969700Y-117521428D02*
X122922080Y-117569047D01*
X122922080Y-117569047D02*
X122779223Y-117664285D01*
X122779223Y-117664285D02*
X122588747Y-117711904D01*
X122588747Y-117711904D02*
X122207795Y-117711904D01*
X122207795Y-117711904D02*
X122112557Y-117664285D01*
X122112557Y-117664285D02*
X122064938Y-117616666D01*
X122064938Y-117616666D02*
X122017319Y-117521428D01*
X122017319Y-117521428D02*
X122017319Y-117330952D01*
X122017319Y-117330952D02*
X122064938Y-117235714D01*
X122064938Y-117235714D02*
X122112557Y-117188095D01*
X122112557Y-117188095D02*
X122207795Y-117140476D01*
X122207795Y-117140476D02*
X122445890Y-117140476D01*
X122445890Y-117140476D02*
X122541128Y-117188095D01*
X122541128Y-117188095D02*
X122588747Y-117235714D01*
X122588747Y-117235714D02*
X122636366Y-117330952D01*
X122636366Y-117330952D02*
X122636366Y-117521428D01*
X122636366Y-117521428D02*
X122588747Y-117616666D01*
X122588747Y-117616666D02*
X122541128Y-117664285D01*
X122541128Y-117664285D02*
X122445890Y-117711904D01*
X344473569Y-119998214D02*
X343473569Y-119998214D01*
X343473569Y-119998214D02*
X343473569Y-120236309D01*
X343473569Y-120236309D02*
X343521188Y-120379166D01*
X343521188Y-120379166D02*
X343616426Y-120474404D01*
X343616426Y-120474404D02*
X343711664Y-120522023D01*
X343711664Y-120522023D02*
X343902140Y-120569642D01*
X343902140Y-120569642D02*
X344044997Y-120569642D01*
X344044997Y-120569642D02*
X344235473Y-120522023D01*
X344235473Y-120522023D02*
X344330711Y-120474404D01*
X344330711Y-120474404D02*
X344425950Y-120379166D01*
X344425950Y-120379166D02*
X344473569Y-120236309D01*
X344473569Y-120236309D02*
X344473569Y-119998214D01*
X343473569Y-121426785D02*
X343473569Y-121236309D01*
X343473569Y-121236309D02*
X343521188Y-121141071D01*
X343521188Y-121141071D02*
X343568807Y-121093452D01*
X343568807Y-121093452D02*
X343711664Y-120998214D01*
X343711664Y-120998214D02*
X343902140Y-120950595D01*
X343902140Y-120950595D02*
X344283092Y-120950595D01*
X344283092Y-120950595D02*
X344378330Y-120998214D01*
X344378330Y-120998214D02*
X344425950Y-121045833D01*
X344425950Y-121045833D02*
X344473569Y-121141071D01*
X344473569Y-121141071D02*
X344473569Y-121331547D01*
X344473569Y-121331547D02*
X344425950Y-121426785D01*
X344425950Y-121426785D02*
X344378330Y-121474404D01*
X344378330Y-121474404D02*
X344283092Y-121522023D01*
X344283092Y-121522023D02*
X344044997Y-121522023D01*
X344044997Y-121522023D02*
X343949759Y-121474404D01*
X343949759Y-121474404D02*
X343902140Y-121426785D01*
X343902140Y-121426785D02*
X343854521Y-121331547D01*
X343854521Y-121331547D02*
X343854521Y-121141071D01*
X343854521Y-121141071D02*
X343902140Y-121045833D01*
X343902140Y-121045833D02*
X343949759Y-120998214D01*
X343949759Y-120998214D02*
X344044997Y-120950595D01*
X343473569Y-121855357D02*
X343473569Y-122522023D01*
X343473569Y-122522023D02*
X344473569Y-122093452D01*
X206361069Y-58085714D02*
X205361069Y-58085714D01*
X205361069Y-58085714D02*
X205361069Y-58323809D01*
X205361069Y-58323809D02*
X205408688Y-58466666D01*
X205408688Y-58466666D02*
X205503926Y-58561904D01*
X205503926Y-58561904D02*
X205599164Y-58609523D01*
X205599164Y-58609523D02*
X205789640Y-58657142D01*
X205789640Y-58657142D02*
X205932497Y-58657142D01*
X205932497Y-58657142D02*
X206122973Y-58609523D01*
X206122973Y-58609523D02*
X206218211Y-58561904D01*
X206218211Y-58561904D02*
X206313450Y-58466666D01*
X206313450Y-58466666D02*
X206361069Y-58323809D01*
X206361069Y-58323809D02*
X206361069Y-58085714D01*
X205456307Y-59038095D02*
X205408688Y-59085714D01*
X205408688Y-59085714D02*
X205361069Y-59180952D01*
X205361069Y-59180952D02*
X205361069Y-59419047D01*
X205361069Y-59419047D02*
X205408688Y-59514285D01*
X205408688Y-59514285D02*
X205456307Y-59561904D01*
X205456307Y-59561904D02*
X205551545Y-59609523D01*
X205551545Y-59609523D02*
X205646783Y-59609523D01*
X205646783Y-59609523D02*
X205789640Y-59561904D01*
X205789640Y-59561904D02*
X206361069Y-58990476D01*
X206361069Y-58990476D02*
X206361069Y-59609523D01*
X206361069Y-60561904D02*
X206361069Y-59990476D01*
X206361069Y-60276190D02*
X205361069Y-60276190D01*
X205361069Y-60276190D02*
X205503926Y-60180952D01*
X205503926Y-60180952D02*
X205599164Y-60085714D01*
X205599164Y-60085714D02*
X205646783Y-59990476D01*
X320661069Y-58085714D02*
X319661069Y-58085714D01*
X319661069Y-58085714D02*
X319661069Y-58323809D01*
X319661069Y-58323809D02*
X319708688Y-58466666D01*
X319708688Y-58466666D02*
X319803926Y-58561904D01*
X319803926Y-58561904D02*
X319899164Y-58609523D01*
X319899164Y-58609523D02*
X320089640Y-58657142D01*
X320089640Y-58657142D02*
X320232497Y-58657142D01*
X320232497Y-58657142D02*
X320422973Y-58609523D01*
X320422973Y-58609523D02*
X320518211Y-58561904D01*
X320518211Y-58561904D02*
X320613450Y-58466666D01*
X320613450Y-58466666D02*
X320661069Y-58323809D01*
X320661069Y-58323809D02*
X320661069Y-58085714D01*
X319756307Y-59038095D02*
X319708688Y-59085714D01*
X319708688Y-59085714D02*
X319661069Y-59180952D01*
X319661069Y-59180952D02*
X319661069Y-59419047D01*
X319661069Y-59419047D02*
X319708688Y-59514285D01*
X319708688Y-59514285D02*
X319756307Y-59561904D01*
X319756307Y-59561904D02*
X319851545Y-59609523D01*
X319851545Y-59609523D02*
X319946783Y-59609523D01*
X319946783Y-59609523D02*
X320089640Y-59561904D01*
X320089640Y-59561904D02*
X320661069Y-58990476D01*
X320661069Y-58990476D02*
X320661069Y-59609523D01*
X319661069Y-59942857D02*
X319661069Y-60609523D01*
X319661069Y-60609523D02*
X320661069Y-60180952D01*
X263511069Y-96185714D02*
X262511069Y-96185714D01*
X262511069Y-96185714D02*
X262511069Y-96423809D01*
X262511069Y-96423809D02*
X262558688Y-96566666D01*
X262558688Y-96566666D02*
X262653926Y-96661904D01*
X262653926Y-96661904D02*
X262749164Y-96709523D01*
X262749164Y-96709523D02*
X262939640Y-96757142D01*
X262939640Y-96757142D02*
X263082497Y-96757142D01*
X263082497Y-96757142D02*
X263272973Y-96709523D01*
X263272973Y-96709523D02*
X263368211Y-96661904D01*
X263368211Y-96661904D02*
X263463450Y-96566666D01*
X263463450Y-96566666D02*
X263511069Y-96423809D01*
X263511069Y-96423809D02*
X263511069Y-96185714D01*
X262511069Y-97661904D02*
X262511069Y-97185714D01*
X262511069Y-97185714D02*
X262987259Y-97138095D01*
X262987259Y-97138095D02*
X262939640Y-97185714D01*
X262939640Y-97185714D02*
X262892021Y-97280952D01*
X262892021Y-97280952D02*
X262892021Y-97519047D01*
X262892021Y-97519047D02*
X262939640Y-97614285D01*
X262939640Y-97614285D02*
X262987259Y-97661904D01*
X262987259Y-97661904D02*
X263082497Y-97709523D01*
X263082497Y-97709523D02*
X263320592Y-97709523D01*
X263320592Y-97709523D02*
X263415830Y-97661904D01*
X263415830Y-97661904D02*
X263463450Y-97614285D01*
X263463450Y-97614285D02*
X263511069Y-97519047D01*
X263511069Y-97519047D02*
X263511069Y-97280952D01*
X263511069Y-97280952D02*
X263463450Y-97185714D01*
X263463450Y-97185714D02*
X263415830Y-97138095D01*
X262511069Y-98042857D02*
X262511069Y-98661904D01*
X262511069Y-98661904D02*
X262892021Y-98328571D01*
X262892021Y-98328571D02*
X262892021Y-98471428D01*
X262892021Y-98471428D02*
X262939640Y-98566666D01*
X262939640Y-98566666D02*
X262987259Y-98614285D01*
X262987259Y-98614285D02*
X263082497Y-98661904D01*
X263082497Y-98661904D02*
X263320592Y-98661904D01*
X263320592Y-98661904D02*
X263415830Y-98614285D01*
X263415830Y-98614285D02*
X263463450Y-98566666D01*
X263463450Y-98566666D02*
X263511069Y-98471428D01*
X263511069Y-98471428D02*
X263511069Y-98185714D01*
X263511069Y-98185714D02*
X263463450Y-98090476D01*
X263463450Y-98090476D02*
X263415830Y-98042857D01*
X244461069Y-96185714D02*
X243461069Y-96185714D01*
X243461069Y-96185714D02*
X243461069Y-96423809D01*
X243461069Y-96423809D02*
X243508688Y-96566666D01*
X243508688Y-96566666D02*
X243603926Y-96661904D01*
X243603926Y-96661904D02*
X243699164Y-96709523D01*
X243699164Y-96709523D02*
X243889640Y-96757142D01*
X243889640Y-96757142D02*
X244032497Y-96757142D01*
X244032497Y-96757142D02*
X244222973Y-96709523D01*
X244222973Y-96709523D02*
X244318211Y-96661904D01*
X244318211Y-96661904D02*
X244413450Y-96566666D01*
X244413450Y-96566666D02*
X244461069Y-96423809D01*
X244461069Y-96423809D02*
X244461069Y-96185714D01*
X243461069Y-97661904D02*
X243461069Y-97185714D01*
X243461069Y-97185714D02*
X243937259Y-97138095D01*
X243937259Y-97138095D02*
X243889640Y-97185714D01*
X243889640Y-97185714D02*
X243842021Y-97280952D01*
X243842021Y-97280952D02*
X243842021Y-97519047D01*
X243842021Y-97519047D02*
X243889640Y-97614285D01*
X243889640Y-97614285D02*
X243937259Y-97661904D01*
X243937259Y-97661904D02*
X244032497Y-97709523D01*
X244032497Y-97709523D02*
X244270592Y-97709523D01*
X244270592Y-97709523D02*
X244365830Y-97661904D01*
X244365830Y-97661904D02*
X244413450Y-97614285D01*
X244413450Y-97614285D02*
X244461069Y-97519047D01*
X244461069Y-97519047D02*
X244461069Y-97280952D01*
X244461069Y-97280952D02*
X244413450Y-97185714D01*
X244413450Y-97185714D02*
X244365830Y-97138095D01*
X243556307Y-98090476D02*
X243508688Y-98138095D01*
X243508688Y-98138095D02*
X243461069Y-98233333D01*
X243461069Y-98233333D02*
X243461069Y-98471428D01*
X243461069Y-98471428D02*
X243508688Y-98566666D01*
X243508688Y-98566666D02*
X243556307Y-98614285D01*
X243556307Y-98614285D02*
X243651545Y-98661904D01*
X243651545Y-98661904D02*
X243746783Y-98661904D01*
X243746783Y-98661904D02*
X243889640Y-98614285D01*
X243889640Y-98614285D02*
X244461069Y-98042857D01*
X244461069Y-98042857D02*
X244461069Y-98661904D01*
X89679819Y-77135714D02*
X88679819Y-77135714D01*
X88679819Y-77135714D02*
X88679819Y-77373809D01*
X88679819Y-77373809D02*
X88727438Y-77516666D01*
X88727438Y-77516666D02*
X88822676Y-77611904D01*
X88822676Y-77611904D02*
X88917914Y-77659523D01*
X88917914Y-77659523D02*
X89108390Y-77707142D01*
X89108390Y-77707142D02*
X89251247Y-77707142D01*
X89251247Y-77707142D02*
X89441723Y-77659523D01*
X89441723Y-77659523D02*
X89536961Y-77611904D01*
X89536961Y-77611904D02*
X89632200Y-77516666D01*
X89632200Y-77516666D02*
X89679819Y-77373809D01*
X89679819Y-77373809D02*
X89679819Y-77135714D01*
X88679819Y-78040476D02*
X88679819Y-78659523D01*
X88679819Y-78659523D02*
X89060771Y-78326190D01*
X89060771Y-78326190D02*
X89060771Y-78469047D01*
X89060771Y-78469047D02*
X89108390Y-78564285D01*
X89108390Y-78564285D02*
X89156009Y-78611904D01*
X89156009Y-78611904D02*
X89251247Y-78659523D01*
X89251247Y-78659523D02*
X89489342Y-78659523D01*
X89489342Y-78659523D02*
X89584580Y-78611904D01*
X89584580Y-78611904D02*
X89632200Y-78564285D01*
X89632200Y-78564285D02*
X89679819Y-78469047D01*
X89679819Y-78469047D02*
X89679819Y-78183333D01*
X89679819Y-78183333D02*
X89632200Y-78088095D01*
X89632200Y-78088095D02*
X89584580Y-78040476D01*
X89679819Y-79611904D02*
X89679819Y-79040476D01*
X89679819Y-79326190D02*
X88679819Y-79326190D01*
X88679819Y-79326190D02*
X88822676Y-79230952D01*
X88822676Y-79230952D02*
X88917914Y-79135714D01*
X88917914Y-79135714D02*
X88965533Y-79040476D01*
X244461069Y-77135714D02*
X243461069Y-77135714D01*
X243461069Y-77135714D02*
X243461069Y-77373809D01*
X243461069Y-77373809D02*
X243508688Y-77516666D01*
X243508688Y-77516666D02*
X243603926Y-77611904D01*
X243603926Y-77611904D02*
X243699164Y-77659523D01*
X243699164Y-77659523D02*
X243889640Y-77707142D01*
X243889640Y-77707142D02*
X244032497Y-77707142D01*
X244032497Y-77707142D02*
X244222973Y-77659523D01*
X244222973Y-77659523D02*
X244318211Y-77611904D01*
X244318211Y-77611904D02*
X244413450Y-77516666D01*
X244413450Y-77516666D02*
X244461069Y-77373809D01*
X244461069Y-77373809D02*
X244461069Y-77135714D01*
X243461069Y-78040476D02*
X243461069Y-78659523D01*
X243461069Y-78659523D02*
X243842021Y-78326190D01*
X243842021Y-78326190D02*
X243842021Y-78469047D01*
X243842021Y-78469047D02*
X243889640Y-78564285D01*
X243889640Y-78564285D02*
X243937259Y-78611904D01*
X243937259Y-78611904D02*
X244032497Y-78659523D01*
X244032497Y-78659523D02*
X244270592Y-78659523D01*
X244270592Y-78659523D02*
X244365830Y-78611904D01*
X244365830Y-78611904D02*
X244413450Y-78564285D01*
X244413450Y-78564285D02*
X244461069Y-78469047D01*
X244461069Y-78469047D02*
X244461069Y-78183333D01*
X244461069Y-78183333D02*
X244413450Y-78088095D01*
X244413450Y-78088095D02*
X244365830Y-78040476D01*
X243889640Y-79230952D02*
X243842021Y-79135714D01*
X243842021Y-79135714D02*
X243794402Y-79088095D01*
X243794402Y-79088095D02*
X243699164Y-79040476D01*
X243699164Y-79040476D02*
X243651545Y-79040476D01*
X243651545Y-79040476D02*
X243556307Y-79088095D01*
X243556307Y-79088095D02*
X243508688Y-79135714D01*
X243508688Y-79135714D02*
X243461069Y-79230952D01*
X243461069Y-79230952D02*
X243461069Y-79421428D01*
X243461069Y-79421428D02*
X243508688Y-79516666D01*
X243508688Y-79516666D02*
X243556307Y-79564285D01*
X243556307Y-79564285D02*
X243651545Y-79611904D01*
X243651545Y-79611904D02*
X243699164Y-79611904D01*
X243699164Y-79611904D02*
X243794402Y-79564285D01*
X243794402Y-79564285D02*
X243842021Y-79516666D01*
X243842021Y-79516666D02*
X243889640Y-79421428D01*
X243889640Y-79421428D02*
X243889640Y-79230952D01*
X243889640Y-79230952D02*
X243937259Y-79135714D01*
X243937259Y-79135714D02*
X243984878Y-79088095D01*
X243984878Y-79088095D02*
X244080116Y-79040476D01*
X244080116Y-79040476D02*
X244270592Y-79040476D01*
X244270592Y-79040476D02*
X244365830Y-79088095D01*
X244365830Y-79088095D02*
X244413450Y-79135714D01*
X244413450Y-79135714D02*
X244461069Y-79230952D01*
X244461069Y-79230952D02*
X244461069Y-79421428D01*
X244461069Y-79421428D02*
X244413450Y-79516666D01*
X244413450Y-79516666D02*
X244365830Y-79564285D01*
X244365830Y-79564285D02*
X244270592Y-79611904D01*
X244270592Y-79611904D02*
X244080116Y-79611904D01*
X244080116Y-79611904D02*
X243984878Y-79564285D01*
X243984878Y-79564285D02*
X243937259Y-79516666D01*
X243937259Y-79516666D02*
X243889640Y-79421428D01*
X358761069Y-39035714D02*
X357761069Y-39035714D01*
X357761069Y-39035714D02*
X357761069Y-39273809D01*
X357761069Y-39273809D02*
X357808688Y-39416666D01*
X357808688Y-39416666D02*
X357903926Y-39511904D01*
X357903926Y-39511904D02*
X357999164Y-39559523D01*
X357999164Y-39559523D02*
X358189640Y-39607142D01*
X358189640Y-39607142D02*
X358332497Y-39607142D01*
X358332497Y-39607142D02*
X358522973Y-39559523D01*
X358522973Y-39559523D02*
X358618211Y-39511904D01*
X358618211Y-39511904D02*
X358713450Y-39416666D01*
X358713450Y-39416666D02*
X358761069Y-39273809D01*
X358761069Y-39273809D02*
X358761069Y-39035714D01*
X358761069Y-40559523D02*
X358761069Y-39988095D01*
X358761069Y-40273809D02*
X357761069Y-40273809D01*
X357761069Y-40273809D02*
X357903926Y-40178571D01*
X357903926Y-40178571D02*
X357999164Y-40083333D01*
X357999164Y-40083333D02*
X358046783Y-39988095D01*
X358094402Y-41416666D02*
X358761069Y-41416666D01*
X357713450Y-41178571D02*
X358427735Y-40940476D01*
X358427735Y-40940476D02*
X358427735Y-41559523D01*
X225411069Y-58085714D02*
X224411069Y-58085714D01*
X224411069Y-58085714D02*
X224411069Y-58323809D01*
X224411069Y-58323809D02*
X224458688Y-58466666D01*
X224458688Y-58466666D02*
X224553926Y-58561904D01*
X224553926Y-58561904D02*
X224649164Y-58609523D01*
X224649164Y-58609523D02*
X224839640Y-58657142D01*
X224839640Y-58657142D02*
X224982497Y-58657142D01*
X224982497Y-58657142D02*
X225172973Y-58609523D01*
X225172973Y-58609523D02*
X225268211Y-58561904D01*
X225268211Y-58561904D02*
X225363450Y-58466666D01*
X225363450Y-58466666D02*
X225411069Y-58323809D01*
X225411069Y-58323809D02*
X225411069Y-58085714D01*
X224506307Y-59038095D02*
X224458688Y-59085714D01*
X224458688Y-59085714D02*
X224411069Y-59180952D01*
X224411069Y-59180952D02*
X224411069Y-59419047D01*
X224411069Y-59419047D02*
X224458688Y-59514285D01*
X224458688Y-59514285D02*
X224506307Y-59561904D01*
X224506307Y-59561904D02*
X224601545Y-59609523D01*
X224601545Y-59609523D02*
X224696783Y-59609523D01*
X224696783Y-59609523D02*
X224839640Y-59561904D01*
X224839640Y-59561904D02*
X225411069Y-58990476D01*
X225411069Y-58990476D02*
X225411069Y-59609523D01*
X224506307Y-59990476D02*
X224458688Y-60038095D01*
X224458688Y-60038095D02*
X224411069Y-60133333D01*
X224411069Y-60133333D02*
X224411069Y-60371428D01*
X224411069Y-60371428D02*
X224458688Y-60466666D01*
X224458688Y-60466666D02*
X224506307Y-60514285D01*
X224506307Y-60514285D02*
X224601545Y-60561904D01*
X224601545Y-60561904D02*
X224696783Y-60561904D01*
X224696783Y-60561904D02*
X224839640Y-60514285D01*
X224839640Y-60514285D02*
X225411069Y-59942857D01*
X225411069Y-59942857D02*
X225411069Y-60561904D01*
X320661069Y-39035714D02*
X319661069Y-39035714D01*
X319661069Y-39035714D02*
X319661069Y-39273809D01*
X319661069Y-39273809D02*
X319708688Y-39416666D01*
X319708688Y-39416666D02*
X319803926Y-39511904D01*
X319803926Y-39511904D02*
X319899164Y-39559523D01*
X319899164Y-39559523D02*
X320089640Y-39607142D01*
X320089640Y-39607142D02*
X320232497Y-39607142D01*
X320232497Y-39607142D02*
X320422973Y-39559523D01*
X320422973Y-39559523D02*
X320518211Y-39511904D01*
X320518211Y-39511904D02*
X320613450Y-39416666D01*
X320613450Y-39416666D02*
X320661069Y-39273809D01*
X320661069Y-39273809D02*
X320661069Y-39035714D01*
X320661069Y-40559523D02*
X320661069Y-39988095D01*
X320661069Y-40273809D02*
X319661069Y-40273809D01*
X319661069Y-40273809D02*
X319803926Y-40178571D01*
X319803926Y-40178571D02*
X319899164Y-40083333D01*
X319899164Y-40083333D02*
X319946783Y-39988095D01*
X319756307Y-40940476D02*
X319708688Y-40988095D01*
X319708688Y-40988095D02*
X319661069Y-41083333D01*
X319661069Y-41083333D02*
X319661069Y-41321428D01*
X319661069Y-41321428D02*
X319708688Y-41416666D01*
X319708688Y-41416666D02*
X319756307Y-41464285D01*
X319756307Y-41464285D02*
X319851545Y-41511904D01*
X319851545Y-41511904D02*
X319946783Y-41511904D01*
X319946783Y-41511904D02*
X320089640Y-41464285D01*
X320089640Y-41464285D02*
X320661069Y-40892857D01*
X320661069Y-40892857D02*
X320661069Y-41511904D01*
X89679819Y-115235714D02*
X88679819Y-115235714D01*
X88679819Y-115235714D02*
X88679819Y-115473809D01*
X88679819Y-115473809D02*
X88727438Y-115616666D01*
X88727438Y-115616666D02*
X88822676Y-115711904D01*
X88822676Y-115711904D02*
X88917914Y-115759523D01*
X88917914Y-115759523D02*
X89108390Y-115807142D01*
X89108390Y-115807142D02*
X89251247Y-115807142D01*
X89251247Y-115807142D02*
X89441723Y-115759523D01*
X89441723Y-115759523D02*
X89536961Y-115711904D01*
X89536961Y-115711904D02*
X89632200Y-115616666D01*
X89632200Y-115616666D02*
X89679819Y-115473809D01*
X89679819Y-115473809D02*
X89679819Y-115235714D01*
X88679819Y-116711904D02*
X88679819Y-116235714D01*
X88679819Y-116235714D02*
X89156009Y-116188095D01*
X89156009Y-116188095D02*
X89108390Y-116235714D01*
X89108390Y-116235714D02*
X89060771Y-116330952D01*
X89060771Y-116330952D02*
X89060771Y-116569047D01*
X89060771Y-116569047D02*
X89108390Y-116664285D01*
X89108390Y-116664285D02*
X89156009Y-116711904D01*
X89156009Y-116711904D02*
X89251247Y-116759523D01*
X89251247Y-116759523D02*
X89489342Y-116759523D01*
X89489342Y-116759523D02*
X89584580Y-116711904D01*
X89584580Y-116711904D02*
X89632200Y-116664285D01*
X89632200Y-116664285D02*
X89679819Y-116569047D01*
X89679819Y-116569047D02*
X89679819Y-116330952D01*
X89679819Y-116330952D02*
X89632200Y-116235714D01*
X89632200Y-116235714D02*
X89584580Y-116188095D01*
X89108390Y-117330952D02*
X89060771Y-117235714D01*
X89060771Y-117235714D02*
X89013152Y-117188095D01*
X89013152Y-117188095D02*
X88917914Y-117140476D01*
X88917914Y-117140476D02*
X88870295Y-117140476D01*
X88870295Y-117140476D02*
X88775057Y-117188095D01*
X88775057Y-117188095D02*
X88727438Y-117235714D01*
X88727438Y-117235714D02*
X88679819Y-117330952D01*
X88679819Y-117330952D02*
X88679819Y-117521428D01*
X88679819Y-117521428D02*
X88727438Y-117616666D01*
X88727438Y-117616666D02*
X88775057Y-117664285D01*
X88775057Y-117664285D02*
X88870295Y-117711904D01*
X88870295Y-117711904D02*
X88917914Y-117711904D01*
X88917914Y-117711904D02*
X89013152Y-117664285D01*
X89013152Y-117664285D02*
X89060771Y-117616666D01*
X89060771Y-117616666D02*
X89108390Y-117521428D01*
X89108390Y-117521428D02*
X89108390Y-117330952D01*
X89108390Y-117330952D02*
X89156009Y-117235714D01*
X89156009Y-117235714D02*
X89203628Y-117188095D01*
X89203628Y-117188095D02*
X89298866Y-117140476D01*
X89298866Y-117140476D02*
X89489342Y-117140476D01*
X89489342Y-117140476D02*
X89584580Y-117188095D01*
X89584580Y-117188095D02*
X89632200Y-117235714D01*
X89632200Y-117235714D02*
X89679819Y-117330952D01*
X89679819Y-117330952D02*
X89679819Y-117521428D01*
X89679819Y-117521428D02*
X89632200Y-117616666D01*
X89632200Y-117616666D02*
X89584580Y-117664285D01*
X89584580Y-117664285D02*
X89489342Y-117711904D01*
X89489342Y-117711904D02*
X89298866Y-117711904D01*
X89298866Y-117711904D02*
X89203628Y-117664285D01*
X89203628Y-117664285D02*
X89156009Y-117616666D01*
X89156009Y-117616666D02*
X89108390Y-117521428D01*
X206361069Y-96185714D02*
X205361069Y-96185714D01*
X205361069Y-96185714D02*
X205361069Y-96423809D01*
X205361069Y-96423809D02*
X205408688Y-96566666D01*
X205408688Y-96566666D02*
X205503926Y-96661904D01*
X205503926Y-96661904D02*
X205599164Y-96709523D01*
X205599164Y-96709523D02*
X205789640Y-96757142D01*
X205789640Y-96757142D02*
X205932497Y-96757142D01*
X205932497Y-96757142D02*
X206122973Y-96709523D01*
X206122973Y-96709523D02*
X206218211Y-96661904D01*
X206218211Y-96661904D02*
X206313450Y-96566666D01*
X206313450Y-96566666D02*
X206361069Y-96423809D01*
X206361069Y-96423809D02*
X206361069Y-96185714D01*
X205361069Y-97661904D02*
X205361069Y-97185714D01*
X205361069Y-97185714D02*
X205837259Y-97138095D01*
X205837259Y-97138095D02*
X205789640Y-97185714D01*
X205789640Y-97185714D02*
X205742021Y-97280952D01*
X205742021Y-97280952D02*
X205742021Y-97519047D01*
X205742021Y-97519047D02*
X205789640Y-97614285D01*
X205789640Y-97614285D02*
X205837259Y-97661904D01*
X205837259Y-97661904D02*
X205932497Y-97709523D01*
X205932497Y-97709523D02*
X206170592Y-97709523D01*
X206170592Y-97709523D02*
X206265830Y-97661904D01*
X206265830Y-97661904D02*
X206313450Y-97614285D01*
X206313450Y-97614285D02*
X206361069Y-97519047D01*
X206361069Y-97519047D02*
X206361069Y-97280952D01*
X206361069Y-97280952D02*
X206313450Y-97185714D01*
X206313450Y-97185714D02*
X206265830Y-97138095D01*
X205361069Y-98328571D02*
X205361069Y-98423809D01*
X205361069Y-98423809D02*
X205408688Y-98519047D01*
X205408688Y-98519047D02*
X205456307Y-98566666D01*
X205456307Y-98566666D02*
X205551545Y-98614285D01*
X205551545Y-98614285D02*
X205742021Y-98661904D01*
X205742021Y-98661904D02*
X205980116Y-98661904D01*
X205980116Y-98661904D02*
X206170592Y-98614285D01*
X206170592Y-98614285D02*
X206265830Y-98566666D01*
X206265830Y-98566666D02*
X206313450Y-98519047D01*
X206313450Y-98519047D02*
X206361069Y-98423809D01*
X206361069Y-98423809D02*
X206361069Y-98328571D01*
X206361069Y-98328571D02*
X206313450Y-98233333D01*
X206313450Y-98233333D02*
X206265830Y-98185714D01*
X206265830Y-98185714D02*
X206170592Y-98138095D01*
X206170592Y-98138095D02*
X205980116Y-98090476D01*
X205980116Y-98090476D02*
X205742021Y-98090476D01*
X205742021Y-98090476D02*
X205551545Y-98138095D01*
X205551545Y-98138095D02*
X205456307Y-98185714D01*
X205456307Y-98185714D02*
X205408688Y-98233333D01*
X205408688Y-98233333D02*
X205361069Y-98328571D01*
X123017319Y-58085714D02*
X122017319Y-58085714D01*
X122017319Y-58085714D02*
X122017319Y-58323809D01*
X122017319Y-58323809D02*
X122064938Y-58466666D01*
X122064938Y-58466666D02*
X122160176Y-58561904D01*
X122160176Y-58561904D02*
X122255414Y-58609523D01*
X122255414Y-58609523D02*
X122445890Y-58657142D01*
X122445890Y-58657142D02*
X122588747Y-58657142D01*
X122588747Y-58657142D02*
X122779223Y-58609523D01*
X122779223Y-58609523D02*
X122874461Y-58561904D01*
X122874461Y-58561904D02*
X122969700Y-58466666D01*
X122969700Y-58466666D02*
X123017319Y-58323809D01*
X123017319Y-58323809D02*
X123017319Y-58085714D01*
X123017319Y-59609523D02*
X123017319Y-59038095D01*
X123017319Y-59323809D02*
X122017319Y-59323809D01*
X122017319Y-59323809D02*
X122160176Y-59228571D01*
X122160176Y-59228571D02*
X122255414Y-59133333D01*
X122255414Y-59133333D02*
X122303033Y-59038095D01*
X122017319Y-59942857D02*
X122017319Y-60609523D01*
X122017319Y-60609523D02*
X123017319Y-60180952D01*
X282561069Y-39035714D02*
X281561069Y-39035714D01*
X281561069Y-39035714D02*
X281561069Y-39273809D01*
X281561069Y-39273809D02*
X281608688Y-39416666D01*
X281608688Y-39416666D02*
X281703926Y-39511904D01*
X281703926Y-39511904D02*
X281799164Y-39559523D01*
X281799164Y-39559523D02*
X281989640Y-39607142D01*
X281989640Y-39607142D02*
X282132497Y-39607142D01*
X282132497Y-39607142D02*
X282322973Y-39559523D01*
X282322973Y-39559523D02*
X282418211Y-39511904D01*
X282418211Y-39511904D02*
X282513450Y-39416666D01*
X282513450Y-39416666D02*
X282561069Y-39273809D01*
X282561069Y-39273809D02*
X282561069Y-39035714D01*
X282561069Y-40559523D02*
X282561069Y-39988095D01*
X282561069Y-40273809D02*
X281561069Y-40273809D01*
X281561069Y-40273809D02*
X281703926Y-40178571D01*
X281703926Y-40178571D02*
X281799164Y-40083333D01*
X281799164Y-40083333D02*
X281846783Y-39988095D01*
X281561069Y-41178571D02*
X281561069Y-41273809D01*
X281561069Y-41273809D02*
X281608688Y-41369047D01*
X281608688Y-41369047D02*
X281656307Y-41416666D01*
X281656307Y-41416666D02*
X281751545Y-41464285D01*
X281751545Y-41464285D02*
X281942021Y-41511904D01*
X281942021Y-41511904D02*
X282180116Y-41511904D01*
X282180116Y-41511904D02*
X282370592Y-41464285D01*
X282370592Y-41464285D02*
X282465830Y-41416666D01*
X282465830Y-41416666D02*
X282513450Y-41369047D01*
X282513450Y-41369047D02*
X282561069Y-41273809D01*
X282561069Y-41273809D02*
X282561069Y-41178571D01*
X282561069Y-41178571D02*
X282513450Y-41083333D01*
X282513450Y-41083333D02*
X282465830Y-41035714D01*
X282465830Y-41035714D02*
X282370592Y-40988095D01*
X282370592Y-40988095D02*
X282180116Y-40940476D01*
X282180116Y-40940476D02*
X281942021Y-40940476D01*
X281942021Y-40940476D02*
X281751545Y-40988095D01*
X281751545Y-40988095D02*
X281656307Y-41035714D01*
X281656307Y-41035714D02*
X281608688Y-41083333D01*
X281608688Y-41083333D02*
X281561069Y-41178571D01*
X339711069Y-77135714D02*
X338711069Y-77135714D01*
X338711069Y-77135714D02*
X338711069Y-77373809D01*
X338711069Y-77373809D02*
X338758688Y-77516666D01*
X338758688Y-77516666D02*
X338853926Y-77611904D01*
X338853926Y-77611904D02*
X338949164Y-77659523D01*
X338949164Y-77659523D02*
X339139640Y-77707142D01*
X339139640Y-77707142D02*
X339282497Y-77707142D01*
X339282497Y-77707142D02*
X339472973Y-77659523D01*
X339472973Y-77659523D02*
X339568211Y-77611904D01*
X339568211Y-77611904D02*
X339663450Y-77516666D01*
X339663450Y-77516666D02*
X339711069Y-77373809D01*
X339711069Y-77373809D02*
X339711069Y-77135714D01*
X339044402Y-78564285D02*
X339711069Y-78564285D01*
X338663450Y-78326190D02*
X339377735Y-78088095D01*
X339377735Y-78088095D02*
X339377735Y-78707142D01*
X338711069Y-78992857D02*
X338711069Y-79611904D01*
X338711069Y-79611904D02*
X339092021Y-79278571D01*
X339092021Y-79278571D02*
X339092021Y-79421428D01*
X339092021Y-79421428D02*
X339139640Y-79516666D01*
X339139640Y-79516666D02*
X339187259Y-79564285D01*
X339187259Y-79564285D02*
X339282497Y-79611904D01*
X339282497Y-79611904D02*
X339520592Y-79611904D01*
X339520592Y-79611904D02*
X339615830Y-79564285D01*
X339615830Y-79564285D02*
X339663450Y-79516666D01*
X339663450Y-79516666D02*
X339711069Y-79421428D01*
X339711069Y-79421428D02*
X339711069Y-79135714D01*
X339711069Y-79135714D02*
X339663450Y-79040476D01*
X339663450Y-79040476D02*
X339615830Y-78992857D01*
X187311069Y-96185714D02*
X186311069Y-96185714D01*
X186311069Y-96185714D02*
X186311069Y-96423809D01*
X186311069Y-96423809D02*
X186358688Y-96566666D01*
X186358688Y-96566666D02*
X186453926Y-96661904D01*
X186453926Y-96661904D02*
X186549164Y-96709523D01*
X186549164Y-96709523D02*
X186739640Y-96757142D01*
X186739640Y-96757142D02*
X186882497Y-96757142D01*
X186882497Y-96757142D02*
X187072973Y-96709523D01*
X187072973Y-96709523D02*
X187168211Y-96661904D01*
X187168211Y-96661904D02*
X187263450Y-96566666D01*
X187263450Y-96566666D02*
X187311069Y-96423809D01*
X187311069Y-96423809D02*
X187311069Y-96185714D01*
X186644402Y-97614285D02*
X187311069Y-97614285D01*
X186263450Y-97376190D02*
X186977735Y-97138095D01*
X186977735Y-97138095D02*
X186977735Y-97757142D01*
X187311069Y-98185714D02*
X187311069Y-98376190D01*
X187311069Y-98376190D02*
X187263450Y-98471428D01*
X187263450Y-98471428D02*
X187215830Y-98519047D01*
X187215830Y-98519047D02*
X187072973Y-98614285D01*
X187072973Y-98614285D02*
X186882497Y-98661904D01*
X186882497Y-98661904D02*
X186501545Y-98661904D01*
X186501545Y-98661904D02*
X186406307Y-98614285D01*
X186406307Y-98614285D02*
X186358688Y-98566666D01*
X186358688Y-98566666D02*
X186311069Y-98471428D01*
X186311069Y-98471428D02*
X186311069Y-98280952D01*
X186311069Y-98280952D02*
X186358688Y-98185714D01*
X186358688Y-98185714D02*
X186406307Y-98138095D01*
X186406307Y-98138095D02*
X186501545Y-98090476D01*
X186501545Y-98090476D02*
X186739640Y-98090476D01*
X186739640Y-98090476D02*
X186834878Y-98138095D01*
X186834878Y-98138095D02*
X186882497Y-98185714D01*
X186882497Y-98185714D02*
X186930116Y-98280952D01*
X186930116Y-98280952D02*
X186930116Y-98471428D01*
X186930116Y-98471428D02*
X186882497Y-98566666D01*
X186882497Y-98566666D02*
X186834878Y-98614285D01*
X186834878Y-98614285D02*
X186739640Y-98661904D01*
X225411069Y-96185714D02*
X224411069Y-96185714D01*
X224411069Y-96185714D02*
X224411069Y-96423809D01*
X224411069Y-96423809D02*
X224458688Y-96566666D01*
X224458688Y-96566666D02*
X224553926Y-96661904D01*
X224553926Y-96661904D02*
X224649164Y-96709523D01*
X224649164Y-96709523D02*
X224839640Y-96757142D01*
X224839640Y-96757142D02*
X224982497Y-96757142D01*
X224982497Y-96757142D02*
X225172973Y-96709523D01*
X225172973Y-96709523D02*
X225268211Y-96661904D01*
X225268211Y-96661904D02*
X225363450Y-96566666D01*
X225363450Y-96566666D02*
X225411069Y-96423809D01*
X225411069Y-96423809D02*
X225411069Y-96185714D01*
X224411069Y-97661904D02*
X224411069Y-97185714D01*
X224411069Y-97185714D02*
X224887259Y-97138095D01*
X224887259Y-97138095D02*
X224839640Y-97185714D01*
X224839640Y-97185714D02*
X224792021Y-97280952D01*
X224792021Y-97280952D02*
X224792021Y-97519047D01*
X224792021Y-97519047D02*
X224839640Y-97614285D01*
X224839640Y-97614285D02*
X224887259Y-97661904D01*
X224887259Y-97661904D02*
X224982497Y-97709523D01*
X224982497Y-97709523D02*
X225220592Y-97709523D01*
X225220592Y-97709523D02*
X225315830Y-97661904D01*
X225315830Y-97661904D02*
X225363450Y-97614285D01*
X225363450Y-97614285D02*
X225411069Y-97519047D01*
X225411069Y-97519047D02*
X225411069Y-97280952D01*
X225411069Y-97280952D02*
X225363450Y-97185714D01*
X225363450Y-97185714D02*
X225315830Y-97138095D01*
X225411069Y-98661904D02*
X225411069Y-98090476D01*
X225411069Y-98376190D02*
X224411069Y-98376190D01*
X224411069Y-98376190D02*
X224553926Y-98280952D01*
X224553926Y-98280952D02*
X224649164Y-98185714D01*
X224649164Y-98185714D02*
X224696783Y-98090476D01*
X149211069Y-39511905D02*
X148211069Y-39511905D01*
X148211069Y-39511905D02*
X148211069Y-39750000D01*
X148211069Y-39750000D02*
X148258688Y-39892857D01*
X148258688Y-39892857D02*
X148353926Y-39988095D01*
X148353926Y-39988095D02*
X148449164Y-40035714D01*
X148449164Y-40035714D02*
X148639640Y-40083333D01*
X148639640Y-40083333D02*
X148782497Y-40083333D01*
X148782497Y-40083333D02*
X148972973Y-40035714D01*
X148972973Y-40035714D02*
X149068211Y-39988095D01*
X149068211Y-39988095D02*
X149163450Y-39892857D01*
X149163450Y-39892857D02*
X149211069Y-39750000D01*
X149211069Y-39750000D02*
X149211069Y-39511905D01*
X148211069Y-40416667D02*
X148211069Y-41035714D01*
X148211069Y-41035714D02*
X148592021Y-40702381D01*
X148592021Y-40702381D02*
X148592021Y-40845238D01*
X148592021Y-40845238D02*
X148639640Y-40940476D01*
X148639640Y-40940476D02*
X148687259Y-40988095D01*
X148687259Y-40988095D02*
X148782497Y-41035714D01*
X148782497Y-41035714D02*
X149020592Y-41035714D01*
X149020592Y-41035714D02*
X149115830Y-40988095D01*
X149115830Y-40988095D02*
X149163450Y-40940476D01*
X149163450Y-40940476D02*
X149211069Y-40845238D01*
X149211069Y-40845238D02*
X149211069Y-40559524D01*
X149211069Y-40559524D02*
X149163450Y-40464286D01*
X149163450Y-40464286D02*
X149115830Y-40416667D01*
X325423569Y-119998214D02*
X324423569Y-119998214D01*
X324423569Y-119998214D02*
X324423569Y-120236309D01*
X324423569Y-120236309D02*
X324471188Y-120379166D01*
X324471188Y-120379166D02*
X324566426Y-120474404D01*
X324566426Y-120474404D02*
X324661664Y-120522023D01*
X324661664Y-120522023D02*
X324852140Y-120569642D01*
X324852140Y-120569642D02*
X324994997Y-120569642D01*
X324994997Y-120569642D02*
X325185473Y-120522023D01*
X325185473Y-120522023D02*
X325280711Y-120474404D01*
X325280711Y-120474404D02*
X325375950Y-120379166D01*
X325375950Y-120379166D02*
X325423569Y-120236309D01*
X325423569Y-120236309D02*
X325423569Y-119998214D01*
X324423569Y-121426785D02*
X324423569Y-121236309D01*
X324423569Y-121236309D02*
X324471188Y-121141071D01*
X324471188Y-121141071D02*
X324518807Y-121093452D01*
X324518807Y-121093452D02*
X324661664Y-120998214D01*
X324661664Y-120998214D02*
X324852140Y-120950595D01*
X324852140Y-120950595D02*
X325233092Y-120950595D01*
X325233092Y-120950595D02*
X325328330Y-120998214D01*
X325328330Y-120998214D02*
X325375950Y-121045833D01*
X325375950Y-121045833D02*
X325423569Y-121141071D01*
X325423569Y-121141071D02*
X325423569Y-121331547D01*
X325423569Y-121331547D02*
X325375950Y-121426785D01*
X325375950Y-121426785D02*
X325328330Y-121474404D01*
X325328330Y-121474404D02*
X325233092Y-121522023D01*
X325233092Y-121522023D02*
X324994997Y-121522023D01*
X324994997Y-121522023D02*
X324899759Y-121474404D01*
X324899759Y-121474404D02*
X324852140Y-121426785D01*
X324852140Y-121426785D02*
X324804521Y-121331547D01*
X324804521Y-121331547D02*
X324804521Y-121141071D01*
X324804521Y-121141071D02*
X324852140Y-121045833D01*
X324852140Y-121045833D02*
X324899759Y-120998214D01*
X324899759Y-120998214D02*
X324994997Y-120950595D01*
X324423569Y-122379166D02*
X324423569Y-122188690D01*
X324423569Y-122188690D02*
X324471188Y-122093452D01*
X324471188Y-122093452D02*
X324518807Y-122045833D01*
X324518807Y-122045833D02*
X324661664Y-121950595D01*
X324661664Y-121950595D02*
X324852140Y-121902976D01*
X324852140Y-121902976D02*
X325233092Y-121902976D01*
X325233092Y-121902976D02*
X325328330Y-121950595D01*
X325328330Y-121950595D02*
X325375950Y-121998214D01*
X325375950Y-121998214D02*
X325423569Y-122093452D01*
X325423569Y-122093452D02*
X325423569Y-122283928D01*
X325423569Y-122283928D02*
X325375950Y-122379166D01*
X325375950Y-122379166D02*
X325328330Y-122426785D01*
X325328330Y-122426785D02*
X325233092Y-122474404D01*
X325233092Y-122474404D02*
X324994997Y-122474404D01*
X324994997Y-122474404D02*
X324899759Y-122426785D01*
X324899759Y-122426785D02*
X324852140Y-122379166D01*
X324852140Y-122379166D02*
X324804521Y-122283928D01*
X324804521Y-122283928D02*
X324804521Y-122093452D01*
X324804521Y-122093452D02*
X324852140Y-121998214D01*
X324852140Y-121998214D02*
X324899759Y-121950595D01*
X324899759Y-121950595D02*
X324994997Y-121902976D01*
X89679819Y-96185714D02*
X88679819Y-96185714D01*
X88679819Y-96185714D02*
X88679819Y-96423809D01*
X88679819Y-96423809D02*
X88727438Y-96566666D01*
X88727438Y-96566666D02*
X88822676Y-96661904D01*
X88822676Y-96661904D02*
X88917914Y-96709523D01*
X88917914Y-96709523D02*
X89108390Y-96757142D01*
X89108390Y-96757142D02*
X89251247Y-96757142D01*
X89251247Y-96757142D02*
X89441723Y-96709523D01*
X89441723Y-96709523D02*
X89536961Y-96661904D01*
X89536961Y-96661904D02*
X89632200Y-96566666D01*
X89632200Y-96566666D02*
X89679819Y-96423809D01*
X89679819Y-96423809D02*
X89679819Y-96185714D01*
X89013152Y-97614285D02*
X89679819Y-97614285D01*
X88632200Y-97376190D02*
X89346485Y-97138095D01*
X89346485Y-97138095D02*
X89346485Y-97757142D01*
X88679819Y-98614285D02*
X88679819Y-98138095D01*
X88679819Y-98138095D02*
X89156009Y-98090476D01*
X89156009Y-98090476D02*
X89108390Y-98138095D01*
X89108390Y-98138095D02*
X89060771Y-98233333D01*
X89060771Y-98233333D02*
X89060771Y-98471428D01*
X89060771Y-98471428D02*
X89108390Y-98566666D01*
X89108390Y-98566666D02*
X89156009Y-98614285D01*
X89156009Y-98614285D02*
X89251247Y-98661904D01*
X89251247Y-98661904D02*
X89489342Y-98661904D01*
X89489342Y-98661904D02*
X89584580Y-98614285D01*
X89584580Y-98614285D02*
X89632200Y-98566666D01*
X89632200Y-98566666D02*
X89679819Y-98471428D01*
X89679819Y-98471428D02*
X89679819Y-98233333D01*
X89679819Y-98233333D02*
X89632200Y-98138095D01*
X89632200Y-98138095D02*
X89584580Y-98090476D01*
X384954819Y-39035714D02*
X383954819Y-39035714D01*
X383954819Y-39035714D02*
X383954819Y-39273809D01*
X383954819Y-39273809D02*
X384002438Y-39416666D01*
X384002438Y-39416666D02*
X384097676Y-39511904D01*
X384097676Y-39511904D02*
X384192914Y-39559523D01*
X384192914Y-39559523D02*
X384383390Y-39607142D01*
X384383390Y-39607142D02*
X384526247Y-39607142D01*
X384526247Y-39607142D02*
X384716723Y-39559523D01*
X384716723Y-39559523D02*
X384811961Y-39511904D01*
X384811961Y-39511904D02*
X384907200Y-39416666D01*
X384907200Y-39416666D02*
X384954819Y-39273809D01*
X384954819Y-39273809D02*
X384954819Y-39035714D01*
X384954819Y-40559523D02*
X384954819Y-39988095D01*
X384954819Y-40273809D02*
X383954819Y-40273809D01*
X383954819Y-40273809D02*
X384097676Y-40178571D01*
X384097676Y-40178571D02*
X384192914Y-40083333D01*
X384192914Y-40083333D02*
X384240533Y-39988095D01*
X383954819Y-41464285D02*
X383954819Y-40988095D01*
X383954819Y-40988095D02*
X384431009Y-40940476D01*
X384431009Y-40940476D02*
X384383390Y-40988095D01*
X384383390Y-40988095D02*
X384335771Y-41083333D01*
X384335771Y-41083333D02*
X384335771Y-41321428D01*
X384335771Y-41321428D02*
X384383390Y-41416666D01*
X384383390Y-41416666D02*
X384431009Y-41464285D01*
X384431009Y-41464285D02*
X384526247Y-41511904D01*
X384526247Y-41511904D02*
X384764342Y-41511904D01*
X384764342Y-41511904D02*
X384859580Y-41464285D01*
X384859580Y-41464285D02*
X384907200Y-41416666D01*
X384907200Y-41416666D02*
X384954819Y-41321428D01*
X384954819Y-41321428D02*
X384954819Y-41083333D01*
X384954819Y-41083333D02*
X384907200Y-40988095D01*
X384907200Y-40988095D02*
X384859580Y-40940476D01*
X320661069Y-77135714D02*
X319661069Y-77135714D01*
X319661069Y-77135714D02*
X319661069Y-77373809D01*
X319661069Y-77373809D02*
X319708688Y-77516666D01*
X319708688Y-77516666D02*
X319803926Y-77611904D01*
X319803926Y-77611904D02*
X319899164Y-77659523D01*
X319899164Y-77659523D02*
X320089640Y-77707142D01*
X320089640Y-77707142D02*
X320232497Y-77707142D01*
X320232497Y-77707142D02*
X320422973Y-77659523D01*
X320422973Y-77659523D02*
X320518211Y-77611904D01*
X320518211Y-77611904D02*
X320613450Y-77516666D01*
X320613450Y-77516666D02*
X320661069Y-77373809D01*
X320661069Y-77373809D02*
X320661069Y-77135714D01*
X319994402Y-78564285D02*
X320661069Y-78564285D01*
X319613450Y-78326190D02*
X320327735Y-78088095D01*
X320327735Y-78088095D02*
X320327735Y-78707142D01*
X319756307Y-79040476D02*
X319708688Y-79088095D01*
X319708688Y-79088095D02*
X319661069Y-79183333D01*
X319661069Y-79183333D02*
X319661069Y-79421428D01*
X319661069Y-79421428D02*
X319708688Y-79516666D01*
X319708688Y-79516666D02*
X319756307Y-79564285D01*
X319756307Y-79564285D02*
X319851545Y-79611904D01*
X319851545Y-79611904D02*
X319946783Y-79611904D01*
X319946783Y-79611904D02*
X320089640Y-79564285D01*
X320089640Y-79564285D02*
X320661069Y-78992857D01*
X320661069Y-78992857D02*
X320661069Y-79611904D01*
X168261069Y-96185714D02*
X167261069Y-96185714D01*
X167261069Y-96185714D02*
X167261069Y-96423809D01*
X167261069Y-96423809D02*
X167308688Y-96566666D01*
X167308688Y-96566666D02*
X167403926Y-96661904D01*
X167403926Y-96661904D02*
X167499164Y-96709523D01*
X167499164Y-96709523D02*
X167689640Y-96757142D01*
X167689640Y-96757142D02*
X167832497Y-96757142D01*
X167832497Y-96757142D02*
X168022973Y-96709523D01*
X168022973Y-96709523D02*
X168118211Y-96661904D01*
X168118211Y-96661904D02*
X168213450Y-96566666D01*
X168213450Y-96566666D02*
X168261069Y-96423809D01*
X168261069Y-96423809D02*
X168261069Y-96185714D01*
X167594402Y-97614285D02*
X168261069Y-97614285D01*
X167213450Y-97376190D02*
X167927735Y-97138095D01*
X167927735Y-97138095D02*
X167927735Y-97757142D01*
X167689640Y-98280952D02*
X167642021Y-98185714D01*
X167642021Y-98185714D02*
X167594402Y-98138095D01*
X167594402Y-98138095D02*
X167499164Y-98090476D01*
X167499164Y-98090476D02*
X167451545Y-98090476D01*
X167451545Y-98090476D02*
X167356307Y-98138095D01*
X167356307Y-98138095D02*
X167308688Y-98185714D01*
X167308688Y-98185714D02*
X167261069Y-98280952D01*
X167261069Y-98280952D02*
X167261069Y-98471428D01*
X167261069Y-98471428D02*
X167308688Y-98566666D01*
X167308688Y-98566666D02*
X167356307Y-98614285D01*
X167356307Y-98614285D02*
X167451545Y-98661904D01*
X167451545Y-98661904D02*
X167499164Y-98661904D01*
X167499164Y-98661904D02*
X167594402Y-98614285D01*
X167594402Y-98614285D02*
X167642021Y-98566666D01*
X167642021Y-98566666D02*
X167689640Y-98471428D01*
X167689640Y-98471428D02*
X167689640Y-98280952D01*
X167689640Y-98280952D02*
X167737259Y-98185714D01*
X167737259Y-98185714D02*
X167784878Y-98138095D01*
X167784878Y-98138095D02*
X167880116Y-98090476D01*
X167880116Y-98090476D02*
X168070592Y-98090476D01*
X168070592Y-98090476D02*
X168165830Y-98138095D01*
X168165830Y-98138095D02*
X168213450Y-98185714D01*
X168213450Y-98185714D02*
X168261069Y-98280952D01*
X168261069Y-98280952D02*
X168261069Y-98471428D01*
X168261069Y-98471428D02*
X168213450Y-98566666D01*
X168213450Y-98566666D02*
X168165830Y-98614285D01*
X168165830Y-98614285D02*
X168070592Y-98661904D01*
X168070592Y-98661904D02*
X167880116Y-98661904D01*
X167880116Y-98661904D02*
X167784878Y-98614285D01*
X167784878Y-98614285D02*
X167737259Y-98566666D01*
X167737259Y-98566666D02*
X167689640Y-98471428D01*
X89679819Y-39511905D02*
X88679819Y-39511905D01*
X88679819Y-39511905D02*
X88679819Y-39750000D01*
X88679819Y-39750000D02*
X88727438Y-39892857D01*
X88727438Y-39892857D02*
X88822676Y-39988095D01*
X88822676Y-39988095D02*
X88917914Y-40035714D01*
X88917914Y-40035714D02*
X89108390Y-40083333D01*
X89108390Y-40083333D02*
X89251247Y-40083333D01*
X89251247Y-40083333D02*
X89441723Y-40035714D01*
X89441723Y-40035714D02*
X89536961Y-39988095D01*
X89536961Y-39988095D02*
X89632200Y-39892857D01*
X89632200Y-39892857D02*
X89679819Y-39750000D01*
X89679819Y-39750000D02*
X89679819Y-39511905D01*
X89679819Y-41035714D02*
X89679819Y-40464286D01*
X89679819Y-40750000D02*
X88679819Y-40750000D01*
X88679819Y-40750000D02*
X88822676Y-40654762D01*
X88822676Y-40654762D02*
X88917914Y-40559524D01*
X88917914Y-40559524D02*
X88965533Y-40464286D01*
X363523569Y-119998214D02*
X362523569Y-119998214D01*
X362523569Y-119998214D02*
X362523569Y-120236309D01*
X362523569Y-120236309D02*
X362571188Y-120379166D01*
X362571188Y-120379166D02*
X362666426Y-120474404D01*
X362666426Y-120474404D02*
X362761664Y-120522023D01*
X362761664Y-120522023D02*
X362952140Y-120569642D01*
X362952140Y-120569642D02*
X363094997Y-120569642D01*
X363094997Y-120569642D02*
X363285473Y-120522023D01*
X363285473Y-120522023D02*
X363380711Y-120474404D01*
X363380711Y-120474404D02*
X363475950Y-120379166D01*
X363475950Y-120379166D02*
X363523569Y-120236309D01*
X363523569Y-120236309D02*
X363523569Y-119998214D01*
X362523569Y-121426785D02*
X362523569Y-121236309D01*
X362523569Y-121236309D02*
X362571188Y-121141071D01*
X362571188Y-121141071D02*
X362618807Y-121093452D01*
X362618807Y-121093452D02*
X362761664Y-120998214D01*
X362761664Y-120998214D02*
X362952140Y-120950595D01*
X362952140Y-120950595D02*
X363333092Y-120950595D01*
X363333092Y-120950595D02*
X363428330Y-120998214D01*
X363428330Y-120998214D02*
X363475950Y-121045833D01*
X363475950Y-121045833D02*
X363523569Y-121141071D01*
X363523569Y-121141071D02*
X363523569Y-121331547D01*
X363523569Y-121331547D02*
X363475950Y-121426785D01*
X363475950Y-121426785D02*
X363428330Y-121474404D01*
X363428330Y-121474404D02*
X363333092Y-121522023D01*
X363333092Y-121522023D02*
X363094997Y-121522023D01*
X363094997Y-121522023D02*
X362999759Y-121474404D01*
X362999759Y-121474404D02*
X362952140Y-121426785D01*
X362952140Y-121426785D02*
X362904521Y-121331547D01*
X362904521Y-121331547D02*
X362904521Y-121141071D01*
X362904521Y-121141071D02*
X362952140Y-121045833D01*
X362952140Y-121045833D02*
X362999759Y-120998214D01*
X362999759Y-120998214D02*
X363094997Y-120950595D01*
X362952140Y-122093452D02*
X362904521Y-121998214D01*
X362904521Y-121998214D02*
X362856902Y-121950595D01*
X362856902Y-121950595D02*
X362761664Y-121902976D01*
X362761664Y-121902976D02*
X362714045Y-121902976D01*
X362714045Y-121902976D02*
X362618807Y-121950595D01*
X362618807Y-121950595D02*
X362571188Y-121998214D01*
X362571188Y-121998214D02*
X362523569Y-122093452D01*
X362523569Y-122093452D02*
X362523569Y-122283928D01*
X362523569Y-122283928D02*
X362571188Y-122379166D01*
X362571188Y-122379166D02*
X362618807Y-122426785D01*
X362618807Y-122426785D02*
X362714045Y-122474404D01*
X362714045Y-122474404D02*
X362761664Y-122474404D01*
X362761664Y-122474404D02*
X362856902Y-122426785D01*
X362856902Y-122426785D02*
X362904521Y-122379166D01*
X362904521Y-122379166D02*
X362952140Y-122283928D01*
X362952140Y-122283928D02*
X362952140Y-122093452D01*
X362952140Y-122093452D02*
X362999759Y-121998214D01*
X362999759Y-121998214D02*
X363047378Y-121950595D01*
X363047378Y-121950595D02*
X363142616Y-121902976D01*
X363142616Y-121902976D02*
X363333092Y-121902976D01*
X363333092Y-121902976D02*
X363428330Y-121950595D01*
X363428330Y-121950595D02*
X363475950Y-121998214D01*
X363475950Y-121998214D02*
X363523569Y-122093452D01*
X363523569Y-122093452D02*
X363523569Y-122283928D01*
X363523569Y-122283928D02*
X363475950Y-122379166D01*
X363475950Y-122379166D02*
X363428330Y-122426785D01*
X363428330Y-122426785D02*
X363333092Y-122474404D01*
X363333092Y-122474404D02*
X363142616Y-122474404D01*
X363142616Y-122474404D02*
X363047378Y-122426785D01*
X363047378Y-122426785D02*
X362999759Y-122379166D01*
X362999759Y-122379166D02*
X362952140Y-122283928D01*
X168261069Y-115235714D02*
X167261069Y-115235714D01*
X167261069Y-115235714D02*
X167261069Y-115473809D01*
X167261069Y-115473809D02*
X167308688Y-115616666D01*
X167308688Y-115616666D02*
X167403926Y-115711904D01*
X167403926Y-115711904D02*
X167499164Y-115759523D01*
X167499164Y-115759523D02*
X167689640Y-115807142D01*
X167689640Y-115807142D02*
X167832497Y-115807142D01*
X167832497Y-115807142D02*
X168022973Y-115759523D01*
X168022973Y-115759523D02*
X168118211Y-115711904D01*
X168118211Y-115711904D02*
X168213450Y-115616666D01*
X168213450Y-115616666D02*
X168261069Y-115473809D01*
X168261069Y-115473809D02*
X168261069Y-115235714D01*
X167261069Y-116664285D02*
X167261069Y-116473809D01*
X167261069Y-116473809D02*
X167308688Y-116378571D01*
X167308688Y-116378571D02*
X167356307Y-116330952D01*
X167356307Y-116330952D02*
X167499164Y-116235714D01*
X167499164Y-116235714D02*
X167689640Y-116188095D01*
X167689640Y-116188095D02*
X168070592Y-116188095D01*
X168070592Y-116188095D02*
X168165830Y-116235714D01*
X168165830Y-116235714D02*
X168213450Y-116283333D01*
X168213450Y-116283333D02*
X168261069Y-116378571D01*
X168261069Y-116378571D02*
X168261069Y-116569047D01*
X168261069Y-116569047D02*
X168213450Y-116664285D01*
X168213450Y-116664285D02*
X168165830Y-116711904D01*
X168165830Y-116711904D02*
X168070592Y-116759523D01*
X168070592Y-116759523D02*
X167832497Y-116759523D01*
X167832497Y-116759523D02*
X167737259Y-116711904D01*
X167737259Y-116711904D02*
X167689640Y-116664285D01*
X167689640Y-116664285D02*
X167642021Y-116569047D01*
X167642021Y-116569047D02*
X167642021Y-116378571D01*
X167642021Y-116378571D02*
X167689640Y-116283333D01*
X167689640Y-116283333D02*
X167737259Y-116235714D01*
X167737259Y-116235714D02*
X167832497Y-116188095D01*
X168261069Y-117711904D02*
X168261069Y-117140476D01*
X168261069Y-117426190D02*
X167261069Y-117426190D01*
X167261069Y-117426190D02*
X167403926Y-117330952D01*
X167403926Y-117330952D02*
X167499164Y-117235714D01*
X167499164Y-117235714D02*
X167546783Y-117140476D01*
X168261069Y-58085714D02*
X167261069Y-58085714D01*
X167261069Y-58085714D02*
X167261069Y-58323809D01*
X167261069Y-58323809D02*
X167308688Y-58466666D01*
X167308688Y-58466666D02*
X167403926Y-58561904D01*
X167403926Y-58561904D02*
X167499164Y-58609523D01*
X167499164Y-58609523D02*
X167689640Y-58657142D01*
X167689640Y-58657142D02*
X167832497Y-58657142D01*
X167832497Y-58657142D02*
X168022973Y-58609523D01*
X168022973Y-58609523D02*
X168118211Y-58561904D01*
X168118211Y-58561904D02*
X168213450Y-58466666D01*
X168213450Y-58466666D02*
X168261069Y-58323809D01*
X168261069Y-58323809D02*
X168261069Y-58085714D01*
X168261069Y-59609523D02*
X168261069Y-59038095D01*
X168261069Y-59323809D02*
X167261069Y-59323809D01*
X167261069Y-59323809D02*
X167403926Y-59228571D01*
X167403926Y-59228571D02*
X167499164Y-59133333D01*
X167499164Y-59133333D02*
X167546783Y-59038095D01*
X168261069Y-60085714D02*
X168261069Y-60276190D01*
X168261069Y-60276190D02*
X168213450Y-60371428D01*
X168213450Y-60371428D02*
X168165830Y-60419047D01*
X168165830Y-60419047D02*
X168022973Y-60514285D01*
X168022973Y-60514285D02*
X167832497Y-60561904D01*
X167832497Y-60561904D02*
X167451545Y-60561904D01*
X167451545Y-60561904D02*
X167356307Y-60514285D01*
X167356307Y-60514285D02*
X167308688Y-60466666D01*
X167308688Y-60466666D02*
X167261069Y-60371428D01*
X167261069Y-60371428D02*
X167261069Y-60180952D01*
X167261069Y-60180952D02*
X167308688Y-60085714D01*
X167308688Y-60085714D02*
X167356307Y-60038095D01*
X167356307Y-60038095D02*
X167451545Y-59990476D01*
X167451545Y-59990476D02*
X167689640Y-59990476D01*
X167689640Y-59990476D02*
X167784878Y-60038095D01*
X167784878Y-60038095D02*
X167832497Y-60085714D01*
X167832497Y-60085714D02*
X167880116Y-60180952D01*
X167880116Y-60180952D02*
X167880116Y-60371428D01*
X167880116Y-60371428D02*
X167832497Y-60466666D01*
X167832497Y-60466666D02*
X167784878Y-60514285D01*
X167784878Y-60514285D02*
X167689640Y-60561904D01*
X382573569Y-119998214D02*
X381573569Y-119998214D01*
X381573569Y-119998214D02*
X381573569Y-120236309D01*
X381573569Y-120236309D02*
X381621188Y-120379166D01*
X381621188Y-120379166D02*
X381716426Y-120474404D01*
X381716426Y-120474404D02*
X381811664Y-120522023D01*
X381811664Y-120522023D02*
X382002140Y-120569642D01*
X382002140Y-120569642D02*
X382144997Y-120569642D01*
X382144997Y-120569642D02*
X382335473Y-120522023D01*
X382335473Y-120522023D02*
X382430711Y-120474404D01*
X382430711Y-120474404D02*
X382525950Y-120379166D01*
X382525950Y-120379166D02*
X382573569Y-120236309D01*
X382573569Y-120236309D02*
X382573569Y-119998214D01*
X381573569Y-121426785D02*
X381573569Y-121236309D01*
X381573569Y-121236309D02*
X381621188Y-121141071D01*
X381621188Y-121141071D02*
X381668807Y-121093452D01*
X381668807Y-121093452D02*
X381811664Y-120998214D01*
X381811664Y-120998214D02*
X382002140Y-120950595D01*
X382002140Y-120950595D02*
X382383092Y-120950595D01*
X382383092Y-120950595D02*
X382478330Y-120998214D01*
X382478330Y-120998214D02*
X382525950Y-121045833D01*
X382525950Y-121045833D02*
X382573569Y-121141071D01*
X382573569Y-121141071D02*
X382573569Y-121331547D01*
X382573569Y-121331547D02*
X382525950Y-121426785D01*
X382525950Y-121426785D02*
X382478330Y-121474404D01*
X382478330Y-121474404D02*
X382383092Y-121522023D01*
X382383092Y-121522023D02*
X382144997Y-121522023D01*
X382144997Y-121522023D02*
X382049759Y-121474404D01*
X382049759Y-121474404D02*
X382002140Y-121426785D01*
X382002140Y-121426785D02*
X381954521Y-121331547D01*
X381954521Y-121331547D02*
X381954521Y-121141071D01*
X381954521Y-121141071D02*
X382002140Y-121045833D01*
X382002140Y-121045833D02*
X382049759Y-120998214D01*
X382049759Y-120998214D02*
X382144997Y-120950595D01*
X382573569Y-121998214D02*
X382573569Y-122188690D01*
X382573569Y-122188690D02*
X382525950Y-122283928D01*
X382525950Y-122283928D02*
X382478330Y-122331547D01*
X382478330Y-122331547D02*
X382335473Y-122426785D01*
X382335473Y-122426785D02*
X382144997Y-122474404D01*
X382144997Y-122474404D02*
X381764045Y-122474404D01*
X381764045Y-122474404D02*
X381668807Y-122426785D01*
X381668807Y-122426785D02*
X381621188Y-122379166D01*
X381621188Y-122379166D02*
X381573569Y-122283928D01*
X381573569Y-122283928D02*
X381573569Y-122093452D01*
X381573569Y-122093452D02*
X381621188Y-121998214D01*
X381621188Y-121998214D02*
X381668807Y-121950595D01*
X381668807Y-121950595D02*
X381764045Y-121902976D01*
X381764045Y-121902976D02*
X382002140Y-121902976D01*
X382002140Y-121902976D02*
X382097378Y-121950595D01*
X382097378Y-121950595D02*
X382144997Y-121998214D01*
X382144997Y-121998214D02*
X382192616Y-122093452D01*
X382192616Y-122093452D02*
X382192616Y-122283928D01*
X382192616Y-122283928D02*
X382144997Y-122379166D01*
X382144997Y-122379166D02*
X382097378Y-122426785D01*
X382097378Y-122426785D02*
X382002140Y-122474404D01*
X89679819Y-58085714D02*
X88679819Y-58085714D01*
X88679819Y-58085714D02*
X88679819Y-58323809D01*
X88679819Y-58323809D02*
X88727438Y-58466666D01*
X88727438Y-58466666D02*
X88822676Y-58561904D01*
X88822676Y-58561904D02*
X88917914Y-58609523D01*
X88917914Y-58609523D02*
X89108390Y-58657142D01*
X89108390Y-58657142D02*
X89251247Y-58657142D01*
X89251247Y-58657142D02*
X89441723Y-58609523D01*
X89441723Y-58609523D02*
X89536961Y-58561904D01*
X89536961Y-58561904D02*
X89632200Y-58466666D01*
X89632200Y-58466666D02*
X89679819Y-58323809D01*
X89679819Y-58323809D02*
X89679819Y-58085714D01*
X89679819Y-59609523D02*
X89679819Y-59038095D01*
X89679819Y-59323809D02*
X88679819Y-59323809D01*
X88679819Y-59323809D02*
X88822676Y-59228571D01*
X88822676Y-59228571D02*
X88917914Y-59133333D01*
X88917914Y-59133333D02*
X88965533Y-59038095D01*
X88679819Y-60466666D02*
X88679819Y-60276190D01*
X88679819Y-60276190D02*
X88727438Y-60180952D01*
X88727438Y-60180952D02*
X88775057Y-60133333D01*
X88775057Y-60133333D02*
X88917914Y-60038095D01*
X88917914Y-60038095D02*
X89108390Y-59990476D01*
X89108390Y-59990476D02*
X89489342Y-59990476D01*
X89489342Y-59990476D02*
X89584580Y-60038095D01*
X89584580Y-60038095D02*
X89632200Y-60085714D01*
X89632200Y-60085714D02*
X89679819Y-60180952D01*
X89679819Y-60180952D02*
X89679819Y-60371428D01*
X89679819Y-60371428D02*
X89632200Y-60466666D01*
X89632200Y-60466666D02*
X89584580Y-60514285D01*
X89584580Y-60514285D02*
X89489342Y-60561904D01*
X89489342Y-60561904D02*
X89251247Y-60561904D01*
X89251247Y-60561904D02*
X89156009Y-60514285D01*
X89156009Y-60514285D02*
X89108390Y-60466666D01*
X89108390Y-60466666D02*
X89060771Y-60371428D01*
X89060771Y-60371428D02*
X89060771Y-60180952D01*
X89060771Y-60180952D02*
X89108390Y-60085714D01*
X89108390Y-60085714D02*
X89156009Y-60038095D01*
X89156009Y-60038095D02*
X89251247Y-59990476D01*
X187311069Y-39511905D02*
X186311069Y-39511905D01*
X186311069Y-39511905D02*
X186311069Y-39750000D01*
X186311069Y-39750000D02*
X186358688Y-39892857D01*
X186358688Y-39892857D02*
X186453926Y-39988095D01*
X186453926Y-39988095D02*
X186549164Y-40035714D01*
X186549164Y-40035714D02*
X186739640Y-40083333D01*
X186739640Y-40083333D02*
X186882497Y-40083333D01*
X186882497Y-40083333D02*
X187072973Y-40035714D01*
X187072973Y-40035714D02*
X187168211Y-39988095D01*
X187168211Y-39988095D02*
X187263450Y-39892857D01*
X187263450Y-39892857D02*
X187311069Y-39750000D01*
X187311069Y-39750000D02*
X187311069Y-39511905D01*
X186311069Y-40988095D02*
X186311069Y-40511905D01*
X186311069Y-40511905D02*
X186787259Y-40464286D01*
X186787259Y-40464286D02*
X186739640Y-40511905D01*
X186739640Y-40511905D02*
X186692021Y-40607143D01*
X186692021Y-40607143D02*
X186692021Y-40845238D01*
X186692021Y-40845238D02*
X186739640Y-40940476D01*
X186739640Y-40940476D02*
X186787259Y-40988095D01*
X186787259Y-40988095D02*
X186882497Y-41035714D01*
X186882497Y-41035714D02*
X187120592Y-41035714D01*
X187120592Y-41035714D02*
X187215830Y-40988095D01*
X187215830Y-40988095D02*
X187263450Y-40940476D01*
X187263450Y-40940476D02*
X187311069Y-40845238D01*
X187311069Y-40845238D02*
X187311069Y-40607143D01*
X187311069Y-40607143D02*
X187263450Y-40511905D01*
X187263450Y-40511905D02*
X187215830Y-40464286D01*
X149211069Y-77135714D02*
X148211069Y-77135714D01*
X148211069Y-77135714D02*
X148211069Y-77373809D01*
X148211069Y-77373809D02*
X148258688Y-77516666D01*
X148258688Y-77516666D02*
X148353926Y-77611904D01*
X148353926Y-77611904D02*
X148449164Y-77659523D01*
X148449164Y-77659523D02*
X148639640Y-77707142D01*
X148639640Y-77707142D02*
X148782497Y-77707142D01*
X148782497Y-77707142D02*
X148972973Y-77659523D01*
X148972973Y-77659523D02*
X149068211Y-77611904D01*
X149068211Y-77611904D02*
X149163450Y-77516666D01*
X149163450Y-77516666D02*
X149211069Y-77373809D01*
X149211069Y-77373809D02*
X149211069Y-77135714D01*
X148211069Y-78040476D02*
X148211069Y-78659523D01*
X148211069Y-78659523D02*
X148592021Y-78326190D01*
X148592021Y-78326190D02*
X148592021Y-78469047D01*
X148592021Y-78469047D02*
X148639640Y-78564285D01*
X148639640Y-78564285D02*
X148687259Y-78611904D01*
X148687259Y-78611904D02*
X148782497Y-78659523D01*
X148782497Y-78659523D02*
X149020592Y-78659523D01*
X149020592Y-78659523D02*
X149115830Y-78611904D01*
X149115830Y-78611904D02*
X149163450Y-78564285D01*
X149163450Y-78564285D02*
X149211069Y-78469047D01*
X149211069Y-78469047D02*
X149211069Y-78183333D01*
X149211069Y-78183333D02*
X149163450Y-78088095D01*
X149163450Y-78088095D02*
X149115830Y-78040476D01*
X148211069Y-78992857D02*
X148211069Y-79611904D01*
X148211069Y-79611904D02*
X148592021Y-79278571D01*
X148592021Y-79278571D02*
X148592021Y-79421428D01*
X148592021Y-79421428D02*
X148639640Y-79516666D01*
X148639640Y-79516666D02*
X148687259Y-79564285D01*
X148687259Y-79564285D02*
X148782497Y-79611904D01*
X148782497Y-79611904D02*
X149020592Y-79611904D01*
X149020592Y-79611904D02*
X149115830Y-79564285D01*
X149115830Y-79564285D02*
X149163450Y-79516666D01*
X149163450Y-79516666D02*
X149211069Y-79421428D01*
X149211069Y-79421428D02*
X149211069Y-79135714D01*
X149211069Y-79135714D02*
X149163450Y-79040476D01*
X149163450Y-79040476D02*
X149115830Y-78992857D01*
X244461069Y-39511905D02*
X243461069Y-39511905D01*
X243461069Y-39511905D02*
X243461069Y-39750000D01*
X243461069Y-39750000D02*
X243508688Y-39892857D01*
X243508688Y-39892857D02*
X243603926Y-39988095D01*
X243603926Y-39988095D02*
X243699164Y-40035714D01*
X243699164Y-40035714D02*
X243889640Y-40083333D01*
X243889640Y-40083333D02*
X244032497Y-40083333D01*
X244032497Y-40083333D02*
X244222973Y-40035714D01*
X244222973Y-40035714D02*
X244318211Y-39988095D01*
X244318211Y-39988095D02*
X244413450Y-39892857D01*
X244413450Y-39892857D02*
X244461069Y-39750000D01*
X244461069Y-39750000D02*
X244461069Y-39511905D01*
X243889640Y-40654762D02*
X243842021Y-40559524D01*
X243842021Y-40559524D02*
X243794402Y-40511905D01*
X243794402Y-40511905D02*
X243699164Y-40464286D01*
X243699164Y-40464286D02*
X243651545Y-40464286D01*
X243651545Y-40464286D02*
X243556307Y-40511905D01*
X243556307Y-40511905D02*
X243508688Y-40559524D01*
X243508688Y-40559524D02*
X243461069Y-40654762D01*
X243461069Y-40654762D02*
X243461069Y-40845238D01*
X243461069Y-40845238D02*
X243508688Y-40940476D01*
X243508688Y-40940476D02*
X243556307Y-40988095D01*
X243556307Y-40988095D02*
X243651545Y-41035714D01*
X243651545Y-41035714D02*
X243699164Y-41035714D01*
X243699164Y-41035714D02*
X243794402Y-40988095D01*
X243794402Y-40988095D02*
X243842021Y-40940476D01*
X243842021Y-40940476D02*
X243889640Y-40845238D01*
X243889640Y-40845238D02*
X243889640Y-40654762D01*
X243889640Y-40654762D02*
X243937259Y-40559524D01*
X243937259Y-40559524D02*
X243984878Y-40511905D01*
X243984878Y-40511905D02*
X244080116Y-40464286D01*
X244080116Y-40464286D02*
X244270592Y-40464286D01*
X244270592Y-40464286D02*
X244365830Y-40511905D01*
X244365830Y-40511905D02*
X244413450Y-40559524D01*
X244413450Y-40559524D02*
X244461069Y-40654762D01*
X244461069Y-40654762D02*
X244461069Y-40845238D01*
X244461069Y-40845238D02*
X244413450Y-40940476D01*
X244413450Y-40940476D02*
X244365830Y-40988095D01*
X244365830Y-40988095D02*
X244270592Y-41035714D01*
X244270592Y-41035714D02*
X244080116Y-41035714D01*
X244080116Y-41035714D02*
X243984878Y-40988095D01*
X243984878Y-40988095D02*
X243937259Y-40940476D01*
X243937259Y-40940476D02*
X243889640Y-40845238D01*
X225411069Y-77135714D02*
X224411069Y-77135714D01*
X224411069Y-77135714D02*
X224411069Y-77373809D01*
X224411069Y-77373809D02*
X224458688Y-77516666D01*
X224458688Y-77516666D02*
X224553926Y-77611904D01*
X224553926Y-77611904D02*
X224649164Y-77659523D01*
X224649164Y-77659523D02*
X224839640Y-77707142D01*
X224839640Y-77707142D02*
X224982497Y-77707142D01*
X224982497Y-77707142D02*
X225172973Y-77659523D01*
X225172973Y-77659523D02*
X225268211Y-77611904D01*
X225268211Y-77611904D02*
X225363450Y-77516666D01*
X225363450Y-77516666D02*
X225411069Y-77373809D01*
X225411069Y-77373809D02*
X225411069Y-77135714D01*
X224411069Y-78040476D02*
X224411069Y-78659523D01*
X224411069Y-78659523D02*
X224792021Y-78326190D01*
X224792021Y-78326190D02*
X224792021Y-78469047D01*
X224792021Y-78469047D02*
X224839640Y-78564285D01*
X224839640Y-78564285D02*
X224887259Y-78611904D01*
X224887259Y-78611904D02*
X224982497Y-78659523D01*
X224982497Y-78659523D02*
X225220592Y-78659523D01*
X225220592Y-78659523D02*
X225315830Y-78611904D01*
X225315830Y-78611904D02*
X225363450Y-78564285D01*
X225363450Y-78564285D02*
X225411069Y-78469047D01*
X225411069Y-78469047D02*
X225411069Y-78183333D01*
X225411069Y-78183333D02*
X225363450Y-78088095D01*
X225363450Y-78088095D02*
X225315830Y-78040476D01*
X224411069Y-78992857D02*
X224411069Y-79659523D01*
X224411069Y-79659523D02*
X225411069Y-79230952D01*
X123017319Y-96185714D02*
X122017319Y-96185714D01*
X122017319Y-96185714D02*
X122017319Y-96423809D01*
X122017319Y-96423809D02*
X122064938Y-96566666D01*
X122064938Y-96566666D02*
X122160176Y-96661904D01*
X122160176Y-96661904D02*
X122255414Y-96709523D01*
X122255414Y-96709523D02*
X122445890Y-96757142D01*
X122445890Y-96757142D02*
X122588747Y-96757142D01*
X122588747Y-96757142D02*
X122779223Y-96709523D01*
X122779223Y-96709523D02*
X122874461Y-96661904D01*
X122874461Y-96661904D02*
X122969700Y-96566666D01*
X122969700Y-96566666D02*
X123017319Y-96423809D01*
X123017319Y-96423809D02*
X123017319Y-96185714D01*
X122350652Y-97614285D02*
X123017319Y-97614285D01*
X121969700Y-97376190D02*
X122683985Y-97138095D01*
X122683985Y-97138095D02*
X122683985Y-97757142D01*
X122017319Y-98566666D02*
X122017319Y-98376190D01*
X122017319Y-98376190D02*
X122064938Y-98280952D01*
X122064938Y-98280952D02*
X122112557Y-98233333D01*
X122112557Y-98233333D02*
X122255414Y-98138095D01*
X122255414Y-98138095D02*
X122445890Y-98090476D01*
X122445890Y-98090476D02*
X122826842Y-98090476D01*
X122826842Y-98090476D02*
X122922080Y-98138095D01*
X122922080Y-98138095D02*
X122969700Y-98185714D01*
X122969700Y-98185714D02*
X123017319Y-98280952D01*
X123017319Y-98280952D02*
X123017319Y-98471428D01*
X123017319Y-98471428D02*
X122969700Y-98566666D01*
X122969700Y-98566666D02*
X122922080Y-98614285D01*
X122922080Y-98614285D02*
X122826842Y-98661904D01*
X122826842Y-98661904D02*
X122588747Y-98661904D01*
X122588747Y-98661904D02*
X122493509Y-98614285D01*
X122493509Y-98614285D02*
X122445890Y-98566666D01*
X122445890Y-98566666D02*
X122398271Y-98471428D01*
X122398271Y-98471428D02*
X122398271Y-98280952D01*
X122398271Y-98280952D02*
X122445890Y-98185714D01*
X122445890Y-98185714D02*
X122493509Y-98138095D01*
X122493509Y-98138095D02*
X122588747Y-98090476D01*
X199217319Y-115235714D02*
X198217319Y-115235714D01*
X198217319Y-115235714D02*
X198217319Y-115473809D01*
X198217319Y-115473809D02*
X198264938Y-115616666D01*
X198264938Y-115616666D02*
X198360176Y-115711904D01*
X198360176Y-115711904D02*
X198455414Y-115759523D01*
X198455414Y-115759523D02*
X198645890Y-115807142D01*
X198645890Y-115807142D02*
X198788747Y-115807142D01*
X198788747Y-115807142D02*
X198979223Y-115759523D01*
X198979223Y-115759523D02*
X199074461Y-115711904D01*
X199074461Y-115711904D02*
X199169700Y-115616666D01*
X199169700Y-115616666D02*
X199217319Y-115473809D01*
X199217319Y-115473809D02*
X199217319Y-115235714D01*
X198217319Y-116664285D02*
X198217319Y-116473809D01*
X198217319Y-116473809D02*
X198264938Y-116378571D01*
X198264938Y-116378571D02*
X198312557Y-116330952D01*
X198312557Y-116330952D02*
X198455414Y-116235714D01*
X198455414Y-116235714D02*
X198645890Y-116188095D01*
X198645890Y-116188095D02*
X199026842Y-116188095D01*
X199026842Y-116188095D02*
X199122080Y-116235714D01*
X199122080Y-116235714D02*
X199169700Y-116283333D01*
X199169700Y-116283333D02*
X199217319Y-116378571D01*
X199217319Y-116378571D02*
X199217319Y-116569047D01*
X199217319Y-116569047D02*
X199169700Y-116664285D01*
X199169700Y-116664285D02*
X199122080Y-116711904D01*
X199122080Y-116711904D02*
X199026842Y-116759523D01*
X199026842Y-116759523D02*
X198788747Y-116759523D01*
X198788747Y-116759523D02*
X198693509Y-116711904D01*
X198693509Y-116711904D02*
X198645890Y-116664285D01*
X198645890Y-116664285D02*
X198598271Y-116569047D01*
X198598271Y-116569047D02*
X198598271Y-116378571D01*
X198598271Y-116378571D02*
X198645890Y-116283333D01*
X198645890Y-116283333D02*
X198693509Y-116235714D01*
X198693509Y-116235714D02*
X198788747Y-116188095D01*
X198312557Y-117140476D02*
X198264938Y-117188095D01*
X198264938Y-117188095D02*
X198217319Y-117283333D01*
X198217319Y-117283333D02*
X198217319Y-117521428D01*
X198217319Y-117521428D02*
X198264938Y-117616666D01*
X198264938Y-117616666D02*
X198312557Y-117664285D01*
X198312557Y-117664285D02*
X198407795Y-117711904D01*
X198407795Y-117711904D02*
X198503033Y-117711904D01*
X198503033Y-117711904D02*
X198645890Y-117664285D01*
X198645890Y-117664285D02*
X199217319Y-117092857D01*
X199217319Y-117092857D02*
X199217319Y-117711904D01*
X263511069Y-77135714D02*
X262511069Y-77135714D01*
X262511069Y-77135714D02*
X262511069Y-77373809D01*
X262511069Y-77373809D02*
X262558688Y-77516666D01*
X262558688Y-77516666D02*
X262653926Y-77611904D01*
X262653926Y-77611904D02*
X262749164Y-77659523D01*
X262749164Y-77659523D02*
X262939640Y-77707142D01*
X262939640Y-77707142D02*
X263082497Y-77707142D01*
X263082497Y-77707142D02*
X263272973Y-77659523D01*
X263272973Y-77659523D02*
X263368211Y-77611904D01*
X263368211Y-77611904D02*
X263463450Y-77516666D01*
X263463450Y-77516666D02*
X263511069Y-77373809D01*
X263511069Y-77373809D02*
X263511069Y-77135714D01*
X262511069Y-78040476D02*
X262511069Y-78659523D01*
X262511069Y-78659523D02*
X262892021Y-78326190D01*
X262892021Y-78326190D02*
X262892021Y-78469047D01*
X262892021Y-78469047D02*
X262939640Y-78564285D01*
X262939640Y-78564285D02*
X262987259Y-78611904D01*
X262987259Y-78611904D02*
X263082497Y-78659523D01*
X263082497Y-78659523D02*
X263320592Y-78659523D01*
X263320592Y-78659523D02*
X263415830Y-78611904D01*
X263415830Y-78611904D02*
X263463450Y-78564285D01*
X263463450Y-78564285D02*
X263511069Y-78469047D01*
X263511069Y-78469047D02*
X263511069Y-78183333D01*
X263511069Y-78183333D02*
X263463450Y-78088095D01*
X263463450Y-78088095D02*
X263415830Y-78040476D01*
X263511069Y-79135714D02*
X263511069Y-79326190D01*
X263511069Y-79326190D02*
X263463450Y-79421428D01*
X263463450Y-79421428D02*
X263415830Y-79469047D01*
X263415830Y-79469047D02*
X263272973Y-79564285D01*
X263272973Y-79564285D02*
X263082497Y-79611904D01*
X263082497Y-79611904D02*
X262701545Y-79611904D01*
X262701545Y-79611904D02*
X262606307Y-79564285D01*
X262606307Y-79564285D02*
X262558688Y-79516666D01*
X262558688Y-79516666D02*
X262511069Y-79421428D01*
X262511069Y-79421428D02*
X262511069Y-79230952D01*
X262511069Y-79230952D02*
X262558688Y-79135714D01*
X262558688Y-79135714D02*
X262606307Y-79088095D01*
X262606307Y-79088095D02*
X262701545Y-79040476D01*
X262701545Y-79040476D02*
X262939640Y-79040476D01*
X262939640Y-79040476D02*
X263034878Y-79088095D01*
X263034878Y-79088095D02*
X263082497Y-79135714D01*
X263082497Y-79135714D02*
X263130116Y-79230952D01*
X263130116Y-79230952D02*
X263130116Y-79421428D01*
X263130116Y-79421428D02*
X263082497Y-79516666D01*
X263082497Y-79516666D02*
X263034878Y-79564285D01*
X263034878Y-79564285D02*
X262939640Y-79611904D01*
X225411069Y-39511905D02*
X224411069Y-39511905D01*
X224411069Y-39511905D02*
X224411069Y-39750000D01*
X224411069Y-39750000D02*
X224458688Y-39892857D01*
X224458688Y-39892857D02*
X224553926Y-39988095D01*
X224553926Y-39988095D02*
X224649164Y-40035714D01*
X224649164Y-40035714D02*
X224839640Y-40083333D01*
X224839640Y-40083333D02*
X224982497Y-40083333D01*
X224982497Y-40083333D02*
X225172973Y-40035714D01*
X225172973Y-40035714D02*
X225268211Y-39988095D01*
X225268211Y-39988095D02*
X225363450Y-39892857D01*
X225363450Y-39892857D02*
X225411069Y-39750000D01*
X225411069Y-39750000D02*
X225411069Y-39511905D01*
X224411069Y-40416667D02*
X224411069Y-41083333D01*
X224411069Y-41083333D02*
X225411069Y-40654762D01*
X244461069Y-58085714D02*
X243461069Y-58085714D01*
X243461069Y-58085714D02*
X243461069Y-58323809D01*
X243461069Y-58323809D02*
X243508688Y-58466666D01*
X243508688Y-58466666D02*
X243603926Y-58561904D01*
X243603926Y-58561904D02*
X243699164Y-58609523D01*
X243699164Y-58609523D02*
X243889640Y-58657142D01*
X243889640Y-58657142D02*
X244032497Y-58657142D01*
X244032497Y-58657142D02*
X244222973Y-58609523D01*
X244222973Y-58609523D02*
X244318211Y-58561904D01*
X244318211Y-58561904D02*
X244413450Y-58466666D01*
X244413450Y-58466666D02*
X244461069Y-58323809D01*
X244461069Y-58323809D02*
X244461069Y-58085714D01*
X243556307Y-59038095D02*
X243508688Y-59085714D01*
X243508688Y-59085714D02*
X243461069Y-59180952D01*
X243461069Y-59180952D02*
X243461069Y-59419047D01*
X243461069Y-59419047D02*
X243508688Y-59514285D01*
X243508688Y-59514285D02*
X243556307Y-59561904D01*
X243556307Y-59561904D02*
X243651545Y-59609523D01*
X243651545Y-59609523D02*
X243746783Y-59609523D01*
X243746783Y-59609523D02*
X243889640Y-59561904D01*
X243889640Y-59561904D02*
X244461069Y-58990476D01*
X244461069Y-58990476D02*
X244461069Y-59609523D01*
X243461069Y-59942857D02*
X243461069Y-60561904D01*
X243461069Y-60561904D02*
X243842021Y-60228571D01*
X243842021Y-60228571D02*
X243842021Y-60371428D01*
X243842021Y-60371428D02*
X243889640Y-60466666D01*
X243889640Y-60466666D02*
X243937259Y-60514285D01*
X243937259Y-60514285D02*
X244032497Y-60561904D01*
X244032497Y-60561904D02*
X244270592Y-60561904D01*
X244270592Y-60561904D02*
X244365830Y-60514285D01*
X244365830Y-60514285D02*
X244413450Y-60466666D01*
X244413450Y-60466666D02*
X244461069Y-60371428D01*
X244461069Y-60371428D02*
X244461069Y-60085714D01*
X244461069Y-60085714D02*
X244413450Y-59990476D01*
X244413450Y-59990476D02*
X244365830Y-59942857D01*
X339711069Y-58085714D02*
X338711069Y-58085714D01*
X338711069Y-58085714D02*
X338711069Y-58323809D01*
X338711069Y-58323809D02*
X338758688Y-58466666D01*
X338758688Y-58466666D02*
X338853926Y-58561904D01*
X338853926Y-58561904D02*
X338949164Y-58609523D01*
X338949164Y-58609523D02*
X339139640Y-58657142D01*
X339139640Y-58657142D02*
X339282497Y-58657142D01*
X339282497Y-58657142D02*
X339472973Y-58609523D01*
X339472973Y-58609523D02*
X339568211Y-58561904D01*
X339568211Y-58561904D02*
X339663450Y-58466666D01*
X339663450Y-58466666D02*
X339711069Y-58323809D01*
X339711069Y-58323809D02*
X339711069Y-58085714D01*
X338806307Y-59038095D02*
X338758688Y-59085714D01*
X338758688Y-59085714D02*
X338711069Y-59180952D01*
X338711069Y-59180952D02*
X338711069Y-59419047D01*
X338711069Y-59419047D02*
X338758688Y-59514285D01*
X338758688Y-59514285D02*
X338806307Y-59561904D01*
X338806307Y-59561904D02*
X338901545Y-59609523D01*
X338901545Y-59609523D02*
X338996783Y-59609523D01*
X338996783Y-59609523D02*
X339139640Y-59561904D01*
X339139640Y-59561904D02*
X339711069Y-58990476D01*
X339711069Y-58990476D02*
X339711069Y-59609523D01*
X339139640Y-60180952D02*
X339092021Y-60085714D01*
X339092021Y-60085714D02*
X339044402Y-60038095D01*
X339044402Y-60038095D02*
X338949164Y-59990476D01*
X338949164Y-59990476D02*
X338901545Y-59990476D01*
X338901545Y-59990476D02*
X338806307Y-60038095D01*
X338806307Y-60038095D02*
X338758688Y-60085714D01*
X338758688Y-60085714D02*
X338711069Y-60180952D01*
X338711069Y-60180952D02*
X338711069Y-60371428D01*
X338711069Y-60371428D02*
X338758688Y-60466666D01*
X338758688Y-60466666D02*
X338806307Y-60514285D01*
X338806307Y-60514285D02*
X338901545Y-60561904D01*
X338901545Y-60561904D02*
X338949164Y-60561904D01*
X338949164Y-60561904D02*
X339044402Y-60514285D01*
X339044402Y-60514285D02*
X339092021Y-60466666D01*
X339092021Y-60466666D02*
X339139640Y-60371428D01*
X339139640Y-60371428D02*
X339139640Y-60180952D01*
X339139640Y-60180952D02*
X339187259Y-60085714D01*
X339187259Y-60085714D02*
X339234878Y-60038095D01*
X339234878Y-60038095D02*
X339330116Y-59990476D01*
X339330116Y-59990476D02*
X339520592Y-59990476D01*
X339520592Y-59990476D02*
X339615830Y-60038095D01*
X339615830Y-60038095D02*
X339663450Y-60085714D01*
X339663450Y-60085714D02*
X339711069Y-60180952D01*
X339711069Y-60180952D02*
X339711069Y-60371428D01*
X339711069Y-60371428D02*
X339663450Y-60466666D01*
X339663450Y-60466666D02*
X339615830Y-60514285D01*
X339615830Y-60514285D02*
X339520592Y-60561904D01*
X339520592Y-60561904D02*
X339330116Y-60561904D01*
X339330116Y-60561904D02*
X339234878Y-60514285D01*
X339234878Y-60514285D02*
X339187259Y-60466666D01*
X339187259Y-60466666D02*
X339139640Y-60371428D01*
X339711069Y-39035714D02*
X338711069Y-39035714D01*
X338711069Y-39035714D02*
X338711069Y-39273809D01*
X338711069Y-39273809D02*
X338758688Y-39416666D01*
X338758688Y-39416666D02*
X338853926Y-39511904D01*
X338853926Y-39511904D02*
X338949164Y-39559523D01*
X338949164Y-39559523D02*
X339139640Y-39607142D01*
X339139640Y-39607142D02*
X339282497Y-39607142D01*
X339282497Y-39607142D02*
X339472973Y-39559523D01*
X339472973Y-39559523D02*
X339568211Y-39511904D01*
X339568211Y-39511904D02*
X339663450Y-39416666D01*
X339663450Y-39416666D02*
X339711069Y-39273809D01*
X339711069Y-39273809D02*
X339711069Y-39035714D01*
X339711069Y-40559523D02*
X339711069Y-39988095D01*
X339711069Y-40273809D02*
X338711069Y-40273809D01*
X338711069Y-40273809D02*
X338853926Y-40178571D01*
X338853926Y-40178571D02*
X338949164Y-40083333D01*
X338949164Y-40083333D02*
X338996783Y-39988095D01*
X338711069Y-40892857D02*
X338711069Y-41511904D01*
X338711069Y-41511904D02*
X339092021Y-41178571D01*
X339092021Y-41178571D02*
X339092021Y-41321428D01*
X339092021Y-41321428D02*
X339139640Y-41416666D01*
X339139640Y-41416666D02*
X339187259Y-41464285D01*
X339187259Y-41464285D02*
X339282497Y-41511904D01*
X339282497Y-41511904D02*
X339520592Y-41511904D01*
X339520592Y-41511904D02*
X339615830Y-41464285D01*
X339615830Y-41464285D02*
X339663450Y-41416666D01*
X339663450Y-41416666D02*
X339711069Y-41321428D01*
X339711069Y-41321428D02*
X339711069Y-41035714D01*
X339711069Y-41035714D02*
X339663450Y-40940476D01*
X339663450Y-40940476D02*
X339615830Y-40892857D01*
X206361069Y-77135714D02*
X205361069Y-77135714D01*
X205361069Y-77135714D02*
X205361069Y-77373809D01*
X205361069Y-77373809D02*
X205408688Y-77516666D01*
X205408688Y-77516666D02*
X205503926Y-77611904D01*
X205503926Y-77611904D02*
X205599164Y-77659523D01*
X205599164Y-77659523D02*
X205789640Y-77707142D01*
X205789640Y-77707142D02*
X205932497Y-77707142D01*
X205932497Y-77707142D02*
X206122973Y-77659523D01*
X206122973Y-77659523D02*
X206218211Y-77611904D01*
X206218211Y-77611904D02*
X206313450Y-77516666D01*
X206313450Y-77516666D02*
X206361069Y-77373809D01*
X206361069Y-77373809D02*
X206361069Y-77135714D01*
X205361069Y-78040476D02*
X205361069Y-78659523D01*
X205361069Y-78659523D02*
X205742021Y-78326190D01*
X205742021Y-78326190D02*
X205742021Y-78469047D01*
X205742021Y-78469047D02*
X205789640Y-78564285D01*
X205789640Y-78564285D02*
X205837259Y-78611904D01*
X205837259Y-78611904D02*
X205932497Y-78659523D01*
X205932497Y-78659523D02*
X206170592Y-78659523D01*
X206170592Y-78659523D02*
X206265830Y-78611904D01*
X206265830Y-78611904D02*
X206313450Y-78564285D01*
X206313450Y-78564285D02*
X206361069Y-78469047D01*
X206361069Y-78469047D02*
X206361069Y-78183333D01*
X206361069Y-78183333D02*
X206313450Y-78088095D01*
X206313450Y-78088095D02*
X206265830Y-78040476D01*
X205361069Y-79516666D02*
X205361069Y-79326190D01*
X205361069Y-79326190D02*
X205408688Y-79230952D01*
X205408688Y-79230952D02*
X205456307Y-79183333D01*
X205456307Y-79183333D02*
X205599164Y-79088095D01*
X205599164Y-79088095D02*
X205789640Y-79040476D01*
X205789640Y-79040476D02*
X206170592Y-79040476D01*
X206170592Y-79040476D02*
X206265830Y-79088095D01*
X206265830Y-79088095D02*
X206313450Y-79135714D01*
X206313450Y-79135714D02*
X206361069Y-79230952D01*
X206361069Y-79230952D02*
X206361069Y-79421428D01*
X206361069Y-79421428D02*
X206313450Y-79516666D01*
X206313450Y-79516666D02*
X206265830Y-79564285D01*
X206265830Y-79564285D02*
X206170592Y-79611904D01*
X206170592Y-79611904D02*
X205932497Y-79611904D01*
X205932497Y-79611904D02*
X205837259Y-79564285D01*
X205837259Y-79564285D02*
X205789640Y-79516666D01*
X205789640Y-79516666D02*
X205742021Y-79421428D01*
X205742021Y-79421428D02*
X205742021Y-79230952D01*
X205742021Y-79230952D02*
X205789640Y-79135714D01*
X205789640Y-79135714D02*
X205837259Y-79088095D01*
X205837259Y-79088095D02*
X205932497Y-79040476D01*
D11*
G04 #@! TO.C,G\u002A\u002A\u002A*
G36*
X365798583Y-97249852D02*
G01*
X365798583Y-97489900D01*
X365702290Y-97489900D01*
X365669738Y-97489641D01*
X365614186Y-97486222D01*
X365578119Y-97476712D01*
X365554297Y-97458460D01*
X365535476Y-97428815D01*
X365530649Y-97417472D01*
X365519520Y-97368192D01*
X365513508Y-97303373D01*
X365512528Y-97232049D01*
X365516493Y-97163255D01*
X365525316Y-97106029D01*
X365538912Y-97069405D01*
X365550059Y-97053649D01*
X365571822Y-97029886D01*
X365597918Y-97016833D01*
X365636898Y-97011284D01*
X365697313Y-97010035D01*
X365798583Y-97009805D01*
X365798583Y-97249852D01*
G37*
G36*
X370356168Y-97718695D02*
G01*
X370351979Y-98892676D01*
X370315233Y-98996622D01*
X370292105Y-99054990D01*
X370224701Y-99178101D01*
X370139994Y-99283204D01*
X370041290Y-99366608D01*
X369931896Y-99424621D01*
X369929226Y-99425647D01*
X369912831Y-99431371D01*
X369894441Y-99436265D01*
X369871723Y-99440395D01*
X369842343Y-99443830D01*
X369803966Y-99446636D01*
X369754257Y-99448880D01*
X369690884Y-99450630D01*
X369611510Y-99451953D01*
X369513802Y-99452915D01*
X369395426Y-99453584D01*
X369254046Y-99454027D01*
X369087330Y-99454312D01*
X368892942Y-99454505D01*
X367929002Y-99455287D01*
X367929002Y-99283499D01*
X367929002Y-99111711D01*
X368571500Y-99107214D01*
X369213997Y-99102717D01*
X369277440Y-99060715D01*
X369293227Y-99049460D01*
X369359203Y-98983347D01*
X369411362Y-98899627D01*
X369443374Y-98807945D01*
X369444962Y-98797459D01*
X369448272Y-98752222D01*
X369451162Y-98677635D01*
X369453624Y-98574152D01*
X369455652Y-98442228D01*
X369457240Y-98282316D01*
X369458382Y-98094870D01*
X369459072Y-97880343D01*
X369459303Y-97639191D01*
X369459303Y-96544714D01*
X369909830Y-96544714D01*
X370360356Y-96544714D01*
X370356168Y-97718695D01*
G37*
G36*
X362884601Y-96544717D02*
G01*
X362996651Y-96545558D01*
X363083694Y-96548477D01*
X363150367Y-96554330D01*
X363201308Y-96563972D01*
X363241154Y-96578260D01*
X363274544Y-96598050D01*
X363306116Y-96624195D01*
X363310497Y-96628271D01*
X363339155Y-96658855D01*
X363360853Y-96692461D01*
X363376528Y-96733583D01*
X363387121Y-96786712D01*
X363393568Y-96856340D01*
X363396809Y-96946961D01*
X363397781Y-97063066D01*
X363397453Y-97153643D01*
X363395684Y-97244110D01*
X363392285Y-97308390D01*
X363387134Y-97348604D01*
X363380106Y-97366875D01*
X363369630Y-97374944D01*
X363339538Y-97384879D01*
X363337305Y-97384132D01*
X363316617Y-97368644D01*
X363278772Y-97335343D01*
X363226731Y-97287168D01*
X363163456Y-97227055D01*
X363091906Y-97157942D01*
X363015042Y-97082765D01*
X362935826Y-97004464D01*
X362857217Y-96925974D01*
X362782177Y-96850234D01*
X362713666Y-96780180D01*
X362654645Y-96718750D01*
X362608075Y-96668882D01*
X362576916Y-96633513D01*
X362564129Y-96615579D01*
X362561709Y-96607229D01*
X362559510Y-96586126D01*
X362567467Y-96570335D01*
X362588887Y-96559103D01*
X362627076Y-96551678D01*
X362685341Y-96547307D01*
X362766989Y-96545237D01*
X362875326Y-96544714D01*
X362884601Y-96544717D01*
G37*
G36*
X363343124Y-97564966D02*
G01*
X363361774Y-97568338D01*
X363375697Y-97579614D01*
X363385571Y-97602479D01*
X363392072Y-97640614D01*
X363395878Y-97697701D01*
X363397665Y-97777422D01*
X363398110Y-97883459D01*
X363398010Y-97933559D01*
X363396908Y-98029753D01*
X363394347Y-98102257D01*
X363390025Y-98155464D01*
X363383639Y-98193771D01*
X363374890Y-98221571D01*
X363355623Y-98260911D01*
X363301432Y-98328234D01*
X363225576Y-98376724D01*
X363215268Y-98381214D01*
X363189289Y-98389854D01*
X363157026Y-98396108D01*
X363113736Y-98400351D01*
X363054675Y-98402956D01*
X362975100Y-98404298D01*
X362870267Y-98404750D01*
X362839150Y-98404777D01*
X362745593Y-98404616D01*
X362676897Y-98403761D01*
X362629043Y-98401829D01*
X362598009Y-98398435D01*
X362579776Y-98393195D01*
X362570321Y-98385725D01*
X362565626Y-98375641D01*
X362562935Y-98355867D01*
X362571056Y-98319380D01*
X362571545Y-98318542D01*
X362588724Y-98297268D01*
X362623640Y-98259263D01*
X362673308Y-98207458D01*
X362734742Y-98144783D01*
X362804957Y-98074170D01*
X362880970Y-97998547D01*
X362959794Y-97920847D01*
X363038445Y-97843999D01*
X363113937Y-97770933D01*
X363183286Y-97704581D01*
X363243507Y-97647873D01*
X363291615Y-97603738D01*
X363324625Y-97575109D01*
X363339551Y-97564914D01*
X363343124Y-97564966D01*
G37*
G36*
X375918614Y-97578270D02*
G01*
X375919563Y-97716388D01*
X375920433Y-97878197D01*
X375921284Y-98065801D01*
X375922177Y-98281305D01*
X375926938Y-99455287D01*
X375468667Y-99455287D01*
X375010396Y-99455287D01*
X375010396Y-98817661D01*
X375010396Y-98180036D01*
X374560307Y-98180036D01*
X374110219Y-98180036D01*
X374110219Y-98817661D01*
X374110219Y-99455287D01*
X373652629Y-99455287D01*
X373195039Y-99455287D01*
X373195039Y-97999722D01*
X373195039Y-96887684D01*
X374110219Y-96887684D01*
X374110219Y-97353824D01*
X374110219Y-97819965D01*
X374560307Y-97819965D01*
X375010396Y-97819965D01*
X375010396Y-97498378D01*
X375010396Y-97498162D01*
X375009640Y-97390166D01*
X375007499Y-97295687D01*
X375004151Y-97218845D01*
X374999777Y-97163762D01*
X374994554Y-97134556D01*
X374963204Y-97071227D01*
X374903483Y-96994929D01*
X374831413Y-96937593D01*
X374808397Y-96924491D01*
X374786677Y-96914439D01*
X374762003Y-96907071D01*
X374729867Y-96901874D01*
X374685760Y-96898331D01*
X374625174Y-96895929D01*
X374543601Y-96894151D01*
X374436533Y-96892483D01*
X374110219Y-96887684D01*
X373195039Y-96887684D01*
X373195039Y-96544158D01*
X374324011Y-96548187D01*
X375452983Y-96552215D01*
X375525480Y-96588203D01*
X375554277Y-96603656D01*
X375656518Y-96678093D01*
X375748659Y-96775872D01*
X375826596Y-96892060D01*
X375886224Y-97021724D01*
X375891561Y-97036958D01*
X375896605Y-97053949D01*
X375900968Y-97073579D01*
X375904712Y-97097955D01*
X375907896Y-97129181D01*
X375910581Y-97169362D01*
X375912826Y-97220603D01*
X375914691Y-97285009D01*
X375916238Y-97364686D01*
X375917525Y-97461738D01*
X375917865Y-97498162D01*
X375918614Y-97578270D01*
G37*
G36*
X372894979Y-97694025D02*
G01*
X372894980Y-97709161D01*
X372894972Y-97929061D01*
X372894851Y-98121258D01*
X372894473Y-98287915D01*
X372893695Y-98431195D01*
X372892376Y-98553261D01*
X372890371Y-98656278D01*
X372887539Y-98742408D01*
X372883736Y-98813815D01*
X372878820Y-98872662D01*
X372872649Y-98921112D01*
X372865079Y-98961329D01*
X372855967Y-98995476D01*
X372845172Y-99025717D01*
X372832549Y-99054215D01*
X372817958Y-99083133D01*
X372801254Y-99114635D01*
X372756753Y-99189641D01*
X372672955Y-99293133D01*
X372574992Y-99371852D01*
X372460615Y-99427869D01*
X372457339Y-99429037D01*
X372440302Y-99433998D01*
X372418551Y-99438241D01*
X372389787Y-99441824D01*
X372351711Y-99444807D01*
X372302023Y-99447249D01*
X372238424Y-99449207D01*
X372158615Y-99450742D01*
X372060296Y-99451913D01*
X371941169Y-99452777D01*
X371798934Y-99453394D01*
X371631291Y-99453824D01*
X371435942Y-99454124D01*
X370479504Y-99455287D01*
X370479504Y-99283506D01*
X370479504Y-99111726D01*
X371113379Y-99107222D01*
X371146264Y-99106991D01*
X371301520Y-99105896D01*
X371430231Y-99104671D01*
X371535299Y-99102870D01*
X371619629Y-99100050D01*
X371686125Y-99095766D01*
X371737689Y-99089574D01*
X371777225Y-99081031D01*
X371807637Y-99069692D01*
X371831829Y-99055113D01*
X371852703Y-99036849D01*
X371873164Y-99014457D01*
X371896115Y-98987493D01*
X371912512Y-98968349D01*
X371928224Y-98948858D01*
X371941798Y-98928801D01*
X371953389Y-98906074D01*
X371963156Y-98878574D01*
X371971253Y-98844200D01*
X371977837Y-98800848D01*
X371983065Y-98746415D01*
X371987092Y-98678798D01*
X371990076Y-98595896D01*
X371992171Y-98495604D01*
X371993535Y-98375820D01*
X371994324Y-98234442D01*
X371994694Y-98069366D01*
X371994801Y-97878490D01*
X371994802Y-97659711D01*
X371994802Y-96544714D01*
X372444891Y-96544714D01*
X372894979Y-96544714D01*
X372894979Y-97694025D01*
G37*
G36*
X383017379Y-96576942D02*
G01*
X383024435Y-96579694D01*
X383097336Y-96619948D01*
X383174168Y-96680232D01*
X383247921Y-96753648D01*
X383311586Y-96833299D01*
X383358153Y-96912286D01*
X383377007Y-96955984D01*
X383419265Y-97097065D01*
X383437377Y-97242846D01*
X383430884Y-97386503D01*
X383399323Y-97521213D01*
X383372280Y-97593642D01*
X383342768Y-97654756D01*
X383305680Y-97710988D01*
X383253780Y-97774956D01*
X383248561Y-97781016D01*
X383203752Y-97830059D01*
X383157308Y-97874321D01*
X383106248Y-97915393D01*
X383047595Y-97954865D01*
X382978367Y-97994328D01*
X382895586Y-98035374D01*
X382796273Y-98079592D01*
X382677448Y-98128575D01*
X382536132Y-98183912D01*
X382369345Y-98247194D01*
X382278962Y-98281282D01*
X382143175Y-98333392D01*
X382031176Y-98378001D01*
X381940074Y-98416587D01*
X381866977Y-98450626D01*
X381808994Y-98481597D01*
X381763233Y-98510976D01*
X381726804Y-98540242D01*
X381696815Y-98570871D01*
X381670373Y-98604341D01*
X381656745Y-98624361D01*
X381633230Y-98675952D01*
X381626698Y-98734723D01*
X381626764Y-98742044D01*
X381640652Y-98840997D01*
X381676390Y-98930473D01*
X381730549Y-99005621D01*
X381799696Y-99061589D01*
X381880402Y-99093525D01*
X381906822Y-99097075D01*
X381967307Y-99101055D01*
X382057046Y-99104331D01*
X382175619Y-99106894D01*
X382322607Y-99108735D01*
X382497590Y-99109846D01*
X382700148Y-99110219D01*
X383442056Y-99110219D01*
X383442056Y-99282753D01*
X383442056Y-99455287D01*
X382335588Y-99455361D01*
X382319899Y-99455362D01*
X382106277Y-99455402D01*
X381920354Y-99455365D01*
X381759970Y-99455079D01*
X381622964Y-99454374D01*
X381507177Y-99453080D01*
X381410451Y-99451025D01*
X381330624Y-99448039D01*
X381265538Y-99443951D01*
X381213032Y-99438591D01*
X381170947Y-99431789D01*
X381137124Y-99423372D01*
X381109402Y-99413171D01*
X381085623Y-99401016D01*
X381063626Y-99386734D01*
X381041252Y-99370157D01*
X381016341Y-99351112D01*
X380996000Y-99335071D01*
X380898131Y-99235980D01*
X380818506Y-99116096D01*
X380759451Y-98979552D01*
X380723292Y-98830478D01*
X380714971Y-98714216D01*
X380730442Y-98571445D01*
X380772776Y-98433038D01*
X380840303Y-98302884D01*
X380931355Y-98184873D01*
X381044260Y-98082893D01*
X381056664Y-98073662D01*
X381111580Y-98035353D01*
X381169228Y-98000063D01*
X381233916Y-97965764D01*
X381309950Y-97930426D01*
X381401638Y-97892021D01*
X381513286Y-97848518D01*
X381649203Y-97797889D01*
X381786557Y-97747278D01*
X381938201Y-97690593D01*
X382065735Y-97641525D01*
X382171527Y-97598814D01*
X382257946Y-97561198D01*
X382327360Y-97527417D01*
X382382138Y-97496210D01*
X382424648Y-97466316D01*
X382457260Y-97436474D01*
X382482341Y-97405423D01*
X382502261Y-97371902D01*
X382519388Y-97334650D01*
X382526532Y-97313973D01*
X382533759Y-97239157D01*
X382518494Y-97157975D01*
X382483380Y-97077092D01*
X382431055Y-97003171D01*
X382364160Y-96942876D01*
X382298965Y-96897283D01*
X381489665Y-96900226D01*
X380680366Y-96903169D01*
X380617843Y-96937733D01*
X380598484Y-96950036D01*
X380550008Y-96990994D01*
X380509645Y-97037344D01*
X380463969Y-97102391D01*
X380459865Y-98278839D01*
X380455761Y-99455287D01*
X380006026Y-99455287D01*
X379556291Y-99455287D01*
X379556291Y-98331951D01*
X379556294Y-98150568D01*
X379556233Y-97956912D01*
X379555971Y-97789400D01*
X379555371Y-97645917D01*
X379554298Y-97524351D01*
X379552616Y-97422587D01*
X379550187Y-97338512D01*
X379546877Y-97270010D01*
X379542547Y-97214969D01*
X379537063Y-97171274D01*
X379530287Y-97136812D01*
X379522083Y-97109468D01*
X379512316Y-97087129D01*
X379500848Y-97067680D01*
X379487544Y-97049008D01*
X379472266Y-97028999D01*
X379412394Y-96966628D01*
X379329979Y-96918643D01*
X379231251Y-96895441D01*
X379165802Y-96891750D01*
X379067907Y-96902465D01*
X378984461Y-96935992D01*
X378910764Y-96993774D01*
X378902987Y-97001488D01*
X378882436Y-97021742D01*
X378864565Y-97040628D01*
X378849187Y-97060239D01*
X378836116Y-97082665D01*
X378825164Y-97109999D01*
X378816145Y-97144332D01*
X378808871Y-97187756D01*
X378803157Y-97242361D01*
X378798814Y-97310240D01*
X378795657Y-97393484D01*
X378793498Y-97494184D01*
X378792151Y-97614433D01*
X378791429Y-97756321D01*
X378791144Y-97921940D01*
X378791110Y-98113382D01*
X378791140Y-98332738D01*
X378791140Y-99455287D01*
X378341052Y-99455287D01*
X377890963Y-99455287D01*
X377890963Y-98347791D01*
X377890963Y-98176084D01*
X377890882Y-97980153D01*
X377890572Y-97810448D01*
X377889880Y-97664842D01*
X377888656Y-97541207D01*
X377886748Y-97437418D01*
X377884005Y-97351346D01*
X377880276Y-97280866D01*
X377875411Y-97223849D01*
X377869256Y-97178168D01*
X377861663Y-97141697D01*
X377852478Y-97112309D01*
X377841552Y-97087876D01*
X377828732Y-97066272D01*
X377813869Y-97045369D01*
X377796810Y-97023041D01*
X377752260Y-96973269D01*
X377688703Y-96929014D01*
X377612192Y-96904705D01*
X377515889Y-96897283D01*
X377512910Y-96897287D01*
X377451559Y-96898976D01*
X377397358Y-96903139D01*
X377361731Y-96908916D01*
X377354387Y-96911262D01*
X377302685Y-96940153D01*
X377248031Y-96987610D01*
X377198237Y-97045909D01*
X377161112Y-97107324D01*
X377126105Y-97182339D01*
X377125959Y-98318813D01*
X377125812Y-99455287D01*
X376668222Y-99455287D01*
X376210632Y-99455287D01*
X376210929Y-98356320D01*
X376211001Y-98262457D01*
X376211441Y-98070918D01*
X376212253Y-97891092D01*
X376213407Y-97725265D01*
X376214875Y-97575723D01*
X376216628Y-97444754D01*
X376218637Y-97334644D01*
X376220876Y-97247679D01*
X376223314Y-97186147D01*
X376225923Y-97152333D01*
X376244266Y-97066572D01*
X376288675Y-96948181D01*
X376351463Y-96835061D01*
X376428441Y-96733386D01*
X376515420Y-96649328D01*
X376608210Y-96589059D01*
X376683225Y-96552215D01*
X379806747Y-96548359D01*
X382930268Y-96544503D01*
X383017379Y-96576942D01*
G37*
G36*
X367916967Y-96852363D02*
G01*
X367922105Y-96911457D01*
X367925312Y-96986047D01*
X367926937Y-97079034D01*
X367927326Y-97193321D01*
X367927250Y-97214333D01*
X367926826Y-97331810D01*
X367925785Y-97497401D01*
X367925553Y-97531833D01*
X367924414Y-97683661D01*
X367923178Y-97808917D01*
X367921719Y-97910453D01*
X367919910Y-97991121D01*
X367917622Y-98053774D01*
X367914728Y-98101265D01*
X367911248Y-98135027D01*
X367911102Y-98136446D01*
X367906615Y-98162169D01*
X367901140Y-98181287D01*
X367894550Y-98196652D01*
X367852575Y-98261772D01*
X367786226Y-98329251D01*
X367711459Y-98377010D01*
X367706561Y-98379133D01*
X367695748Y-98382932D01*
X367681865Y-98386331D01*
X367663328Y-98389354D01*
X367638553Y-98392023D01*
X367605955Y-98394360D01*
X367563949Y-98396388D01*
X367510952Y-98398129D01*
X367445377Y-98399605D01*
X367365642Y-98400839D01*
X367270162Y-98401854D01*
X367157351Y-98402671D01*
X367025626Y-98403314D01*
X366873402Y-98403804D01*
X366699095Y-98404164D01*
X366501120Y-98404416D01*
X366277892Y-98404583D01*
X366027827Y-98404687D01*
X365749341Y-98404750D01*
X365700074Y-98404760D01*
X365422108Y-98404847D01*
X365172312Y-98404931D01*
X364949112Y-98404942D01*
X364750935Y-98404806D01*
X364576206Y-98404452D01*
X364423353Y-98403809D01*
X364290802Y-98402804D01*
X364176979Y-98401365D01*
X364080311Y-98399422D01*
X363999224Y-98396901D01*
X363932145Y-98393732D01*
X363877500Y-98389842D01*
X363833716Y-98385159D01*
X363799219Y-98379612D01*
X363772435Y-98373129D01*
X363751792Y-98365639D01*
X363735715Y-98357068D01*
X363722631Y-98347346D01*
X363710967Y-98336400D01*
X363699148Y-98324159D01*
X363685602Y-98310551D01*
X363676905Y-98301819D01*
X363636172Y-98253011D01*
X363603086Y-98202540D01*
X363600311Y-98197359D01*
X363593055Y-98182450D01*
X363587090Y-98165895D01*
X363582290Y-98144859D01*
X363578527Y-98116504D01*
X363575677Y-98077996D01*
X363573612Y-98026498D01*
X363572207Y-97959173D01*
X363571333Y-97873187D01*
X363570866Y-97765703D01*
X363570678Y-97633885D01*
X363570644Y-97474897D01*
X363570647Y-97403743D01*
X363570723Y-97256739D01*
X363570999Y-97135688D01*
X363571606Y-97037748D01*
X363572673Y-96960076D01*
X363574328Y-96899830D01*
X363576702Y-96854167D01*
X363577594Y-96844773D01*
X364146263Y-96844773D01*
X364151011Y-97193591D01*
X364151548Y-97232823D01*
X364153103Y-97335031D01*
X364154876Y-97412940D01*
X364157332Y-97470854D01*
X364160938Y-97513076D01*
X364166157Y-97543910D01*
X364173456Y-97567659D01*
X364183299Y-97588628D01*
X364196153Y-97611119D01*
X364200926Y-97619175D01*
X364236404Y-97672104D01*
X364270677Y-97704124D01*
X364312807Y-97721362D01*
X364371855Y-97729947D01*
X364455818Y-97737448D01*
X364460004Y-97936238D01*
X364464191Y-98135027D01*
X364621286Y-98135027D01*
X364778382Y-98135027D01*
X364778382Y-97964379D01*
X365168459Y-97964379D01*
X365168459Y-98135027D01*
X365325990Y-98135027D01*
X365483521Y-98135027D01*
X365483604Y-97973745D01*
X365485347Y-97874428D01*
X365492452Y-97792437D01*
X365507236Y-97733384D01*
X365532011Y-97693689D01*
X365569088Y-97669770D01*
X365620780Y-97658045D01*
X365689399Y-97654932D01*
X365798583Y-97654932D01*
X365798583Y-97894979D01*
X365798583Y-98135027D01*
X365956114Y-98135027D01*
X366113645Y-98135027D01*
X366113645Y-97489900D01*
X366113645Y-96844773D01*
X366188659Y-96844773D01*
X366188659Y-96927289D01*
X366188659Y-97009805D01*
X366402451Y-97010035D01*
X366430505Y-97010159D01*
X366505404Y-97011461D01*
X366567879Y-97013941D01*
X366612070Y-97017312D01*
X366632116Y-97021287D01*
X366649491Y-97035236D01*
X366673413Y-97066848D01*
X366688547Y-97111182D01*
X366696470Y-97173907D01*
X366698760Y-97260692D01*
X366698760Y-97414885D01*
X366496220Y-97414885D01*
X366293680Y-97414885D01*
X366293680Y-97489900D01*
X366293680Y-97497401D01*
X366293680Y-97579917D01*
X366496220Y-97579917D01*
X366698760Y-97579917D01*
X366698760Y-97857472D01*
X366698760Y-98135027D01*
X366864967Y-98135027D01*
X367031174Y-98135027D01*
X367026249Y-97606173D01*
X367022137Y-97164737D01*
X367314214Y-97164737D01*
X367314342Y-97199153D01*
X367316002Y-97283734D01*
X367320712Y-97345042D01*
X367329926Y-97388108D01*
X367345102Y-97417960D01*
X367367695Y-97439627D01*
X367399162Y-97458138D01*
X367417040Y-97465952D01*
X367478805Y-97474528D01*
X367536585Y-97457164D01*
X367584149Y-97416793D01*
X367615270Y-97356348D01*
X367618700Y-97341627D01*
X367624836Y-97287826D01*
X367627555Y-97214333D01*
X367626501Y-97128358D01*
X367624651Y-97084627D01*
X367617689Y-97003194D01*
X367605372Y-96944792D01*
X367585741Y-96904629D01*
X367556837Y-96877918D01*
X367516702Y-96859869D01*
X367462471Y-96850297D01*
X367403224Y-96864427D01*
X367351344Y-96907573D01*
X367347019Y-96912766D01*
X367333486Y-96931268D01*
X367324261Y-96951673D01*
X367318533Y-96979602D01*
X367315490Y-97020676D01*
X367314321Y-97080514D01*
X367314214Y-97164737D01*
X367022137Y-97164737D01*
X367021323Y-97077318D01*
X366978341Y-96989782D01*
X366963170Y-96959501D01*
X366941770Y-96922368D01*
X366918522Y-96894266D01*
X366889404Y-96873936D01*
X366850394Y-96860120D01*
X366797468Y-96851560D01*
X366726604Y-96846997D01*
X366633780Y-96845173D01*
X366514974Y-96844829D01*
X366188659Y-96844773D01*
X366113645Y-96844773D01*
X365744092Y-96844773D01*
X365721619Y-96844776D01*
X365599582Y-96845181D01*
X365503247Y-96846981D01*
X365428912Y-96851196D01*
X365372875Y-96858847D01*
X365331434Y-96870952D01*
X365300886Y-96888533D01*
X365277529Y-96912609D01*
X365257661Y-96944200D01*
X365237580Y-96984326D01*
X365221124Y-97024211D01*
X365196871Y-97121667D01*
X365188143Y-97226970D01*
X365194693Y-97331598D01*
X365216274Y-97427025D01*
X365252640Y-97504728D01*
X365291327Y-97563187D01*
X365252691Y-97613841D01*
X365226783Y-97651529D01*
X365198834Y-97709010D01*
X365180878Y-97775813D01*
X365171293Y-97858688D01*
X365168459Y-97964379D01*
X364778382Y-97964379D01*
X364778382Y-97932487D01*
X364778382Y-97729947D01*
X364852245Y-97729947D01*
X364871788Y-97729149D01*
X364944366Y-97709036D01*
X365003916Y-97661953D01*
X365050240Y-97588040D01*
X365050806Y-97586786D01*
X365059732Y-97563569D01*
X365066487Y-97536154D01*
X365071368Y-97500239D01*
X365074673Y-97451523D01*
X365076700Y-97385706D01*
X365077747Y-97298487D01*
X365078111Y-97185565D01*
X365078441Y-96843723D01*
X364924661Y-96847999D01*
X364770880Y-96852274D01*
X364763379Y-97177054D01*
X364761066Y-97272382D01*
X364757709Y-97368759D01*
X364752625Y-97441235D01*
X364744472Y-97493217D01*
X364731913Y-97528111D01*
X364713606Y-97549321D01*
X364688212Y-97560255D01*
X364654391Y-97564317D01*
X364610803Y-97564914D01*
X364563838Y-97563955D01*
X364532377Y-97558224D01*
X364512092Y-97543647D01*
X364493161Y-97516155D01*
X364492019Y-97514265D01*
X364482236Y-97495405D01*
X364474961Y-97473173D01*
X364469828Y-97443131D01*
X364466471Y-97400840D01*
X364464521Y-97341861D01*
X364463612Y-97261755D01*
X364463376Y-97156084D01*
X364463320Y-96844773D01*
X364304791Y-96844773D01*
X364146263Y-96844773D01*
X363577594Y-96844773D01*
X363579924Y-96820245D01*
X363584124Y-96795221D01*
X363589431Y-96776253D01*
X363595974Y-96760499D01*
X363603883Y-96745115D01*
X363640356Y-96691536D01*
X363696126Y-96633798D01*
X363758192Y-96587162D01*
X363817212Y-96559741D01*
X363827872Y-96558307D01*
X363869242Y-96556068D01*
X363939528Y-96554022D01*
X364038051Y-96552173D01*
X364164129Y-96550528D01*
X364317082Y-96549091D01*
X364496230Y-96547867D01*
X364700893Y-96546862D01*
X364930389Y-96546080D01*
X365184038Y-96545527D01*
X365461161Y-96545207D01*
X365761075Y-96545127D01*
X365894363Y-96545132D01*
X366163829Y-96545089D01*
X366405584Y-96545044D01*
X366621201Y-96545082D01*
X366812251Y-96545293D01*
X366980309Y-96545764D01*
X367126946Y-96546582D01*
X367253736Y-96547835D01*
X367362252Y-96549611D01*
X367454066Y-96551996D01*
X367530751Y-96555080D01*
X367593880Y-96558948D01*
X367645026Y-96563689D01*
X367685761Y-96569391D01*
X367717659Y-96576140D01*
X367742293Y-96584026D01*
X367761234Y-96593134D01*
X367776056Y-96603553D01*
X367788332Y-96615370D01*
X367799635Y-96628674D01*
X367811537Y-96643550D01*
X367825611Y-96660088D01*
X367826162Y-96660699D01*
X367850172Y-96687760D01*
X367870169Y-96712905D01*
X367886499Y-96739035D01*
X367899511Y-96769054D01*
X367909551Y-96805863D01*
X367915589Y-96843723D01*
X367916967Y-96852363D01*
G37*
G36*
X387995959Y-98054225D02*
G01*
X387976077Y-98330026D01*
X387927656Y-98605191D01*
X387850223Y-98877673D01*
X387791429Y-99034003D01*
X387672912Y-99283600D01*
X387530562Y-99517536D01*
X387366187Y-99734435D01*
X387181591Y-99932917D01*
X386978581Y-100111603D01*
X386758963Y-100269115D01*
X386524542Y-100404074D01*
X386277125Y-100515103D01*
X386018518Y-100600821D01*
X385750526Y-100659851D01*
X385474956Y-100690815D01*
X385469149Y-100690926D01*
X385435480Y-100691138D01*
X385372865Y-100691344D01*
X385282007Y-100691544D01*
X385163607Y-100691737D01*
X385018366Y-100691924D01*
X384846986Y-100692104D01*
X384650168Y-100692277D01*
X384428614Y-100692443D01*
X384183025Y-100692602D01*
X383914104Y-100692753D01*
X383622551Y-100692897D01*
X383309067Y-100693033D01*
X382974356Y-100693161D01*
X382619117Y-100693281D01*
X382244053Y-100693393D01*
X381849865Y-100693496D01*
X381437255Y-100693590D01*
X381006923Y-100693676D01*
X380559572Y-100693753D01*
X380095904Y-100693821D01*
X379616619Y-100693880D01*
X379122419Y-100693929D01*
X378614006Y-100693968D01*
X378092082Y-100693998D01*
X377557347Y-100694018D01*
X377010503Y-100694028D01*
X376452252Y-100694027D01*
X375883295Y-100694016D01*
X375304335Y-100693994D01*
X374716071Y-100693962D01*
X374119207Y-100693919D01*
X373514443Y-100693865D01*
X372902481Y-100693799D01*
X372246082Y-100693721D01*
X371534028Y-100693629D01*
X370850849Y-100693534D01*
X370195944Y-100693432D01*
X369568713Y-100693324D01*
X368968556Y-100693208D01*
X368394874Y-100693083D01*
X367847067Y-100692947D01*
X367324535Y-100692799D01*
X366826679Y-100692638D01*
X366352897Y-100692463D01*
X365902592Y-100692273D01*
X365475162Y-100692066D01*
X365070008Y-100691840D01*
X364686530Y-100691596D01*
X364324128Y-100691331D01*
X363982203Y-100691045D01*
X363660155Y-100690735D01*
X363357383Y-100690402D01*
X363073289Y-100690043D01*
X362807272Y-100689657D01*
X362558732Y-100689244D01*
X362327070Y-100688801D01*
X362111686Y-100688328D01*
X361911980Y-100687823D01*
X361727352Y-100687286D01*
X361557202Y-100686715D01*
X361400931Y-100686108D01*
X361257939Y-100685465D01*
X361127626Y-100684784D01*
X361009391Y-100684064D01*
X360902636Y-100683303D01*
X360806761Y-100682502D01*
X360721165Y-100681657D01*
X360645249Y-100680769D01*
X360578413Y-100679835D01*
X360520057Y-100678855D01*
X360469582Y-100677827D01*
X360426387Y-100676750D01*
X360389873Y-100675623D01*
X360359440Y-100674445D01*
X360334488Y-100673214D01*
X360314418Y-100671929D01*
X360298629Y-100670589D01*
X360286521Y-100669193D01*
X360277496Y-100667739D01*
X360173348Y-100646234D01*
X359899987Y-100574551D01*
X359647649Y-100484121D01*
X359413496Y-100373489D01*
X359194689Y-100241199D01*
X358988388Y-100085795D01*
X358791757Y-99905822D01*
X358789649Y-99903712D01*
X358598699Y-99692139D01*
X358433984Y-99466268D01*
X358295321Y-99225739D01*
X358182525Y-98970190D01*
X358095414Y-98699258D01*
X358033804Y-98412581D01*
X358025215Y-98350131D01*
X358015124Y-98230985D01*
X358009642Y-98096709D01*
X358009041Y-98000000D01*
X358036314Y-98000000D01*
X358036417Y-98024641D01*
X358038438Y-98120660D01*
X358042653Y-98216434D01*
X358048544Y-98302044D01*
X358055588Y-98367572D01*
X358061030Y-98403959D01*
X358119145Y-98680937D01*
X358204588Y-98947003D01*
X358316252Y-99200593D01*
X358453029Y-99440142D01*
X358613810Y-99664085D01*
X358797490Y-99870858D01*
X359002959Y-100058895D01*
X359229111Y-100226634D01*
X359474838Y-100372508D01*
X359527490Y-100399319D01*
X359752470Y-100495817D01*
X360000122Y-100575251D01*
X360268381Y-100636931D01*
X360277209Y-100638407D01*
X360288556Y-100639872D01*
X360302765Y-100641277D01*
X360320438Y-100642625D01*
X360342179Y-100643916D01*
X360368591Y-100645151D01*
X360400278Y-100646333D01*
X360437841Y-100647461D01*
X360481886Y-100648538D01*
X360533014Y-100649565D01*
X360591830Y-100650543D01*
X360658936Y-100651473D01*
X360734935Y-100652357D01*
X360820431Y-100653196D01*
X360916027Y-100653991D01*
X361022326Y-100654744D01*
X361139932Y-100655455D01*
X361269447Y-100656127D01*
X361411475Y-100656760D01*
X361566619Y-100657356D01*
X361735482Y-100657916D01*
X361918667Y-100658441D01*
X362116778Y-100658933D01*
X362330418Y-100659392D01*
X362560190Y-100659821D01*
X362806698Y-100660221D01*
X363070543Y-100660592D01*
X363352331Y-100660936D01*
X363652663Y-100661255D01*
X363972144Y-100661549D01*
X364311376Y-100661820D01*
X364670962Y-100662070D01*
X365051506Y-100662299D01*
X365453611Y-100662509D01*
X365877880Y-100662701D01*
X366324917Y-100662877D01*
X366795324Y-100663037D01*
X367289705Y-100663184D01*
X367808663Y-100663317D01*
X368352801Y-100663440D01*
X368922722Y-100663552D01*
X369519031Y-100663656D01*
X370142329Y-100663752D01*
X370793220Y-100663842D01*
X371472307Y-100663927D01*
X372180194Y-100664008D01*
X372917484Y-100664087D01*
X373245488Y-100664119D01*
X373854001Y-100664171D01*
X374454926Y-100664210D01*
X375047562Y-100664237D01*
X375631208Y-100664253D01*
X376205163Y-100664257D01*
X376768728Y-100664250D01*
X377321201Y-100664232D01*
X377861882Y-100664203D01*
X378390071Y-100664163D01*
X378905067Y-100664113D01*
X379406169Y-100664052D01*
X379892677Y-100663981D01*
X380363891Y-100663900D01*
X380819109Y-100663810D01*
X381257631Y-100663710D01*
X381678758Y-100663601D01*
X382081787Y-100663483D01*
X382466020Y-100663355D01*
X382830754Y-100663219D01*
X383175290Y-100663075D01*
X383498927Y-100662922D01*
X383800965Y-100662761D01*
X384080702Y-100662592D01*
X384337439Y-100662416D01*
X384570475Y-100662232D01*
X384779110Y-100662040D01*
X384962642Y-100661842D01*
X385120372Y-100661636D01*
X385251598Y-100661424D01*
X385355620Y-100661205D01*
X385431739Y-100660980D01*
X385479252Y-100660749D01*
X385497460Y-100660512D01*
X385558447Y-100655335D01*
X385811296Y-100618131D01*
X386062303Y-100556860D01*
X386304029Y-100473612D01*
X386529033Y-100370480D01*
X386563049Y-100352326D01*
X386804445Y-100204686D01*
X387026641Y-100034892D01*
X387228447Y-99844630D01*
X387408672Y-99635584D01*
X387566126Y-99409440D01*
X387699617Y-99167882D01*
X387807956Y-98912594D01*
X387889951Y-98645263D01*
X387944412Y-98367572D01*
X387950316Y-98317676D01*
X387957934Y-98212102D01*
X387962112Y-98090979D01*
X387962848Y-97963379D01*
X387960144Y-97838373D01*
X387953998Y-97725032D01*
X387944412Y-97632428D01*
X387918080Y-97478960D01*
X387849002Y-97207863D01*
X387753901Y-96949243D01*
X387634166Y-96704496D01*
X387491188Y-96475018D01*
X387326358Y-96262206D01*
X387141066Y-96067454D01*
X386936704Y-95892161D01*
X386714660Y-95737721D01*
X386476328Y-95605531D01*
X386223095Y-95496987D01*
X385956355Y-95413486D01*
X385677496Y-95356423D01*
X385671799Y-95355930D01*
X385637004Y-95354735D01*
X385573400Y-95353575D01*
X385481839Y-95352449D01*
X385363174Y-95351359D01*
X385218258Y-95350303D01*
X385047942Y-95349283D01*
X384853080Y-95348297D01*
X384634523Y-95347346D01*
X384393124Y-95346429D01*
X384129735Y-95345548D01*
X383845209Y-95344701D01*
X383540398Y-95343890D01*
X383216154Y-95343113D01*
X382873331Y-95342371D01*
X382512779Y-95341664D01*
X382135352Y-95340991D01*
X381741902Y-95340354D01*
X381333282Y-95339751D01*
X380910343Y-95339183D01*
X380473938Y-95338650D01*
X380024920Y-95338152D01*
X379564141Y-95337689D01*
X379092453Y-95337260D01*
X378610709Y-95336867D01*
X378119761Y-95336508D01*
X377620461Y-95336184D01*
X377113663Y-95335895D01*
X376600217Y-95335641D01*
X376080977Y-95335421D01*
X375556796Y-95335237D01*
X375028524Y-95335087D01*
X374497016Y-95334972D01*
X373963122Y-95334892D01*
X373427696Y-95334847D01*
X372891590Y-95334836D01*
X372355657Y-95334861D01*
X371820748Y-95334920D01*
X371287716Y-95335014D01*
X370757414Y-95335143D01*
X370230694Y-95335307D01*
X369708408Y-95335506D01*
X369191409Y-95335739D01*
X368680548Y-95336008D01*
X368176679Y-95336311D01*
X367680654Y-95336649D01*
X367193326Y-95337022D01*
X366715545Y-95337429D01*
X366248166Y-95337872D01*
X365792040Y-95338349D01*
X365348020Y-95338862D01*
X364916958Y-95339409D01*
X364499707Y-95339991D01*
X364097119Y-95340607D01*
X363710045Y-95341259D01*
X363339340Y-95341945D01*
X362985855Y-95342667D01*
X362650442Y-95343423D01*
X362333954Y-95344214D01*
X362037243Y-95345040D01*
X361761162Y-95345900D01*
X361506562Y-95346796D01*
X361274298Y-95347726D01*
X361065220Y-95348691D01*
X360880181Y-95349691D01*
X360720034Y-95350726D01*
X360585630Y-95351796D01*
X360477823Y-95352900D01*
X360397465Y-95354040D01*
X360345408Y-95355214D01*
X360322505Y-95356423D01*
X360104490Y-95398870D01*
X359881280Y-95460639D01*
X359668379Y-95537859D01*
X359474838Y-95627634D01*
X359440945Y-95645750D01*
X359198096Y-95794243D01*
X358974850Y-95964506D01*
X358772335Y-96154952D01*
X358591675Y-96363990D01*
X358433995Y-96590031D01*
X358300422Y-96831484D01*
X358192079Y-97086761D01*
X358110093Y-97354272D01*
X358055588Y-97632428D01*
X358053605Y-97647551D01*
X358046821Y-97719469D01*
X358041331Y-97808795D01*
X358037655Y-97905611D01*
X358036314Y-98000000D01*
X358009041Y-98000000D01*
X358008769Y-97956258D01*
X358012505Y-97818588D01*
X358020850Y-97692657D01*
X358033804Y-97587419D01*
X358034310Y-97584379D01*
X358096183Y-97297867D01*
X358183558Y-97027096D01*
X358296619Y-96771703D01*
X358435550Y-96531327D01*
X358600535Y-96305606D01*
X358791757Y-96094178D01*
X358822214Y-96064158D01*
X359035070Y-95877124D01*
X359261851Y-95716257D01*
X359503270Y-95581198D01*
X359760043Y-95471589D01*
X360032883Y-95387074D01*
X360322505Y-95327294D01*
X360328087Y-95326783D01*
X360362746Y-95325522D01*
X360426220Y-95324299D01*
X360517656Y-95323112D01*
X360636201Y-95321962D01*
X360781005Y-95320849D01*
X360951213Y-95319772D01*
X361145973Y-95318732D01*
X361364434Y-95317729D01*
X361605741Y-95316763D01*
X361869044Y-95315833D01*
X362153490Y-95314940D01*
X362458225Y-95314084D01*
X362782398Y-95313265D01*
X363125156Y-95312482D01*
X363485647Y-95311736D01*
X363863018Y-95311027D01*
X364256416Y-95310354D01*
X364664990Y-95309719D01*
X365087886Y-95309120D01*
X365524253Y-95308558D01*
X365973237Y-95308032D01*
X366433987Y-95307543D01*
X366905649Y-95307091D01*
X367387372Y-95306676D01*
X367878303Y-95306298D01*
X368377589Y-95305956D01*
X368884378Y-95305651D01*
X369397818Y-95305383D01*
X369917056Y-95305151D01*
X370441239Y-95304956D01*
X370969515Y-95304798D01*
X371501032Y-95304677D01*
X372034937Y-95304592D01*
X372570377Y-95304545D01*
X373106501Y-95304534D01*
X373642455Y-95304559D01*
X374177387Y-95304622D01*
X374710446Y-95304721D01*
X375240777Y-95304857D01*
X375767529Y-95305029D01*
X376289850Y-95305239D01*
X376806886Y-95305485D01*
X377317786Y-95305768D01*
X377821697Y-95306087D01*
X378317766Y-95306444D01*
X378805141Y-95306837D01*
X379282970Y-95307267D01*
X379750399Y-95307733D01*
X380206577Y-95308237D01*
X380650651Y-95308777D01*
X381081769Y-95309353D01*
X381499078Y-95309967D01*
X381901725Y-95310617D01*
X382288859Y-95311304D01*
X382659626Y-95312028D01*
X383013174Y-95312789D01*
X383348652Y-95313586D01*
X383665205Y-95314420D01*
X383961982Y-95315291D01*
X384238131Y-95316198D01*
X384492799Y-95317142D01*
X384725132Y-95318123D01*
X384934280Y-95319141D01*
X385119389Y-95320195D01*
X385279607Y-95321287D01*
X385414082Y-95322414D01*
X385521961Y-95323579D01*
X385602391Y-95324781D01*
X385654520Y-95326019D01*
X385677496Y-95327294D01*
X385721583Y-95334619D01*
X386008668Y-95398049D01*
X386279077Y-95486267D01*
X386533525Y-95599632D01*
X386772726Y-95738500D01*
X386997394Y-95903229D01*
X387208244Y-96094178D01*
X387375655Y-96277670D01*
X387542339Y-96500635D01*
X387683786Y-96737286D01*
X387799525Y-96985578D01*
X387889083Y-97243463D01*
X387951990Y-97508897D01*
X387987772Y-97779833D01*
X387993248Y-97963379D01*
X387995959Y-98054225D01*
G37*
D12*
G04 #@! TO.C,D29*
X355306250Y-57650000D02*
X355306250Y-61660000D01*
X355306250Y-61660000D02*
X357306250Y-61660000D01*
X357306250Y-57650000D02*
X357306250Y-61660000D01*
G04 #@! TO.C,D30*
X381500000Y-57650000D02*
X381500000Y-61660000D01*
X381500000Y-61660000D02*
X383500000Y-61660000D01*
X383500000Y-57650000D02*
X383500000Y-61660000D01*
G04 #@! TO.C,D55*
X298156250Y-95750000D02*
X298156250Y-99760000D01*
X298156250Y-99760000D02*
X300156250Y-99760000D01*
X300156250Y-95750000D02*
X300156250Y-99760000D01*
G04 #@! TO.C,D11*
X298156250Y-38600000D02*
X298156250Y-42610000D01*
X298156250Y-42610000D02*
X300156250Y-42610000D01*
X300156250Y-38600000D02*
X300156250Y-42610000D01*
G04 #@! TO.C,D20*
X183856250Y-57650000D02*
X183856250Y-61660000D01*
X183856250Y-61660000D02*
X185856250Y-61660000D01*
X185856250Y-57650000D02*
X185856250Y-61660000D01*
G04 #@! TO.C,D25*
X279106250Y-57650000D02*
X279106250Y-61660000D01*
X279106250Y-61660000D02*
X281106250Y-61660000D01*
X281106250Y-57650000D02*
X281106250Y-61660000D01*
G04 #@! TO.C,D63*
X243387500Y-114800000D02*
X243387500Y-118810000D01*
X243387500Y-118810000D02*
X245387500Y-118810000D01*
X245387500Y-114800000D02*
X245387500Y-118810000D01*
G04 #@! TO.C,D18*
X145756250Y-57650000D02*
X145756250Y-61660000D01*
X145756250Y-61660000D02*
X147756250Y-61660000D01*
X147756250Y-57650000D02*
X147756250Y-61660000D01*
G04 #@! TO.C,D60*
X145756250Y-114800000D02*
X145756250Y-118810000D01*
X145756250Y-118810000D02*
X147756250Y-118810000D01*
X147756250Y-114800000D02*
X147756250Y-118810000D01*
G04 #@! TO.C,D26*
X298156250Y-57650000D02*
X298156250Y-61660000D01*
X298156250Y-61660000D02*
X300156250Y-61660000D01*
X300156250Y-57650000D02*
X300156250Y-61660000D01*
G04 #@! TO.C,D6*
X202906250Y-38600000D02*
X202906250Y-42610000D01*
X202906250Y-42610000D02*
X204906250Y-42610000D01*
X204906250Y-38600000D02*
X204906250Y-42610000D01*
G04 #@! TO.C,D34*
X164806250Y-76700000D02*
X164806250Y-80710000D01*
X164806250Y-80710000D02*
X166806250Y-80710000D01*
X166806250Y-76700000D02*
X166806250Y-80710000D01*
G04 #@! TO.C,D32*
X119562500Y-76700000D02*
X119562500Y-80710000D01*
X119562500Y-80710000D02*
X121562500Y-80710000D01*
X121562500Y-76700000D02*
X121562500Y-80710000D01*
G04 #@! TO.C,D57*
X343400000Y-95750000D02*
X343400000Y-99760000D01*
X343400000Y-99760000D02*
X345400000Y-99760000D01*
X345400000Y-95750000D02*
X345400000Y-99760000D01*
G04 #@! TO.C,D41*
X298156250Y-76700000D02*
X298156250Y-80710000D01*
X298156250Y-80710000D02*
X300156250Y-80710000D01*
X300156250Y-76700000D02*
X300156250Y-80710000D01*
G04 #@! TO.C,D35*
X183856250Y-76700000D02*
X183856250Y-80710000D01*
X183856250Y-80710000D02*
X185856250Y-80710000D01*
X185856250Y-76700000D02*
X185856250Y-80710000D01*
G04 #@! TO.C,D56*
X317206250Y-95750000D02*
X317206250Y-99760000D01*
X317206250Y-99760000D02*
X319206250Y-99760000D01*
X319206250Y-95750000D02*
X319206250Y-99760000D01*
G04 #@! TO.C,D47*
X145756250Y-95750000D02*
X145756250Y-99760000D01*
X145756250Y-99760000D02*
X147756250Y-99760000D01*
X147756250Y-95750000D02*
X147756250Y-99760000D01*
G04 #@! TO.C,D4*
X164806250Y-38600000D02*
X164806250Y-42610000D01*
X164806250Y-42610000D02*
X166806250Y-42610000D01*
X166806250Y-38600000D02*
X166806250Y-42610000D01*
G04 #@! TO.C,D24*
X260056250Y-57650000D02*
X260056250Y-61660000D01*
X260056250Y-61660000D02*
X262056250Y-61660000D01*
X262056250Y-57650000D02*
X262056250Y-61660000D01*
G04 #@! TO.C,D40*
X279106250Y-76700000D02*
X279106250Y-80710000D01*
X279106250Y-80710000D02*
X281106250Y-80710000D01*
X281106250Y-76700000D02*
X281106250Y-80710000D01*
G04 #@! TO.C,D44*
X362450000Y-76700000D02*
X362450000Y-80710000D01*
X362450000Y-80710000D02*
X364450000Y-80710000D01*
X364450000Y-76700000D02*
X364450000Y-80710000D01*
G04 #@! TO.C,D9*
X260056250Y-38600000D02*
X260056250Y-42610000D01*
X260056250Y-42610000D02*
X262056250Y-42610000D01*
X262056250Y-38600000D02*
X262056250Y-42610000D01*
G04 #@! TO.C,D2*
X119562500Y-38600000D02*
X119562500Y-42610000D01*
X119562500Y-42610000D02*
X121562500Y-42610000D01*
X121562500Y-38600000D02*
X121562500Y-42610000D01*
G04 #@! TO.C,D54*
X279106250Y-95750000D02*
X279106250Y-99760000D01*
X279106250Y-99760000D02*
X281106250Y-99760000D01*
X281106250Y-95750000D02*
X281106250Y-99760000D01*
G04 #@! TO.C,D65*
X298156250Y-114800000D02*
X298156250Y-118810000D01*
X298156250Y-118810000D02*
X300156250Y-118810000D01*
X300156250Y-114800000D02*
X300156250Y-118810000D01*
G04 #@! TO.C,D64*
X279106250Y-114800000D02*
X279106250Y-118810000D01*
X279106250Y-118810000D02*
X281106250Y-118810000D01*
X281106250Y-114800000D02*
X281106250Y-118810000D01*
G04 #@! TO.C,D59*
X119562500Y-114800000D02*
X119562500Y-118810000D01*
X119562500Y-118810000D02*
X121562500Y-118810000D01*
X121562500Y-114800000D02*
X121562500Y-118810000D01*
G04 #@! TO.C,D67*
X341018750Y-119562500D02*
X341018750Y-123572500D01*
X341018750Y-123572500D02*
X343018750Y-123572500D01*
X343018750Y-119562500D02*
X343018750Y-123572500D01*
G04 #@! TO.C,D21*
X202906250Y-57650000D02*
X202906250Y-61660000D01*
X202906250Y-61660000D02*
X204906250Y-61660000D01*
X204906250Y-57650000D02*
X204906250Y-61660000D01*
G04 #@! TO.C,D27*
X317206250Y-57650000D02*
X317206250Y-61660000D01*
X317206250Y-61660000D02*
X319206250Y-61660000D01*
X319206250Y-57650000D02*
X319206250Y-61660000D01*
G04 #@! TO.C,D53*
X260056250Y-95750000D02*
X260056250Y-99760000D01*
X260056250Y-99760000D02*
X262056250Y-99760000D01*
X262056250Y-95750000D02*
X262056250Y-99760000D01*
G04 #@! TO.C,D52*
X241006250Y-95750000D02*
X241006250Y-99760000D01*
X241006250Y-99760000D02*
X243006250Y-99760000D01*
X243006250Y-95750000D02*
X243006250Y-99760000D01*
G04 #@! TO.C,D31*
X86225000Y-76700000D02*
X86225000Y-80710000D01*
X86225000Y-80710000D02*
X88225000Y-80710000D01*
X88225000Y-76700000D02*
X88225000Y-80710000D01*
G04 #@! TO.C,D38*
X241006250Y-76700000D02*
X241006250Y-80710000D01*
X241006250Y-80710000D02*
X243006250Y-80710000D01*
X243006250Y-76700000D02*
X243006250Y-80710000D01*
G04 #@! TO.C,D14*
X355306250Y-38600000D02*
X355306250Y-42610000D01*
X355306250Y-42610000D02*
X357306250Y-42610000D01*
X357306250Y-38600000D02*
X357306250Y-42610000D01*
G04 #@! TO.C,D22*
X221956250Y-57650000D02*
X221956250Y-61660000D01*
X221956250Y-61660000D02*
X223956250Y-61660000D01*
X223956250Y-57650000D02*
X223956250Y-61660000D01*
G04 #@! TO.C,D12*
X317206250Y-38600000D02*
X317206250Y-42610000D01*
X317206250Y-42610000D02*
X319206250Y-42610000D01*
X319206250Y-38600000D02*
X319206250Y-42610000D01*
G04 #@! TO.C,D58*
X86225000Y-114800000D02*
X86225000Y-118810000D01*
X86225000Y-118810000D02*
X88225000Y-118810000D01*
X88225000Y-114800000D02*
X88225000Y-118810000D01*
G04 #@! TO.C,D50*
X202906250Y-95750000D02*
X202906250Y-99760000D01*
X202906250Y-99760000D02*
X204906250Y-99760000D01*
X204906250Y-95750000D02*
X204906250Y-99760000D01*
G04 #@! TO.C,D17*
X119562500Y-57650000D02*
X119562500Y-61660000D01*
X119562500Y-61660000D02*
X121562500Y-61660000D01*
X121562500Y-57650000D02*
X121562500Y-61660000D01*
G04 #@! TO.C,D10*
X279106250Y-38600000D02*
X279106250Y-42610000D01*
X279106250Y-42610000D02*
X281106250Y-42610000D01*
X281106250Y-38600000D02*
X281106250Y-42610000D01*
G04 #@! TO.C,D43*
X336256250Y-76700000D02*
X336256250Y-80710000D01*
X336256250Y-80710000D02*
X338256250Y-80710000D01*
X338256250Y-76700000D02*
X338256250Y-80710000D01*
G04 #@! TO.C,D49*
X183856250Y-95750000D02*
X183856250Y-99760000D01*
X183856250Y-99760000D02*
X185856250Y-99760000D01*
X185856250Y-95750000D02*
X185856250Y-99760000D01*
G04 #@! TO.C,D51*
X221956250Y-95750000D02*
X221956250Y-99760000D01*
X221956250Y-99760000D02*
X223956250Y-99760000D01*
X223956250Y-95750000D02*
X223956250Y-99760000D01*
G04 #@! TO.C,D3*
X145756250Y-38600000D02*
X145756250Y-42610000D01*
X145756250Y-42610000D02*
X147756250Y-42610000D01*
X147756250Y-38600000D02*
X147756250Y-42610000D01*
G04 #@! TO.C,D66*
X321968750Y-119562500D02*
X321968750Y-123572500D01*
X321968750Y-123572500D02*
X323968750Y-123572500D01*
X323968750Y-119562500D02*
X323968750Y-123572500D01*
G04 #@! TO.C,D45*
X86225000Y-95750000D02*
X86225000Y-99760000D01*
X86225000Y-99760000D02*
X88225000Y-99760000D01*
X88225000Y-95750000D02*
X88225000Y-99760000D01*
G04 #@! TO.C,D15*
X381500000Y-38600000D02*
X381500000Y-42610000D01*
X381500000Y-42610000D02*
X383500000Y-42610000D01*
X383500000Y-38600000D02*
X383500000Y-42610000D01*
G04 #@! TO.C,D42*
X317206250Y-76700000D02*
X317206250Y-80710000D01*
X317206250Y-80710000D02*
X319206250Y-80710000D01*
X319206250Y-76700000D02*
X319206250Y-80710000D01*
G04 #@! TO.C,D48*
X164806250Y-95750000D02*
X164806250Y-99760000D01*
X164806250Y-99760000D02*
X166806250Y-99760000D01*
X166806250Y-95750000D02*
X166806250Y-99760000D01*
G04 #@! TO.C,D1*
X86225000Y-38600000D02*
X86225000Y-42610000D01*
X86225000Y-42610000D02*
X88225000Y-42610000D01*
X88225000Y-38600000D02*
X88225000Y-42610000D01*
G04 #@! TO.C,D68*
X360068750Y-119562500D02*
X360068750Y-123572500D01*
X360068750Y-123572500D02*
X362068750Y-123572500D01*
X362068750Y-119562500D02*
X362068750Y-123572500D01*
G04 #@! TO.C,D61*
X164806250Y-114800000D02*
X164806250Y-118810000D01*
X164806250Y-118810000D02*
X166806250Y-118810000D01*
X166806250Y-114800000D02*
X166806250Y-118810000D01*
G04 #@! TO.C,D19*
X164806250Y-57650000D02*
X164806250Y-61660000D01*
X164806250Y-61660000D02*
X166806250Y-61660000D01*
X166806250Y-57650000D02*
X166806250Y-61660000D01*
G04 #@! TO.C,D69*
X379118750Y-119562500D02*
X379118750Y-123572500D01*
X379118750Y-123572500D02*
X381118750Y-123572500D01*
X381118750Y-119562500D02*
X381118750Y-123572500D01*
G04 #@! TO.C,D16*
X86225000Y-57650000D02*
X86225000Y-61660000D01*
X86225000Y-61660000D02*
X88225000Y-61660000D01*
X88225000Y-57650000D02*
X88225000Y-61660000D01*
G04 #@! TO.C,D5*
X183856250Y-38600000D02*
X183856250Y-42610000D01*
X183856250Y-42610000D02*
X185856250Y-42610000D01*
X185856250Y-38600000D02*
X185856250Y-42610000D01*
G04 #@! TO.C,D33*
X145756250Y-76700000D02*
X145756250Y-80710000D01*
X145756250Y-80710000D02*
X147756250Y-80710000D01*
X147756250Y-76700000D02*
X147756250Y-80710000D01*
G04 #@! TO.C,D8*
X241006250Y-38600000D02*
X241006250Y-42610000D01*
X241006250Y-42610000D02*
X243006250Y-42610000D01*
X243006250Y-38600000D02*
X243006250Y-42610000D01*
G04 #@! TO.C,D37*
X221956250Y-76700000D02*
X221956250Y-80710000D01*
X221956250Y-80710000D02*
X223956250Y-80710000D01*
X223956250Y-76700000D02*
X223956250Y-80710000D01*
G04 #@! TO.C,D46*
X119562500Y-95750000D02*
X119562500Y-99760000D01*
X119562500Y-99760000D02*
X121562500Y-99760000D01*
X121562500Y-95750000D02*
X121562500Y-99760000D01*
G04 #@! TO.C,D62*
X195762500Y-114800000D02*
X195762500Y-118810000D01*
X195762500Y-118810000D02*
X197762500Y-118810000D01*
X197762500Y-114800000D02*
X197762500Y-118810000D01*
G04 #@! TO.C,D39*
X260056250Y-76700000D02*
X260056250Y-80710000D01*
X260056250Y-80710000D02*
X262056250Y-80710000D01*
X262056250Y-76700000D02*
X262056250Y-80710000D01*
G04 #@! TO.C,D7*
X221956250Y-38600000D02*
X221956250Y-42610000D01*
X221956250Y-42610000D02*
X223956250Y-42610000D01*
X223956250Y-38600000D02*
X223956250Y-42610000D01*
G04 #@! TO.C,D23*
X241006250Y-57650000D02*
X241006250Y-61660000D01*
X241006250Y-61660000D02*
X243006250Y-61660000D01*
X243006250Y-57650000D02*
X243006250Y-61660000D01*
G04 #@! TO.C,D28*
X336256250Y-57650000D02*
X336256250Y-61660000D01*
X336256250Y-61660000D02*
X338256250Y-61660000D01*
X338256250Y-57650000D02*
X338256250Y-61660000D01*
G04 #@! TO.C,D13*
X336256250Y-38600000D02*
X336256250Y-42610000D01*
X336256250Y-42610000D02*
X338256250Y-42610000D01*
X338256250Y-38600000D02*
X338256250Y-42610000D01*
G04 #@! TO.C,D36*
X202906250Y-76700000D02*
X202906250Y-80710000D01*
X202906250Y-80710000D02*
X204906250Y-80710000D01*
X204906250Y-76700000D02*
X204906250Y-80710000D01*
G04 #@! TD*
%LPC*%
D13*
G04 #@! TO.C,MX51*
X209876250Y-96400000D03*
D14*
X214956250Y-96400000D03*
D13*
X220036250Y-96400000D03*
D15*
X211801251Y-93130000D03*
D16*
X212456250Y-92400000D03*
D17*
X217476250Y-91610000D03*
D16*
X217496250Y-91320000D03*
G04 #@! TD*
D13*
G04 #@! TO.C,MX44*
X350370000Y-77350000D03*
D14*
X355450000Y-77350000D03*
D13*
X360530000Y-77350000D03*
D15*
X352295001Y-74080000D03*
D16*
X352950000Y-73350000D03*
D17*
X357970000Y-72560000D03*
D16*
X357990000Y-72270000D03*
G04 #@! TD*
D13*
G04 #@! TO.C,MX11*
X286076250Y-39250000D03*
D14*
X291156250Y-39250000D03*
D13*
X296236250Y-39250000D03*
D15*
X288001251Y-35980000D03*
D16*
X288656250Y-35250000D03*
D17*
X293676250Y-34460000D03*
D16*
X293696250Y-34170000D03*
G04 #@! TD*
D13*
G04 #@! TO.C,MX23*
X228926250Y-58300000D03*
D14*
X234006250Y-58300000D03*
D13*
X239086250Y-58300000D03*
D15*
X230851251Y-55030000D03*
D16*
X231506250Y-54300000D03*
D17*
X236526250Y-53510000D03*
D16*
X236546250Y-53220000D03*
G04 #@! TD*
D13*
G04 #@! TO.C,MX32*
X107482500Y-77350000D03*
D14*
X112562500Y-77350000D03*
D13*
X117642500Y-77350000D03*
D15*
X109407501Y-74080000D03*
D16*
X110062500Y-73350000D03*
D17*
X115082500Y-72560000D03*
D16*
X115102500Y-72270000D03*
G04 #@! TD*
D13*
G04 #@! TO.C,MX59*
X107482500Y-115450000D03*
D14*
X112562500Y-115450000D03*
D13*
X117642500Y-115450000D03*
D15*
X109407501Y-112180000D03*
D16*
X110062500Y-111450000D03*
D17*
X115082500Y-110660000D03*
D16*
X115102500Y-110370000D03*
G04 #@! TD*
D13*
G04 #@! TO.C,MX2*
X107482500Y-39250000D03*
D14*
X112562500Y-39250000D03*
D13*
X117642500Y-39250000D03*
D15*
X109407501Y-35980000D03*
D16*
X110062500Y-35250000D03*
D17*
X115082500Y-34460000D03*
D16*
X115102500Y-34170000D03*
G04 #@! TD*
D13*
G04 #@! TO.C,MX1*
X74145000Y-39250000D03*
D14*
X79225000Y-39250000D03*
D13*
X84305000Y-39250000D03*
D15*
X76070001Y-35980000D03*
D16*
X76725000Y-35250000D03*
D17*
X81745000Y-34460000D03*
D16*
X81765000Y-34170000D03*
G04 #@! TD*
D13*
G04 #@! TO.C,MX54*
X267026250Y-96400000D03*
D14*
X272106250Y-96400000D03*
D13*
X277186250Y-96400000D03*
D15*
X268951251Y-93130000D03*
D16*
X269606250Y-92400000D03*
D17*
X274626250Y-91610000D03*
D16*
X274646250Y-91320000D03*
G04 #@! TD*
D13*
G04 #@! TO.C,MX5*
X171776250Y-39250000D03*
D14*
X176856250Y-39250000D03*
D13*
X181936250Y-39250000D03*
D15*
X173701251Y-35980000D03*
D16*
X174356250Y-35250000D03*
D17*
X179376250Y-34460000D03*
D16*
X179396250Y-34170000D03*
G04 #@! TD*
D13*
G04 #@! TO.C,MX45*
X74145000Y-96400000D03*
D14*
X79225000Y-96400000D03*
D13*
X84305000Y-96400000D03*
D15*
X76070001Y-93130000D03*
D16*
X76725000Y-92400000D03*
D17*
X81745000Y-91610000D03*
D16*
X81765000Y-91320000D03*
G04 #@! TD*
D14*
G04 #@! TO.C,MX62*
X176824500Y-107195000D03*
D18*
X176824500Y-122435000D03*
D13*
X183682500Y-115450000D03*
D14*
X188762500Y-115450000D03*
D13*
X193842500Y-115450000D03*
D14*
X200700500Y-107195000D03*
D18*
X200700500Y-122435000D03*
D15*
X185607501Y-112180000D03*
D16*
X186262500Y-111450000D03*
D17*
X191282500Y-110660000D03*
D16*
X191302500Y-110370000D03*
G04 #@! TD*
D13*
G04 #@! TO.C,MX66*
X309888750Y-120212500D03*
D14*
X314968750Y-120212500D03*
D13*
X320048750Y-120212500D03*
D15*
X311813751Y-116942500D03*
D16*
X312468750Y-116212500D03*
D17*
X317488750Y-115422500D03*
D16*
X317508750Y-115132500D03*
G04 #@! TD*
D13*
G04 #@! TO.C,MX50*
X190826250Y-96400000D03*
D14*
X195906250Y-96400000D03*
D13*
X200986250Y-96400000D03*
D15*
X192751251Y-93130000D03*
D16*
X193406250Y-92400000D03*
D17*
X198426250Y-91610000D03*
D16*
X198446250Y-91320000D03*
G04 #@! TD*
D13*
G04 #@! TO.C,MX65*
X286076250Y-115450000D03*
D14*
X291156250Y-115450000D03*
D13*
X296236250Y-115450000D03*
D15*
X288001251Y-112180000D03*
D16*
X288656250Y-111450000D03*
D17*
X293676250Y-110660000D03*
D16*
X293696250Y-110370000D03*
G04 #@! TD*
D13*
G04 #@! TO.C,MX34*
X152726250Y-77350000D03*
D14*
X157806250Y-77350000D03*
D13*
X162886250Y-77350000D03*
D15*
X154651251Y-74080000D03*
D16*
X155306250Y-73350000D03*
D17*
X160326250Y-72560000D03*
D16*
X160346250Y-72270000D03*
G04 #@! TD*
D13*
G04 #@! TO.C,MX12*
X305126250Y-39250000D03*
D14*
X310206250Y-39250000D03*
D13*
X315286250Y-39250000D03*
D15*
X307051251Y-35980000D03*
D16*
X307706250Y-35250000D03*
D17*
X312726250Y-34460000D03*
D16*
X312746250Y-34170000D03*
G04 #@! TD*
D13*
G04 #@! TO.C,MX35*
X171776250Y-77350000D03*
D14*
X176856250Y-77350000D03*
D13*
X181936250Y-77350000D03*
D15*
X173701251Y-74080000D03*
D16*
X174356250Y-73350000D03*
D17*
X179376250Y-72560000D03*
D16*
X179396250Y-72270000D03*
G04 #@! TD*
D13*
G04 #@! TO.C,MX46*
X107482500Y-96400000D03*
D14*
X112562500Y-96400000D03*
D13*
X117642500Y-96400000D03*
D15*
X109407501Y-93130000D03*
D16*
X110062500Y-92400000D03*
D17*
X115082500Y-91610000D03*
D16*
X115102500Y-91320000D03*
G04 #@! TD*
D13*
G04 #@! TO.C,MX9*
X247976250Y-39250000D03*
D14*
X253056250Y-39250000D03*
D13*
X258136250Y-39250000D03*
D15*
X249901251Y-35980000D03*
D16*
X250556250Y-35250000D03*
D17*
X255576250Y-34460000D03*
D16*
X255596250Y-34170000D03*
G04 #@! TD*
D13*
G04 #@! TO.C,MX18*
X133676250Y-58300000D03*
D14*
X138756250Y-58300000D03*
D13*
X143836250Y-58300000D03*
D15*
X135601251Y-55030000D03*
D16*
X136256250Y-54300000D03*
D17*
X141276250Y-53510000D03*
D16*
X141296250Y-53220000D03*
G04 #@! TD*
D13*
G04 #@! TO.C,MX57*
X331320000Y-96400000D03*
D14*
X336400000Y-96400000D03*
D13*
X341480000Y-96400000D03*
D15*
X333245001Y-93130000D03*
D16*
X333900000Y-92400000D03*
D17*
X338920000Y-91610000D03*
D16*
X338940000Y-91320000D03*
G04 #@! TD*
D13*
G04 #@! TO.C,MX43*
X324176250Y-77350000D03*
D14*
X329256250Y-77350000D03*
D13*
X334336250Y-77350000D03*
D15*
X326101251Y-74080000D03*
D16*
X326756250Y-73350000D03*
D17*
X331776250Y-72560000D03*
D16*
X331796250Y-72270000D03*
G04 #@! TD*
D13*
G04 #@! TO.C,MX3*
X133676250Y-39250000D03*
D14*
X138756250Y-39250000D03*
D13*
X143836250Y-39250000D03*
D15*
X135601251Y-35980000D03*
D16*
X136256250Y-35250000D03*
D17*
X141276250Y-34460000D03*
D16*
X141296250Y-34170000D03*
G04 #@! TD*
D13*
G04 #@! TO.C,MX31*
X74145000Y-77350000D03*
D14*
X79225000Y-77350000D03*
D13*
X84305000Y-77350000D03*
D15*
X76070001Y-74080000D03*
D16*
X76725000Y-73350000D03*
D17*
X81745000Y-72560000D03*
D16*
X81765000Y-72270000D03*
G04 #@! TD*
D13*
G04 #@! TO.C,MX37*
X209876250Y-77350000D03*
D14*
X214956250Y-77350000D03*
D13*
X220036250Y-77350000D03*
D15*
X211801251Y-74080000D03*
D16*
X212456250Y-73350000D03*
D17*
X217476250Y-72560000D03*
D16*
X217496250Y-72270000D03*
G04 #@! TD*
D13*
G04 #@! TO.C,MX17*
X107482500Y-58300000D03*
D14*
X112562500Y-58300000D03*
D13*
X117642500Y-58300000D03*
D15*
X109407501Y-55030000D03*
D16*
X110062500Y-54300000D03*
D17*
X115082500Y-53510000D03*
D16*
X115102500Y-53220000D03*
G04 #@! TD*
D13*
G04 #@! TO.C,MX36*
X190826250Y-77350000D03*
D14*
X195906250Y-77350000D03*
D13*
X200986250Y-77350000D03*
D15*
X192751251Y-74080000D03*
D16*
X193406250Y-73350000D03*
D17*
X198426250Y-72560000D03*
D16*
X198446250Y-72270000D03*
G04 #@! TD*
D19*
G04 #@! TO.C,U1*
X46885000Y-31130000D03*
D20*
X47185000Y-34160000D03*
X52035000Y-34160000D03*
D19*
X52335000Y-31130000D03*
D21*
X40720000Y-31000000D03*
X40720000Y-33540000D03*
D22*
X40720000Y-36080000D03*
D21*
X40720000Y-38620000D03*
X40720000Y-41160000D03*
X40720000Y-43700000D03*
X40720000Y-46240000D03*
D22*
X40720000Y-48780000D03*
D21*
X40720000Y-51320000D03*
X40720000Y-53860000D03*
X40720000Y-56400000D03*
X40720000Y-58940000D03*
D22*
X40720000Y-61480000D03*
D21*
X40720000Y-64020000D03*
X40720000Y-66560000D03*
X40720000Y-69100000D03*
X40720000Y-71640000D03*
D22*
X40720000Y-74180000D03*
D21*
X40720000Y-76720000D03*
X40720000Y-79260000D03*
X58500000Y-79260000D03*
X58500000Y-76720000D03*
D22*
X58500000Y-74180000D03*
D21*
X58500000Y-71640000D03*
X58500000Y-69100000D03*
X58500000Y-66560000D03*
X58500000Y-64020000D03*
D22*
X58500000Y-61480000D03*
D21*
X58500000Y-58940000D03*
X58500000Y-56400000D03*
X58500000Y-53860000D03*
X58500000Y-51320000D03*
D22*
X58500000Y-48780000D03*
D21*
X58500000Y-46240000D03*
X58500000Y-43700000D03*
X58500000Y-41160000D03*
X58500000Y-38620000D03*
D22*
X58500000Y-36080000D03*
D21*
X58500000Y-33540000D03*
X58500000Y-31000000D03*
X47070000Y-79030000D03*
D22*
X49610000Y-79030000D03*
D21*
X52150000Y-79030000D03*
G04 #@! TD*
D13*
G04 #@! TO.C,MX47*
X133676250Y-96400000D03*
D14*
X138756250Y-96400000D03*
D13*
X143836250Y-96400000D03*
D15*
X135601251Y-93130000D03*
D16*
X136256250Y-92400000D03*
D17*
X141276250Y-91610000D03*
D16*
X141296250Y-91320000D03*
G04 #@! TD*
D13*
G04 #@! TO.C,MX25*
X267026250Y-58300000D03*
D14*
X272106250Y-58300000D03*
D13*
X277186250Y-58300000D03*
D15*
X268951251Y-55030000D03*
D16*
X269606250Y-54300000D03*
D17*
X274626250Y-53510000D03*
D16*
X274646250Y-53220000D03*
G04 #@! TD*
D13*
G04 #@! TO.C,MX61*
X152726250Y-115450000D03*
D14*
X157806250Y-115450000D03*
D13*
X162886250Y-115450000D03*
D15*
X154651251Y-112180000D03*
D16*
X155306250Y-111450000D03*
D17*
X160326250Y-110660000D03*
D16*
X160346250Y-110370000D03*
G04 #@! TD*
D13*
G04 #@! TO.C,MX26*
X286076250Y-58300000D03*
D14*
X291156250Y-58300000D03*
D13*
X296236250Y-58300000D03*
D15*
X288001251Y-55030000D03*
D16*
X288656250Y-54300000D03*
D17*
X293676250Y-53510000D03*
D16*
X293696250Y-53220000D03*
G04 #@! TD*
D13*
G04 #@! TO.C,MX15*
X369420000Y-39250000D03*
D14*
X374500000Y-39250000D03*
D13*
X379580000Y-39250000D03*
D15*
X371345001Y-35980000D03*
D16*
X372000000Y-35250000D03*
D17*
X377020000Y-34460000D03*
D16*
X377040000Y-34170000D03*
G04 #@! TD*
D13*
G04 #@! TO.C,MX58*
X74145000Y-115450000D03*
D14*
X79225000Y-115450000D03*
D13*
X84305000Y-115450000D03*
D15*
X76070001Y-112180000D03*
D16*
X76725000Y-111450000D03*
D17*
X81745000Y-110660000D03*
D16*
X81765000Y-110370000D03*
G04 #@! TD*
D14*
G04 #@! TO.C,MX63*
X224449500Y-107195000D03*
D18*
X224449500Y-122435000D03*
D13*
X231307500Y-115450000D03*
D14*
X236387500Y-115450000D03*
D13*
X241467500Y-115450000D03*
D14*
X248325500Y-107195000D03*
D18*
X248325500Y-122435000D03*
D15*
X233232501Y-112180000D03*
D16*
X233887500Y-111450000D03*
D17*
X238907500Y-110660000D03*
D16*
X238927500Y-110370000D03*
G04 #@! TD*
D13*
G04 #@! TO.C,MX28*
X324176250Y-58300000D03*
D14*
X329256250Y-58300000D03*
D13*
X334336250Y-58300000D03*
D15*
X326101251Y-55030000D03*
D16*
X326756250Y-54300000D03*
D17*
X331776250Y-53510000D03*
D16*
X331796250Y-53220000D03*
G04 #@! TD*
D13*
G04 #@! TO.C,MX8*
X228926250Y-39250000D03*
D14*
X234006250Y-39250000D03*
D13*
X239086250Y-39250000D03*
D15*
X230851251Y-35980000D03*
D16*
X231506250Y-35250000D03*
D17*
X236526250Y-34460000D03*
D16*
X236546250Y-34170000D03*
G04 #@! TD*
D13*
G04 #@! TO.C,MX10*
X267026250Y-39250000D03*
D14*
X272106250Y-39250000D03*
D13*
X277186250Y-39250000D03*
D15*
X268951251Y-35980000D03*
D16*
X269606250Y-35250000D03*
D17*
X274626250Y-34460000D03*
D16*
X274646250Y-34170000D03*
G04 #@! TD*
D13*
G04 #@! TO.C,MX53*
X247976250Y-96400000D03*
D14*
X253056250Y-96400000D03*
D13*
X258136250Y-96400000D03*
D15*
X249901251Y-93130000D03*
D16*
X250556250Y-92400000D03*
D17*
X255576250Y-91610000D03*
D16*
X255596250Y-91320000D03*
G04 #@! TD*
D13*
G04 #@! TO.C,MX64*
X267026250Y-115450000D03*
D14*
X272106250Y-115450000D03*
D13*
X277186250Y-115450000D03*
D15*
X268951251Y-112180000D03*
D16*
X269606250Y-111450000D03*
D17*
X274626250Y-110660000D03*
D16*
X274646250Y-110370000D03*
G04 #@! TD*
D13*
G04 #@! TO.C,MX49*
X171776250Y-96400000D03*
D14*
X176856250Y-96400000D03*
D13*
X181936250Y-96400000D03*
D15*
X173701251Y-93130000D03*
D16*
X174356250Y-92400000D03*
D17*
X179376250Y-91610000D03*
D16*
X179396250Y-91320000D03*
G04 #@! TD*
D13*
G04 #@! TO.C,MX27*
X305126250Y-58300000D03*
D14*
X310206250Y-58300000D03*
D13*
X315286250Y-58300000D03*
D15*
X307051251Y-55030000D03*
D16*
X307706250Y-54300000D03*
D17*
X312726250Y-53510000D03*
D16*
X312746250Y-53220000D03*
G04 #@! TD*
D13*
G04 #@! TO.C,MX33*
X133676250Y-77350000D03*
D14*
X138756250Y-77350000D03*
D13*
X143836250Y-77350000D03*
D15*
X135601251Y-74080000D03*
D16*
X136256250Y-73350000D03*
D17*
X141276250Y-72560000D03*
D16*
X141296250Y-72270000D03*
G04 #@! TD*
D13*
G04 #@! TO.C,MX21*
X190826250Y-58300000D03*
D14*
X195906250Y-58300000D03*
D13*
X200986250Y-58300000D03*
D15*
X192751251Y-55030000D03*
D16*
X193406250Y-54300000D03*
D17*
X198426250Y-53510000D03*
D16*
X198446250Y-53220000D03*
G04 #@! TD*
D13*
G04 #@! TO.C,MX19*
X152726250Y-58300000D03*
D14*
X157806250Y-58300000D03*
D13*
X162886250Y-58300000D03*
D15*
X154651251Y-55030000D03*
D16*
X155306250Y-54300000D03*
D17*
X160326250Y-53510000D03*
D16*
X160346250Y-53220000D03*
G04 #@! TD*
D13*
G04 #@! TO.C,MX55*
X286076250Y-96400000D03*
D14*
X291156250Y-96400000D03*
D13*
X296236250Y-96400000D03*
D15*
X288001251Y-93130000D03*
D16*
X288656250Y-92400000D03*
D17*
X293676250Y-91610000D03*
D16*
X293696250Y-91320000D03*
G04 #@! TD*
D13*
G04 #@! TO.C,MX29*
X343226250Y-58300000D03*
D14*
X348306250Y-58300000D03*
D13*
X353386250Y-58300000D03*
D15*
X345151251Y-55030000D03*
D16*
X345806250Y-54300000D03*
D17*
X350826250Y-53510000D03*
D16*
X350846250Y-53220000D03*
G04 #@! TD*
D13*
G04 #@! TO.C,MX7*
X209876250Y-39250000D03*
D14*
X214956250Y-39250000D03*
D13*
X220036250Y-39250000D03*
D15*
X211801251Y-35980000D03*
D16*
X212456250Y-35250000D03*
D17*
X217476250Y-34460000D03*
D16*
X217496250Y-34170000D03*
G04 #@! TD*
D13*
G04 #@! TO.C,MX13*
X324176250Y-39250000D03*
D14*
X329256250Y-39250000D03*
D13*
X334336250Y-39250000D03*
D15*
X326101251Y-35980000D03*
D16*
X326756250Y-35250000D03*
D17*
X331776250Y-34460000D03*
D16*
X331796250Y-34170000D03*
G04 #@! TD*
D13*
G04 #@! TO.C,MX4*
X152726250Y-39250000D03*
D14*
X157806250Y-39250000D03*
D13*
X162886250Y-39250000D03*
D15*
X154651251Y-35980000D03*
D16*
X155306250Y-35250000D03*
D17*
X160326250Y-34460000D03*
D16*
X160346250Y-34170000D03*
G04 #@! TD*
D13*
G04 #@! TO.C,MX41*
X286076250Y-77350000D03*
D14*
X291156250Y-77350000D03*
D13*
X296236250Y-77350000D03*
D15*
X288001251Y-74080000D03*
D16*
X288656250Y-73350000D03*
D17*
X293676250Y-72560000D03*
D16*
X293696250Y-72270000D03*
G04 #@! TD*
D13*
G04 #@! TO.C,MX52*
X228926250Y-96400000D03*
D14*
X234006250Y-96400000D03*
D13*
X239086250Y-96400000D03*
D15*
X230851251Y-93130000D03*
D16*
X231506250Y-92400000D03*
D17*
X236526250Y-91610000D03*
D16*
X236546250Y-91320000D03*
G04 #@! TD*
D13*
G04 #@! TO.C,MX16*
X74145000Y-58300000D03*
D14*
X79225000Y-58300000D03*
D13*
X84305000Y-58300000D03*
D15*
X76070001Y-55030000D03*
D16*
X76725000Y-54300000D03*
D17*
X81745000Y-53510000D03*
D16*
X81765000Y-53220000D03*
G04 #@! TD*
D13*
G04 #@! TO.C,MX20*
X171776250Y-58300000D03*
D14*
X176856250Y-58300000D03*
D13*
X181936250Y-58300000D03*
D15*
X173701251Y-55030000D03*
D16*
X174356250Y-54300000D03*
D17*
X179376250Y-53510000D03*
D16*
X179396250Y-53220000D03*
G04 #@! TD*
D13*
G04 #@! TO.C,MX69*
X367038750Y-120212500D03*
D14*
X372118750Y-120212500D03*
D13*
X377198750Y-120212500D03*
D15*
X368963751Y-116942500D03*
D16*
X369618750Y-116212500D03*
D17*
X374638750Y-115422500D03*
D16*
X374658750Y-115132500D03*
G04 #@! TD*
D13*
G04 #@! TO.C,MX6*
X190826250Y-39250000D03*
D14*
X195906250Y-39250000D03*
D13*
X200986250Y-39250000D03*
D15*
X192751251Y-35980000D03*
D16*
X193406250Y-35250000D03*
D17*
X198426250Y-34460000D03*
D16*
X198446250Y-34170000D03*
G04 #@! TD*
D13*
G04 #@! TO.C,MX38*
X228926250Y-77350000D03*
D14*
X234006250Y-77350000D03*
D13*
X239086250Y-77350000D03*
D15*
X230851251Y-74080000D03*
D16*
X231506250Y-73350000D03*
D17*
X236526250Y-72560000D03*
D16*
X236546250Y-72270000D03*
G04 #@! TD*
D13*
G04 #@! TO.C,MX68*
X347988750Y-120212500D03*
D14*
X353068750Y-120212500D03*
D13*
X358148750Y-120212500D03*
D15*
X349913751Y-116942500D03*
D16*
X350568750Y-116212500D03*
D17*
X355588750Y-115422500D03*
D16*
X355608750Y-115132500D03*
G04 #@! TD*
D13*
G04 #@! TO.C,MX42*
X305126250Y-77350000D03*
D14*
X310206250Y-77350000D03*
D13*
X315286250Y-77350000D03*
D15*
X307051251Y-74080000D03*
D16*
X307706250Y-73350000D03*
D17*
X312726250Y-72560000D03*
D16*
X312746250Y-72270000D03*
G04 #@! TD*
D13*
G04 #@! TO.C,MX60*
X133676250Y-115450000D03*
D14*
X138756250Y-115450000D03*
D13*
X143836250Y-115450000D03*
D15*
X135601251Y-112180000D03*
D16*
X136256250Y-111450000D03*
D17*
X141276250Y-110660000D03*
D16*
X141296250Y-110370000D03*
G04 #@! TD*
D13*
G04 #@! TO.C,MX48*
X152726250Y-96400000D03*
D14*
X157806250Y-96400000D03*
D13*
X162886250Y-96400000D03*
D15*
X154651251Y-93130000D03*
D16*
X155306250Y-92400000D03*
D17*
X160326250Y-91610000D03*
D16*
X160346250Y-91320000D03*
G04 #@! TD*
D13*
G04 #@! TO.C,MX67*
X328938750Y-120212500D03*
D14*
X334018750Y-120212500D03*
D13*
X339098750Y-120212500D03*
D15*
X330863751Y-116942500D03*
D16*
X331518750Y-116212500D03*
D17*
X336538750Y-115422500D03*
D16*
X336558750Y-115132500D03*
G04 #@! TD*
D13*
G04 #@! TO.C,MX40*
X267026250Y-77350000D03*
D14*
X272106250Y-77350000D03*
D13*
X277186250Y-77350000D03*
D15*
X268951251Y-74080000D03*
D16*
X269606250Y-73350000D03*
D17*
X274626250Y-72560000D03*
D16*
X274646250Y-72270000D03*
G04 #@! TD*
D13*
G04 #@! TO.C,MX39*
X247976250Y-77350000D03*
D14*
X253056250Y-77350000D03*
D13*
X258136250Y-77350000D03*
D15*
X249901251Y-74080000D03*
D16*
X250556250Y-73350000D03*
D17*
X255576250Y-72560000D03*
D16*
X255596250Y-72270000D03*
G04 #@! TD*
D13*
G04 #@! TO.C,MX30*
X369420000Y-58300000D03*
D14*
X374500000Y-58300000D03*
D13*
X379580000Y-58300000D03*
D15*
X371345001Y-55030000D03*
D16*
X372000000Y-54300000D03*
D17*
X377020000Y-53510000D03*
D16*
X377040000Y-53220000D03*
G04 #@! TD*
D13*
G04 #@! TO.C,MX56*
X305126250Y-96400000D03*
D14*
X310206250Y-96400000D03*
D13*
X315286250Y-96400000D03*
D15*
X307051251Y-93130000D03*
D16*
X307706250Y-92400000D03*
D17*
X312726250Y-91610000D03*
D16*
X312746250Y-91320000D03*
G04 #@! TD*
D13*
G04 #@! TO.C,MX14*
X343226250Y-39250000D03*
D14*
X348306250Y-39250000D03*
D13*
X353386250Y-39250000D03*
D15*
X345151251Y-35980000D03*
D16*
X345806250Y-35250000D03*
D17*
X350826250Y-34460000D03*
D16*
X350846250Y-34170000D03*
G04 #@! TD*
D13*
G04 #@! TO.C,MX24*
X247976250Y-58300000D03*
D14*
X253056250Y-58300000D03*
D13*
X258136250Y-58300000D03*
D15*
X249901251Y-55030000D03*
D16*
X250556250Y-54300000D03*
D17*
X255576250Y-53510000D03*
D16*
X255596250Y-53220000D03*
G04 #@! TD*
D13*
G04 #@! TO.C,MX22*
X209876250Y-58300000D03*
D14*
X214956250Y-58300000D03*
D13*
X220036250Y-58300000D03*
D15*
X211801251Y-55030000D03*
D16*
X212456250Y-54300000D03*
D17*
X217476250Y-53510000D03*
D16*
X217496250Y-53220000D03*
G04 #@! TD*
D23*
G04 #@! TO.C,D29*
X356306250Y-60950000D03*
X356306250Y-57650000D03*
G04 #@! TD*
G04 #@! TO.C,D30*
X382500000Y-60950000D03*
X382500000Y-57650000D03*
G04 #@! TD*
G04 #@! TO.C,D55*
X299156250Y-99050000D03*
X299156250Y-95750000D03*
G04 #@! TD*
G04 #@! TO.C,D11*
X299156250Y-41900000D03*
X299156250Y-38600000D03*
G04 #@! TD*
G04 #@! TO.C,D20*
X184856250Y-60950000D03*
X184856250Y-57650000D03*
G04 #@! TD*
G04 #@! TO.C,D25*
X280106250Y-60950000D03*
X280106250Y-57650000D03*
G04 #@! TD*
G04 #@! TO.C,D63*
X244387500Y-118100000D03*
X244387500Y-114800000D03*
G04 #@! TD*
G04 #@! TO.C,D18*
X146756250Y-60950000D03*
X146756250Y-57650000D03*
G04 #@! TD*
G04 #@! TO.C,D60*
X146756250Y-118100000D03*
X146756250Y-114800000D03*
G04 #@! TD*
G04 #@! TO.C,D26*
X299156250Y-60950000D03*
X299156250Y-57650000D03*
G04 #@! TD*
G04 #@! TO.C,D6*
X203906250Y-41900000D03*
X203906250Y-38600000D03*
G04 #@! TD*
G04 #@! TO.C,D34*
X165806250Y-80000000D03*
X165806250Y-76700000D03*
G04 #@! TD*
G04 #@! TO.C,D32*
X120562500Y-80000000D03*
X120562500Y-76700000D03*
G04 #@! TD*
G04 #@! TO.C,D57*
X344400000Y-99050000D03*
X344400000Y-95750000D03*
G04 #@! TD*
G04 #@! TO.C,D41*
X299156250Y-80000000D03*
X299156250Y-76700000D03*
G04 #@! TD*
G04 #@! TO.C,D35*
X184856250Y-80000000D03*
X184856250Y-76700000D03*
G04 #@! TD*
G04 #@! TO.C,D56*
X318206250Y-99050000D03*
X318206250Y-95750000D03*
G04 #@! TD*
G04 #@! TO.C,D47*
X146756250Y-99050000D03*
X146756250Y-95750000D03*
G04 #@! TD*
G04 #@! TO.C,D4*
X165806250Y-41900000D03*
X165806250Y-38600000D03*
G04 #@! TD*
G04 #@! TO.C,D24*
X261056250Y-60950000D03*
X261056250Y-57650000D03*
G04 #@! TD*
G04 #@! TO.C,D40*
X280106250Y-80000000D03*
X280106250Y-76700000D03*
G04 #@! TD*
G04 #@! TO.C,D44*
X363450000Y-80000000D03*
X363450000Y-76700000D03*
G04 #@! TD*
G04 #@! TO.C,D9*
X261056250Y-41900000D03*
X261056250Y-38600000D03*
G04 #@! TD*
G04 #@! TO.C,D2*
X120562500Y-41900000D03*
X120562500Y-38600000D03*
G04 #@! TD*
G04 #@! TO.C,D54*
X280106250Y-99050000D03*
X280106250Y-95750000D03*
G04 #@! TD*
G04 #@! TO.C,D65*
X299156250Y-118100000D03*
X299156250Y-114800000D03*
G04 #@! TD*
G04 #@! TO.C,D64*
X280106250Y-118100000D03*
X280106250Y-114800000D03*
G04 #@! TD*
G04 #@! TO.C,D59*
X120562500Y-118100000D03*
X120562500Y-114800000D03*
G04 #@! TD*
G04 #@! TO.C,D67*
X342018750Y-122862500D03*
X342018750Y-119562500D03*
G04 #@! TD*
G04 #@! TO.C,D21*
X203906250Y-60950000D03*
X203906250Y-57650000D03*
G04 #@! TD*
G04 #@! TO.C,D27*
X318206250Y-60950000D03*
X318206250Y-57650000D03*
G04 #@! TD*
G04 #@! TO.C,D53*
X261056250Y-99050000D03*
X261056250Y-95750000D03*
G04 #@! TD*
G04 #@! TO.C,D52*
X242006250Y-99050000D03*
X242006250Y-95750000D03*
G04 #@! TD*
G04 #@! TO.C,D31*
X87225000Y-80000000D03*
X87225000Y-76700000D03*
G04 #@! TD*
G04 #@! TO.C,D38*
X242006250Y-80000000D03*
X242006250Y-76700000D03*
G04 #@! TD*
G04 #@! TO.C,D14*
X356306250Y-41900000D03*
X356306250Y-38600000D03*
G04 #@! TD*
G04 #@! TO.C,D22*
X222956250Y-60950000D03*
X222956250Y-57650000D03*
G04 #@! TD*
G04 #@! TO.C,D12*
X318206250Y-41900000D03*
X318206250Y-38600000D03*
G04 #@! TD*
G04 #@! TO.C,D58*
X87225000Y-118100000D03*
X87225000Y-114800000D03*
G04 #@! TD*
G04 #@! TO.C,D50*
X203906250Y-99050000D03*
X203906250Y-95750000D03*
G04 #@! TD*
G04 #@! TO.C,D17*
X120562500Y-60950000D03*
X120562500Y-57650000D03*
G04 #@! TD*
G04 #@! TO.C,D10*
X280106250Y-41900000D03*
X280106250Y-38600000D03*
G04 #@! TD*
G04 #@! TO.C,D43*
X337256250Y-80000000D03*
X337256250Y-76700000D03*
G04 #@! TD*
G04 #@! TO.C,D49*
X184856250Y-99050000D03*
X184856250Y-95750000D03*
G04 #@! TD*
G04 #@! TO.C,D51*
X222956250Y-99050000D03*
X222956250Y-95750000D03*
G04 #@! TD*
G04 #@! TO.C,D3*
X146756250Y-41900000D03*
X146756250Y-38600000D03*
G04 #@! TD*
G04 #@! TO.C,D66*
X322968750Y-122862500D03*
X322968750Y-119562500D03*
G04 #@! TD*
G04 #@! TO.C,D45*
X87225000Y-99050000D03*
X87225000Y-95750000D03*
G04 #@! TD*
G04 #@! TO.C,D15*
X382500000Y-41900000D03*
X382500000Y-38600000D03*
G04 #@! TD*
G04 #@! TO.C,D42*
X318206250Y-80000000D03*
X318206250Y-76700000D03*
G04 #@! TD*
G04 #@! TO.C,D48*
X165806250Y-99050000D03*
X165806250Y-95750000D03*
G04 #@! TD*
G04 #@! TO.C,D1*
X87225000Y-41900000D03*
X87225000Y-38600000D03*
G04 #@! TD*
G04 #@! TO.C,D68*
X361068750Y-122862500D03*
X361068750Y-119562500D03*
G04 #@! TD*
G04 #@! TO.C,D61*
X165806250Y-118100000D03*
X165806250Y-114800000D03*
G04 #@! TD*
G04 #@! TO.C,D19*
X165806250Y-60950000D03*
X165806250Y-57650000D03*
G04 #@! TD*
G04 #@! TO.C,D69*
X380118750Y-122862500D03*
X380118750Y-119562500D03*
G04 #@! TD*
G04 #@! TO.C,D16*
X87225000Y-60950000D03*
X87225000Y-57650000D03*
G04 #@! TD*
G04 #@! TO.C,D5*
X184856250Y-41900000D03*
X184856250Y-38600000D03*
G04 #@! TD*
G04 #@! TO.C,D33*
X146756250Y-80000000D03*
X146756250Y-76700000D03*
G04 #@! TD*
G04 #@! TO.C,D8*
X242006250Y-41900000D03*
X242006250Y-38600000D03*
G04 #@! TD*
G04 #@! TO.C,D37*
X222956250Y-80000000D03*
X222956250Y-76700000D03*
G04 #@! TD*
G04 #@! TO.C,D46*
X120562500Y-99050000D03*
X120562500Y-95750000D03*
G04 #@! TD*
G04 #@! TO.C,D62*
X196762500Y-118100000D03*
X196762500Y-114800000D03*
G04 #@! TD*
G04 #@! TO.C,D39*
X261056250Y-80000000D03*
X261056250Y-76700000D03*
G04 #@! TD*
G04 #@! TO.C,D7*
X222956250Y-41900000D03*
X222956250Y-38600000D03*
G04 #@! TD*
G04 #@! TO.C,D23*
X242006250Y-60950000D03*
X242006250Y-57650000D03*
G04 #@! TD*
G04 #@! TO.C,D28*
X337256250Y-60950000D03*
X337256250Y-57650000D03*
G04 #@! TD*
G04 #@! TO.C,D13*
X337256250Y-41900000D03*
X337256250Y-38600000D03*
G04 #@! TD*
G04 #@! TO.C,D36*
X203906250Y-80000000D03*
X203906250Y-76700000D03*
G04 #@! TD*
%LPD*%
M02*
