G04 #@! TF.GenerationSoftware,KiCad,Pcbnew,8.0.4*
G04 #@! TF.CreationDate,2024-09-04T19:59:22-04:00*
G04 #@! TF.ProjectId,small-fry-pcb,736d616c-6c2d-4667-9279-2d7063622e6b,1.0*
G04 #@! TF.SameCoordinates,Original*
G04 #@! TF.FileFunction,Copper,L2,Bot*
G04 #@! TF.FilePolarity,Positive*
%FSLAX46Y46*%
G04 Gerber Fmt 4.6, Leading zero omitted, Abs format (unit mm)*
G04 Created by KiCad (PCBNEW 8.0.4) date 2024-09-04 19:59:22*
%MOMM*%
%LPD*%
G01*
G04 APERTURE LIST*
G04 Aperture macros list*
%AMRoundRect*
0 Rectangle with rounded corners*
0 $1 Rounding radius*
0 $2 $3 $4 $5 $6 $7 $8 $9 X,Y pos of 4 corners*
0 Add a 4 corners polygon primitive as box body*
4,1,4,$2,$3,$4,$5,$6,$7,$8,$9,$2,$3,0*
0 Add four circle primitives for the rounded corners*
1,1,$1+$1,$2,$3*
1,1,$1+$1,$4,$5*
1,1,$1+$1,$6,$7*
1,1,$1+$1,$8,$9*
0 Add four rect primitives between the rounded corners*
20,1,$1+$1,$2,$3,$4,$5,0*
20,1,$1+$1,$4,$5,$6,$7,0*
20,1,$1+$1,$6,$7,$8,$9,0*
20,1,$1+$1,$8,$9,$2,$3,0*%
%AMHorizOval*
0 Thick line with rounded ends*
0 $1 width*
0 $2 $3 position (X,Y) of the first rounded end (center of the circle)*
0 $4 $5 position (X,Y) of the second rounded end (center of the circle)*
0 Add line between two ends*
20,1,$1,$2,$3,$4,$5,0*
0 Add two circle primitives to create the rounded ends*
1,1,$1,$2,$3*
1,1,$1,$4,$5*%
G04 Aperture macros list end*
G04 #@! TA.AperFunction,ComponentPad*
%ADD10HorizOval,2.250000X0.655001X0.730000X-0.655001X-0.730000X0*%
G04 #@! TD*
G04 #@! TA.AperFunction,ComponentPad*
%ADD11C,2.250000*%
G04 #@! TD*
G04 #@! TA.AperFunction,ComponentPad*
%ADD12HorizOval,2.250000X0.020000X0.290000X-0.020000X-0.290000X0*%
G04 #@! TD*
G04 #@! TA.AperFunction,ComponentPad*
%ADD13O,1.700000X1.700000*%
G04 #@! TD*
G04 #@! TA.AperFunction,ComponentPad*
%ADD14R,1.700000X1.700000*%
G04 #@! TD*
G04 #@! TA.AperFunction,SMDPad,CuDef*
%ADD15RoundRect,0.225000X0.375000X-0.225000X0.375000X0.225000X-0.375000X0.225000X-0.375000X-0.225000X0*%
G04 #@! TD*
G04 #@! TA.AperFunction,Conductor*
%ADD16C,0.250000*%
G04 #@! TD*
G04 APERTURE END LIST*
D10*
G04 #@! TO.P,MX51,1,COL*
G04 #@! TO.N,col6*
X211801251Y-93130000D03*
D11*
X212456250Y-92400000D03*
D12*
G04 #@! TO.P,MX51,2,ROW*
G04 #@! TO.N,Net-(D51-A)*
X217476250Y-91610000D03*
D11*
X217496250Y-91320000D03*
G04 #@! TD*
D10*
G04 #@! TO.P,MX44,1,COL*
G04 #@! TO.N,col13*
X352295001Y-74080000D03*
D11*
X352950000Y-73350000D03*
D12*
G04 #@! TO.P,MX44,2,ROW*
G04 #@! TO.N,Net-(D44-A)*
X357970000Y-72560000D03*
D11*
X357990000Y-72270000D03*
G04 #@! TD*
D10*
G04 #@! TO.P,MX11,1,COL*
G04 #@! TO.N,col10*
X288001251Y-35980000D03*
D11*
X288656250Y-35250000D03*
D12*
G04 #@! TO.P,MX11,2,ROW*
G04 #@! TO.N,Net-(D11-A)*
X293676250Y-34460000D03*
D11*
X293696250Y-34170000D03*
G04 #@! TD*
D10*
G04 #@! TO.P,MX23,1,COL*
G04 #@! TO.N,col7*
X230851251Y-55030000D03*
D11*
X231506250Y-54300000D03*
D12*
G04 #@! TO.P,MX23,2,ROW*
G04 #@! TO.N,Net-(D23-A)*
X236526250Y-53510000D03*
D11*
X236546250Y-53220000D03*
G04 #@! TD*
D10*
G04 #@! TO.P,MX32,1,COL*
G04 #@! TO.N,col1*
X109407501Y-74080000D03*
D11*
X110062500Y-73350000D03*
D12*
G04 #@! TO.P,MX32,2,ROW*
G04 #@! TO.N,Net-(D32-A)*
X115082500Y-72560000D03*
D11*
X115102500Y-72270000D03*
G04 #@! TD*
D10*
G04 #@! TO.P,MX59,1,COL*
G04 #@! TO.N,col1*
X109407501Y-112180000D03*
D11*
X110062500Y-111450000D03*
D12*
G04 #@! TO.P,MX59,2,ROW*
G04 #@! TO.N,Net-(D59-A)*
X115082500Y-110660000D03*
D11*
X115102500Y-110370000D03*
G04 #@! TD*
D10*
G04 #@! TO.P,MX2,1,COL*
G04 #@! TO.N,col1*
X109407501Y-35980000D03*
D11*
X110062500Y-35250000D03*
D12*
G04 #@! TO.P,MX2,2,ROW*
G04 #@! TO.N,Net-(D2-A)*
X115082500Y-34460000D03*
D11*
X115102500Y-34170000D03*
G04 #@! TD*
D10*
G04 #@! TO.P,MX1,1,COL*
G04 #@! TO.N,col0*
X76070001Y-35980000D03*
D11*
X76725000Y-35250000D03*
D12*
G04 #@! TO.P,MX1,2,ROW*
G04 #@! TO.N,Net-(D1-A)*
X81745000Y-34460000D03*
D11*
X81765000Y-34170000D03*
G04 #@! TD*
D10*
G04 #@! TO.P,MX54,1,COL*
G04 #@! TO.N,col9*
X268951251Y-93130000D03*
D11*
X269606250Y-92400000D03*
D12*
G04 #@! TO.P,MX54,2,ROW*
G04 #@! TO.N,Net-(D54-A)*
X274626250Y-91610000D03*
D11*
X274646250Y-91320000D03*
G04 #@! TD*
D10*
G04 #@! TO.P,MX5,1,COL*
G04 #@! TO.N,col4*
X173701251Y-35980000D03*
D11*
X174356250Y-35250000D03*
D12*
G04 #@! TO.P,MX5,2,ROW*
G04 #@! TO.N,Net-(D5-A)*
X179376250Y-34460000D03*
D11*
X179396250Y-34170000D03*
G04 #@! TD*
D10*
G04 #@! TO.P,MX45,1,COL*
G04 #@! TO.N,col0*
X76070001Y-93130000D03*
D11*
X76725000Y-92400000D03*
D12*
G04 #@! TO.P,MX45,2,ROW*
G04 #@! TO.N,Net-(D45-A)*
X81745000Y-91610000D03*
D11*
X81765000Y-91320000D03*
G04 #@! TD*
D10*
G04 #@! TO.P,MX62,1,COL*
G04 #@! TO.N,col4*
X185607501Y-112180000D03*
D11*
X186262500Y-111450000D03*
D12*
G04 #@! TO.P,MX62,2,ROW*
G04 #@! TO.N,Net-(D62-A)*
X191282500Y-110660000D03*
D11*
X191302500Y-110370000D03*
G04 #@! TD*
D10*
G04 #@! TO.P,MX66,1,COL*
G04 #@! TO.N,col11*
X311813751Y-116942500D03*
D11*
X312468750Y-116212500D03*
D12*
G04 #@! TO.P,MX66,2,ROW*
G04 #@! TO.N,Net-(D66-A)*
X317488750Y-115422500D03*
D11*
X317508750Y-115132500D03*
G04 #@! TD*
D10*
G04 #@! TO.P,MX50,1,COL*
G04 #@! TO.N,col5*
X192751251Y-93130000D03*
D11*
X193406250Y-92400000D03*
D12*
G04 #@! TO.P,MX50,2,ROW*
G04 #@! TO.N,Net-(D50-A)*
X198426250Y-91610000D03*
D11*
X198446250Y-91320000D03*
G04 #@! TD*
D10*
G04 #@! TO.P,MX65,1,COL*
G04 #@! TO.N,col10*
X288001251Y-112180000D03*
D11*
X288656250Y-111450000D03*
D12*
G04 #@! TO.P,MX65,2,ROW*
G04 #@! TO.N,Net-(D65-A)*
X293676250Y-110660000D03*
D11*
X293696250Y-110370000D03*
G04 #@! TD*
D10*
G04 #@! TO.P,MX34,1,COL*
G04 #@! TO.N,col3*
X154651251Y-74080000D03*
D11*
X155306250Y-73350000D03*
D12*
G04 #@! TO.P,MX34,2,ROW*
G04 #@! TO.N,Net-(D34-A)*
X160326250Y-72560000D03*
D11*
X160346250Y-72270000D03*
G04 #@! TD*
D10*
G04 #@! TO.P,MX12,1,COL*
G04 #@! TO.N,col11*
X307051251Y-35980000D03*
D11*
X307706250Y-35250000D03*
D12*
G04 #@! TO.P,MX12,2,ROW*
G04 #@! TO.N,Net-(D12-A)*
X312726250Y-34460000D03*
D11*
X312746250Y-34170000D03*
G04 #@! TD*
D10*
G04 #@! TO.P,MX35,1,COL*
G04 #@! TO.N,col4*
X173701251Y-74080000D03*
D11*
X174356250Y-73350000D03*
D12*
G04 #@! TO.P,MX35,2,ROW*
G04 #@! TO.N,Net-(D35-A)*
X179376250Y-72560000D03*
D11*
X179396250Y-72270000D03*
G04 #@! TD*
D10*
G04 #@! TO.P,MX46,1,COL*
G04 #@! TO.N,col1*
X109407501Y-93130000D03*
D11*
X110062500Y-92400000D03*
D12*
G04 #@! TO.P,MX46,2,ROW*
G04 #@! TO.N,Net-(D46-A)*
X115082500Y-91610000D03*
D11*
X115102500Y-91320000D03*
G04 #@! TD*
D10*
G04 #@! TO.P,MX9,1,COL*
G04 #@! TO.N,col8*
X249901251Y-35980000D03*
D11*
X250556250Y-35250000D03*
D12*
G04 #@! TO.P,MX9,2,ROW*
G04 #@! TO.N,Net-(D9-A)*
X255576250Y-34460000D03*
D11*
X255596250Y-34170000D03*
G04 #@! TD*
D10*
G04 #@! TO.P,MX18,1,COL*
G04 #@! TO.N,col2*
X135601251Y-55030000D03*
D11*
X136256250Y-54300000D03*
D12*
G04 #@! TO.P,MX18,2,ROW*
G04 #@! TO.N,Net-(D18-A)*
X141276250Y-53510000D03*
D11*
X141296250Y-53220000D03*
G04 #@! TD*
D10*
G04 #@! TO.P,MX57,1,COL*
G04 #@! TO.N,col12*
X333245001Y-93130000D03*
D11*
X333900000Y-92400000D03*
D12*
G04 #@! TO.P,MX57,2,ROW*
G04 #@! TO.N,Net-(D57-A)*
X338920000Y-91610000D03*
D11*
X338940000Y-91320000D03*
G04 #@! TD*
D10*
G04 #@! TO.P,MX43,1,COL*
G04 #@! TO.N,col12*
X326101251Y-74080000D03*
D11*
X326756250Y-73350000D03*
D12*
G04 #@! TO.P,MX43,2,ROW*
G04 #@! TO.N,Net-(D43-A)*
X331776250Y-72560000D03*
D11*
X331796250Y-72270000D03*
G04 #@! TD*
D10*
G04 #@! TO.P,MX3,1,COL*
G04 #@! TO.N,col2*
X135601251Y-35980000D03*
D11*
X136256250Y-35250000D03*
D12*
G04 #@! TO.P,MX3,2,ROW*
G04 #@! TO.N,Net-(D3-A)*
X141276250Y-34460000D03*
D11*
X141296250Y-34170000D03*
G04 #@! TD*
D10*
G04 #@! TO.P,MX31,1,COL*
G04 #@! TO.N,col0*
X76070001Y-74080000D03*
D11*
X76725000Y-73350000D03*
D12*
G04 #@! TO.P,MX31,2,ROW*
G04 #@! TO.N,Net-(D31-A)*
X81745000Y-72560000D03*
D11*
X81765000Y-72270000D03*
G04 #@! TD*
D10*
G04 #@! TO.P,MX37,1,COL*
G04 #@! TO.N,col6*
X211801251Y-74080000D03*
D11*
X212456250Y-73350000D03*
D12*
G04 #@! TO.P,MX37,2,ROW*
G04 #@! TO.N,Net-(D37-A)*
X217476250Y-72560000D03*
D11*
X217496250Y-72270000D03*
G04 #@! TD*
D10*
G04 #@! TO.P,MX17,1,COL*
G04 #@! TO.N,col1*
X109407501Y-55030000D03*
D11*
X110062500Y-54300000D03*
D12*
G04 #@! TO.P,MX17,2,ROW*
G04 #@! TO.N,Net-(D17-A)*
X115082500Y-53510000D03*
D11*
X115102500Y-53220000D03*
G04 #@! TD*
D10*
G04 #@! TO.P,MX36,1,COL*
G04 #@! TO.N,col5*
X192751251Y-74080000D03*
D11*
X193406250Y-73350000D03*
D12*
G04 #@! TO.P,MX36,2,ROW*
G04 #@! TO.N,Net-(D36-A)*
X198426250Y-72560000D03*
D11*
X198446250Y-72270000D03*
G04 #@! TD*
D13*
G04 #@! TO.P,U1,1,GPIO0*
G04 #@! TO.N,col14*
X40720000Y-31000000D03*
G04 #@! TO.P,U1,2,GPIO1*
G04 #@! TO.N,col13*
X40720000Y-33540000D03*
D14*
G04 #@! TO.P,U1,3,GND*
G04 #@! TO.N,unconnected-(U1-GND-Pad3)*
X40720000Y-36080000D03*
D13*
G04 #@! TO.P,U1,4,GPIO2*
G04 #@! TO.N,col12*
X40720000Y-38620000D03*
G04 #@! TO.P,U1,5,GPIO3*
G04 #@! TO.N,col11*
X40720000Y-41160000D03*
G04 #@! TO.P,U1,6,GPIO4*
G04 #@! TO.N,col10*
X40720000Y-43700000D03*
G04 #@! TO.P,U1,7,GPIO5*
G04 #@! TO.N,col9*
X40720000Y-46240000D03*
D14*
G04 #@! TO.P,U1,8,GND*
G04 #@! TO.N,unconnected-(U1-GND-Pad8)*
X40720000Y-48780000D03*
D13*
G04 #@! TO.P,U1,9,GPIO6*
G04 #@! TO.N,col8*
X40720000Y-51320000D03*
G04 #@! TO.P,U1,10,GPIO7*
G04 #@! TO.N,col7*
X40720000Y-53860000D03*
G04 #@! TO.P,U1,11,GPIO8*
G04 #@! TO.N,col6*
X40720000Y-56400000D03*
G04 #@! TO.P,U1,12,GPIO9*
G04 #@! TO.N,col5*
X40720000Y-58940000D03*
D14*
G04 #@! TO.P,U1,13,GND*
G04 #@! TO.N,unconnected-(U1-GND-Pad13)*
X40720000Y-61480000D03*
D13*
G04 #@! TO.P,U1,14,GPIO10*
G04 #@! TO.N,col4*
X40720000Y-64020000D03*
G04 #@! TO.P,U1,15,GPIO11*
G04 #@! TO.N,col3*
X40720000Y-66560000D03*
G04 #@! TO.P,U1,16,GPIO12*
G04 #@! TO.N,col2*
X40720000Y-69100000D03*
G04 #@! TO.P,U1,17,GPIO13*
G04 #@! TO.N,col1*
X40720000Y-71640000D03*
D14*
G04 #@! TO.P,U1,18,GND*
G04 #@! TO.N,unconnected-(U1-GND-Pad18)*
X40720000Y-74180000D03*
D13*
G04 #@! TO.P,U1,19,GPIO14*
G04 #@! TO.N,col0*
X40720000Y-76720000D03*
G04 #@! TO.P,U1,20,GPIO15*
G04 #@! TO.N,unconnected-(U1-GPIO15-Pad20)*
X40720000Y-79260000D03*
G04 #@! TO.P,U1,21,GPIO16*
G04 #@! TO.N,unconnected-(U1-GPIO16-Pad21)*
X58500000Y-79260000D03*
G04 #@! TO.P,U1,22,GPIO17*
G04 #@! TO.N,row4*
X58500000Y-76720000D03*
D14*
G04 #@! TO.P,U1,23,GND*
G04 #@! TO.N,unconnected-(U1-GND-Pad23)*
X58500000Y-74180000D03*
D13*
G04 #@! TO.P,U1,24,GPIO18*
G04 #@! TO.N,row3*
X58500000Y-71640000D03*
G04 #@! TO.P,U1,25,GPIO19*
G04 #@! TO.N,row2*
X58500000Y-69100000D03*
G04 #@! TO.P,U1,26,GPIO20*
G04 #@! TO.N,row1*
X58500000Y-66560000D03*
G04 #@! TO.P,U1,27,GPIO21*
G04 #@! TO.N,row0*
X58500000Y-64020000D03*
D14*
G04 #@! TO.P,U1,28,GND*
G04 #@! TO.N,unconnected-(U1-GND-Pad28)*
X58500000Y-61480000D03*
D13*
G04 #@! TO.P,U1,29,GPIO22*
G04 #@! TO.N,unconnected-(U1-GPIO22-Pad29)*
X58500000Y-58940000D03*
G04 #@! TO.P,U1,30,RUN*
G04 #@! TO.N,unconnected-(U1-RUN-Pad30)*
X58500000Y-56400000D03*
G04 #@! TO.P,U1,31,GPIO26_ADC0*
G04 #@! TO.N,unconnected-(U1-GPIO26_ADC0-Pad31)*
X58500000Y-53860000D03*
G04 #@! TO.P,U1,32,GPIO27_ADC1*
G04 #@! TO.N,unconnected-(U1-GPIO27_ADC1-Pad32)*
X58500000Y-51320000D03*
D14*
G04 #@! TO.P,U1,33,AGND*
G04 #@! TO.N,unconnected-(U1-AGND-Pad33)*
X58500000Y-48780000D03*
D13*
G04 #@! TO.P,U1,34,GPIO28_ADC2*
G04 #@! TO.N,unconnected-(U1-GPIO28_ADC2-Pad34)*
X58500000Y-46240000D03*
G04 #@! TO.P,U1,35,ADC_VREF*
G04 #@! TO.N,unconnected-(U1-ADC_VREF-Pad35)*
X58500000Y-43700000D03*
G04 #@! TO.P,U1,36,3V3*
G04 #@! TO.N,unconnected-(U1-3V3-Pad36)*
X58500000Y-41160000D03*
G04 #@! TO.P,U1,37,3V3_EN*
G04 #@! TO.N,unconnected-(U1-3V3_EN-Pad37)*
X58500000Y-38620000D03*
D14*
G04 #@! TO.P,U1,38,GND*
G04 #@! TO.N,unconnected-(U1-GND-Pad38)*
X58500000Y-36080000D03*
D13*
G04 #@! TO.P,U1,39,VSYS*
G04 #@! TO.N,unconnected-(U1-VSYS-Pad39)*
X58500000Y-33540000D03*
G04 #@! TO.P,U1,40,VBUS*
G04 #@! TO.N,unconnected-(U1-VBUS-Pad40)*
X58500000Y-31000000D03*
G04 #@! TO.P,U1,41,SWCLK*
G04 #@! TO.N,unconnected-(U1-SWCLK-Pad41)*
X47070000Y-79030000D03*
D14*
G04 #@! TO.P,U1,42,GND*
G04 #@! TO.N,unconnected-(U1-GND-Pad42)*
X49610000Y-79030000D03*
D13*
G04 #@! TO.P,U1,43,SWDIO*
G04 #@! TO.N,unconnected-(U1-SWDIO-Pad43)*
X52150000Y-79030000D03*
G04 #@! TD*
D10*
G04 #@! TO.P,MX47,1,COL*
G04 #@! TO.N,col2*
X135601251Y-93130000D03*
D11*
X136256250Y-92400000D03*
D12*
G04 #@! TO.P,MX47,2,ROW*
G04 #@! TO.N,Net-(D47-A)*
X141276250Y-91610000D03*
D11*
X141296250Y-91320000D03*
G04 #@! TD*
D10*
G04 #@! TO.P,MX25,1,COL*
G04 #@! TO.N,col9*
X268951251Y-55030000D03*
D11*
X269606250Y-54300000D03*
D12*
G04 #@! TO.P,MX25,2,ROW*
G04 #@! TO.N,Net-(D25-A)*
X274626250Y-53510000D03*
D11*
X274646250Y-53220000D03*
G04 #@! TD*
D10*
G04 #@! TO.P,MX61,1,COL*
G04 #@! TO.N,col3*
X154651251Y-112180000D03*
D11*
X155306250Y-111450000D03*
D12*
G04 #@! TO.P,MX61,2,ROW*
G04 #@! TO.N,Net-(D61-A)*
X160326250Y-110660000D03*
D11*
X160346250Y-110370000D03*
G04 #@! TD*
D10*
G04 #@! TO.P,MX26,1,COL*
G04 #@! TO.N,col10*
X288001251Y-55030000D03*
D11*
X288656250Y-54300000D03*
D12*
G04 #@! TO.P,MX26,2,ROW*
G04 #@! TO.N,Net-(D26-A)*
X293676250Y-53510000D03*
D11*
X293696250Y-53220000D03*
G04 #@! TD*
D10*
G04 #@! TO.P,MX15,1,COL*
G04 #@! TO.N,col14*
X371345001Y-35980000D03*
D11*
X372000000Y-35250000D03*
D12*
G04 #@! TO.P,MX15,2,ROW*
G04 #@! TO.N,Net-(D15-A)*
X377020000Y-34460000D03*
D11*
X377040000Y-34170000D03*
G04 #@! TD*
D10*
G04 #@! TO.P,MX58,1,COL*
G04 #@! TO.N,col0*
X76070001Y-112180000D03*
D11*
X76725000Y-111450000D03*
D12*
G04 #@! TO.P,MX58,2,ROW*
G04 #@! TO.N,Net-(D58-A)*
X81745000Y-110660000D03*
D11*
X81765000Y-110370000D03*
G04 #@! TD*
D10*
G04 #@! TO.P,MX63,1,COL*
G04 #@! TO.N,col7*
X233232501Y-112180000D03*
D11*
X233887500Y-111450000D03*
D12*
G04 #@! TO.P,MX63,2,ROW*
G04 #@! TO.N,Net-(D63-A)*
X238907500Y-110660000D03*
D11*
X238927500Y-110370000D03*
G04 #@! TD*
D10*
G04 #@! TO.P,MX28,1,COL*
G04 #@! TO.N,col12*
X326101251Y-55030000D03*
D11*
X326756250Y-54300000D03*
D12*
G04 #@! TO.P,MX28,2,ROW*
G04 #@! TO.N,Net-(D28-A)*
X331776250Y-53510000D03*
D11*
X331796250Y-53220000D03*
G04 #@! TD*
D10*
G04 #@! TO.P,MX8,1,COL*
G04 #@! TO.N,col7*
X230851251Y-35980000D03*
D11*
X231506250Y-35250000D03*
D12*
G04 #@! TO.P,MX8,2,ROW*
G04 #@! TO.N,Net-(D8-A)*
X236526250Y-34460000D03*
D11*
X236546250Y-34170000D03*
G04 #@! TD*
D10*
G04 #@! TO.P,MX10,1,COL*
G04 #@! TO.N,col9*
X268951251Y-35980000D03*
D11*
X269606250Y-35250000D03*
D12*
G04 #@! TO.P,MX10,2,ROW*
G04 #@! TO.N,Net-(D10-A)*
X274626250Y-34460000D03*
D11*
X274646250Y-34170000D03*
G04 #@! TD*
D10*
G04 #@! TO.P,MX53,1,COL*
G04 #@! TO.N,col8*
X249901251Y-93130000D03*
D11*
X250556250Y-92400000D03*
D12*
G04 #@! TO.P,MX53,2,ROW*
G04 #@! TO.N,Net-(D53-A)*
X255576250Y-91610000D03*
D11*
X255596250Y-91320000D03*
G04 #@! TD*
D10*
G04 #@! TO.P,MX64,1,COL*
G04 #@! TO.N,col9*
X268951251Y-112180000D03*
D11*
X269606250Y-111450000D03*
D12*
G04 #@! TO.P,MX64,2,ROW*
G04 #@! TO.N,Net-(D64-A)*
X274626250Y-110660000D03*
D11*
X274646250Y-110370000D03*
G04 #@! TD*
D10*
G04 #@! TO.P,MX49,1,COL*
G04 #@! TO.N,col4*
X173701251Y-93130000D03*
D11*
X174356250Y-92400000D03*
D12*
G04 #@! TO.P,MX49,2,ROW*
G04 #@! TO.N,Net-(D49-A)*
X179376250Y-91610000D03*
D11*
X179396250Y-91320000D03*
G04 #@! TD*
D10*
G04 #@! TO.P,MX27,1,COL*
G04 #@! TO.N,col11*
X307051251Y-55030000D03*
D11*
X307706250Y-54300000D03*
D12*
G04 #@! TO.P,MX27,2,ROW*
G04 #@! TO.N,Net-(D27-A)*
X312726250Y-53510000D03*
D11*
X312746250Y-53220000D03*
G04 #@! TD*
D10*
G04 #@! TO.P,MX33,1,COL*
G04 #@! TO.N,col2*
X135601251Y-74080000D03*
D11*
X136256250Y-73350000D03*
D12*
G04 #@! TO.P,MX33,2,ROW*
G04 #@! TO.N,Net-(D33-A)*
X141276250Y-72560000D03*
D11*
X141296250Y-72270000D03*
G04 #@! TD*
D10*
G04 #@! TO.P,MX21,1,COL*
G04 #@! TO.N,col5*
X192751251Y-55030000D03*
D11*
X193406250Y-54300000D03*
D12*
G04 #@! TO.P,MX21,2,ROW*
G04 #@! TO.N,Net-(D21-A)*
X198426250Y-53510000D03*
D11*
X198446250Y-53220000D03*
G04 #@! TD*
D10*
G04 #@! TO.P,MX19,1,COL*
G04 #@! TO.N,col3*
X154651251Y-55030000D03*
D11*
X155306250Y-54300000D03*
D12*
G04 #@! TO.P,MX19,2,ROW*
G04 #@! TO.N,Net-(D19-A)*
X160326250Y-53510000D03*
D11*
X160346250Y-53220000D03*
G04 #@! TD*
D10*
G04 #@! TO.P,MX55,1,COL*
G04 #@! TO.N,col10*
X288001251Y-93130000D03*
D11*
X288656250Y-92400000D03*
D12*
G04 #@! TO.P,MX55,2,ROW*
G04 #@! TO.N,Net-(D55-A)*
X293676250Y-91610000D03*
D11*
X293696250Y-91320000D03*
G04 #@! TD*
D10*
G04 #@! TO.P,MX29,1,COL*
G04 #@! TO.N,col13*
X345151251Y-55030000D03*
D11*
X345806250Y-54300000D03*
D12*
G04 #@! TO.P,MX29,2,ROW*
G04 #@! TO.N,Net-(D29-A)*
X350826250Y-53510000D03*
D11*
X350846250Y-53220000D03*
G04 #@! TD*
D10*
G04 #@! TO.P,MX7,1,COL*
G04 #@! TO.N,col6*
X211801251Y-35980000D03*
D11*
X212456250Y-35250000D03*
D12*
G04 #@! TO.P,MX7,2,ROW*
G04 #@! TO.N,Net-(D7-A)*
X217476250Y-34460000D03*
D11*
X217496250Y-34170000D03*
G04 #@! TD*
D10*
G04 #@! TO.P,MX13,1,COL*
G04 #@! TO.N,col12*
X326101251Y-35980000D03*
D11*
X326756250Y-35250000D03*
D12*
G04 #@! TO.P,MX13,2,ROW*
G04 #@! TO.N,Net-(D13-A)*
X331776250Y-34460000D03*
D11*
X331796250Y-34170000D03*
G04 #@! TD*
D10*
G04 #@! TO.P,MX4,1,COL*
G04 #@! TO.N,col3*
X154651251Y-35980000D03*
D11*
X155306250Y-35250000D03*
D12*
G04 #@! TO.P,MX4,2,ROW*
G04 #@! TO.N,Net-(D4-A)*
X160326250Y-34460000D03*
D11*
X160346250Y-34170000D03*
G04 #@! TD*
D10*
G04 #@! TO.P,MX41,1,COL*
G04 #@! TO.N,col10*
X288001251Y-74080000D03*
D11*
X288656250Y-73350000D03*
D12*
G04 #@! TO.P,MX41,2,ROW*
G04 #@! TO.N,Net-(D41-A)*
X293676250Y-72560000D03*
D11*
X293696250Y-72270000D03*
G04 #@! TD*
D10*
G04 #@! TO.P,MX52,1,COL*
G04 #@! TO.N,col7*
X230851251Y-93130000D03*
D11*
X231506250Y-92400000D03*
D12*
G04 #@! TO.P,MX52,2,ROW*
G04 #@! TO.N,Net-(D52-A)*
X236526250Y-91610000D03*
D11*
X236546250Y-91320000D03*
G04 #@! TD*
D10*
G04 #@! TO.P,MX16,1,COL*
G04 #@! TO.N,col0*
X76070001Y-55030000D03*
D11*
X76725000Y-54300000D03*
D12*
G04 #@! TO.P,MX16,2,ROW*
G04 #@! TO.N,Net-(D16-A)*
X81745000Y-53510000D03*
D11*
X81765000Y-53220000D03*
G04 #@! TD*
D10*
G04 #@! TO.P,MX20,1,COL*
G04 #@! TO.N,col4*
X173701251Y-55030000D03*
D11*
X174356250Y-54300000D03*
D12*
G04 #@! TO.P,MX20,2,ROW*
G04 #@! TO.N,Net-(D20-A)*
X179376250Y-53510000D03*
D11*
X179396250Y-53220000D03*
G04 #@! TD*
D10*
G04 #@! TO.P,MX69,1,COL*
G04 #@! TO.N,col14*
X368963751Y-116942500D03*
D11*
X369618750Y-116212500D03*
D12*
G04 #@! TO.P,MX69,2,ROW*
G04 #@! TO.N,Net-(D69-A)*
X374638750Y-115422500D03*
D11*
X374658750Y-115132500D03*
G04 #@! TD*
D10*
G04 #@! TO.P,MX6,1,COL*
G04 #@! TO.N,col5*
X192751251Y-35980000D03*
D11*
X193406250Y-35250000D03*
D12*
G04 #@! TO.P,MX6,2,ROW*
G04 #@! TO.N,Net-(D6-A)*
X198426250Y-34460000D03*
D11*
X198446250Y-34170000D03*
G04 #@! TD*
D10*
G04 #@! TO.P,MX38,1,COL*
G04 #@! TO.N,col7*
X230851251Y-74080000D03*
D11*
X231506250Y-73350000D03*
D12*
G04 #@! TO.P,MX38,2,ROW*
G04 #@! TO.N,Net-(D38-A)*
X236526250Y-72560000D03*
D11*
X236546250Y-72270000D03*
G04 #@! TD*
D10*
G04 #@! TO.P,MX68,1,COL*
G04 #@! TO.N,col13*
X349913751Y-116942500D03*
D11*
X350568750Y-116212500D03*
D12*
G04 #@! TO.P,MX68,2,ROW*
G04 #@! TO.N,Net-(D68-A)*
X355588750Y-115422500D03*
D11*
X355608750Y-115132500D03*
G04 #@! TD*
D10*
G04 #@! TO.P,MX42,1,COL*
G04 #@! TO.N,col11*
X307051251Y-74080000D03*
D11*
X307706250Y-73350000D03*
D12*
G04 #@! TO.P,MX42,2,ROW*
G04 #@! TO.N,Net-(D42-A)*
X312726250Y-72560000D03*
D11*
X312746250Y-72270000D03*
G04 #@! TD*
D10*
G04 #@! TO.P,MX60,1,COL*
G04 #@! TO.N,col2*
X135601251Y-112180000D03*
D11*
X136256250Y-111450000D03*
D12*
G04 #@! TO.P,MX60,2,ROW*
G04 #@! TO.N,Net-(D60-A)*
X141276250Y-110660000D03*
D11*
X141296250Y-110370000D03*
G04 #@! TD*
D10*
G04 #@! TO.P,MX48,1,COL*
G04 #@! TO.N,col3*
X154651251Y-93130000D03*
D11*
X155306250Y-92400000D03*
D12*
G04 #@! TO.P,MX48,2,ROW*
G04 #@! TO.N,Net-(D48-A)*
X160326250Y-91610000D03*
D11*
X160346250Y-91320000D03*
G04 #@! TD*
D10*
G04 #@! TO.P,MX67,1,COL*
G04 #@! TO.N,col12*
X330863751Y-116942500D03*
D11*
X331518750Y-116212500D03*
D12*
G04 #@! TO.P,MX67,2,ROW*
G04 #@! TO.N,Net-(D67-A)*
X336538750Y-115422500D03*
D11*
X336558750Y-115132500D03*
G04 #@! TD*
D10*
G04 #@! TO.P,MX40,1,COL*
G04 #@! TO.N,col9*
X268951251Y-74080000D03*
D11*
X269606250Y-73350000D03*
D12*
G04 #@! TO.P,MX40,2,ROW*
G04 #@! TO.N,Net-(D40-A)*
X274626250Y-72560000D03*
D11*
X274646250Y-72270000D03*
G04 #@! TD*
D10*
G04 #@! TO.P,MX39,1,COL*
G04 #@! TO.N,col8*
X249901251Y-74080000D03*
D11*
X250556250Y-73350000D03*
D12*
G04 #@! TO.P,MX39,2,ROW*
G04 #@! TO.N,Net-(D39-A)*
X255576250Y-72560000D03*
D11*
X255596250Y-72270000D03*
G04 #@! TD*
D10*
G04 #@! TO.P,MX30,1,COL*
G04 #@! TO.N,col14*
X371345001Y-55030000D03*
D11*
X372000000Y-54300000D03*
D12*
G04 #@! TO.P,MX30,2,ROW*
G04 #@! TO.N,Net-(D30-A)*
X377020000Y-53510000D03*
D11*
X377040000Y-53220000D03*
G04 #@! TD*
D10*
G04 #@! TO.P,MX56,1,COL*
G04 #@! TO.N,col11*
X307051251Y-93130000D03*
D11*
X307706250Y-92400000D03*
D12*
G04 #@! TO.P,MX56,2,ROW*
G04 #@! TO.N,Net-(D56-A)*
X312726250Y-91610000D03*
D11*
X312746250Y-91320000D03*
G04 #@! TD*
D10*
G04 #@! TO.P,MX14,1,COL*
G04 #@! TO.N,col13*
X345151251Y-35980000D03*
D11*
X345806250Y-35250000D03*
D12*
G04 #@! TO.P,MX14,2,ROW*
G04 #@! TO.N,Net-(D14-A)*
X350826250Y-34460000D03*
D11*
X350846250Y-34170000D03*
G04 #@! TD*
D10*
G04 #@! TO.P,MX24,1,COL*
G04 #@! TO.N,col8*
X249901251Y-55030000D03*
D11*
X250556250Y-54300000D03*
D12*
G04 #@! TO.P,MX24,2,ROW*
G04 #@! TO.N,Net-(D24-A)*
X255576250Y-53510000D03*
D11*
X255596250Y-53220000D03*
G04 #@! TD*
D10*
G04 #@! TO.P,MX22,1,COL*
G04 #@! TO.N,col6*
X211801251Y-55030000D03*
D11*
X212456250Y-54300000D03*
D12*
G04 #@! TO.P,MX22,2,ROW*
G04 #@! TO.N,Net-(D22-A)*
X217476250Y-53510000D03*
D11*
X217496250Y-53220000D03*
G04 #@! TD*
D15*
G04 #@! TO.P,D29,1,K*
G04 #@! TO.N,row1*
X356306250Y-60950000D03*
G04 #@! TO.P,D29,2,A*
G04 #@! TO.N,Net-(D29-A)*
X356306250Y-57650000D03*
G04 #@! TD*
G04 #@! TO.P,D30,1,K*
G04 #@! TO.N,row1*
X382500000Y-60950000D03*
G04 #@! TO.P,D30,2,A*
G04 #@! TO.N,Net-(D30-A)*
X382500000Y-57650000D03*
G04 #@! TD*
G04 #@! TO.P,D55,1,K*
G04 #@! TO.N,row3*
X299156250Y-99050000D03*
G04 #@! TO.P,D55,2,A*
G04 #@! TO.N,Net-(D55-A)*
X299156250Y-95750000D03*
G04 #@! TD*
G04 #@! TO.P,D11,1,K*
G04 #@! TO.N,row0*
X299156250Y-41900000D03*
G04 #@! TO.P,D11,2,A*
G04 #@! TO.N,Net-(D11-A)*
X299156250Y-38600000D03*
G04 #@! TD*
G04 #@! TO.P,D20,1,K*
G04 #@! TO.N,row1*
X184856250Y-60950000D03*
G04 #@! TO.P,D20,2,A*
G04 #@! TO.N,Net-(D20-A)*
X184856250Y-57650000D03*
G04 #@! TD*
G04 #@! TO.P,D25,1,K*
G04 #@! TO.N,row1*
X280106250Y-60950000D03*
G04 #@! TO.P,D25,2,A*
G04 #@! TO.N,Net-(D25-A)*
X280106250Y-57650000D03*
G04 #@! TD*
G04 #@! TO.P,D63,1,K*
G04 #@! TO.N,row4*
X244387500Y-118100000D03*
G04 #@! TO.P,D63,2,A*
G04 #@! TO.N,Net-(D63-A)*
X244387500Y-114800000D03*
G04 #@! TD*
G04 #@! TO.P,D18,1,K*
G04 #@! TO.N,row1*
X146756250Y-60950000D03*
G04 #@! TO.P,D18,2,A*
G04 #@! TO.N,Net-(D18-A)*
X146756250Y-57650000D03*
G04 #@! TD*
G04 #@! TO.P,D60,1,K*
G04 #@! TO.N,row4*
X146756250Y-118100000D03*
G04 #@! TO.P,D60,2,A*
G04 #@! TO.N,Net-(D60-A)*
X146756250Y-114800000D03*
G04 #@! TD*
G04 #@! TO.P,D26,1,K*
G04 #@! TO.N,row1*
X299156250Y-60950000D03*
G04 #@! TO.P,D26,2,A*
G04 #@! TO.N,Net-(D26-A)*
X299156250Y-57650000D03*
G04 #@! TD*
G04 #@! TO.P,D6,1,K*
G04 #@! TO.N,row0*
X203906250Y-41900000D03*
G04 #@! TO.P,D6,2,A*
G04 #@! TO.N,Net-(D6-A)*
X203906250Y-38600000D03*
G04 #@! TD*
G04 #@! TO.P,D34,1,K*
G04 #@! TO.N,row2*
X165806250Y-80000000D03*
G04 #@! TO.P,D34,2,A*
G04 #@! TO.N,Net-(D34-A)*
X165806250Y-76700000D03*
G04 #@! TD*
G04 #@! TO.P,D32,1,K*
G04 #@! TO.N,row2*
X120562500Y-80000000D03*
G04 #@! TO.P,D32,2,A*
G04 #@! TO.N,Net-(D32-A)*
X120562500Y-76700000D03*
G04 #@! TD*
G04 #@! TO.P,D57,1,K*
G04 #@! TO.N,row3*
X344400000Y-99050000D03*
G04 #@! TO.P,D57,2,A*
G04 #@! TO.N,Net-(D57-A)*
X344400000Y-95750000D03*
G04 #@! TD*
G04 #@! TO.P,D41,1,K*
G04 #@! TO.N,row2*
X299156250Y-80000000D03*
G04 #@! TO.P,D41,2,A*
G04 #@! TO.N,Net-(D41-A)*
X299156250Y-76700000D03*
G04 #@! TD*
G04 #@! TO.P,D35,1,K*
G04 #@! TO.N,row2*
X184856250Y-80000000D03*
G04 #@! TO.P,D35,2,A*
G04 #@! TO.N,Net-(D35-A)*
X184856250Y-76700000D03*
G04 #@! TD*
G04 #@! TO.P,D56,1,K*
G04 #@! TO.N,row3*
X318206250Y-99050000D03*
G04 #@! TO.P,D56,2,A*
G04 #@! TO.N,Net-(D56-A)*
X318206250Y-95750000D03*
G04 #@! TD*
G04 #@! TO.P,D47,1,K*
G04 #@! TO.N,row3*
X146756250Y-99050000D03*
G04 #@! TO.P,D47,2,A*
G04 #@! TO.N,Net-(D47-A)*
X146756250Y-95750000D03*
G04 #@! TD*
G04 #@! TO.P,D4,1,K*
G04 #@! TO.N,row0*
X165806250Y-41900000D03*
G04 #@! TO.P,D4,2,A*
G04 #@! TO.N,Net-(D4-A)*
X165806250Y-38600000D03*
G04 #@! TD*
G04 #@! TO.P,D24,1,K*
G04 #@! TO.N,row1*
X261056250Y-60950000D03*
G04 #@! TO.P,D24,2,A*
G04 #@! TO.N,Net-(D24-A)*
X261056250Y-57650000D03*
G04 #@! TD*
G04 #@! TO.P,D40,1,K*
G04 #@! TO.N,row2*
X280106250Y-80000000D03*
G04 #@! TO.P,D40,2,A*
G04 #@! TO.N,Net-(D40-A)*
X280106250Y-76700000D03*
G04 #@! TD*
G04 #@! TO.P,D44,1,K*
G04 #@! TO.N,row2*
X363450000Y-80000000D03*
G04 #@! TO.P,D44,2,A*
G04 #@! TO.N,Net-(D44-A)*
X363450000Y-76700000D03*
G04 #@! TD*
G04 #@! TO.P,D9,1,K*
G04 #@! TO.N,row0*
X261056250Y-41900000D03*
G04 #@! TO.P,D9,2,A*
G04 #@! TO.N,Net-(D9-A)*
X261056250Y-38600000D03*
G04 #@! TD*
G04 #@! TO.P,D2,1,K*
G04 #@! TO.N,row0*
X120562500Y-41900000D03*
G04 #@! TO.P,D2,2,A*
G04 #@! TO.N,Net-(D2-A)*
X120562500Y-38600000D03*
G04 #@! TD*
G04 #@! TO.P,D54,1,K*
G04 #@! TO.N,row3*
X280106250Y-99050000D03*
G04 #@! TO.P,D54,2,A*
G04 #@! TO.N,Net-(D54-A)*
X280106250Y-95750000D03*
G04 #@! TD*
G04 #@! TO.P,D65,1,K*
G04 #@! TO.N,row4*
X299156250Y-118100000D03*
G04 #@! TO.P,D65,2,A*
G04 #@! TO.N,Net-(D65-A)*
X299156250Y-114800000D03*
G04 #@! TD*
G04 #@! TO.P,D64,1,K*
G04 #@! TO.N,row4*
X280106250Y-118100000D03*
G04 #@! TO.P,D64,2,A*
G04 #@! TO.N,Net-(D64-A)*
X280106250Y-114800000D03*
G04 #@! TD*
G04 #@! TO.P,D59,1,K*
G04 #@! TO.N,row4*
X120562500Y-118100000D03*
G04 #@! TO.P,D59,2,A*
G04 #@! TO.N,Net-(D59-A)*
X120562500Y-114800000D03*
G04 #@! TD*
G04 #@! TO.P,D67,1,K*
G04 #@! TO.N,row4*
X342018750Y-122862500D03*
G04 #@! TO.P,D67,2,A*
G04 #@! TO.N,Net-(D67-A)*
X342018750Y-119562500D03*
G04 #@! TD*
G04 #@! TO.P,D21,1,K*
G04 #@! TO.N,row1*
X203906250Y-60950000D03*
G04 #@! TO.P,D21,2,A*
G04 #@! TO.N,Net-(D21-A)*
X203906250Y-57650000D03*
G04 #@! TD*
G04 #@! TO.P,D27,1,K*
G04 #@! TO.N,row1*
X318206250Y-60950000D03*
G04 #@! TO.P,D27,2,A*
G04 #@! TO.N,Net-(D27-A)*
X318206250Y-57650000D03*
G04 #@! TD*
G04 #@! TO.P,D53,1,K*
G04 #@! TO.N,row3*
X261056250Y-99050000D03*
G04 #@! TO.P,D53,2,A*
G04 #@! TO.N,Net-(D53-A)*
X261056250Y-95750000D03*
G04 #@! TD*
G04 #@! TO.P,D52,1,K*
G04 #@! TO.N,row3*
X242006250Y-99050000D03*
G04 #@! TO.P,D52,2,A*
G04 #@! TO.N,Net-(D52-A)*
X242006250Y-95750000D03*
G04 #@! TD*
G04 #@! TO.P,D31,1,K*
G04 #@! TO.N,row2*
X87225000Y-80000000D03*
G04 #@! TO.P,D31,2,A*
G04 #@! TO.N,Net-(D31-A)*
X87225000Y-76700000D03*
G04 #@! TD*
G04 #@! TO.P,D38,1,K*
G04 #@! TO.N,row2*
X242006250Y-80000000D03*
G04 #@! TO.P,D38,2,A*
G04 #@! TO.N,Net-(D38-A)*
X242006250Y-76700000D03*
G04 #@! TD*
G04 #@! TO.P,D14,1,K*
G04 #@! TO.N,row0*
X356306250Y-41900000D03*
G04 #@! TO.P,D14,2,A*
G04 #@! TO.N,Net-(D14-A)*
X356306250Y-38600000D03*
G04 #@! TD*
G04 #@! TO.P,D22,1,K*
G04 #@! TO.N,row1*
X222956250Y-60950000D03*
G04 #@! TO.P,D22,2,A*
G04 #@! TO.N,Net-(D22-A)*
X222956250Y-57650000D03*
G04 #@! TD*
G04 #@! TO.P,D12,1,K*
G04 #@! TO.N,row0*
X318206250Y-41900000D03*
G04 #@! TO.P,D12,2,A*
G04 #@! TO.N,Net-(D12-A)*
X318206250Y-38600000D03*
G04 #@! TD*
G04 #@! TO.P,D58,1,K*
G04 #@! TO.N,row4*
X87225000Y-118100000D03*
G04 #@! TO.P,D58,2,A*
G04 #@! TO.N,Net-(D58-A)*
X87225000Y-114800000D03*
G04 #@! TD*
G04 #@! TO.P,D50,1,K*
G04 #@! TO.N,row3*
X203906250Y-99050000D03*
G04 #@! TO.P,D50,2,A*
G04 #@! TO.N,Net-(D50-A)*
X203906250Y-95750000D03*
G04 #@! TD*
G04 #@! TO.P,D17,1,K*
G04 #@! TO.N,row1*
X120562500Y-60950000D03*
G04 #@! TO.P,D17,2,A*
G04 #@! TO.N,Net-(D17-A)*
X120562500Y-57650000D03*
G04 #@! TD*
G04 #@! TO.P,D10,1,K*
G04 #@! TO.N,row0*
X280106250Y-41900000D03*
G04 #@! TO.P,D10,2,A*
G04 #@! TO.N,Net-(D10-A)*
X280106250Y-38600000D03*
G04 #@! TD*
G04 #@! TO.P,D43,1,K*
G04 #@! TO.N,row2*
X337256250Y-80000000D03*
G04 #@! TO.P,D43,2,A*
G04 #@! TO.N,Net-(D43-A)*
X337256250Y-76700000D03*
G04 #@! TD*
G04 #@! TO.P,D49,1,K*
G04 #@! TO.N,row3*
X184856250Y-99050000D03*
G04 #@! TO.P,D49,2,A*
G04 #@! TO.N,Net-(D49-A)*
X184856250Y-95750000D03*
G04 #@! TD*
G04 #@! TO.P,D51,1,K*
G04 #@! TO.N,row3*
X222956250Y-99050000D03*
G04 #@! TO.P,D51,2,A*
G04 #@! TO.N,Net-(D51-A)*
X222956250Y-95750000D03*
G04 #@! TD*
G04 #@! TO.P,D3,1,K*
G04 #@! TO.N,row0*
X146756250Y-41900000D03*
G04 #@! TO.P,D3,2,A*
G04 #@! TO.N,Net-(D3-A)*
X146756250Y-38600000D03*
G04 #@! TD*
G04 #@! TO.P,D66,1,K*
G04 #@! TO.N,row4*
X322968750Y-122862500D03*
G04 #@! TO.P,D66,2,A*
G04 #@! TO.N,Net-(D66-A)*
X322968750Y-119562500D03*
G04 #@! TD*
G04 #@! TO.P,D45,1,K*
G04 #@! TO.N,row3*
X87225000Y-99050000D03*
G04 #@! TO.P,D45,2,A*
G04 #@! TO.N,Net-(D45-A)*
X87225000Y-95750000D03*
G04 #@! TD*
G04 #@! TO.P,D15,1,K*
G04 #@! TO.N,row0*
X382500000Y-41900000D03*
G04 #@! TO.P,D15,2,A*
G04 #@! TO.N,Net-(D15-A)*
X382500000Y-38600000D03*
G04 #@! TD*
G04 #@! TO.P,D42,1,K*
G04 #@! TO.N,row2*
X318206250Y-80000000D03*
G04 #@! TO.P,D42,2,A*
G04 #@! TO.N,Net-(D42-A)*
X318206250Y-76700000D03*
G04 #@! TD*
G04 #@! TO.P,D48,1,K*
G04 #@! TO.N,row3*
X165806250Y-99050000D03*
G04 #@! TO.P,D48,2,A*
G04 #@! TO.N,Net-(D48-A)*
X165806250Y-95750000D03*
G04 #@! TD*
G04 #@! TO.P,D1,1,K*
G04 #@! TO.N,row0*
X87225000Y-41900000D03*
G04 #@! TO.P,D1,2,A*
G04 #@! TO.N,Net-(D1-A)*
X87225000Y-38600000D03*
G04 #@! TD*
G04 #@! TO.P,D68,1,K*
G04 #@! TO.N,row4*
X361068750Y-122862500D03*
G04 #@! TO.P,D68,2,A*
G04 #@! TO.N,Net-(D68-A)*
X361068750Y-119562500D03*
G04 #@! TD*
G04 #@! TO.P,D61,1,K*
G04 #@! TO.N,row4*
X165806250Y-118100000D03*
G04 #@! TO.P,D61,2,A*
G04 #@! TO.N,Net-(D61-A)*
X165806250Y-114800000D03*
G04 #@! TD*
G04 #@! TO.P,D19,1,K*
G04 #@! TO.N,row1*
X165806250Y-60950000D03*
G04 #@! TO.P,D19,2,A*
G04 #@! TO.N,Net-(D19-A)*
X165806250Y-57650000D03*
G04 #@! TD*
G04 #@! TO.P,D69,1,K*
G04 #@! TO.N,row4*
X380118750Y-122862500D03*
G04 #@! TO.P,D69,2,A*
G04 #@! TO.N,Net-(D69-A)*
X380118750Y-119562500D03*
G04 #@! TD*
G04 #@! TO.P,D16,1,K*
G04 #@! TO.N,row1*
X87225000Y-60950000D03*
G04 #@! TO.P,D16,2,A*
G04 #@! TO.N,Net-(D16-A)*
X87225000Y-57650000D03*
G04 #@! TD*
G04 #@! TO.P,D5,1,K*
G04 #@! TO.N,row0*
X184856250Y-41900000D03*
G04 #@! TO.P,D5,2,A*
G04 #@! TO.N,Net-(D5-A)*
X184856250Y-38600000D03*
G04 #@! TD*
G04 #@! TO.P,D33,1,K*
G04 #@! TO.N,row2*
X146756250Y-80000000D03*
G04 #@! TO.P,D33,2,A*
G04 #@! TO.N,Net-(D33-A)*
X146756250Y-76700000D03*
G04 #@! TD*
G04 #@! TO.P,D8,1,K*
G04 #@! TO.N,row0*
X242006250Y-41900000D03*
G04 #@! TO.P,D8,2,A*
G04 #@! TO.N,Net-(D8-A)*
X242006250Y-38600000D03*
G04 #@! TD*
G04 #@! TO.P,D37,1,K*
G04 #@! TO.N,row2*
X222956250Y-80000000D03*
G04 #@! TO.P,D37,2,A*
G04 #@! TO.N,Net-(D37-A)*
X222956250Y-76700000D03*
G04 #@! TD*
G04 #@! TO.P,D46,1,K*
G04 #@! TO.N,row3*
X120562500Y-99050000D03*
G04 #@! TO.P,D46,2,A*
G04 #@! TO.N,Net-(D46-A)*
X120562500Y-95750000D03*
G04 #@! TD*
G04 #@! TO.P,D62,1,K*
G04 #@! TO.N,row4*
X196762500Y-118100000D03*
G04 #@! TO.P,D62,2,A*
G04 #@! TO.N,Net-(D62-A)*
X196762500Y-114800000D03*
G04 #@! TD*
G04 #@! TO.P,D39,1,K*
G04 #@! TO.N,row2*
X261056250Y-80000000D03*
G04 #@! TO.P,D39,2,A*
G04 #@! TO.N,Net-(D39-A)*
X261056250Y-76700000D03*
G04 #@! TD*
G04 #@! TO.P,D7,1,K*
G04 #@! TO.N,row0*
X222956250Y-41900000D03*
G04 #@! TO.P,D7,2,A*
G04 #@! TO.N,Net-(D7-A)*
X222956250Y-38600000D03*
G04 #@! TD*
G04 #@! TO.P,D23,1,K*
G04 #@! TO.N,row1*
X242006250Y-60950000D03*
G04 #@! TO.P,D23,2,A*
G04 #@! TO.N,Net-(D23-A)*
X242006250Y-57650000D03*
G04 #@! TD*
G04 #@! TO.P,D28,1,K*
G04 #@! TO.N,row1*
X337256250Y-60950000D03*
G04 #@! TO.P,D28,2,A*
G04 #@! TO.N,Net-(D28-A)*
X337256250Y-57650000D03*
G04 #@! TD*
G04 #@! TO.P,D13,1,K*
G04 #@! TO.N,row0*
X337256250Y-41900000D03*
G04 #@! TO.P,D13,2,A*
G04 #@! TO.N,Net-(D13-A)*
X337256250Y-38600000D03*
G04 #@! TD*
G04 #@! TO.P,D36,1,K*
G04 #@! TO.N,row2*
X203906250Y-80000000D03*
G04 #@! TO.P,D36,2,A*
G04 #@! TO.N,Net-(D36-A)*
X203906250Y-76700000D03*
G04 #@! TD*
D16*
G04 #@! TO.N,row0*
X120562500Y-41900000D02*
X146756250Y-41900000D01*
X280106250Y-41900000D02*
X299156250Y-41900000D01*
X337256250Y-41900000D02*
X356306250Y-41900000D01*
X165806250Y-41900000D02*
X184856250Y-41900000D01*
X184856250Y-41900000D02*
X203906250Y-41900000D01*
X261056250Y-41900000D02*
X280106250Y-41900000D01*
X83350000Y-41900000D02*
X61230000Y-64020000D01*
X318206250Y-41900000D02*
X337256250Y-41900000D01*
X61230000Y-64020000D02*
X58500000Y-64020000D01*
X356306250Y-41900000D02*
X382500000Y-41900000D01*
X299156250Y-41900000D02*
X318206250Y-41900000D01*
X87225000Y-41900000D02*
X83350000Y-41900000D01*
X146756250Y-41900000D02*
X165806250Y-41900000D01*
X242006250Y-41900000D02*
X261056250Y-41900000D01*
X203906250Y-41900000D02*
X222956250Y-41900000D01*
X222956250Y-41900000D02*
X242006250Y-41900000D01*
X120562500Y-41900000D02*
X87225000Y-41900000D01*
G04 #@! TO.N,Net-(D1-A)*
X87225000Y-38475000D02*
X83500000Y-34750000D01*
X87225000Y-38600000D02*
X87225000Y-38475000D01*
X83500000Y-34750000D02*
X81725000Y-34750000D01*
G04 #@! TO.N,Net-(D2-A)*
X115062500Y-34750000D02*
X116712500Y-34750000D01*
X116712500Y-34750000D02*
X120562500Y-38600000D01*
G04 #@! TO.N,Net-(D3-A)*
X142906250Y-34750000D02*
X146756250Y-38600000D01*
X141256250Y-34750000D02*
X142906250Y-34750000D01*
G04 #@! TO.N,Net-(D4-A)*
X161956250Y-34750000D02*
X165806250Y-38600000D01*
X160306250Y-34750000D02*
X161956250Y-34750000D01*
G04 #@! TO.N,Net-(D5-A)*
X181006250Y-34750000D02*
X184856250Y-38600000D01*
X179356250Y-34750000D02*
X181006250Y-34750000D01*
G04 #@! TO.N,Net-(D6-A)*
X200056250Y-34750000D02*
X203906250Y-38600000D01*
X198406250Y-34750000D02*
X200056250Y-34750000D01*
G04 #@! TO.N,Net-(D7-A)*
X219106250Y-34750000D02*
X222956250Y-38600000D01*
X217456250Y-34750000D02*
X219106250Y-34750000D01*
G04 #@! TO.N,Net-(D8-A)*
X236506250Y-34750000D02*
X238156250Y-34750000D01*
X238156250Y-34750000D02*
X242006250Y-38600000D01*
G04 #@! TO.N,Net-(D9-A)*
X257206250Y-34750000D02*
X261056250Y-38600000D01*
X255556250Y-34750000D02*
X257206250Y-34750000D01*
G04 #@! TO.N,Net-(D10-A)*
X274606250Y-34750000D02*
X276256250Y-34750000D01*
X276256250Y-34750000D02*
X280106250Y-38600000D01*
G04 #@! TO.N,Net-(D11-A)*
X293656250Y-34750000D02*
X295306250Y-34750000D01*
X295306250Y-34750000D02*
X299156250Y-38600000D01*
G04 #@! TO.N,Net-(D12-A)*
X314356250Y-34750000D02*
X318206250Y-38600000D01*
X312706250Y-34750000D02*
X314356250Y-34750000D01*
G04 #@! TO.N,Net-(D13-A)*
X331756250Y-34750000D02*
X333406250Y-34750000D01*
X333406250Y-34750000D02*
X337256250Y-38600000D01*
G04 #@! TO.N,Net-(D14-A)*
X350806250Y-34750000D02*
X352456250Y-34750000D01*
X352456250Y-34750000D02*
X356306250Y-38600000D01*
G04 #@! TO.N,Net-(D15-A)*
X377000000Y-34750000D02*
X378650000Y-34750000D01*
X378650000Y-34750000D02*
X382500000Y-38600000D01*
G04 #@! TO.N,row1*
X184856250Y-60950000D02*
X203906250Y-60950000D01*
X66925000Y-60950000D02*
X61315000Y-66560000D01*
X337256250Y-60950000D02*
X356306250Y-60950000D01*
X242006250Y-60950000D02*
X261056250Y-60950000D01*
X120562500Y-60950000D02*
X146756250Y-60950000D01*
X222956250Y-60950000D02*
X242006250Y-60950000D01*
X299156250Y-60950000D02*
X318206250Y-60950000D01*
X203906250Y-60950000D02*
X222956250Y-60950000D01*
X146756250Y-60950000D02*
X165806250Y-60950000D01*
X120562500Y-60950000D02*
X87225000Y-60950000D01*
X261056250Y-60950000D02*
X280106250Y-60950000D01*
X318206250Y-60950000D02*
X337256250Y-60950000D01*
X61315000Y-66560000D02*
X58500000Y-66560000D01*
X356306250Y-60950000D02*
X382500000Y-60950000D01*
X87225000Y-60950000D02*
X66925000Y-60950000D01*
X280106250Y-60950000D02*
X299156250Y-60950000D01*
X165806250Y-60950000D02*
X184856250Y-60950000D01*
G04 #@! TO.N,Net-(D16-A)*
X81725000Y-53800000D02*
X83375000Y-53800000D01*
X83375000Y-53800000D02*
X87225000Y-57650000D01*
G04 #@! TO.N,Net-(D17-A)*
X115062500Y-53800000D02*
X116712500Y-53800000D01*
X116712500Y-53800000D02*
X120562500Y-57650000D01*
G04 #@! TO.N,Net-(D18-A)*
X142906250Y-53800000D02*
X146756250Y-57650000D01*
X141256250Y-53800000D02*
X142906250Y-53800000D01*
G04 #@! TO.N,Net-(D19-A)*
X161956250Y-53800000D02*
X165806250Y-57650000D01*
X160306250Y-53800000D02*
X161956250Y-53800000D01*
G04 #@! TO.N,Net-(D20-A)*
X181006250Y-53800000D02*
X184856250Y-57650000D01*
X179356250Y-53800000D02*
X181006250Y-53800000D01*
G04 #@! TO.N,Net-(D21-A)*
X198406250Y-53800000D02*
X200056250Y-53800000D01*
X200056250Y-53800000D02*
X203906250Y-57650000D01*
G04 #@! TO.N,Net-(D22-A)*
X217456250Y-53800000D02*
X219106250Y-53800000D01*
X219106250Y-53800000D02*
X222956250Y-57650000D01*
G04 #@! TO.N,Net-(D23-A)*
X236506250Y-53800000D02*
X238156250Y-53800000D01*
X238156250Y-53800000D02*
X242006250Y-57650000D01*
G04 #@! TO.N,Net-(D24-A)*
X255556250Y-53800000D02*
X257206250Y-53800000D01*
X257206250Y-53800000D02*
X261056250Y-57650000D01*
G04 #@! TO.N,Net-(D25-A)*
X274606250Y-53800000D02*
X276256250Y-53800000D01*
X276256250Y-53800000D02*
X280106250Y-57650000D01*
G04 #@! TO.N,Net-(D26-A)*
X295306250Y-53800000D02*
X299156250Y-57650000D01*
X293656250Y-53800000D02*
X295306250Y-53800000D01*
G04 #@! TO.N,Net-(D27-A)*
X314356250Y-53800000D02*
X318206250Y-57650000D01*
X312706250Y-53800000D02*
X314356250Y-53800000D01*
G04 #@! TO.N,Net-(D28-A)*
X331756250Y-53800000D02*
X333406250Y-53800000D01*
X333406250Y-53800000D02*
X337256250Y-57650000D01*
G04 #@! TO.N,Net-(D29-A)*
X350806250Y-53800000D02*
X352456250Y-53800000D01*
X352456250Y-53800000D02*
X356306250Y-57650000D01*
G04 #@! TO.N,Net-(D30-A)*
X378650000Y-53800000D02*
X382500000Y-57650000D01*
X377000000Y-53800000D02*
X378650000Y-53800000D01*
G04 #@! TO.N,Net-(D31-A)*
X83375000Y-72850000D02*
X87225000Y-76700000D01*
X81725000Y-72850000D02*
X83375000Y-72850000D01*
G04 #@! TO.N,row2*
X242006250Y-80000000D02*
X261056250Y-80000000D01*
X261056250Y-80000000D02*
X280106250Y-80000000D01*
X222956250Y-80000000D02*
X242006250Y-80000000D01*
X318206250Y-80000000D02*
X337256250Y-80000000D01*
X72250000Y-80000000D02*
X61350000Y-69100000D01*
X203906250Y-80000000D02*
X222956250Y-80000000D01*
X165806250Y-80000000D02*
X184856250Y-80000000D01*
X299156250Y-80000000D02*
X318206250Y-80000000D01*
X146756250Y-80000000D02*
X165806250Y-80000000D01*
X61350000Y-69100000D02*
X58500000Y-69100000D01*
X184856250Y-80000000D02*
X203906250Y-80000000D01*
X120562500Y-80000000D02*
X87225000Y-80000000D01*
X120562500Y-80000000D02*
X146756250Y-80000000D01*
X337256250Y-80000000D02*
X363450000Y-80000000D01*
X87225000Y-80000000D02*
X72250000Y-80000000D01*
X280106250Y-80000000D02*
X299156250Y-80000000D01*
G04 #@! TO.N,Net-(D32-A)*
X115062500Y-72850000D02*
X116712500Y-72850000D01*
X116712500Y-72850000D02*
X120562500Y-76700000D01*
G04 #@! TO.N,Net-(D33-A)*
X141256250Y-72850000D02*
X142906250Y-72850000D01*
X142906250Y-72850000D02*
X146756250Y-76700000D01*
G04 #@! TO.N,Net-(D34-A)*
X160306250Y-72850000D02*
X161956250Y-72850000D01*
X161956250Y-72850000D02*
X165806250Y-76700000D01*
G04 #@! TO.N,Net-(D35-A)*
X181006250Y-72850000D02*
X184856250Y-76700000D01*
X179356250Y-72850000D02*
X181006250Y-72850000D01*
G04 #@! TO.N,Net-(D36-A)*
X198406250Y-72850000D02*
X200056250Y-72850000D01*
X200056250Y-72850000D02*
X203906250Y-76700000D01*
G04 #@! TO.N,Net-(D37-A)*
X217456250Y-72850000D02*
X219106250Y-72850000D01*
X219106250Y-72850000D02*
X222956250Y-76700000D01*
G04 #@! TO.N,Net-(D38-A)*
X238156250Y-72850000D02*
X242006250Y-76700000D01*
X236506250Y-72850000D02*
X238156250Y-72850000D01*
G04 #@! TO.N,Net-(D39-A)*
X257206250Y-72850000D02*
X261056250Y-76700000D01*
X255556250Y-72850000D02*
X257206250Y-72850000D01*
G04 #@! TO.N,Net-(D40-A)*
X276256250Y-72850000D02*
X280106250Y-76700000D01*
X274606250Y-72850000D02*
X276256250Y-72850000D01*
G04 #@! TO.N,Net-(D41-A)*
X295306250Y-72850000D02*
X299156250Y-76700000D01*
X293656250Y-72850000D02*
X295306250Y-72850000D01*
G04 #@! TO.N,Net-(D42-A)*
X314356250Y-72850000D02*
X318206250Y-76700000D01*
X312706250Y-72850000D02*
X314356250Y-72850000D01*
G04 #@! TO.N,Net-(D43-A)*
X331756250Y-72850000D02*
X333406250Y-72850000D01*
X333406250Y-72850000D02*
X337256250Y-76700000D01*
G04 #@! TO.N,Net-(D44-A)*
X359600000Y-72850000D02*
X363450000Y-76700000D01*
X357950000Y-72850000D02*
X359600000Y-72850000D01*
G04 #@! TO.N,Net-(D45-A)*
X83375000Y-91900000D02*
X87225000Y-95750000D01*
X81725000Y-91900000D02*
X83375000Y-91900000D01*
G04 #@! TO.N,Net-(D46-A)*
X116712500Y-91900000D02*
X120562500Y-95750000D01*
X115062500Y-91900000D02*
X116712500Y-91900000D01*
G04 #@! TO.N,Net-(D47-A)*
X142906250Y-91900000D02*
X146756250Y-95750000D01*
X141256250Y-91900000D02*
X142906250Y-91900000D01*
G04 #@! TO.N,Net-(D48-A)*
X160306250Y-91900000D02*
X161956250Y-91900000D01*
X161956250Y-91900000D02*
X165806250Y-95750000D01*
G04 #@! TO.N,Net-(D49-A)*
X179356250Y-91900000D02*
X181006250Y-91900000D01*
X181006250Y-91900000D02*
X184856250Y-95750000D01*
G04 #@! TO.N,Net-(D50-A)*
X200056250Y-91900000D02*
X203906250Y-95750000D01*
X198406250Y-91900000D02*
X200056250Y-91900000D01*
G04 #@! TO.N,Net-(D51-A)*
X217456250Y-91900000D02*
X219106250Y-91900000D01*
X219106250Y-91900000D02*
X222956250Y-95750000D01*
G04 #@! TO.N,Net-(D52-A)*
X238156250Y-91900000D02*
X242006250Y-95750000D01*
X236506250Y-91900000D02*
X238156250Y-91900000D01*
G04 #@! TO.N,Net-(D53-A)*
X255556250Y-91900000D02*
X257206250Y-91900000D01*
X257206250Y-91900000D02*
X261056250Y-95750000D01*
G04 #@! TO.N,Net-(D54-A)*
X274606250Y-91900000D02*
X276256250Y-91900000D01*
X276256250Y-91900000D02*
X280106250Y-95750000D01*
G04 #@! TO.N,Net-(D55-A)*
X293656250Y-91900000D02*
X295306250Y-91900000D01*
X295306250Y-91900000D02*
X299156250Y-95750000D01*
G04 #@! TO.N,Net-(D56-A)*
X314356250Y-91900000D02*
X318206250Y-95750000D01*
X312706250Y-91900000D02*
X314356250Y-91900000D01*
G04 #@! TO.N,Net-(D57-A)*
X340550000Y-91900000D02*
X344400000Y-95750000D01*
X338900000Y-91900000D02*
X340550000Y-91900000D01*
G04 #@! TO.N,row4*
X196762500Y-118100000D02*
X244387500Y-118100000D01*
X342018750Y-122862500D02*
X361068750Y-122862500D01*
X361068750Y-122862500D02*
X380118750Y-122862500D01*
X61220000Y-76720000D02*
X58500000Y-76720000D01*
X87225000Y-118100000D02*
X120562500Y-118100000D01*
X322968750Y-122862500D02*
X342018750Y-122862500D01*
X87225000Y-118100000D02*
X72100000Y-118100000D01*
X165806250Y-118100000D02*
X196762500Y-118100000D01*
X68250000Y-114250000D02*
X68250000Y-83750000D01*
X244387500Y-118100000D02*
X280106250Y-118100000D01*
X68250000Y-83750000D02*
X61220000Y-76720000D01*
X303918750Y-122862500D02*
X322968750Y-122862500D01*
X72100000Y-118100000D02*
X68250000Y-114250000D01*
X280106250Y-118100000D02*
X299156250Y-118100000D01*
X146756250Y-118100000D02*
X165806250Y-118100000D01*
X120562500Y-118100000D02*
X146756250Y-118100000D01*
X299156250Y-118100000D02*
X303918750Y-122862500D01*
G04 #@! TO.N,Net-(D58-A)*
X81725000Y-110950000D02*
X83375000Y-110950000D01*
X83375000Y-110950000D02*
X87225000Y-114800000D01*
G04 #@! TO.N,Net-(D59-A)*
X116712500Y-110950000D02*
X120562500Y-114800000D01*
X115062500Y-110950000D02*
X116712500Y-110950000D01*
G04 #@! TO.N,Net-(D60-A)*
X142906250Y-110950000D02*
X146756250Y-114800000D01*
X141256250Y-110950000D02*
X142906250Y-110950000D01*
G04 #@! TO.N,Net-(D61-A)*
X160306250Y-110950000D02*
X161956250Y-110950000D01*
X161956250Y-110950000D02*
X165806250Y-114800000D01*
G04 #@! TO.N,Net-(D62-A)*
X192912500Y-110950000D02*
X196762500Y-114800000D01*
X191262500Y-110950000D02*
X192912500Y-110950000D01*
G04 #@! TO.N,Net-(D63-A)*
X240537500Y-110950000D02*
X244387500Y-114800000D01*
X238887500Y-110950000D02*
X240537500Y-110950000D01*
G04 #@! TO.N,Net-(D64-A)*
X280050000Y-114800000D02*
X280106250Y-114800000D01*
X274606250Y-110950000D02*
X276200000Y-110950000D01*
X276200000Y-110950000D02*
X280050000Y-114800000D01*
G04 #@! TO.N,Net-(D65-A)*
X293656250Y-110950000D02*
X295306250Y-110950000D01*
X295306250Y-110950000D02*
X299156250Y-114800000D01*
G04 #@! TO.N,Net-(D66-A)*
X317468750Y-115712500D02*
X319118750Y-115712500D01*
X319118750Y-115712500D02*
X322968750Y-119562500D01*
G04 #@! TO.N,Net-(D67-A)*
X336518750Y-115712500D02*
X338168750Y-115712500D01*
X338168750Y-115712500D02*
X342018750Y-119562500D01*
G04 #@! TO.N,Net-(D68-A)*
X355568750Y-115712500D02*
X357218750Y-115712500D01*
X357218750Y-115712500D02*
X361068750Y-119562500D01*
G04 #@! TO.N,Net-(D69-A)*
X374618750Y-115712500D02*
X376268750Y-115712500D01*
X376268750Y-115712500D02*
X380118750Y-119562500D01*
G04 #@! TO.N,row3*
X87225000Y-99050000D02*
X72050000Y-99050000D01*
X203906250Y-99050000D02*
X222956250Y-99050000D01*
X120562500Y-99050000D02*
X146756250Y-99050000D01*
X87225000Y-99050000D02*
X120562500Y-99050000D01*
X165806250Y-99050000D02*
X184856250Y-99050000D01*
X146756250Y-99050000D02*
X165806250Y-99050000D01*
X242006250Y-99050000D02*
X261056250Y-99050000D01*
X222956250Y-99050000D02*
X242006250Y-99050000D01*
X261056250Y-99050000D02*
X280106250Y-99050000D01*
X72050000Y-99050000D02*
X70000000Y-97000000D01*
X299156250Y-99050000D02*
X318206250Y-99050000D01*
X280106250Y-99050000D02*
X299156250Y-99050000D01*
X184856250Y-99050000D02*
X203906250Y-99050000D01*
X70000000Y-97000000D02*
X70000000Y-80250000D01*
X318206250Y-99050000D02*
X344400000Y-99050000D01*
X70000000Y-80250000D02*
X61390000Y-71640000D01*
X61390000Y-71640000D02*
X58500000Y-71640000D01*
G04 #@! TD*
M02*
